<?xml version="1.0" encoding="UTF-8"?>
<!-- Generator: visioncortex VTracer 0.6.4 -->
<svg version="1.1" xmlns="http://www.w3.org/2000/svg" width="240" height="240">
<path d="M0 0 C-0.035156 2.046875 -0.035156 2.046875 -1 4 C-1.99 4.33 -2.98 4.66 -4 5 C-4.738193 7.072383 -4.738193 7.072383 -4.9375 9.5 C-5.049648 10.314687 -5.161797 11.129375 -5.277344 11.96875 C-5.18582 12.639063 -5.094297 13.309375 -5 14 C-3.045681 14.633116 -3.045681 14.633116 -1 15 C-0.375 17.9375 -0.375 17.9375 -1 21 C-1.99 21.2475 -2.98 21.495 -4 21.75 C-4.99 22.1625 -5.98 22.575 -7 23 C-7.347132 25.559517 -7.179738 27.943704 -7.027344 30.519531 C-6.990902 33.825358 -7.837536 35.528613 -10 38 C-12.640681 39.912217 -13.934491 40.00126 -17.25 39.9375 C-18.1575 39.958125 -19.065 39.97875 -20 40 C-20 40.99 -20 41.98 -20 43 C-20.99 43 -21.98 43 -23 43 C-22.053245 45.609118 -21.012932 48.006285 -19.8125 50.5 C-13.217556 64.384093 -11.205343 80.073587 -15.6875 95.0625 C-17.126791 99.020551 -18.785681 102.876588 -20.4375 106.75 C-26.453361 121.095516 -28.800424 134.719201 -30.012207 150.135986 C-31.33904 166.717245 -31.33904 166.717245 -34.523438 171.09375 C-39.61754 174.962688 -43.778276 175.795232 -50.152344 175.464844 C-54.304523 174.787053 -56.653371 173.546348 -60 171 C-62.465814 167.30128 -62.358818 165.036671 -62.5625 160.625 C-62.685381 158.08212 -62.829395 155.540124 -63 153 C-63.050273 152.062852 -63.100547 151.125703 -63.152344 150.160156 C-63.842935 147.709036 -63.842935 147.709036 -66.6875 146.582031 C-71.334463 145.48982 -71.334463 145.48982 -76 146 C-77.176511 149.519435 -77.059869 152.595154 -77.015625 156.296875 C-76.991595 161.992029 -78.332015 166.028745 -82.0625 170.4375 C-85.415388 173.141442 -87.614461 173.161458 -91.875 173.1875 C-92.924297 173.20168 -93.973594 173.215859 -95.054688 173.230469 C-97.976806 173.001815 -99.564335 172.576018 -102 171 C-104.144088 168.473039 -105.059775 166.878556 -104.832031 163.53125 C-104.743086 162.675312 -104.654141 161.819375 -104.5625 160.9375 C-104.779063 158.988438 -104.779063 158.988438 -105 157 C-107.784744 157.419547 -109.923824 158.526699 -112.421875 159.808594 C-115 161 -115 161 -119 161 C-119.531309 163.834798 -119.531309 163.834798 -119.320312 167.386719 C-119.309909 168.040742 -119.299506 168.694765 -119.288788 169.368607 C-119.252956 171.475779 -119.190699 173.581063 -119.125 175.6875 C-119.06963 177.775912 -119.020114 179.864023 -118.982635 181.952835 C-118.946949 183.861668 -118.892146 185.770114 -118.836426 187.678467 C-119.035874 191.72846 -119.675033 194.713161 -122.628906 197.582031 C-127.824223 200.888142 -131.878826 201.981094 -138 201 C-141.772746 200.079818 -144.861602 199.17812 -147.602295 196.341797 C-149.471623 193.209815 -149.247791 191.10982 -149.089844 187.484375 C-149.071152 186.233984 -149.052461 184.983594 -149.033203 183.695312 C-148.968996 181.048408 -148.869579 178.402141 -148.736328 175.757812 C-148.697036 170.757269 -148.697036 170.757269 -150 166 C-153.203892 164.944777 -155.569851 165.195526 -158.903809 165.624512 C-161.891447 165.986835 -163.410717 165.759633 -166.199219 164.835938 C-167.123477 164.890078 -168.047734 164.944219 -169 165 C-170.086774 168.485203 -169.882374 172.005094 -169.8125 175.625 C-169.811218 177.638031 -169.817483 179.651084 -169.832031 181.664062 C-169.818899 182.565923 -169.805767 183.467783 -169.792236 184.396973 C-170.103849 188.301096 -171.008971 191.104877 -173.9375 193.75 C-178.700414 196.636615 -183.599433 196.470345 -189 196 C-194.299451 194.107339 -194.299451 194.107339 -196.116699 191.234863 C-197.160518 188.593869 -197.417193 186.323679 -197.632812 183.492188 C-197.758496 181.887305 -197.758496 181.887305 -197.886719 180.25 C-198.004668 178.579375 -198.004668 178.579375 -198.125 176.875 C-198.211367 175.784453 -198.297734 174.693906 -198.386719 173.570312 C-198.7738 168.433802 -198.99941 163.46662 -198.742188 158.320312 C-198.654584 155.974211 -198.654584 155.974211 -199 154 C-201.175625 152.426917 -201.175625 152.426917 -204 152 C-215.910543 144.072591 -223.938096 133.565026 -227.613281 119.683594 C-229.71841 105.075278 -227.930759 90.641511 -220 78 C-218.476968 76.213115 -216.935014 74.442192 -215.375 72.6875 C-213.275338 70.347642 -213.275338 70.347642 -212 68 C-213.75 64.75 -213.75 64.75 -217 63 C-218 62 -218 62 -218.5 58.6875 C-218.40767 52.212877 -214.423705 47.245375 -211 42 C-210.316797 40.912031 -209.633594 39.824062 -208.929688 38.703125 C-200.607203 25.72891 -200.607203 25.72891 -193 24 C-187.956996 24.364893 -184.873222 25.058416 -181.355469 28.851562 C-178.321226 31.335022 -178.321226 31.335022 -175.679932 30.563232 C-172.943689 29.452259 -170.362878 28.188591 -167.75 26.8125 C-165.95422 25.920969 -164.157395 25.031537 -162.359375 24.144531 C-161.570146 23.735657 -160.780918 23.326782 -159.967773 22.905518 C-158 22 -158 22 -156 22 C-156.991458 18.110433 -157.67729 15.809774 -161.175781 13.667969 C-162.774014 12.905813 -164.395782 12.190689 -166.039062 11.53125 C-168 10 -168 10 -169.453125 6.394531 C-169.303594 5.274336 -169.154063 4.154141 -169 3 C-165.457924 1.768013 -161.833416 2.065849 -158.125 2.1875 C-156.490872 2.213845 -156.490872 2.213845 -154.82373 2.240723 C-145.502417 2.584435 -132.960913 4.039087 -126 11 C-123.354157 11.01417 -123.354157 11.01417 -120.125 10.625 C-101.504117 9.048479 -81.650979 8.164738 -63.597656 13.742188 C-63.07043 13.827266 -62.543203 13.912344 -62 14 C-61.393973 11.638046 -61.393973 11.638046 -61 9 C-51.470924 2.647283 -36.468133 6.015911 -25.824219 7.953125 C-24.892227 7.968594 -23.960234 7.984063 -23 8 C-23 6.68 -23 5.36 -23 4 C-24.966729 2.849917 -24.966729 2.849917 -27 2 C-27 1.34 -27 0.68 -27 0 C-18.85272 -4.111359 -8.082453 -4.678396 0 0 Z M-17 27 C-17.66 28.32 -18.32 29.64 -19 31 C-18.01 30.67 -17.02 30.34 -16 30 C-16.33 29.01 -16.66 28.02 -17 27 Z " fill="#BD3C3C" transform="translate(237,26)"/>
<path d="M0 0 C-0.035156 2.046875 -0.035156 2.046875 -1 4 C-1.99 4.33 -2.98 4.66 -4 5 C-4.738193 7.072383 -4.738193 7.072383 -4.9375 9.5 C-5.049648 10.314687 -5.161797 11.129375 -5.277344 11.96875 C-5.18582 12.639063 -5.094297 13.309375 -5 14 C-3.045681 14.633116 -3.045681 14.633116 -1 15 C-0.375 17.9375 -0.375 17.9375 -1 21 C-1.99 21.2475 -2.98 21.495 -4 21.75 C-4.99 22.1625 -5.98 22.575 -7 23 C-7.347132 25.559517 -7.179738 27.943704 -7.027344 30.519531 C-6.990902 33.825358 -7.837536 35.528613 -10 38 C-12.640681 39.912217 -13.934491 40.00126 -17.25 39.9375 C-18.1575 39.958125 -19.065 39.97875 -20 40 C-20 40.99 -20 41.98 -20 43 C-21.976562 43.152344 -21.976562 43.152344 -24.625 42.9375 C-29.608794 42.782198 -32.154503 43.63519 -36 47 C-38.219781 49.936782 -38.219781 49.936782 -38.8125 53.6875 C-39.204375 54.780625 -39.59625 55.87375 -40 57 C-42.625 57.5625 -42.625 57.5625 -45 57 C-45 56.34 -45 55.68 -45 55 C-51.339192 53.345284 -56.655468 53.567088 -62.34375 56.796875 C-64.072082 57.973191 -64.072082 57.973191 -65.550781 59.652344 C-66.029023 60.09707 -66.507266 60.541797 -67 61 C-69.6875 60.8125 -69.6875 60.8125 -72 60 C-72 59.34 -72 58.68 -72 58 C-72.66 58 -73.32 58 -74 58 C-75 55.5625 -75 55.5625 -75 52 C-73.71804 49.679652 -72.259229 47.636962 -70.640625 45.539062 C-65.394964 37.420777 -64.817393 28.128474 -63.626953 18.759766 C-63.47291 17.677598 -63.318867 16.59543 -63.160156 15.480469 C-63.03262 14.499734 -62.905083 13.518999 -62.773682 12.508545 C-61.820973 9.419534 -60.775504 8.578253 -58 7 C-47.401817 4.519574 -36.381777 6.031628 -25.824219 7.953125 C-24.892227 7.968594 -23.960234 7.984063 -23 8 C-23 6.68 -23 5.36 -23 4 C-24.966729 2.849917 -24.966729 2.849917 -27 2 C-27 1.34 -27 0.68 -27 0 C-18.85272 -4.111359 -8.082453 -4.678396 0 0 Z M-17 27 C-17.66 28.32 -18.32 29.64 -19 31 C-18.01 30.67 -17.02 30.34 -16 30 C-16.33 29.01 -16.66 28.02 -17 27 Z " fill="#020000" transform="translate(237,26)"/>
<path d="M0 0 C3.781894 3.151578 7.403819 6.745138 9.625 11.1875 C9.994695 16.73293 9.954293 20.505682 6.625 25.1875 C2.106005 29.79153 -2.4246 30.546936 -8.75 30.6875 C-19.102222 30.297238 -27.363655 27.956269 -35.375 21.1875 C-39.205584 16.806666 -40.881334 12.175197 -40.773438 6.316406 C-40.005948 2.215607 -37.594984 -0.302905 -34.375 -2.8125 C-23.07588 -8.881741 -10.737989 -5.766698 0 0 Z " fill="#F0557C" transform="translate(69.375,134.8125)"/>
<path d="M0 0 C-0.200091 3.00137 -1.303535 4.455303 -3 7 C-2.773752 12.449338 -1.242251 15.852224 1.8125 20.3125 C2.49957 21.339883 3.186641 22.367266 3.894531 23.425781 C6.444567 26.543543 8.167134 27.707558 12.105469 28.335938 C14.480471 28.420951 14.480471 28.420951 18 28 C19.117231 25.30387 19.13121 22.599662 19.175781 19.707031 C19.199629 18.912324 19.223477 18.117617 19.248047 17.298828 C19.291312 15.629825 19.3224 13.960466 19.341797 12.291016 C19.425781 9.894531 19.425781 9.894531 20 6 C21.93042 5.147217 21.93042 5.147217 24 5 C28.846855 10.026368 28.275949 15.893703 28.214844 22.472656 C27.867685 28.172366 26.705609 32.043566 22.875 36.4375 C18.047858 39.060947 13.816072 39.832616 8.476562 38.253906 C-0.000555 34.48485 -6.534792 27.58383 -10.308594 19.105469 C-12.147671 13.505114 -12.914531 8.896804 -10.3125 3.5 C-7.239088 0.177392 -4.521972 -2.344726 0 0 Z " fill="#050103" transform="translate(118,81)"/>
<path d="M0 0 C0 0.99 0 1.98 0 3 C-0.886875 3.433125 -1.77375 3.86625 -2.6875 4.3125 C-9.064975 7.561402 -12.551675 14.133 -16.25 20.0625 C-16.696016 20.75666 -17.142031 21.45082 -17.601562 22.166016 C-20.831211 27.206254 -20.831211 27.206254 -22 33 C-16.670582 32.439009 -13.084595 28.844652 -9.148438 25.460938 C-7 24 -7 24 -3 24 C-2.132068 27.787338 -2.291233 29.759092 -4.222656 33.140625 C-8.63073 38.767953 -13.108547 40.65938 -20 42 C-20.846914 42.237188 -21.693828 42.474375 -22.566406 42.71875 C-25 43 -25 43 -27.019531 42.066406 C-30.354441 39.269151 -31.82909 37.708058 -32.875 33.375 C-32.287154 27.190863 -28.304814 22.063225 -25 17 C-24.316797 15.912031 -23.633594 14.824062 -22.929688 13.703125 C-17.195125 4.763314 -11.617007 -2.961198 0 0 Z " fill="#040102" transform="translate(51,51)"/>
<path d="M0 0 C1.457448 7.107554 -0.791485 15.58297 -4 22 C-5.937601 24.289892 -7.337812 25.668906 -10 27 C-11.955493 27.122575 -13.915706 27.175524 -15.875 27.1875 C-16.924297 27.20168 -17.973594 27.215859 -19.054688 27.230469 C-23.061028 26.916975 -25.114541 26.011953 -27.75 23 C-29.254545 19.389091 -30.150626 16.506264 -30.074219 12.574219 C-27.83249 7.202223 -21.095789 4.903068 -15.956543 2.753906 C-10.716164 0.734654 -5.633578 -0.974767 0 0 Z " fill="#CF4876" transform="translate(161,172)"/>
<path d="M0 0 C3.542053 -1.231979 7.166608 -0.934416 10.875 -0.8125 C11.965144 -0.794211 13.055288 -0.775923 14.178467 -0.75708 C23.896273 -0.393938 35.12018 1.251367 42.949219 7.574219 C44 9 44 9 44 11 C41.224886 11.726598 38.499255 12.328888 35.6875 12.875 C29.216976 14.207316 23.118331 15.7982 16.96875 18.265625 C15 19 15 19 13 19 C12.649375 17.948125 12.29875 16.89625 11.9375 15.8125 C10.536789 12.15305 8.871476 11.156809 5.375 9.5 C4.180039 9.020469 4.180039 9.020469 2.960938 8.53125 C1 7 1 7 -0.453125 3.394531 C-0.303594 2.274336 -0.154062 1.154141 0 0 Z " fill="#010000" transform="translate(68,29)"/>
<path d="M0 0 C3.600671 0.87839 4.945223 2.421982 6.9375 5.472656 C7.892328 10.145397 7.60053 13.411808 5.0625 17.472656 C2.278837 20.092575 1.435655 20.435756 -2.4375 20.722656 C-6.205251 20.462811 -7.489594 20.14452 -10.0625 17.472656 C-11.420676 13.398127 -11.703488 9.728519 -11.0625 5.472656 C-8.09758 0.932623 -5.25799 -0.388374 0 0 Z " fill="#130101" transform="translate(45.0625,102.52734375)"/>
<path d="M0 0 C4.235927 0.756416 5.858215 1.182674 8.5 4.625 C9.394131 9.723116 9.195632 14.082512 7.0625 18.8125 C3.802247 21.118533 1.566145 21.350625 -2.371094 21.097656 C-4.5 20.625 -4.5 20.625 -7.0625 18.6875 C-9.017678 14.522121 -9.403706 11.143528 -8.5 6.625 C-6.630184 2.570975 -4.481229 0.80022 0 0 Z " fill="#0E0101" transform="translate(98.5,113.375)"/>
<path d="M0 0 C-0.035156 2.046875 -0.035156 2.046875 -1 4 C-1.99 4.33 -2.98 4.66 -4 5 C-4.225586 6.191094 -4.451172 7.382188 -4.683594 8.609375 C-5.118008 9.728281 -5.552422 10.847188 -6 12 C-9.171568 12.17601 -11.059438 11.975327 -14.0625 11.25 C-14.808223 11.117227 -15.553945 10.984453 -16.322266 10.847656 C-18.472656 10.390625 -18.472656 10.390625 -22 9 C-22.867188 6.433594 -22.867188 6.433594 -23 4 C-25.000165 2.791179 -25.000165 2.791179 -27 2 C-27 1.34 -27 0.68 -27 0 C-18.85272 -4.111359 -8.082453 -4.678396 0 0 Z " fill="#BE3D3C" transform="translate(237,26)"/>
<path d="M0 0 C1.59689 3.193781 1.37349 6.525213 1 10 C-0.264849 12.909153 -1.254501 14.460156 -3.8125 16.3125 C-6.894581 17.281154 -8.821382 17.794654 -12 17 C-12.75293 13.952139 -12.743369 11.048388 -12 8 C-11.01 7.67 -10.02 7.34 -9 7 C-8.318675 5.339272 -7.652579 3.672233 -7 2 C-4 0 -4 0 0 0 Z " fill="#BD3C3B" transform="translate(229,49)"/>
<path d="M0 0 C2.5625 0.3125 2.5625 0.3125 4.203125 1.550781 C5.924965 3.782246 5.935467 5.021699 5.875 7.8125 C5.871133 8.585938 5.867266 9.359375 5.863281 10.15625 C5.5625 12.3125 5.5625 12.3125 3.5625 15.3125 C0.548732 15.235224 -0.962405 14.722065 -3.25 12.75 C-5.033231 9.089683 -4.764663 6.369315 -4.4375 2.3125 C-2.4375 0.3125 -2.4375 0.3125 0 0 Z " fill="#3A2F30" transform="translate(43.4375,137.6875)"/>
<path d="M0 0 C1.528467 3.056933 1.232424 5.629845 1 9 C-0.125 11.4375 -0.125 11.4375 -2 13 C-5.125 13.4375 -5.125 13.4375 -8 13 C-8.917541 10.247376 -9.222873 8.300856 -9.3125 5.4375 C-9.368574 4.259941 -9.368574 4.259941 -9.425781 3.058594 C-9 1 -9 1 -7.148438 -0.292969 C-4.391062 -1.200396 -2.73774 -0.887916 0 0 Z " fill="#3C2F30" transform="translate(65,142)"/>
<path d="M0 0 C2.375 0.75 2.375 0.75 3.375 1.75 C3.838576 8.008278 3.838576 8.008278 2.125 10.75 C0.375 11.75 0.375 11.75 -1.6875 11.625 C-3.625 10.75 -3.625 10.75 -5.625 7.75 C-5.986454 4.858366 -6.009405 3.356955 -4.4375 0.875 C-2.625 -0.25 -2.625 -0.25 0 0 Z " fill="#B40000" transform="translate(43.625,107.25)"/>
<path d="M0 0 C3.0625 -0.3125 3.0625 -0.3125 6 0 C7.39935 2.7987 7.252654 4.904988 7 8 C5.8125 9.9375 5.8125 9.9375 4 11 C1.375 11.125 1.375 11.125 -1 10 C-1.9375 6.625 -1.9375 6.625 -2 3 C-1.34 2.01 -0.68 1.02 0 0 Z " fill="#B20000" transform="translate(96,119)"/>
</svg>
