<?xml version="1.0" encoding="UTF-8"?>
<!-- Generator: visioncortex VTracer 0.6.4 -->
<svg version="1.1" xmlns="http://www.w3.org/2000/svg" width="240" height="240">
<path d="M0 0 C0.99 0 1.98 0 3 0 C4.559084 3.378015 3.722108 6.469692 3 10 C3.721875 9.67 4.44375 9.34 5.1875 9 C8.021084 7.992503 10.021525 7.561989 13 8 C12.67 8.99 12.34 9.98 12 11 C10.9275 11.33 9.855 11.66 8.75 12 C7.8425 12.33 6.935 12.66 6 13 C7.319596 15.33467 9.402394 16.23395 11.6875 17.5625 C12.450625 18.036875 13.21375 18.51125 14 19 C14 19.66 14 20.32 14 21 C10.485602 20.668453 7.351238 20.117079 4 19 C3.934248 21.005434 3.885797 23.015842 3.992188 25.019531 C4 27 4 27 3 29 C2.01 28.67 1.02 28.34 0 28 C-0.42774 25.302384 -0.130561 22.741774 0 20 C-2.536733 21.355333 -2.536733 21.355333 -5 23 C-5 23.66 -5 24.32 -5 25 C-6.32 25 -7.64 25 -9 25 C-9.0625 23.125 -9.0625 23.125 -8 21 C-5.4375 19.75 -5.4375 19.75 -3 19 C-6.189884 17.405058 -8.578287 18.258629 -12 19 C-16.238119 21.037557 -18.456788 23.173437 -20.5625 27.3125 C-20.706875 28.529375 -20.85125 29.74625 -21 31 C-17.31577 31.551531 -13.644264 30.606617 -10 30 C-4.323167 29.451209 0.266392 29.790885 5.335938 32.578125 C8.361838 35.163636 8.993576 38.22591 10 42 C10.375117 41.396719 10.750234 40.793438 11.136719 40.171875 C16.927048 31.129043 16.927048 31.129043 21 29 C23.581442 28.941044 26.128131 29.065505 28.707031 29.183594 C31.27985 29.2348 31.27985 29.2348 33.25 26.625 C33.8275 25.75875 34.405 24.8925 35 24 C39.617311 21.742648 43.032619 21.87531 48 23 C51 25 51 25 51.8125 26.9375 C52 29 52 29 50 32 C47.625 32.667969 47.625 32.667969 45 33.1875 C42.588467 33.761127 42.588467 33.761127 41 35 C41.957628 37.509828 43.461949 39.094463 45.273438 41.0625 C48.2274 44.377353 48.282371 47.673776 48.21875 52 C47.895605 54.95447 46.873658 56.724844 45 59 C41.578233 61.566325 38.153596 61.364351 34 61 C30.350237 59.341017 27.875873 57.564159 26 54 C25.253601 50.007128 25 46.057114 25 42 C23.124202 46.360646 23.124202 46.360646 23.546875 50.929688 C25.328251 54.565448 27.557889 57.814842 29.875 61.125 C40.341048 76.452181 43.693052 94.70499 40.277344 112.835938 C38.741717 117.971272 36.662578 122.82545 34.5625 127.75 C28.546639 142.095516 26.199576 155.719201 24.987793 171.135986 C23.66096 187.717245 23.66096 187.717245 20.476562 192.09375 C15.38246 195.962688 11.221724 196.795232 4.847656 196.464844 C0.695477 195.787053 -1.653371 194.546348 -5 192 C-7.465814 188.30128 -7.358818 186.036671 -7.5625 181.625 C-7.685381 179.08212 -7.829395 176.540124 -8 174 C-8.050273 173.062852 -8.100547 172.125703 -8.152344 171.160156 C-8.842935 168.709036 -8.842935 168.709036 -11.6875 167.582031 C-16.334463 166.48982 -16.334463 166.48982 -21 167 C-22.176511 170.519435 -22.059869 173.595154 -22.015625 177.296875 C-21.991595 182.992029 -23.332015 187.028745 -27.0625 191.4375 C-30.415388 194.141442 -32.614461 194.161458 -36.875 194.1875 C-37.924297 194.20168 -38.973594 194.215859 -40.054688 194.230469 C-42.976806 194.001815 -44.564335 193.576018 -47 192 C-49.144088 189.473039 -50.059775 187.878556 -49.832031 184.53125 C-49.743086 183.675312 -49.654141 182.819375 -49.5625 181.9375 C-49.779063 179.988438 -49.779063 179.988438 -50 178 C-52.784744 178.419547 -54.923824 179.526699 -57.421875 180.808594 C-60 182 -60 182 -64 182 C-64.531309 184.834798 -64.531309 184.834798 -64.320312 188.386719 C-64.309909 189.040742 -64.299506 189.694765 -64.288788 190.368607 C-64.252956 192.475779 -64.190699 194.581063 -64.125 196.6875 C-64.06963 198.775912 -64.020114 200.864023 -63.982635 202.952835 C-63.946949 204.861668 -63.892146 206.770114 -63.836426 208.678467 C-64.035874 212.72846 -64.675033 215.713161 -67.628906 218.582031 C-72.824223 221.888142 -76.878826 222.981094 -83 222 C-86.772746 221.079818 -89.861602 220.17812 -92.602295 217.341797 C-94.471623 214.209815 -94.247791 212.10982 -94.089844 208.484375 C-94.071152 207.233984 -94.052461 205.983594 -94.033203 204.695312 C-93.968996 202.048408 -93.869579 199.402141 -93.736328 196.757812 C-93.697036 191.757269 -93.697036 191.757269 -95 187 C-98.203892 185.944777 -100.569851 186.195526 -103.903809 186.624512 C-106.891447 186.986835 -108.410717 186.759633 -111.199219 185.835938 C-112.123477 185.890078 -113.047734 185.944219 -114 186 C-115.086774 189.485203 -114.882374 193.005094 -114.8125 196.625 C-114.811218 198.638031 -114.817483 200.651084 -114.832031 202.664062 C-114.818899 203.565923 -114.805767 204.467783 -114.792236 205.396973 C-115.103849 209.301096 -116.008971 212.104877 -118.9375 214.75 C-123.700414 217.636615 -128.599433 217.470345 -134 217 C-139.299451 215.107339 -139.299451 215.107339 -141.116699 212.234863 C-142.160518 209.593869 -142.417193 207.323679 -142.632812 204.492188 C-142.758496 202.887305 -142.758496 202.887305 -142.886719 201.25 C-143.004668 199.579375 -143.004668 199.579375 -143.125 197.875 C-143.211367 196.784453 -143.297734 195.693906 -143.386719 194.570312 C-143.7738 189.433802 -143.99941 184.46662 -143.742188 179.320312 C-143.654584 176.974211 -143.654584 176.974211 -144 175 C-146.175625 173.426917 -146.175625 173.426917 -149 173 C-160.910543 165.072591 -168.938096 154.565026 -172.613281 140.683594 C-174.71841 126.075278 -172.930759 111.641511 -165 99 C-163.476968 97.213115 -161.935014 95.442192 -160.375 93.6875 C-158.275338 91.347642 -158.275338 91.347642 -157 89 C-158.75 85.75 -158.75 85.75 -162 84 C-163 83 -163 83 -163.5 79.6875 C-163.40767 73.212877 -159.423705 68.245375 -156 63 C-155.316797 61.912031 -154.633594 60.824062 -153.929688 59.703125 C-145.607203 46.72891 -145.607203 46.72891 -138 45 C-132.9561 45.364958 -129.873132 46.04761 -126.375 49.863281 C-123.319467 52.337806 -123.319467 52.337806 -120.669678 51.550049 C-117.832997 50.383814 -115.151784 49.053146 -112.4375 47.625 C-110.450272 46.652792 -108.461996 45.682723 -106.472656 44.714844 C-105.521489 44.240308 -104.570322 43.765771 -103.590332 43.276855 C-92.917278 38.015774 -81.735217 35.274294 -70.224121 32.550781 C-68.203606 32.050421 -66.201687 31.476417 -64.203125 30.894531 C-56.578799 28.765299 -47.232294 27.851448 -39.4375 29.5625 C-35.775612 30.219762 -32.455164 30.586333 -29 29 C-27.52609 26.70485 -26.651801 24.517777 -25.789062 21.933594 C-25.528672 21.295508 -25.268281 20.657422 -25 20 C-24.34 20 -23.68 20 -23 20 C-22.716406 19.39543 -22.432813 18.790859 -22.140625 18.167969 C-20.085761 14.262319 -15.928283 12.714518 -12 11 C-10.205625 10.7525 -10.205625 10.7525 -8.375 10.5 C-7.199375 10.2525 -7.199375 10.2525 -6 10 C-5.845254 7.438102 -5.845254 7.438102 -7 5 C-7.99 4.505 -7.99 4.505 -9 4 C-8.67 3.34 -8.34 2.68 -8 2 C-5.4375 2.625 -5.4375 2.625 -3 4 C-3 5.32 -3 6.64 -3 8 C-2.34 8 -1.68 8 -1 8 C-0.632568 5.916335 -0.555058 3.86172 -0.441406 1.75 C-0.22291 0.88375 -0.22291 0.88375 0 0 Z M35 42 C34.286707 45.138488 33.792628 47.326039 34.75 50.4375 C35.1625 50.953125 35.575 51.46875 36 52 C36.99 51.67 37.98 51.34 39 51 C38.85728 47.71745 38.566106 45.679327 36.4375 43.125 C35.963125 42.75375 35.48875 42.3825 35 42 Z " fill="#FED1B0" transform="translate(182,5)"/>
<path d="M0 0 C1.06541 0.22623 1.06541 0.22623 2.152344 0.457031 C11.899954 2.907154 22.562828 11.610056 28 20 C28.433125 21.155 28.86625 22.31 29.3125 23.5 C29.869375 24.325 30.42625 25.15 31 26 C34.13895 26.365648 37.043571 26.146623 40 25 C40 24.01 40 23.02 40 22 C41.628239 22.173217 43.256277 22.370577 44.867188 22.664062 C50.793755 23.597551 56.465956 23.49032 62 21 C62.33 20.34 62.66 19.68 63 19 C64.551845 26.038727 65.168152 32.552011 64.875 39.761719 C64.91625 40.500352 64.9575 41.238984 65 42 C65.66 42 66.32 42 67 42 C69.086173 45.842951 68.833454 47.854432 68 52 C68.028636 53.783155 68.119219 55.566067 68.261719 57.34375 C68.328105 58.342773 68.394492 59.341797 68.462891 60.371094 C68.612693 62.457901 68.774166 64.543903 68.947266 66.628906 C69.429919 74.341401 69.429919 74.341401 66.980469 78.09375 C66.326914 78.722813 65.673359 79.351875 65 80 C65.547806 82.098316 65.547806 82.098316 67 84 C69.799128 88.907931 68.766079 93.244379 67.875 98.5625 C67.756406 99.412637 67.637812 100.262773 67.515625 101.138672 C66.914701 104.894446 66.456906 107.396846 64.132812 110.464844 C59.216774 114.003311 56.765738 114.019706 50.625 113.4375 C47.850394 113.301652 45.797617 113.502171 43 114 C39.904107 117.225831 38.628394 120.889436 37 125 C34.669032 128.545013 32.132369 131.622544 28 133 C27.01 133 26.02 133 25 133 C25 133.66 25 134.32 25 135 C22.67258 135.372387 20.337643 135.698369 18 136 C15.988483 136.631064 13.986363 137.293738 12 138 C8.328702 139.18429 4.844036 139.22612 1 139 C2.340333 136.319334 4.169267 135.916994 6.813965 134.741455 C12.693678 132.110042 17.26699 129.763007 20.398438 123.894531 C21.201757 121.695886 21.201757 121.695886 21 118 C20.334844 117.364492 19.669688 116.728984 18.984375 116.074219 C17 114 17 114 16.828125 111.582031 C16.967344 110.668086 17.106562 109.754141 17.25 108.8125 C19.394926 90.879236 16.327134 76.291322 11.625 59 C11.013671 56.697132 10.404283 54.393749 9.796875 52.089844 C8.941097 48.844393 8.082876 45.599907 7.208649 42.359375 C6.94853 41.393867 6.688411 40.428359 6.42041 39.433594 C6.172417 38.516622 5.924423 37.599651 5.668915 36.654892 C5.027523 34.109237 4.52801 31.565567 4.041992 28.986572 C3.449323 26.266 3.142178 25.168053 1.311035 23.003662 C0.643784 22.598977 -0.023467 22.194292 -0.710938 21.777344 C-1.456338 21.305627 -2.201738 20.833911 -2.969727 20.3479 C-4.160337 19.649752 -4.160337 19.649752 -5.375 18.9375 C-6.179053 18.431462 -6.983105 17.925425 -7.811523 17.404053 C-10.868007 15.483837 -13.959385 13.624963 -17.053711 11.766602 C-18.795262 10.714055 -20.52326 9.639173 -22.25 8.5625 C-23.224531 7.986289 -24.199062 7.410078 -25.203125 6.816406 C-25.796094 6.216992 -26.389062 5.617578 -27 5 C-26.734375 2.367188 -26.734375 2.367188 -25 0 C-16.799469 -2.613919 -8.187732 -2.463439 0 0 Z " fill="#6A4655" transform="translate(141,36)"/>
<path d="M0 0 C0.99 0 1.98 0 3 0 C4.559084 3.378015 3.722108 6.469692 3 10 C3.721875 9.67 4.44375 9.34 5.1875 9 C8.021084 7.992503 10.021525 7.561989 13 8 C12.67 8.99 12.34 9.98 12 11 C10.39125 11.495 10.39125 11.495 8.75 12 C7.8425 12.33 6.935 12.66 6 13 C7.319596 15.33467 9.402394 16.23395 11.6875 17.5625 C12.450625 18.036875 13.21375 18.51125 14 19 C14 19.66 14 20.32 14 21 C10.485602 20.668453 7.351238 20.117079 4 19 C3.934248 21.005434 3.885797 23.015842 3.992188 25.019531 C4 27 4 27 3 29 C2.01 28.67 1.02 28.34 0 28 C-0.42774 25.302384 -0.130561 22.741774 0 20 C-2.536733 21.355333 -2.536733 21.355333 -5 23 C-5 23.66 -5 24.32 -5 25 C-6.32 25 -7.64 25 -9 25 C-9.0625 23.125 -9.0625 23.125 -8 21 C-5.4375 19.75 -5.4375 19.75 -3 19 C-6.189884 17.405058 -8.578287 18.258629 -12 19 C-16.238119 21.037557 -18.456788 23.173437 -20.5625 27.3125 C-20.706875 28.529375 -20.85125 29.74625 -21 31 C-17.31577 31.551531 -13.644264 30.606617 -10 30 C-4.323167 29.451209 0.266392 29.790885 5.335938 32.578125 C8.361838 35.163636 8.993576 38.22591 10 42 C10.375117 41.396719 10.750234 40.793438 11.136719 40.171875 C16.927048 31.129043 16.927048 31.129043 21 29 C23.581442 28.941044 26.128131 29.065505 28.707031 29.183594 C31.27985 29.2348 31.27985 29.2348 33.25 26.625 C33.8275 25.75875 34.405 24.8925 35 24 C39.617311 21.742648 43.032619 21.87531 48 23 C51 25 51 25 51.8125 26.9375 C52 29 52 29 50 32 C47.625 32.667969 47.625 32.667969 45 33.1875 C42.588467 33.761127 42.588467 33.761127 41 35 C41.957628 37.509828 43.461949 39.094463 45.273438 41.0625 C48.2274 44.377353 48.282371 47.673776 48.21875 52 C47.895605 54.95447 46.873658 56.724844 45 59 C41.578233 61.566325 38.153596 61.364351 34 61 C30.350237 59.341017 27.875873 57.564159 26 54 C25.253601 50.007128 25 46.057114 25 42 C23.124202 46.360646 23.124202 46.360646 23.546875 50.929688 C25.328251 54.565448 27.557889 57.814842 29.875 61.125 C40.341048 76.452181 43.693052 94.70499 40.277344 112.835938 C38.741717 117.971272 36.662578 122.82545 34.5625 127.75 C28.546639 142.095516 26.199576 155.719201 24.987793 171.135986 C23.66096 187.717245 23.66096 187.717245 20.476562 192.09375 C15.38246 195.962688 11.221724 196.795232 4.847656 196.464844 C0.695477 195.787053 -1.653371 194.546348 -5 192 C-7.465814 188.30128 -7.358818 186.036671 -7.5625 181.625 C-7.685381 179.08212 -7.829395 176.540124 -8 174 C-8.050273 173.062852 -8.100547 172.125703 -8.152344 171.160156 C-8.842935 168.709036 -8.842935 168.709036 -11.6875 167.582031 C-16.334463 166.48982 -16.334463 166.48982 -21 167 C-22.176511 170.519435 -22.059869 173.595154 -22.015625 177.296875 C-21.991595 182.992029 -23.332015 187.028745 -27.0625 191.4375 C-30.415388 194.141442 -32.614461 194.161458 -36.875 194.1875 C-37.924297 194.20168 -38.973594 194.215859 -40.054688 194.230469 C-44.02656 193.919672 -46.092539 193.004688 -48.75 190.0625 C-50.584269 185.568542 -50.976903 180.776827 -50 176 C-47.465729 174.16521 -46.161989 174 -43 174 C-42.4093 172.053967 -42.4093 172.053967 -42 170 C-40 169 -40 169 -36.9375 169.0625 C-29.493253 169.016154 -29.493253 169.016154 -23 166 C-21.824375 166.020625 -20.64875 166.04125 -19.4375 166.0625 C-17.735938 166.031563 -17.735938 166.031563 -16 166 C-16 165.34 -16 164.68 -16 164 C-14.824375 163.525625 -13.64875 163.05125 -12.4375 162.5625 C-5.859986 159.483664 -2.56703 152.593789 0.238281 146.160156 C2 144 2 144 5.398438 143.617188 C6.710703 143.702266 8.022969 143.787344 9.375 143.875 C14.756133 144.204024 17.561068 144.115323 22 141 C22.66 141 23.32 141 24 141 C25.015317 137.354408 25.371631 133.558554 25.875 129.8125 C26.042578 128.757402 26.210156 127.702305 26.382812 126.615234 C27.3696 120.450384 27.3696 120.450384 25.03125 114.894531 C24.360938 114.269336 23.690625 113.644141 23 113 C23.625 110.875 23.625 110.875 25 109 C27.249137 105.626295 27.19447 104.813987 26.941406 100.921875 C26.857295 99.427207 26.857295 99.427207 26.771484 97.902344 C26.70252 96.86207 26.633555 95.821797 26.5625 94.75 C25.829032 83.203328 25.829032 83.203328 26.527344 78.953125 C27.240919 75.95245 27.240919 75.95245 26 73 C25.34 73 24.68 73 24 73 C23.636963 71.164062 23.636963 71.164062 23.472656 68.625 C23.402402 67.722656 23.332148 66.820312 23.259766 65.890625 C23.128273 63.963803 23.000667 62.036712 22.876953 60.109375 C22.80541 59.207031 22.733867 58.304688 22.660156 57.375 C22.604807 56.537109 22.549458 55.699219 22.492432 54.835938 C22.248678 53.927148 22.248678 53.927148 22 53 C19.085528 52.771695 19.085528 52.771695 17.082031 53.984375 C12.385615 56.27531 6.762399 55.39138 1.9375 53.8125 C0.968125 53.544375 -0.00125 53.27625 -1 53 C-1 53.99 -1 54.98 -1 56 C-3.655091 57.517195 -5.440253 58.036733 -8.5 57.835938 C-11.812203 56.72842 -12.272485 55.455029 -13.8125 52.375 C-16.810027 47.026621 -20.087345 43.618507 -25 40 C-25.836602 39.379961 -26.673203 38.759922 -27.535156 38.121094 C-33.417341 34.067041 -38.759263 31.913642 -45.761719 30.507812 C-46.500352 30.340234 -47.238984 30.172656 -48 30 C-48 29.67 -48 29.34 -48 29 C-45.079895 28.864181 -42.47712 28.886998 -39.625 29.5625 C-35.894018 30.18433 -32.518142 30.615247 -29 29 C-27.52609 26.70485 -26.651801 24.517777 -25.789062 21.933594 C-25.528672 21.295508 -25.268281 20.657422 -25 20 C-24.34 20 -23.68 20 -23 20 C-22.716406 19.39543 -22.432813 18.790859 -22.140625 18.167969 C-20.085761 14.262319 -15.928283 12.714518 -12 11 C-10.80375 10.835 -9.6075 10.67 -8.375 10.5 C-7.59125 10.335 -6.8075 10.17 -6 10 C-5.845254 7.438102 -5.845254 7.438102 -7 5 C-7.66 4.67 -8.32 4.34 -9 4 C-8.67 3.34 -8.34 2.68 -8 2 C-5.4375 2.625 -5.4375 2.625 -3 4 C-3 5.32 -3 6.64 -3 8 C-2.34 8 -1.68 8 -1 8 C-0.632568 5.916335 -0.555058 3.86172 -0.441406 1.75 C-0.295742 1.1725 -0.150078 0.595 0 0 Z M35 42 C34.286707 45.138488 33.792628 47.326039 34.75 50.4375 C35.1625 50.953125 35.575 51.46875 36 52 C36.99 51.67 37.98 51.34 39 51 C38.85728 47.71745 38.566106 45.679327 36.4375 43.125 C35.963125 42.75375 35.48875 42.3825 35 42 Z " fill="#FED0B0" transform="translate(182,5)"/>
<path d="M0 0 C0.99 0 1.98 0 3 0 C4.559084 3.378015 3.722108 6.469692 3 10 C3.721875 9.67 4.44375 9.34 5.1875 9 C8.021084 7.992503 10.021525 7.561989 13 8 C12.67 8.99 12.34 9.98 12 11 C10.39125 11.495 10.39125 11.495 8.75 12 C7.8425 12.33 6.935 12.66 6 13 C7.319596 15.33467 9.402394 16.23395 11.6875 17.5625 C12.450625 18.036875 13.21375 18.51125 14 19 C14 19.66 14 20.32 14 21 C10.485602 20.668453 7.351238 20.117079 4 19 C3.934248 21.005434 3.885797 23.015842 3.992188 25.019531 C4 27 4 27 3 29 C2.01 28.67 1.02 28.34 0 28 C-0.42774 25.302384 -0.130561 22.741774 0 20 C-2.536733 21.355333 -2.536733 21.355333 -5 23 C-5 23.66 -5 24.32 -5 25 C-6.32 25 -7.64 25 -9 25 C-9.0625 23.125 -9.0625 23.125 -8 21 C-5.4375 19.75 -5.4375 19.75 -3 19 C-6.189884 17.405058 -8.578287 18.258629 -12 19 C-16.238119 21.037557 -18.456788 23.173437 -20.5625 27.3125 C-20.706875 28.529375 -20.85125 29.74625 -21 31 C-17.31577 31.551531 -13.644264 30.606617 -10 30 C-4.323167 29.451209 0.266392 29.790885 5.335938 32.578125 C8.361838 35.163636 8.993576 38.22591 10 42 C10.375117 41.396719 10.750234 40.793438 11.136719 40.171875 C16.927048 31.129043 16.927048 31.129043 21 29 C23.581442 28.941044 26.128131 29.065505 28.707031 29.183594 C31.27985 29.2348 31.27985 29.2348 33.25 26.625 C33.8275 25.75875 34.405 24.8925 35 24 C39.617311 21.742648 43.032619 21.87531 48 23 C51 25 51 25 51.8125 26.9375 C52 29 52 29 50 32 C47.625 32.667969 47.625 32.667969 45 33.1875 C42.588467 33.761127 42.588467 33.761127 41 35 C41.957628 37.509828 43.461949 39.094463 45.273438 41.0625 C48.2274 44.377353 48.282371 47.673776 48.21875 52 C47.895605 54.95447 46.873658 56.724844 45 59 C41.578233 61.566325 38.153596 61.364351 34 61 C30.350237 59.341017 27.875873 57.564159 26 54 C25.253601 50.007128 25 46.057114 25 42 C23.617347 46.679373 23.617347 46.679373 22.5625 51.4375 C22.284063 52.210938 22.284063 52.210938 22 53 C21.01 53 20.02 53 19 53 C18.36707 53.324844 17.734141 53.649687 17.082031 53.984375 C12.385615 56.27531 6.762399 55.39138 1.9375 53.8125 C0.968125 53.544375 -0.00125 53.27625 -1 53 C-1 53.99 -1 54.98 -1 56 C-3.655091 57.517195 -5.440253 58.036733 -8.5 57.835938 C-11.812203 56.72842 -12.272485 55.455029 -13.8125 52.375 C-16.810027 47.026621 -20.087345 43.618507 -25 40 C-25.836602 39.379961 -26.673203 38.759922 -27.535156 38.121094 C-33.417341 34.067041 -38.759263 31.913642 -45.761719 30.507812 C-46.500352 30.340234 -47.238984 30.172656 -48 30 C-48 29.67 -48 29.34 -48 29 C-45.079895 28.864181 -42.47712 28.886998 -39.625 29.5625 C-35.894018 30.18433 -32.518142 30.615247 -29 29 C-27.52609 26.70485 -26.651801 24.517777 -25.789062 21.933594 C-25.528672 21.295508 -25.268281 20.657422 -25 20 C-24.34 20 -23.68 20 -23 20 C-22.716406 19.39543 -22.432813 18.790859 -22.140625 18.167969 C-20.085761 14.262319 -15.928283 12.714518 -12 11 C-10.80375 10.835 -9.6075 10.67 -8.375 10.5 C-7.59125 10.335 -6.8075 10.17 -6 10 C-5.845254 7.438102 -5.845254 7.438102 -7 5 C-7.66 4.67 -8.32 4.34 -9 4 C-8.67 3.34 -8.34 2.68 -8 2 C-5.4375 2.625 -5.4375 2.625 -3 4 C-3 5.32 -3 6.64 -3 8 C-2.34 8 -1.68 8 -1 8 C-0.632568 5.916335 -0.555058 3.86172 -0.441406 1.75 C-0.295742 1.1725 -0.150078 0.595 0 0 Z M35 42 C34.286707 45.138488 33.792628 47.326039 34.75 50.4375 C35.1625 50.953125 35.575 51.46875 36 52 C36.99 51.67 37.98 51.34 39 51 C38.85728 47.71745 38.566106 45.679327 36.4375 43.125 C35.963125 42.75375 35.48875 42.3825 35 42 Z " fill="#F26772" transform="translate(182,5)"/>
<path d="M0 0 C4.029721 6.044581 3.056907 13.640753 2.839844 20.65625 C2.892695 21.429688 2.945547 22.203125 3 23 C3.66 23 4.32 23 5 23 C7.086173 26.842951 6.833454 28.854432 6 33 C6.028636 34.783155 6.119219 36.566067 6.261719 38.34375 C6.328105 39.342773 6.394492 40.341797 6.462891 41.371094 C6.612693 43.457901 6.774166 45.543903 6.947266 47.628906 C7.429919 55.341401 7.429919 55.341401 4.980469 59.09375 C4.326914 59.722813 3.673359 60.351875 3 61 C3.547806 63.098316 3.547806 63.098316 5 65 C7.799128 69.907931 6.766079 74.244379 5.875 79.5625 C5.756406 80.412637 5.637812 81.262773 5.515625 82.138672 C4.914701 85.894446 4.456906 88.396846 2.132812 91.464844 C-2.302684 94.657426 -5.08059 95.256336 -10.625 95.1875 C-11.772266 95.181055 -12.919531 95.174609 -14.101562 95.167969 C-17 95 -17 95 -19 94 C-18.673443 90.669115 -18.083692 87.436884 -17.454346 84.151611 C-16.99215 80.945546 -16.948526 77.996824 -17.042969 74.761719 C-17.064238 73.61252 -17.085508 72.46332 -17.107422 71.279297 C-17.161249 68.864957 -17.226538 66.450847 -17.302734 64.037109 C-17.320137 62.894355 -17.337539 61.751602 -17.355469 60.574219 C-17.382781 59.528386 -17.410093 58.482554 -17.438232 57.405029 C-17.293616 56.61137 -17.148999 55.81771 -17 55 C-14.942627 54.272705 -14.942627 54.272705 -13 54 C-13.185625 53.360625 -13.37125 52.72125 -13.5625 52.0625 C-13.706875 51.381875 -13.85125 50.70125 -14 50 C-10.771051 48.154886 -8.772456 48 -5 48 C-4.624923 46.041766 -4.624923 46.041766 -6 44 C-6.969375 43.62875 -7.93875 43.2575 -8.9375 42.875 C-15.743624 40.13578 -21.099355 35.187333 -24.129883 28.510742 C-30 13.257046 -30 13.257046 -30 8 C-27.118466 6.598173 -25.229122 6 -22 6 C-22 5.01 -22 4.02 -22 3 C-20.371761 3.173217 -18.743723 3.370577 -17.132812 3.664062 C-11.238603 4.592454 -5.488222 4.533026 0 2 C0 1.34 0 0.68 0 0 Z " fill="#EE6068" transform="translate(203,55)"/>
<path d="M0 0 C5.733739 3.022143 11.536301 7.355473 13.957031 13.558594 C14.489221 19.146587 14.207187 22.791699 10.957031 27.558594 C3.581393 33.243981 -3.010525 33.091053 -12.042969 32.558594 C-19.928049 31.19242 -26.8855 27.882245 -32.417969 22.058594 C-35.41594 17.44633 -36.726312 13.360638 -36.625 7.84375 C-35.488955 3.38344 -31.794079 0.921858 -28.042969 -1.441406 C-18.927017 -5.872978 -8.958423 -3.823849 0 0 Z " fill="#FC7D85" transform="translate(65.04296875,132.44140625)"/>
<path d="M0 0 C-0.66 0.66 -1.32 1.32 -2 2 C-3.32 2 -4.64 2 -6 2 C-6.146163 3.970972 -6.146163 3.970972 -5 6 C-3.160429 7.264791 -3.160429 7.264791 -0.8125 8.3125 C4.437338 11.266006 8.203569 14.991501 12.25 19.375 C13.116613 20.311464 13.116613 20.311464 14.000732 21.266846 C15.703985 23.149388 17.361888 25.06057 19 27 C19.79519 27.939727 19.79519 27.939727 20.606445 28.898438 C24.656198 33.961266 27.040245 39.182406 29.25 45.25 C29.59426 46.172969 29.938521 47.095937 30.293213 48.046875 C32.682052 54.640927 34.253612 61.018401 35 68 C35.165322 68.755149 35.330645 69.510298 35.500977 70.28833 C38.186589 84.88182 38.594353 108.108471 30 121 C27.368716 118.980642 26.329864 117.957617 25 115 C24.882692 112.130464 25.215581 109.470306 25.58374 106.622803 C27.489179 90.03934 23.96081 75.944224 19.625 60 C19.013671 57.697132 18.404283 55.393749 17.796875 53.089844 C16.941097 49.844393 16.082876 46.599907 15.208649 43.359375 C14.94853 42.393867 14.688411 41.428359 14.42041 40.433594 C14.172417 39.516622 13.924423 38.599651 13.668915 37.654892 C13.027523 35.109237 12.52801 32.565567 12.041992 29.986572 C11.449323 27.266 11.142178 26.168053 9.311035 24.003662 C8.643784 23.598977 7.976533 23.194292 7.289062 22.777344 C6.543662 22.305627 5.798262 21.833911 5.030273 21.3479 C3.839663 20.649752 3.839663 20.649752 2.625 19.9375 C1.820947 19.431462 1.016895 18.925425 0.188477 18.404053 C-2.868007 16.483837 -5.959385 14.624963 -9.053711 12.766602 C-10.795262 11.714055 -12.52326 10.639173 -14.25 9.5625 C-15.224531 8.986289 -16.199062 8.410078 -17.203125 7.816406 C-17.796094 7.216992 -18.389062 6.617578 -19 6 C-18.765625 3.363281 -18.765625 3.363281 -17 1 C-14.333311 0.2477 -12.213818 -0.146735 -9.5 -0.375 C-8.810352 -0.456211 -8.120703 -0.537422 -7.410156 -0.621094 C-2.331235 -1.165617 -2.331235 -1.165617 0 0 Z " fill="#E24754" transform="translate(133,35)"/>
<path d="M0 0 C0.8125 1.9375 0.8125 1.9375 1 4 C-1 7 -1 7 -3.375 7.667969 C-4.24125 7.839414 -5.1075 8.010859 -6 8.1875 C-8.411533 8.761127 -8.411533 8.761127 -10 10 C-9.042372 12.509828 -7.538051 14.094463 -5.726562 16.0625 C-2.7726 19.377353 -2.717629 22.673776 -2.78125 27 C-3.104395 29.95447 -4.126342 31.724844 -6 34 C-9.421767 36.566325 -12.846404 36.364351 -17 36 C-20.649763 34.341017 -23.124127 32.564159 -25 29 C-25.746399 25.007128 -26 21.057114 -26 17 C-26.33 18.216875 -26.66 19.43375 -27 20.6875 C-27.66 21.780625 -28.32 22.87375 -29 24 C-32.8125 23 -32.8125 23 -34.921875 21.964844 C-37.163566 20.794633 -37.163566 20.794633 -40.5625 20.5625 C-41.366875 20.376875 -42.17125 20.19125 -43 20 C-43 17.9375 -43 17.9375 -42 16 C-41.34 16 -40.68 16 -40 16 C-38.813478 14.33885 -38.813478 14.33885 -37.6875 12.25 C-35.486456 8.662172 -33.805648 6.029679 -30 4 C-27.417867 3.936919 -24.872608 4.065471 -22.292969 4.183594 C-19.72015 4.2348 -19.72015 4.2348 -17.75 1.625 C-17.1725 0.75875 -16.595 -0.1075 -16 -1 C-10.337813 -3.76818 -5.250317 -3.500212 0 0 Z M-16 17 C-16.713293 20.138488 -17.207372 22.326039 -16.25 25.4375 C-15.8375 25.953125 -15.425 26.46875 -15 27 C-14.01 26.67 -13.02 26.34 -12 26 C-12.14272 22.71745 -12.433894 20.679327 -14.5625 18.125 C-15.036875 17.75375 -15.51125 17.3825 -16 17 Z " fill="#FED1B1" transform="translate(233,30)"/>
<path d="M0 0 C0.99 0 1.98 0 3 0 C3.125 2.152344 3.125 2.152344 3 4.9375 C3.007193 7.691899 3.007193 7.691899 4 10 C7.034056 10.891546 9.574038 10.877182 12.726562 10.742188 C13.851914 10.869805 13.851914 10.869805 15 11 C15.148438 12.945312 15.148438 12.945312 14 15 C11.418496 15.788793 8.928664 16.008106 6.25 16.3125 C3.812967 16.774263 3.812967 16.774263 2.832031 19.074219 C2.887461 19.709727 2.942891 20.345234 3 21 C5.542234 21.302298 5.542234 21.302298 8.6875 20.8125 C9.763867 20.695195 10.840234 20.577891 11.949219 20.457031 C15.528847 19.946012 15.528847 19.946012 19 19 C19.33 18.34 19.66 17.68 20 17 C21.444071 21.332213 20.500489 24.987175 19.8125 29.4375 C19.698418 30.29666 19.584336 31.15582 19.466797 32.041016 C18.887304 35.832721 18.473715 38.371359 16.136719 41.472656 C11.692465 44.649445 8.920342 45.256347 3.375 45.1875 C1.654102 45.177832 1.654102 45.177832 -0.101562 45.167969 C-3 45 -3 45 -5 44 C-4.673443 40.669115 -4.083692 37.436884 -3.454346 34.151611 C-2.99215 30.945546 -2.948526 27.996824 -3.042969 24.761719 C-3.064238 23.61252 -3.085508 22.46332 -3.107422 21.279297 C-3.161249 18.864957 -3.226538 16.450847 -3.302734 14.037109 C-3.320137 12.894355 -3.337539 11.751602 -3.355469 10.574219 C-3.382781 9.528386 -3.410093 8.482554 -3.438232 7.405029 C-3.293616 6.61137 -3.148999 5.81771 -3 5 C-0.950439 4.280518 -0.950439 4.280518 1 4 C0.5907 1.946033 0.5907 1.946033 0 0 Z " fill="#DE4859" transform="translate(189,105)"/>
<path d="M0 0 C0 1.875 0 1.875 -1 4 C-1.66 4.66 -2.32 5.32 -3 6 C-3.831215 11.629216 -1.731884 14.794344 1.3125 19.25 C1.716621 19.873906 2.120742 20.497812 2.537109 21.140625 C4.500878 24.10384 6.010185 26.00679 9 28 C12.5 28.5 12.5 28.5 16 28 C18.095694 26.204382 18.902531 24.740695 19.263184 22 C19.415552 18.762335 19.436943 15.531851 19.439453 12.291016 C19.496094 9.894531 19.496094 9.894531 20 6 C21.926025 5.178467 21.926025 5.178467 24 5 C26.486156 6.841597 27.001569 8.004707 28 11 C29.057557 28.327662 29.057557 28.327662 22.9375 35.375 C19.142311 38.558061 15.776647 38.461541 10.949219 38.398438 C3.94094 37.451624 -0.583408 32.806131 -4.875 27.5 C-5.936933 26.014279 -6.98127 24.515671 -8 23 C-8.639375 22.071875 -9.27875 21.14375 -9.9375 20.1875 C-11.620427 15.13872 -11.779211 10.255998 -11 5 C-8.075079 0.526591 -5.38926 -1.154841 0 0 Z " fill="#E65690" transform="translate(118,81)"/>
<path d="M0 0 C2.0625 0.4375 2.0625 0.4375 4 1 C3.34 1 2.68 1 2 1 C1.639173 3.931525 1.639173 3.931525 1.5625 7.5 C1.153874 14.474817 0.587765 19.941732 -4.0625 25.4375 C-7.415388 28.141442 -9.614461 28.161458 -13.875 28.1875 C-14.924297 28.20168 -15.973594 28.215859 -17.054688 28.230469 C-21.02656 27.919672 -23.092539 27.004688 -25.75 24.0625 C-27.584269 19.568542 -27.976903 14.776827 -27 10 C-24.465729 8.16521 -23.161989 8 -20 8 C-19.4093 6.053967 -19.4093 6.053967 -19 4 C-17 3 -17 3 -13.9375 3.0625 C-6.493253 3.016154 -6.493253 3.016154 0 0 Z " fill="#FEA8A6" transform="translate(159,171)"/>
<path d="M0 0 C3.772878 1.233747 5.877867 3.82217 8.4375 6.75 C9.218672 7.642031 9.999844 8.534063 10.804688 9.453125 C11.529141 10.293594 12.253594 11.134062 13 12 C13.559453 12.634219 14.118906 13.268438 14.695312 13.921875 C18 17.736429 18 17.736429 18 20 C18.66 20 19.32 20 20 20 C20.244017 23.050214 20.273865 24.30177 19 27 C15.464024 30.214524 11.517981 32.639668 6.734375 33.324219 C3.08312 33.080337 1.017783 32.014227 -1.8125 29.75 C-5.671113 24.899172 -7.419238 21.811255 -7.375 15.5 C-7.382734 14.396563 -7.390469 13.293125 -7.398438 12.15625 C-6.829442 7.648913 -4.835915 5.051636 -2.0625 1.5625 C-1.381875 1.046875 -0.70125 0.53125 0 0 Z " fill="#FFFDFC" transform="translate(37,91)"/>
<path d="M0 0 C2 2 2 2 2.375 5.125 C1.672454 12.384644 -2.051799 17.804389 -7 23 C-9.878746 25.183876 -13.158064 25.716195 -16.769531 25.648438 C-21.625046 24.236852 -25.01154 19.899878 -28 16 C-29.688393 12.576023 -30 10.918 -30 7 C-26.240794 3.991179 -21.85404 2.922103 -17.25 1.8125 C-16.189182 1.553157 -16.189182 1.553157 -15.106934 1.288574 C-9.950008 0.088877 -5.306714 -0.54897 0 0 Z " fill="#FFFDFD" transform="translate(112,110)"/>
<path d="M0 0 C0.061875 0.665156 0.12375 1.330312 0.1875 2.015625 C0.455625 2.670469 0.72375 3.325313 1 4 C3.298377 4.263252 3.298377 4.263252 6 3.75 C6.996445 3.627539 7.992891 3.505078 9.019531 3.378906 C10.003086 3.253867 10.986641 3.128828 12 3 C18.55704 2.403905 23.495204 3.15226 29 7 C30.261817 9.523633 29.788409 10.795204 29.4375 13.5625 C29.264355 15.967894 29.264355 15.967894 30 18 C32.538202 18.876745 34.758952 18.875913 37.4375 18.910156 C40.704036 19.024684 42.603765 19.769023 45 22 C45 24.1875 45 24.1875 44 26 C43.01 26 42.02 26 41 26 C40.36707 26.324844 39.734141 26.649687 39.082031 26.984375 C34.385615 29.27531 28.762399 28.39138 23.9375 26.8125 C22.968125 26.544375 21.99875 26.27625 21 26 C21 26.99 21 27.98 21 29 C18.343278 30.518127 16.434863 31 13.375 31 C11 30 11 30 9.1875 27.0625 C8 24 8 24 8 22 C10.082031 21.65625 10.082031 21.65625 12.8125 21.5 C16.536892 21.285028 17.796495 21.13567 21 19 C22.32 19 23.64 19 25 19 C24.67 18.34 24.34 17.68 24 17 C22.211624 16.874755 20.417718 16.824263 18.625 16.8125 C15.574219 16.601562 15.574219 16.601562 13 16 C11.91699 13.704018 10.922037 11.365226 10 9 C7.402709 7.718386 4.870709 6.891155 2.082031 6.117188 C1.051426 5.56418 1.051426 5.56418 0 5 C-0.300781 2.382812 -0.300781 2.382812 0 0 Z " fill="#FC8289" transform="translate(160,32)"/>
<path d="M0 0 C-0.33 0.99 -0.66 1.98 -1 3 C-2.570078 3.54334 -2.570078 3.54334 -4.171875 4.097656 C-9.453897 6.170809 -11.516865 10.721434 -14.25 15.4375 C-15.27489 17.145223 -16.300894 18.852278 -17.328125 20.558594 C-17.770596 21.314548 -18.213066 22.070503 -18.668945 22.849365 C-20 25 -20 25 -21.588867 27.093994 C-23.309762 29.418393 -24.356446 31.059318 -24 34 C-17.993567 33.504056 -13.811503 30.200443 -9.578125 26.253906 C-8 25 -8 25 -5 24.25 C-4.34 24.4975 -3.68 24.745 -3 25 C-2.700551 29.092463 -4.213273 31.61108 -6.6875 34.6875 C-11.505491 39.847193 -16.622442 41.689207 -23.585938 42.183594 C-26.192558 41.985356 -27.500118 41.557974 -29.625 40.0625 C-31.990437 37.012332 -32.958093 35.242178 -32.644531 31.355469 C-31.1913 26.044569 -27.980935 21.567018 -25 17 C-24.316797 15.912031 -23.633594 14.824062 -22.929688 13.703125 C-17.218156 4.799217 -11.597748 -3.015415 0 0 Z " fill="#E6538F" transform="translate(51,51)"/>
<path d="M0 0 C0.99 0 1.98 0 3 0 C4.559084 3.378015 3.722108 6.469692 3 10 C3.721875 9.67 4.44375 9.34 5.1875 9 C8.021084 7.992503 10.021525 7.561989 13 8 C12.67 8.99 12.34 9.98 12 11 C10.39125 11.495 10.39125 11.495 8.75 12 C7.8425 12.33 6.935 12.66 6 13 C7.319596 15.33467 9.402394 16.23395 11.6875 17.5625 C12.450625 18.036875 13.21375 18.51125 14 19 C14 19.66 14 20.32 14 21 C10.485602 20.668453 7.351238 20.117079 4 19 C3.934248 21.005434 3.885797 23.015842 3.992188 25.019531 C4 27 4 27 3 29 C2.01 28.67 1.02 28.34 0 28 C-0.42774 25.302384 -0.130561 22.741774 0 20 C-2.536733 21.355333 -2.536733 21.355333 -5 23 C-5 23.66 -5 24.32 -5 25 C-6.32 25 -7.64 25 -9 25 C-9.0625 23.125 -9.0625 23.125 -8 21 C-5.4375 19.75 -5.4375 19.75 -3 19 C-6.768487 17.115756 -11.161528 18.720509 -15 20 C-15 19.34 -15 18.68 -15 18 C-13.320312 17.148438 -13.320312 17.148438 -11.125 16.375 C-10.405703 16.114609 -9.686406 15.854219 -8.945312 15.585938 C-7 15 -7 15 -5 15 C-5 14.01 -5 13.02 -5 12 C-8.5 11.833333 -8.5 11.833333 -12 12 C-12 11.67 -12 11.34 -12 11 C-10.989375 10.9175 -9.97875 10.835 -8.9375 10.75 C-7.968125 10.5025 -6.99875 10.255 -6 10 C-5.845254 7.438102 -5.845254 7.438102 -7 5 C-7.66 4.67 -8.32 4.34 -9 4 C-8.67 3.34 -8.34 2.68 -8 2 C-5.4375 2.625 -5.4375 2.625 -3 4 C-3 5.32 -3 6.64 -3 8 C-2.34 8 -1.68 8 -1 8 C-0.632568 5.916335 -0.555058 3.86172 -0.441406 1.75 C-0.295742 1.1725 -0.150078 0.595 0 0 Z " fill="#E4AA61" transform="translate(182,5)"/>
<path d="M0 0 C6.055757 2.251162 9.427752 7.632438 12.066895 13.285156 C16.337891 23.280699 19.839561 33.145433 21 44 C21.171445 44.808242 21.342891 45.616484 21.519531 46.449219 C22.051095 49.271259 22.20389 51.942142 22.25 54.8125 C22.275781 55.78832 22.301562 56.764141 22.328125 57.769531 C22.219844 58.505586 22.111562 59.241641 22 60 C21.01 60 20.02 60 19 60 C14.787757 51.352007 13.375687 40.51835 11.194092 31.199463 C8.687907 17.873243 8.687907 17.873243 2.8125 5.9375 C0 2.153285 0 2.153285 0 0 Z " fill="#F07178" transform="translate(147,59)"/>
<path d="M0 0 C0.99 0 1.98 0 3 0 C3.125 2.152344 3.125 2.152344 3 4.9375 C3.007193 7.691899 3.007193 7.691899 4 10 C7.034056 10.891546 9.574038 10.877182 12.726562 10.742188 C13.851914 10.869805 13.851914 10.869805 15 11 C15.148438 12.933594 15.148438 12.933594 14 15 C11.75 15.792969 11.75 15.792969 9 16.1875 C5.69756 16.44717 5.69756 16.44717 3 18 C2.784841 19.607532 2.629141 21.223126 2.5 22.839844 C2.4175 23.820176 2.335 24.800508 2.25 25.810547 C2.1675 26.842441 2.085 27.874336 2 28.9375 C1.837071 30.967751 1.670579 32.997721 1.5 35.027344 C1.427812 35.932185 1.355625 36.837026 1.28125 37.769287 C1 40 1 40 0 42 C-2.605957 42.942627 -2.605957 42.942627 -5 43 C-5.046387 40.953857 -5.046387 40.953857 -4.304688 37.917969 C-2.62577 29.794519 -2.955831 21.995411 -3.253906 13.744141 C-3.27582 12.628457 -3.297734 11.512773 -3.320312 10.363281 C-3.353989 9.355637 -3.387666 8.347993 -3.422363 7.309814 C-3.282983 6.547576 -3.143604 5.785337 -3 5 C-0.952637 4.293701 -0.952637 4.293701 1 4 C0.5907 1.946033 0.5907 1.946033 0 0 Z " fill="#C93248" transform="translate(189,105)"/>
<path d="M0 0 C2.633067 -0.936072 4.295457 -0.647071 7.017822 -0.111328 C9 1 9 1 9.698242 3.133057 C10.133409 11.909853 7.886228 25.670658 3 33 C0.288482 31.000557 -0.643051 30.015936 -2 27 C-2.557356 22.301534 -2.241327 17.768577 -1.875 13.0625 C-1.832461 11.793418 -1.789922 10.524336 -1.746094 9.216797 C-1.316704 3.096345 -1.316704 3.096345 0 0 Z " fill="#F05E67" transform="translate(160,123)"/>
<path d="M0 0 C0 0.639375 0 1.27875 0 1.9375 C0.33 2.618125 0.66 3.29875 1 4 C5.919669 5.135308 10.59259 4.978642 15.625 4.875 C20.506277 4.829698 23.913308 5.0485 28 8 C29.642473 11.284946 29.176039 14.361855 29 18 C28.34 18 27.68 18 27 18 C27 17.34 27 16.68 27 16 C26.01 16.33 25.02 16.66 24 17 C20.210538 17.182625 16.661963 17.034033 13 16 C11.91699 13.704018 10.922037 11.365226 10 9 C7.402709 7.718386 4.870709 6.891155 2.082031 6.117188 C1.051426 5.56418 1.051426 5.56418 0 5 C-0.300781 2.382812 -0.300781 2.382812 0 0 Z " fill="#FC727A" transform="translate(160,32)"/>
<path d="M0 0 C0.66 0.33 1.32 0.66 2 1 C2.378906 4.097656 2.378906 4.097656 2.5625 8.0625 C2.620563 17.288803 2.620563 17.288803 5 26 C4.875 29.375 4.875 29.375 4 32 C-0.104149 29.923702 -1.519947 27.230898 -3.019531 23.085938 C-3.634205 21.187718 -4.231404 19.283766 -4.8125 17.375 C-5.123809 16.408203 -5.435117 15.441406 -5.755859 14.445312 C-8 7.382435 -8 7.382435 -8 5 C-5.118466 3.598173 -3.229122 3 0 3 C0 2.01 0 1.02 0 0 Z " fill="#E66372" transform="translate(181,58)"/>
<path d="M0 0 C-1.763438 0.278438 -1.763438 0.278438 -3.5625 0.5625 C-5.264062 1.274062 -5.264062 1.274062 -7 2 C-7.568665 5.527856 -7.568665 5.527856 -6 9 C-3.233944 10.716776 -3.233944 10.716776 0 12 C2.875 14.5625 2.875 14.5625 5 17 C5 17.66 5 18.32 5 19 C5.66 19 6.32 19 7 19 C8.125 21 8.125 21 9 23 C4.025488 22.167004 0.406824 19.062201 -3.664062 16.257812 C-5.908643 14.713914 -8.18518 13.26496 -10.523438 11.867188 C-11.629453 11.189141 -12.735469 10.511094 -13.875 9.8125 C-14.903672 9.200195 -15.932344 8.587891 -16.992188 7.957031 C-17.654766 7.311211 -18.317344 6.665391 -19 6 C-18.789062 3.347656 -18.789062 3.347656 -17 1 C-14.333311 0.2477 -12.213818 -0.146735 -9.5 -0.375 C-8.810352 -0.456211 -8.120703 -0.537422 -7.410156 -0.621094 C-2.331235 -1.165617 -2.331235 -1.165617 0 0 Z " fill="#FA7A7F" transform="translate(133,35)"/>
<path d="M0 0 C0 0.99 0 1.98 0 3 C-2.49758 3.953873 -5.011589 4.468437 -7.617188 5.058594 C-10.124525 5.779667 -10.124525 5.779667 -11.226562 7.925781 C-11.481797 8.610273 -11.737031 9.294766 -12 10 C-13.5 12.75 -13.5 12.75 -15 15 C-15.66 15 -16.32 15 -17 15 C-17.023345 17.656703 -16.796301 20.262655 -16.582031 22.910156 C-16.719961 23.599805 -16.857891 24.289453 -17 25 C-19.507812 25.125 -19.507812 25.125 -22 24 C-23.046037 18.331475 -21.184675 11.679413 -18.351562 6.726562 C-13.967191 1.125718 -7.085457 -1.968183 0 0 Z " fill="#D44C50" transform="translate(177,17)"/>
<path d="M0 0 C2.453857 -0.037598 2.453857 -0.037598 5 1 C5.827148 3.449219 5.827148 3.449219 6.109375 6.6875 C6.224102 7.861836 6.338828 9.036172 6.457031 10.246094 C6.553711 11.484883 6.650391 12.723672 6.75 14 C6.862148 15.207852 6.974297 16.415703 7.089844 17.660156 C7.308109 20.019993 7.517363 22.380684 7.716797 24.742188 C8.072842 28.837938 8.524771 32.916552 9 37 C4.769896 34.179931 4.769896 34.179931 3 32 C2.509231 29.192593 2.760334 26.875993 3 24 C2.67 23.67 2.34 23.34 2 23 C1.593875 20.456529 1.244997 17.930639 0.9375 15.375 C0.846621 14.675039 0.755742 13.975078 0.662109 13.253906 C0.405154 11.171216 0.193144 9.089512 0 7 C-0.077183 6.300361 -0.154365 5.600723 -0.233887 4.879883 C-0.371094 2.914062 -0.371094 2.914062 0 0 Z " fill="#CB3146" transform="translate(182,59)"/>
<path d="M0 0 C4.514277 3.668664 8.501511 7.335348 12 12 C12 12.66 12 13.32 12 14 C14.343609 13.748899 16.679682 13.414343 19 13 C17.25 16.875 17.25 16.875 15 18 C10.393881 18.040123 6.29183 17.882225 2.4375 15.25 C-0.605832 10.486523 -0.092701 5.469361 0 0 Z " fill="#4F3037" transform="translate(167,95)"/>
<path d="M0 0 C2.5 0.5 2.5 0.5 5 2 C5 2.66 5 3.32 5 4 C5.99 4 6.98 4 8 4 C8 3.34 8 2.68 8 2 C8.99 2 9.98 2 11 2 C11.866211 3.822998 11.866211 3.822998 12 6 C10.875977 7.479736 10.875977 7.479736 9.140625 8.832031 C8.519297 9.319941 7.897969 9.807852 7.257812 10.310547 C6.595234 10.806191 5.932656 11.301836 5.25 11.8125 C4.602891 12.32748 3.955781 12.842461 3.289062 13.373047 C-0.324131 16.149853 -0.324131 16.149853 -2 17 C-2.99 16.67 -3.98 16.34 -5 16 C-5.5 13.75 -5.5 13.75 -5 11 C-4.175 10.195625 -3.35 9.39125 -2.5 8.5625 C0.400081 6.186583 0.400081 6.186583 0 2.5625 C0 1.716875 0 0.87125 0 0 Z " fill="#FECCC1" transform="translate(184,149)"/>
<path d="M0 0 C0.99 0 1.98 0 3 0 C3 0.66 3 1.32 3 2 C3.99 2.33 4.98 2.66 6 3 C6.124314 8.09686 3.733354 11.396881 0.691406 15.230469 C-1.593779 17.621205 -3.908352 18.875765 -7 20 C-7.66 20 -8.32 20 -9 20 C-8.75 18 -8.75 18 -8 16 C-7.34 16 -6.68 16 -6 16 C-6 15.01 -6 14.02 -6 13 C-5.34 13 -4.68 13 -4 13 C-3.636785 11.339589 -3.31323 9.670561 -3 8 C-2.574557 6.552425 -2.114276 5.114765 -1.625 3.6875 C-1.390391 2.990117 -1.155781 2.292734 -0.914062 1.574219 C-0.612422 1.054727 -0.310781 0.535234 0 0 Z " fill="#FBC0BE" transform="translate(157,151)"/>
<path d="M0 0 C1.089645 3.268935 0.894555 4.212608 0.0625 7.4375 C-0.73046 10.54107 -1 12.713217 -1 16 C1.043342 16 3.088479 15.991926 5.128906 15.882812 C6.055098 15.94082 6.055098 15.94082 7 16 C7.45375 16.61875 7.9075 17.2375 8.375 17.875 C8.25125 18.57625 8.1275 19.2775 8 20 C5.289062 21.359375 5.289062 21.359375 2 22 C-0.5 20.585938 -0.5 20.585938 -3 18.375 C-8.602371 13.90083 -13.491396 12.328055 -20.324219 10.691406 C-21.207227 10.463242 -22.090234 10.235078 -23 10 C-23 9.67 -23 9.34 -23 9 C-20.079895 8.864181 -17.47712 8.886998 -14.625 9.5625 C-10.890603 10.184899 -7.522779 10.610623 -4 9 C-2.091674 6.177379 -0.996574 3.245423 0 0 Z " fill="#D57483" transform="translate(157,25)"/>
<path d="M0 0 C2.5625 0.3125 2.5625 0.3125 4.207031 1.546875 C5.938798 3.802664 5.905176 5.062295 5.8125 7.875 C5.797031 8.660039 5.781562 9.445078 5.765625 10.253906 C5.5625 12.3125 5.5625 12.3125 4.5625 14.3125 C2.25 14.75 2.25 14.75 -0.4375 14.3125 C-3.619814 11.47422 -4.37862 9.891488 -4.8125 5.625 C-4.374525 1.756221 -3.966437 0.508518 0 0 Z " fill="#37302F" transform="translate(43.4375,137.6875)"/>
<path d="M0 0 C2.4375 0.8125 2.4375 0.8125 4.4375 2.8125 C4.823013 6.282117 4.58713 8.450237 3.25 11.6875 C1.4375 13.8125 1.4375 13.8125 -1.125 14.3125 C-3.5625 13.8125 -3.5625 13.8125 -5.5625 10.8125 C-6.119032 7.227567 -6.205275 3.928898 -4.375 0.75 C-2.5625 -0.1875 -2.5625 -0.1875 0 0 Z " fill="#37302F" transform="translate(61.5625,141.1875)"/>
<path d="M0 0 C0.33 0 0.66 0 1 0 C1.144375 0.969375 1.28875 1.93875 1.4375 2.9375 C1.623125 3.948125 1.80875 4.95875 2 6 C2.66 6.33 3.32 6.66 4 7 C4.686443 13.218366 5.168512 22.371546 2 28 C-0.621094 29.042969 -0.621094 29.042969 -3 29 C-3.085938 27.070312 -3.085938 27.070312 -2.375 24.125 C-1.058062 17.860245 -0.603083 11.812349 -0.343262 5.437988 C-0.260921 3.623585 -0.135199 1.811232 0 0 Z " fill="#C02540" transform="translate(187,119)"/>
<path d="M0 0 C2.1875 1.8125 2.1875 1.8125 4 4 C2.60339 6.094916 1.237588 6.881206 -1 8 C-3.056875 8.196965 -5.122175 8.312048 -7.1875 8.375 C-8.848457 8.448477 -8.848457 8.448477 -10.542969 8.523438 C-11.353789 8.350703 -12.164609 8.177969 -13 8 C-13.242188 5.519531 -13.242188 5.519531 -12 3 C-9.277344 2.363281 -9.277344 2.363281 -5.9375 2.3125 C-3.956081 2.268571 -1.97357 2.18158 0 2 C0 1.34 0 0.68 0 0 Z " fill="#FA6C75" transform="translate(205,118)"/>
<path d="M0 0 C1.206562 0.030938 1.206562 0.030938 2.4375 0.0625 C1.416562 0.18625 1.416562 0.18625 0.375 0.3125 C-0.264375 0.56 -0.90375 0.8075 -1.5625 1.0625 C-1.590751 3.025106 -1.590751 3.025106 -0.5625 5.0625 C1.600949 6.712675 1.600949 6.712675 4.25 8.0625 C7.866825 10.028514 10.773777 11.883418 13.4375 15.0625 C13.4375 16.0525 13.4375 17.0425 13.4375 18.0625 C9.4375 18.0625 9.4375 18.0625 7.945312 16.636719 C7.488984 16.014102 7.032656 15.391484 6.5625 14.75 C4.382223 11.970564 3.467137 11.07592 0.125 9.5625 C-0.761875 9.0675 -1.64875 8.5725 -2.5625 8.0625 C-3.5 4.4375 -3.5 4.4375 -3.5625 1.0625 C-2.5625 0.0625 -2.5625 0.0625 0 0 Z " fill="#F0646D" transform="translate(128.5625,35.9375)"/>
<path d="M0 0 C-1.155 0.185625 -2.31 0.37125 -3.5 0.5625 C-4.655 1.036875 -5.81 1.51125 -7 2 C-6.896875 3.258125 -6.79375 4.51625 -6.6875 5.8125 C-6.842187 7.390313 -6.842187 7.390313 -7 9 C-11.263064 8.944795 -15.289661 8.123602 -19 6 C-18.835938 3.445312 -18.835938 3.445312 -17 1 C-14.333311 0.2477 -12.213818 -0.146735 -9.5 -0.375 C-8.810352 -0.456211 -8.120703 -0.537422 -7.410156 -0.621094 C-2.331235 -1.165617 -2.331235 -1.165617 0 0 Z " fill="#F88891" transform="translate(133,35)"/>
<path d="M0 0 C0.99 0 1.98 0 3 0 C3 3.422709 2.940603 6.829317 2.8125 10.25 C2.777695 11.533906 2.742891 12.817813 2.707031 14.140625 C2.473711 15.084219 2.240391 16.027812 2 17 C-0.554688 17.25 -0.554688 17.25 -3 16 C-3.339844 13.671875 -3.339844 13.671875 -2.9375 10.75 C-2.822773 9.796094 -2.708047 8.842188 -2.589844 7.859375 C-2.000758 5.003674 -1.361964 2.582548 0 0 Z " fill="#CA2627" transform="translate(158,25)"/>
<path d="M0 0 C4.053306 0.119215 7.630205 1.833704 11 4 C11.0625 6.0625 11.0625 6.0625 10 8 C6.355823 10.429452 4.287587 10.161796 0 10 C0.99 9.597813 0.99 9.597813 2 9.1875 C2.66 8.795625 3.32 8.40375 4 8 C4 7.01 4 6.02 4 5 C3.34 4.855625 2.68 4.71125 2 4.5625 C1.34 4.376875 0.68 4.19125 0 4 C0 2.68 0 1.36 0 0 Z " fill="#E54C5F" transform="translate(160,37)"/>
<path d="M0 0 C0.33 0 0.66 0 1 0 C1.412942 2.565066 1.759535 5.108929 2.0625 7.6875 C2.153379 8.40873 2.244258 9.129961 2.337891 9.873047 C2.791206 13.605227 3.111468 17.232365 3 21 C-2.718033 17.307104 -2.718033 17.307104 -3.503906 13.664062 C-3.610204 9.171193 -3.610204 9.171193 -3 7 C-2.01 7 -1.02 7 0 7 C0.166667 3.5 0.166667 3.5 0 0 Z " fill="#D13C51" transform="translate(188,75)"/>
<path d="M0 0 C2.371094 -0.59375 2.371094 -0.59375 5.4375 -0.5 C6.951504 -0.484531 6.951504 -0.484531 8.496094 -0.46875 C9.322383 -0.314062 10.148672 -0.159375 11 0 C11.33 0.99 11.66 1.98 12 3 C8.440341 4.993409 6.137623 6 2.0625 6 C1.381875 5.67 0.70125 5.34 0 5 C-0.46875 2.46875 -0.46875 2.46875 0 0 Z " fill="#DC3C4F" transform="translate(173,48)"/>
<path d="M0 0 C0.33 0.66 0.66 1.32 1 2 C0.67 2.99 0.34 3.98 0 5 C0.66 5.33 1.32 5.66 2 6 C-3.396599 7.370565 -8.415324 8.485624 -14 8 C-12.418335 4.836671 -9.644591 4.212919 -6.5 2.75 C-5.314063 2.187969 -4.128125 1.625937 -2.90625 1.046875 C-1.947188 0.701406 -0.988125 0.355938 0 0 Z " fill="#754C57" transform="translate(156,167)"/>
<path d="M0 0 C1.848308 -0.180395 3.705934 -0.268351 5.5625 -0.3125 C6.595039 -0.349883 7.627578 -0.387266 8.691406 -0.425781 C9.453242 -0.285273 10.215078 -0.144766 11 0 C10.964844 1.957031 10.964844 1.957031 10 4 C6.638297 5.680851 3.721883 5.300152 0 5 C0 3.333333 0 1.666667 0 0 Z " fill="#DB3A4D" transform="translate(193,116)"/>
<path d="M0 0 C4.875 4.75 4.875 4.75 6 7 C5.666667 8.333333 5.333333 9.666667 5 11 C5.33 11.66 5.66 12.32 6 13 C5.34 13 4.68 13 4 13 C3.67 13.66 3.34 14.32 3 15 C2.896875 14.071875 2.79375 13.14375 2.6875 12.1875 C1.958791 8.808941 1.420169 8.218489 -1 6 C-1.8125 3.8125 -1.8125 3.8125 -2 2 C-1.34 2 -0.68 2 0 2 C0 1.34 0 0.68 0 0 Z " fill="#E2515E" transform="translate(142,52)"/>
<path d="M0 0 C0.33 0 0.66 0 1 0 C1.216288 2.078768 1.371346 4.163974 1.5 6.25 C1.717393 10.735683 1.717393 10.735683 2.644531 15.097656 C3.162013 17.867038 2.261629 19.61794 1.1875 22.1875 C0.83043 23.06793 0.473359 23.948359 0.105469 24.855469 C-1 27 -1 27 -3 28 C-2.867227 27.403164 -2.734453 26.806328 -2.597656 26.191406 C-1.192138 19.286927 -0.630544 12.512214 -0.342041 5.488525 C-0.260565 3.657279 -0.135016 1.828078 0 0 Z " fill="#B32944" transform="translate(187,119)"/>
<path d="M0 0 C0 0.99 0 1.98 0 3 C-2.046875 4.203125 -2.046875 4.203125 -4.75 5.25 C-5.631719 5.605781 -6.513438 5.961562 -7.421875 6.328125 C-10.118751 7.030947 -11.418997 6.940739 -14 6 C-12.614478 4.985762 -11.216057 3.98913 -9.8125 3 C-9.035195 2.443125 -8.257891 1.88625 -7.457031 1.3125 C-4.706372 -0.156851 -3.073006 -0.523994 0 0 Z " fill="#D32D2B" transform="translate(177,17)"/>
<path d="M0 0 C3.5625 -0.6875 3.5625 -0.6875 7 0 C7.9375 3.0625 7.9375 3.0625 7 6 C4.1253 6.548142 1.67182 6.174163 -1 5 C-1.4375 2.4375 -1.4375 2.4375 0 0 Z " fill="#FA7D86" transform="translate(162,124)"/>
<path d="M0 0 C0.718539 2.235454 1.002349 3.956552 0.875 6.3125 C0.441875 7.147813 0.441875 7.147813 0 8 C-3.778294 7.897884 -6.253405 6.535318 -9 4 C-8.67 3.67 -8.34 3.34 -8 3 C-6.645205 3.005729 -5.290415 3.053417 -3.9375 3.125 C-2.638125 3.08375 -1.33875 3.0425 0 3 C0 2.01 0 1.02 0 0 Z " fill="#EB5662" transform="translate(155,33)"/>
<path d="M0 0 C0.66 0.33 1.32 0.66 2 1 C1.910079 4.956536 1.253591 6.698432 -1.3125 9.75 C-3.567064 11.637542 -5.382978 12.772399 -8 14 C-7.590078 13.324531 -7.180156 12.649063 -6.757812 11.953125 C-6.218984 11.061094 -5.680156 10.169062 -5.125 9.25 C-4.591328 8.368281 -4.057656 7.486562 -3.507812 6.578125 C-1.983017 4.077492 -1.983017 4.077492 -0.929688 1.609375 C-0.622891 1.078281 -0.316094 0.547188 0 0 Z " fill="#ECBDA5" transform="translate(183,150)"/>
<path d="M0 0 C2.040283 0.19165 2.040283 0.19165 4 1 C3.34 1 2.68 1 2 1 C1.832864 3.374685 1.832864 3.374685 2 6 C2 9.472231 1.542801 12.748261 1.0625 16.1875 C0.888477 17.459805 0.714453 18.732109 0.535156 20.042969 C0.358555 21.018789 0.181953 21.994609 0 23 C-0.33 23 -0.66 23 -1 23 C-1.154351 19.146528 -0.945508 15.290224 -0.8125 11.4375 C-0.793809 10.332129 -0.775117 9.226758 -0.755859 8.087891 C-0.719121 7.046973 -0.682383 6.006055 -0.644531 4.933594 C-0.617219 3.964783 -0.589907 2.995972 -0.561768 1.997803 C-0.376384 1.338528 -0.191001 0.679253 0 0 Z " fill="#F4545F" transform="translate(160,123)"/>
<path d="M0 0 C3.912698 1.304233 6.373102 2.789347 9 6 C9 6.99 9 7.98 9 9 C7.68 9 6.36 9 5 9 C3.375 6.75 3.375 6.75 2 4 C1.608125 3.236875 1.21625 2.47375 0.8125 1.6875 C0.544375 1.130625 0.27625 0.57375 0 0 Z " fill="#EE6873" transform="translate(133,45)"/>
<path d="M0 0 C2.101562 0.257812 2.101562 0.257812 4.625 1.125 C5.462891 1.395703 6.300781 1.666406 7.164062 1.945312 C8.072852 2.467383 8.072852 2.467383 9 3 C8.67 3.99 8.34 4.98 8 6 C5.898438 5.742188 5.898438 5.742188 3.375 4.875 C2.537109 4.604297 1.699219 4.333594 0.835938 4.054688 C0.230078 3.706641 -0.375781 3.358594 -1 3 C-0.67 2.01 -0.34 1.02 0 0 Z " fill="#5D414C" transform="translate(133,34)"/>
<path d="M0 0 C0.66 0 1.32 0 2 0 C1.762356 4.990518 -0.077003 8.03981 -3 12 C-4.200592 8.398223 -3.715065 7.664506 -2.1875 4.3125 C-1.83043 3.504258 -1.473359 2.696016 -1.105469 1.863281 C-0.740664 1.248398 -0.375859 0.633516 0 0 Z " fill="#643E4C" transform="translate(164,153)"/>
<path d="M0 0 C0.063164 0.647109 0.126328 1.294219 0.191406 1.960938 C0.458242 2.633828 0.725078 3.306719 1 4 C3.276241 4.63444 3.276241 4.63444 5.9375 4.625 C10.807175 4.807175 10.807175 4.807175 13 7 C8.710583 8.474487 5.672828 7.675836 1.605469 6.035156 C1.075664 5.693555 0.545859 5.351953 0 5 C-0.5 2.3125 -0.5 2.3125 0 0 Z " fill="#F48A96" transform="translate(160,32)"/>
<path d="M0 0 C1.515625 1.285156 1.515625 1.285156 3 3 C2.725424 6.775418 2.019793 10.357884 1 14 C0 13 0 13 -0.097656 10.058594 C-0.086055 8.863633 -0.074453 7.668672 -0.0625 6.4375 C-0.053477 5.239961 -0.044453 4.042422 -0.035156 2.808594 C-0.023555 1.881758 -0.011953 0.954922 0 0 Z " fill="#F8B66B" transform="translate(207,78)"/>
<path d="M0 0 C0.33 0 0.66 0 1 0 C0.949219 1.863281 0.949219 1.863281 0.6875 4.3125 C0.608867 5.113008 0.530234 5.913516 0.449219 6.738281 C0 9 0 9 -2 12 C-3.8125 10.3125 -3.8125 10.3125 -5 8 C-4.01 7.34 -3.02 6.68 -2 6 C-1.285917 4.016435 -0.613823 2.016846 0 0 Z " fill="#F66876" transform="translate(165,144)"/>
<path d="M0 0 C0.167969 2.003906 0.167969 2.003906 0.1875 4.5625 C0.20168 5.409414 0.215859 6.256328 0.230469 7.128906 C0.116387 8.055098 0.116387 8.055098 0 9 C-2 8 -2 8 -3.3125 4.5 C-3.652813 2.7675 -3.652813 2.7675 -4 1 C-1 0 -1 0 0 0 Z " fill="#F06D74" transform="translate(177,62)"/>
<path d="M0 0 C2.625 -0.25 2.625 -0.25 5 0 C4.071875 1.144687 4.071875 1.144687 3.125 2.3125 C0.944029 4.996258 0.944029 4.996258 -1 8 C-1.871558 5.559637 -2.07696 4.277057 -1.375 1.75 C-0.92125 1.1725 -0.4675 0.595 0 0 Z " fill="#D45C5B" transform="translate(162,24)"/>
<path d="M0 0 C0.33 0 0.66 0 1 0 C1.167969 1.96875 1.167969 1.96875 1.1875 4.5 C1.20168 5.335313 1.215859 6.170625 1.230469 7.03125 C1.116387 8.005781 1.116387 8.005781 1 9 C0.34 9 -0.32 9 -1 9 C-1.75 5.625 -1.75 5.625 -2 2 C-1.34 1.34 -0.68 0.68 0 0 Z " fill="#FD7B84" transform="translate(167,110)"/>
<path d="M0 0 C0.3125 2.4375 0.3125 2.4375 0 5 C-2.0625 6.125 -2.0625 6.125 -4 6 C-3.875 3.625 -3.875 3.625 -3 1 C-1 0 -1 0 0 0 Z " fill="#634150" transform="translate(160,166)"/>
<path d="M0 0 C1.206562 0.030938 1.206562 0.030938 2.4375 0.0625 C1.756875 0.124375 1.07625 0.18625 0.375 0.25 C-0.264375 0.518125 -0.90375 0.78625 -1.5625 1.0625 C-1.218051 3.535168 -1.218051 3.535168 -0.5625 6.0625 C-1.2225 6.7225 -1.8825 7.3825 -2.5625 8.0625 C-2.943132 5.736414 -3.275199 3.401947 -3.5625 1.0625 C-2.5625 0.0625 -2.5625 0.0625 0 0 Z " fill="#BE6774" transform="translate(128.5625,35.9375)"/>
<path d="M0 0 C0.556875 0.226875 1.11375 0.45375 1.6875 0.6875 C-2.743269 3.764423 -2.743269 3.764423 -5.625 3.375 C-6.460312 3.034688 -6.460312 3.034688 -7.3125 2.6875 C-2.881731 -0.389423 -2.881731 -0.389423 0 0 Z " fill="#D85955" transform="translate(170.3125,17.3125)"/>
<path d="" fill="#FAF7F0" transform="translate(0,0)"/>
<path d="" fill="#E7B46C" transform="translate(0,0)"/>
<path d="" fill="#E4AD5D" transform="translate(0,0)"/>
<path d="" fill="#E4AD5D" transform="translate(0,0)"/>
<path d="" fill="#E4AC5C" transform="translate(0,0)"/>
<path d="" fill="#E4AD5E" transform="translate(0,0)"/>
<path d="" fill="#E4AD5D" transform="translate(0,0)"/>
<path d="" fill="#E4AD5D" transform="translate(0,0)"/>
<path d="" fill="#E4AC5C" transform="translate(0,0)"/>
<path d="" fill="#E4AC5C" transform="translate(0,0)"/>
<path d="" fill="#E4AC5C" transform="translate(0,0)"/>
<path d="" fill="#E6B165" transform="translate(0,0)"/>
</svg>
