<?xml version="1.0" encoding="UTF-8"?>
<!-- Generator: visioncortex VTracer 0.6.4 -->
<svg version="1.1" xmlns="http://www.w3.org/2000/svg" width="240" height="240">
<path d="M0 0 C1.179101 1.080843 2.322086 2.200992 3.453125 3.332031 C5.525983 3.822015 5.525983 3.822015 7.933594 4.042969 C9.298228 4.205149 9.298228 4.205149 10.69043 4.370605 C11.663994 4.481626 12.637559 4.592646 13.640625 4.707031 C36.141037 7.54423 36.141037 7.54423 46.015625 13.644531 C48.242844 15.028272 48.242844 15.028272 50.453125 15.332031 C53.294869 12.842362 54.722896 9.644334 56.453125 6.332031 C58.703125 3.769531 58.703125 3.769531 61.453125 2.332031 C64.034567 2.273075 66.581256 2.397537 69.160156 2.515625 C71.732975 2.566832 71.732975 2.566832 73.703125 -0.042969 C74.280625 -0.909219 74.858125 -1.775469 75.453125 -2.667969 C80.070436 -4.925321 83.485744 -4.792659 88.453125 -3.667969 C91.453125 -1.667969 91.453125 -1.667969 92.265625 0.269531 C92.453125 2.332031 92.453125 2.332031 90.453125 5.332031 C88.078125 6 88.078125 6 85.453125 6.519531 C83.041592 7.093158 83.041592 7.093158 81.453125 8.332031 C82.410753 10.841859 83.915074 12.426494 85.726562 14.394531 C88.679982 17.708776 88.743455 21.009047 88.664062 25.335938 C88.343941 28.365232 87.427272 30.02886 85.453125 32.332031 C84.339375 32.827031 83.225625 33.322031 82.078125 33.832031 C81.211875 34.327031 80.345625 34.822031 79.453125 35.332031 C79.888828 36.03457 80.324531 36.737109 80.773438 37.460938 C82.912663 41.117521 82.787881 43.561384 82.703125 47.769531 C82.687656 49.046992 82.672188 50.324453 82.65625 51.640625 C82.453125 55.332031 82.453125 55.332031 81.925781 58.175781 C81.392332 61.737987 81.468508 65.074331 81.56958 68.66626 C81.884993 80.778764 79.766966 89.940438 75.015625 101.082031 C68.999764 115.427547 66.652701 129.051232 65.440918 144.468018 C64.114085 161.049276 64.114085 161.049276 60.929688 165.425781 C55.835585 169.29472 51.674849 170.127263 45.300781 169.796875 C41.148602 169.119084 38.799754 167.878379 35.453125 165.332031 C32.987311 161.633311 33.094307 159.368702 32.890625 154.957031 C32.767744 152.414152 32.62373 149.872155 32.453125 147.332031 C32.402852 146.394883 32.352578 145.457734 32.300781 144.492188 C31.61019 142.041067 31.61019 142.041067 28.765625 140.914062 C24.118662 139.821852 24.118662 139.821852 19.453125 140.332031 C18.276614 143.851466 18.393256 146.927185 18.4375 150.628906 C18.46153 156.324061 17.12111 160.360777 13.390625 164.769531 C10.037737 167.473473 7.838664 167.493489 3.578125 167.519531 C2.528828 167.533711 1.479531 167.547891 0.398438 167.5625 C-2.523681 167.333846 -4.11121 166.90805 -6.546875 165.332031 C-8.690963 162.80507 -9.60665 161.210587 -9.378906 157.863281 C-9.289961 157.007344 -9.201016 156.151406 -9.109375 155.269531 C-9.325938 153.320469 -9.325938 153.320469 -9.546875 151.332031 C-12.331619 151.751578 -14.470699 152.858731 -16.96875 154.140625 C-19.546875 155.332031 -19.546875 155.332031 -23.546875 155.332031 C-24.078184 158.166829 -24.078184 158.166829 -23.867188 161.71875 C-23.856784 162.372773 -23.846381 163.026796 -23.835663 163.700638 C-23.799831 165.80781 -23.737574 167.913095 -23.671875 170.019531 C-23.616505 172.107944 -23.566989 174.196054 -23.52951 176.284866 C-23.493824 178.193699 -23.439021 180.102145 -23.383301 182.010498 C-23.582749 186.060492 -24.221908 189.045192 -27.175781 191.914062 C-32.371098 195.220173 -36.425701 196.313125 -42.546875 195.332031 C-46.319621 194.411849 -49.408477 193.510151 -52.14917 190.673828 C-54.018498 187.541846 -53.794666 185.441851 -53.636719 181.816406 C-53.618027 180.566016 -53.599336 179.315625 -53.580078 178.027344 C-53.515871 175.380439 -53.416454 172.734172 -53.283203 170.089844 C-53.243911 165.0893 -53.243911 165.0893 -54.546875 160.332031 C-57.750767 159.276808 -60.116726 159.527558 -63.450684 159.956543 C-66.438322 160.318867 -67.957592 160.091664 -70.746094 159.167969 C-71.670352 159.222109 -72.594609 159.27625 -73.546875 159.332031 C-74.633649 162.817234 -74.429249 166.337125 -74.359375 169.957031 C-74.358093 171.970062 -74.364358 173.983115 -74.378906 175.996094 C-74.365774 176.897954 -74.352642 177.799814 -74.339111 178.729004 C-74.650724 182.633127 -75.555846 185.436908 -78.484375 188.082031 C-83.247289 190.968646 -88.146308 190.802376 -93.546875 190.332031 C-98.846326 188.43937 -98.846326 188.43937 -100.663574 185.566895 C-101.707393 182.9259 -101.964068 180.655711 -102.179688 177.824219 C-102.305371 176.219336 -102.305371 176.219336 -102.433594 174.582031 C-102.551543 172.911406 -102.551543 172.911406 -102.671875 171.207031 C-102.758242 170.116484 -102.844609 169.025937 -102.933594 167.902344 C-103.320675 162.765833 -103.546285 157.798651 -103.289062 152.652344 C-103.201459 150.306242 -103.201459 150.306242 -103.546875 148.332031 C-105.7225 146.758949 -105.7225 146.758949 -108.546875 146.332031 C-120.457418 138.404623 -128.484971 127.897057 -132.160156 114.015625 C-134.265285 99.407309 -132.477634 84.973543 -124.546875 72.332031 C-123.023843 70.545146 -121.481889 68.774223 -119.921875 67.019531 C-117.822213 64.679674 -117.822213 64.679674 -116.546875 62.332031 C-118.296875 59.082031 -118.296875 59.082031 -121.546875 57.332031 C-122.546875 56.332031 -122.546875 56.332031 -122.984375 52.894531 C-122.984375 47.870953 -120.575923 44.636436 -117.761719 40.628906 C-116.349949 38.469379 -116.349949 38.469379 -116.738281 36.347656 C-117.319655 34.898434 -117.940521 33.464826 -118.585938 32.042969 C-120.676629 26.144838 -120.619281 18.095085 -118.894531 12.042969 C-112.424602 -0.119388 -98.973537 -5.724502 -86.546875 -9.667969 C-61.691868 -16.654091 -20.728238 -17.078266 0 0 Z M-69.046875 10.082031 C-69.704539 10.238813 -70.362202 10.395596 -71.039795 10.557129 C-75.59181 11.768754 -78.895328 13.440278 -82.546875 16.332031 C-82.490251 18.620867 -82.490251 18.620867 -80.546875 20.332031 C-77.24425 21.812589 -75.337141 22.519875 -71.773682 21.672852 C-70.844187 21.256162 -69.914692 20.839473 -68.957031 20.410156 C-67.925137 19.961562 -66.893242 19.512969 -65.830078 19.050781 C-64.767246 18.566094 -63.704414 18.081406 -62.609375 17.582031 C-60.497604 16.646323 -58.384357 15.713938 -56.269531 14.785156 C-55.282271 14.350098 -54.29501 13.915039 -53.277832 13.466797 C-50.066355 12.132366 -46.920872 11.157533 -43.546875 10.332031 C-50.605109 5.626542 -61.174774 8.162455 -69.046875 10.082031 Z M65.453125 14.332031 C63.448951 18.500713 62.453125 20.640126 62.453125 25.332031 C64.348419 26.641936 64.348419 26.641936 66.453125 26.332031 C66.987561 23.670841 66.987561 23.670841 66.765625 20.394531 C66.741133 19.271758 66.716641 18.148984 66.691406 16.992188 C66.612773 16.114336 66.534141 15.236484 66.453125 14.332031 C66.123125 14.332031 65.793125 14.332031 65.453125 14.332031 Z M75.453125 15.332031 C74.739832 18.470519 74.245753 20.658071 75.203125 23.769531 C75.615625 24.285156 76.028125 24.800781 76.453125 25.332031 C77.443125 25.002031 78.433125 24.672031 79.453125 24.332031 C79.310405 21.049482 79.019231 19.011358 76.890625 16.457031 C76.41625 16.085781 75.941875 15.714531 75.453125 15.332031 Z " fill="#FED1B0" transform="translate(141.546875,31.66796875)"/>
<path d="M0 0 C1.179101 1.080843 2.322086 2.200992 3.453125 3.332031 C5.525983 3.822015 5.525983 3.822015 7.933594 4.042969 C9.298228 4.205149 9.298228 4.205149 10.69043 4.370605 C11.663994 4.481626 12.637559 4.592646 13.640625 4.707031 C36.141037 7.54423 36.141037 7.54423 46.015625 13.644531 C48.242844 15.028272 48.242844 15.028272 50.453125 15.332031 C53.294869 12.842362 54.722896 9.644334 56.453125 6.332031 C58.703125 3.769531 58.703125 3.769531 61.453125 2.332031 C64.034567 2.273075 66.581256 2.397537 69.160156 2.515625 C71.732975 2.566832 71.732975 2.566832 73.703125 -0.042969 C74.280625 -0.909219 74.858125 -1.775469 75.453125 -2.667969 C80.070436 -4.925321 83.485744 -4.792659 88.453125 -3.667969 C91.453125 -1.667969 91.453125 -1.667969 92.265625 0.269531 C92.453125 2.332031 92.453125 2.332031 90.453125 5.332031 C88.078125 6 88.078125 6 85.453125 6.519531 C83.041592 7.093158 83.041592 7.093158 81.453125 8.332031 C82.410753 10.841859 83.915074 12.426494 85.726562 14.394531 C88.679982 17.708776 88.743455 21.009047 88.664062 25.335938 C88.343941 28.365232 87.427272 30.02886 85.453125 32.332031 C84.339375 32.827031 83.225625 33.322031 82.078125 33.832031 C81.211875 34.327031 80.345625 34.822031 79.453125 35.332031 C79.883672 36.033281 80.314219 36.734531 80.757812 37.457031 C82.903248 41.095373 82.919514 43.630702 82.953125 47.832031 C82.999531 49.765625 82.999531 49.765625 83.046875 51.738281 C82.315264 56.166452 80.847798 57.509954 77.453125 60.332031 C76.793125 60.992031 76.133125 61.652031 75.453125 62.332031 C74.463125 62.332031 73.473125 62.332031 72.453125 62.332031 C72.535625 63.012656 72.618125 63.693281 72.703125 64.394531 C72.3507 68.535529 70.352246 70.077176 67.371094 72.820312 C64.110114 75.390575 61.18986 76.246758 57.066406 76.449219 C56.204023 76.493047 55.341641 76.536875 54.453125 76.582031 C53.64875 76.587187 52.844375 76.592344 52.015625 76.597656 C49.130837 77.424394 48.583066 78.143558 46.667969 80.34375 C44.30799 82.875693 42.865153 83.774327 39.394531 84.023438 C37.934311 84.011609 36.474042 83.968032 35.015625 83.894531 C34.290527 83.892598 33.56543 83.890664 32.818359 83.888672 C27.667653 83.763722 24.112206 82.463016 19.453125 80.332031 C17.153867 80.020144 14.980186 79.958678 12.664062 79.933594 C9.114163 78.96772 7.689098 77.212204 5.453125 74.332031 C4.519267 71.475275 4.126756 68.621967 3.765625 65.644531 C3.304562 59.979072 3.304562 59.979072 0.453125 55.332031 C-0.536875 55.332031 -1.526875 55.332031 -2.546875 55.332031 C-2.916524 59.079106 -2.98336 62.73344 -2.986328 66.494141 C-3.081582 70.550663 -3.243626 72.824446 -5.367188 76.378906 C-7.546875 78.332031 -7.546875 78.332031 -10.984375 78.894531 C-16.280424 78.058313 -18.638226 75.55942 -21.785156 71.308594 C-22.811895 69.64957 -22.811895 69.64957 -23.859375 67.957031 C-24.556758 66.856172 -25.254141 65.755313 -25.972656 64.621094 C-27.629711 61.15896 -27.965207 59.113749 -27.546875 55.332031 C-27.216875 55.002031 -26.886875 54.672031 -26.546875 54.332031 C-27.164739 54.402043 -27.782603 54.472056 -28.419189 54.544189 C-36.526365 55.379958 -44.589271 55.533911 -52.734375 55.519531 C-53.762428 55.518126 -53.762428 55.518126 -54.811249 55.516693 C-69.210332 55.474029 -82.23231 54.79909 -95.65625 49.257812 C-98.645308 48.300506 -99.715841 48.131721 -102.546875 49.332031 C-103.714236 49.982306 -104.861101 50.670759 -105.984375 51.394531 C-108.326609 52.767565 -109.75579 53.372036 -112.484375 53.894531 C-113.505313 53.616094 -113.505313 53.616094 -114.546875 53.332031 C-115.109375 51.207031 -115.109375 51.207031 -114.546875 48.332031 C-113.86625 47.321406 -113.185625 46.310781 -112.484375 45.269531 C-110.385975 42.621346 -110.385975 42.621346 -110.421875 40.207031 C-111.5444 38.029779 -111.5444 38.029779 -114.484375 36.394531 C-117.958814 34.054603 -118.397894 33.242882 -119.546875 29.332031 C-120.315502 21.270383 -120.832929 13.837944 -115.546875 7.332031 C-105.117797 -5.042367 -88.14896 -10.692805 -72.446777 -12.440918 C-49.246345 -14.257419 -18.948254 -15.611714 0 0 Z M-69.046875 10.082031 C-69.704539 10.238813 -70.362202 10.395596 -71.039795 10.557129 C-75.59181 11.768754 -78.895328 13.440278 -82.546875 16.332031 C-82.490251 18.620867 -82.490251 18.620867 -80.546875 20.332031 C-77.24425 21.812589 -75.337141 22.519875 -71.773682 21.672852 C-70.844187 21.256162 -69.914692 20.839473 -68.957031 20.410156 C-67.925137 19.961562 -66.893242 19.512969 -65.830078 19.050781 C-64.767246 18.566094 -63.704414 18.081406 -62.609375 17.582031 C-60.497604 16.646323 -58.384357 15.713938 -56.269531 14.785156 C-55.282271 14.350098 -54.29501 13.915039 -53.277832 13.466797 C-50.066355 12.132366 -46.920872 11.157533 -43.546875 10.332031 C-50.605109 5.626542 -61.174774 8.162455 -69.046875 10.082031 Z M65.453125 14.332031 C63.448951 18.500713 62.453125 20.640126 62.453125 25.332031 C64.348419 26.641936 64.348419 26.641936 66.453125 26.332031 C66.987561 23.670841 66.987561 23.670841 66.765625 20.394531 C66.741133 19.271758 66.716641 18.148984 66.691406 16.992188 C66.612773 16.114336 66.534141 15.236484 66.453125 14.332031 C66.123125 14.332031 65.793125 14.332031 65.453125 14.332031 Z M75.453125 15.332031 C74.739832 18.470519 74.245753 20.658071 75.203125 23.769531 C75.615625 24.285156 76.028125 24.800781 76.453125 25.332031 C77.443125 25.002031 78.433125 24.672031 79.453125 24.332031 C79.310405 21.049482 79.019231 19.011358 76.890625 16.457031 C76.41625 16.085781 75.941875 15.714531 75.453125 15.332031 Z " fill="#FED1B0" transform="translate(141.546875,31.66796875)"/>
<path d="M0 0 C4.631394 4.335248 7.700936 7.829924 8.3125 14.3125 C7.866392 19.576575 5.945845 22.152887 2.152344 25.753906 C-14.261913 39.546648 -38.997911 41.498777 -59.621582 39.781738 C-75.484968 38.146249 -90.940431 35.398381 -101.9375 22.8125 C-105.083078 18.523075 -105.602504 15.250392 -105 10 C-100.939564 1.529665 -92.705166 -3.125866 -84.292969 -6.476562 C-58.627536 -15.444464 -22.775309 -16.152441 0 0 Z M-63.5 2.75 C-64.157664 2.906782 -64.815327 3.063564 -65.49292 3.225098 C-70.044935 4.436723 -73.348453 6.108247 -77 9 C-76.943376 11.288835 -76.943376 11.288835 -75 13 C-71.697375 14.480558 -69.790266 15.187844 -66.226807 14.34082 C-65.297312 13.924131 -64.367817 13.507441 -63.410156 13.078125 C-62.378262 12.629531 -61.346367 12.180937 -60.283203 11.71875 C-59.220371 11.234063 -58.157539 10.749375 -57.0625 10.25 C-54.950729 9.314292 -52.837482 8.381907 -50.722656 7.453125 C-49.735396 7.018066 -48.748135 6.583008 -47.730957 6.134766 C-44.51948 4.800335 -41.373997 3.825501 -38 3 C-45.058234 -1.70549 -55.627899 0.830423 -63.5 2.75 Z " fill="#FEFEFC" transform="translate(136,39)"/>
<path d="M0 0 C10.461357 8.544136 10.461357 8.544136 11.121094 14.585938 C11.143008 15.898203 11.164922 17.210469 11.1875 18.5625 C11.247441 20.523164 11.247441 20.523164 11.308594 22.523438 C10.622546 27.023529 9.197697 28.336021 5.75 31.1875 C4.76 32.1775 4.76 32.1775 3.75 33.1875 C2.76 33.1875 1.77 33.1875 0.75 33.1875 C0.8325 33.868125 0.915 34.54875 1 35.25 C0.647575 39.390998 -1.350879 40.932645 -4.332031 43.675781 C-7.593011 46.246044 -10.513265 47.102227 -14.636719 47.304688 C-15.499102 47.348516 -16.361484 47.392344 -17.25 47.4375 C-18.054375 47.442656 -18.85875 47.447812 -19.6875 47.453125 C-22.565821 48.27801 -23.138839 49.004217 -25.0625 51.191406 C-27.588146 53.893429 -28.173051 54.172126 -32.0625 54.949219 C-33.458479 54.963519 -34.85533 54.937113 -36.25 54.875 C-36.98968 54.85647 -37.72936 54.837939 -38.491455 54.818848 C-47.213573 54.390734 -56.24209 52.131472 -63.125 46.5 C-65.572264 42.685147 -65.927249 40.383193 -65.949219 35.945312 C-65.101206 32.600638 -63.592225 30.28248 -61.705322 27.417969 C-60.179972 25.080173 -58.776393 22.695803 -57.382812 20.277344 C-56.642246 19.009873 -56.642246 19.009873 -55.886719 17.716797 C-54.87918 15.989401 -53.879157 14.2576 -52.886719 12.521484 C-48.860688 5.677232 -44.570907 -0.771758 -36.9375 -3.75 C-25.65816 -6.552535 -9.703972 -6.964659 0 0 Z " fill="#FFE678" transform="translate(213.25,60.8125)"/>
<path d="M0 0 C10.51983 10.119747 10.51983 10.119747 11.082031 16.480469 C11.105922 17.984242 11.118538 19.488227 11.121094 20.992188 C11.145586 21.739199 11.170078 22.486211 11.195312 23.255859 C11.223269 28.563014 10.180996 31.442696 6.746094 35.679688 C6.190508 36.369336 5.634922 37.058984 5.0625 37.769531 C-3.512892 46.803296 -14.158414 51.420891 -26.253906 53.679688 C-27.006799 53.847427 -27.759692 54.015166 -28.5354 54.187988 C-36.507575 55.851965 -44.322342 55.995967 -52.441406 55.929688 C-53.126775 55.926253 -53.812143 55.922819 -54.51828 55.919281 C-68.90154 55.834677 -81.955968 55.139883 -95.363281 49.605469 C-98.352339 48.648162 -99.422872 48.479378 -102.253906 49.679688 C-103.421268 50.329963 -104.568132 51.018415 -105.691406 51.742188 C-108.033641 53.115221 -109.462822 53.719693 -112.191406 54.242188 C-113.212344 53.96375 -113.212344 53.96375 -114.253906 53.679688 C-114.816406 51.554688 -114.816406 51.554688 -114.253906 48.679688 C-113.573281 47.669062 -112.892656 46.658437 -112.191406 45.617188 C-110.093007 42.969003 -110.093007 42.969003 -110.128906 40.554688 C-111.251431 38.377435 -111.251431 38.377435 -114.191406 36.742188 C-117.665845 34.402259 -118.104925 33.590538 -119.253906 29.679688 C-120.022533 21.61804 -120.53996 14.1856 -115.253906 7.679688 C-104.824828 -4.694711 -87.855991 -10.345149 -72.153809 -12.093262 C-49.385317 -13.875944 -18.589688 -15.43144 0 0 Z M-104.253906 9.679688 C-108.694795 14.706306 -108.694795 14.706306 -110.628906 20.929688 C-110.026933 26.949418 -107.460031 30.801212 -103.128906 34.804688 C-87.132158 47.670889 -62.636749 49.452503 -42.869629 47.436523 C-26.953057 45.530686 -9.825583 42.418567 0.6875 29.195312 C3.153565 25.664563 3.030903 22.951822 2.746094 18.679688 C0.505265 11.957201 -4.704493 7.765544 -10.660156 4.265625 C-37.079268 -8.705204 -80.492433 -9.927682 -104.253906 9.679688 Z " fill="#FEE678" transform="translate(141.25390625,31.3203125)"/>
<path d="M0 0 C1.079912 -0.00999 2.159824 -0.01998 3.272461 -0.030273 C14.905953 0.093675 26.357576 2.25077 35.511719 9.847656 C38.164637 12.573257 38.808233 14.194261 38.875 18 C37.086999 23.784709 34.499045 26.263009 29.25 29.0625 C12.763753 36.806409 -5.812137 37.499019 -23.1875 32.4375 C-29.778357 29.854597 -35.17154 27.46144 -39.1875 21.4375 C-39.951296 18.656229 -39.843098 16.242319 -39.1875 13.4375 C-29.678143 1.131273 -14.318736 0.077399 0 0 Z M-15.6875 10.1875 C-16.345164 10.344282 -17.002827 10.501064 -17.68042 10.662598 C-22.232435 11.874223 -25.535953 13.545747 -29.1875 16.4375 C-29.130876 18.726335 -29.130876 18.726335 -27.1875 20.4375 C-23.884875 21.918058 -21.977766 22.625344 -18.414307 21.77832 C-17.484812 21.361631 -16.555317 20.944941 -15.597656 20.515625 C-14.565762 20.067031 -13.533867 19.618437 -12.470703 19.15625 C-11.407871 18.671563 -10.345039 18.186875 -9.25 17.6875 C-7.138229 16.751792 -5.024982 15.819407 -2.910156 14.890625 C-1.922896 14.455566 -0.935635 14.020508 0.081543 13.572266 C3.29302 12.237835 6.438503 11.263001 9.8125 10.4375 C2.754266 5.73201 -7.815399 8.267923 -15.6875 10.1875 Z " fill="#FEE678" transform="translate(88.1875,31.5625)"/>
<path d="M0 0 C1.178203 0.313242 2.356406 0.626484 3.570312 0.949219 C7.304255 2.48958 9.217988 4.31036 11.875 7.3125 C12.535 7.9725 13.195 8.6325 13.875 9.3125 C14.214553 12.319974 14.431135 14.411423 13.875 17.3125 C11.75 19.8125 11.75 19.8125 8.875 21.3125 C7.740625 21.27125 6.60625 21.23 5.4375 21.1875 C4.169062 21.249375 4.169062 21.249375 2.875 21.3125 C3.607159 24.178993 3.607159 24.178993 4.875 27.3125 C4.4375 29.5 4.4375 29.5 2.875 31.3125 C-1.99691 33.987274 -5.495208 34.729522 -11.125 34.3125 C-12.0325 34.003125 -12.94 33.69375 -13.875 33.375 C-14.6175 33.354375 -15.36 33.33375 -16.125 33.3125 C-17.962624 36.655836 -17.962624 36.655836 -19.125 40.3125 C-20.125 41.3125 -20.125 41.3125 -23.5625 41.625 C-28.104817 41.584225 -31.664196 40.14094 -35.777344 38.316406 C-38.295633 37.168025 -38.295633 37.168025 -41.8125 36.375 C-42.957188 35.849063 -42.957188 35.849063 -44.125 35.3125 C-43.967833 30.234052 -40.886838 25.859374 -38.4375 21.5625 C-37.984153 20.760623 -37.530806 19.958745 -37.063721 19.132568 C-27.101063 1.644149 -27.101063 1.644149 -18.25 -0.875 C-11.987107 -2.486581 -6.153902 -1.71092 0 0 Z " fill="#FFFEFD" transform="translate(201.125,65.6875)"/>
<path d="M0 0 C5.733739 3.022143 11.536301 7.355473 13.957031 13.558594 C14.489221 19.146587 14.207187 22.791699 10.957031 27.558594 C3.581393 33.243981 -3.010525 33.091053 -12.042969 32.558594 C-19.928049 31.19242 -26.8855 27.882245 -32.417969 22.058594 C-35.41594 17.44633 -36.726312 13.360638 -36.625 7.84375 C-35.488955 3.38344 -31.794079 0.921858 -28.042969 -1.441406 C-18.927017 -5.872978 -8.958423 -3.823849 0 0 Z " fill="#FC7D85" transform="translate(65.04296875,132.44140625)"/>
<path d="M0 0 C-0.33 0.66 -0.66 1.32 -1 2 C-1.706295 7.683596 0.233144 10.74316 3.3125 15.25 C3.716621 15.873906 4.120742 16.497812 4.537109 17.140625 C6.500878 20.10384 8.010185 22.00679 11 24 C14.5 24.5 14.5 24.5 18 24 C20.095694 22.204382 20.902531 20.740695 21.263184 18 C21.415552 14.762335 21.436943 11.531851 21.439453 8.291016 C21.496094 5.894531 21.496094 5.894531 22 2 C23.926025 1.178467 23.926025 1.178467 26 1 C28.486156 2.841597 29.001569 4.004707 30 7 C31.057557 24.327662 31.057557 24.327662 24.9375 31.375 C21.142311 34.558061 17.776647 34.461541 12.949219 34.398438 C6.066817 33.46863 1.497219 28.901532 -2.8125 23.75 C-6.983288 17.96534 -10.552516 11.765349 -9.9375 4.4375 C-9.628125 3.303125 -9.31875 2.16875 -9 1 C-5.791734 -0.069422 -3.358491 -0.228988 0 0 Z " fill="#E65690" transform="translate(116,85)"/>
<path d="M0 0 C1.054453 0.154687 2.108906 0.309375 3.195312 0.46875 C4.65276 7.576304 2.403827 16.05172 -0.804688 22.46875 C-2.742289 24.758642 -4.142499 26.137656 -6.804688 27.46875 C-8.76018 27.591325 -10.720394 27.644274 -12.679688 27.65625 C-13.728984 27.67043 -14.778281 27.684609 -15.859375 27.699219 C-19.831248 27.388422 -21.897227 26.473438 -24.554688 23.53125 C-26.137269 19.653926 -27.070829 16.481679 -27.019531 12.269531 C-24.62171 6.741436 -18.330331 5.058841 -13.011719 2.929688 C-8.641817 1.349513 -4.614729 0.56855 0 0 Z " fill="#FFA8A7" transform="translate(157.8046875,171.53125)"/>
<path d="M0 0 C0.669023 0.478242 1.338047 0.956484 2.027344 1.449219 C2.066406 3.484375 2.066406 3.484375 1.027344 5.449219 C-0.609375 6.644531 -0.609375 6.644531 -2.660156 7.574219 C-3.384609 7.90293 -4.109062 8.231641 -4.855469 8.570312 C-17.622203 13.870156 -32.938515 14.191804 -46.164062 10.300781 C-47.059316 9.879258 -47.059316 9.879258 -47.972656 9.449219 C-47.972656 8.789219 -47.972656 8.129219 -47.972656 7.449219 C-45.880615 6.335938 -45.880615 6.335938 -42.96875 5.136719 C-41.391904 4.483164 -41.391904 4.483164 -39.783203 3.816406 C-38.670098 3.365234 -37.556992 2.914062 -36.410156 2.449219 C-35.324121 1.998047 -34.238086 1.546875 -33.119141 1.082031 C-20.299207 -4.186221 -13.008232 -5.535046 0 0 Z " fill="#FFD2B0" transform="translate(114.97265625,45.55078125)"/>
<path d="M0 0 C3.030074 0.050501 3.847317 0.847317 6 3 C5.688732 6.942723 4.313428 8.91543 2 12 C0.550393 14.727918 0.550393 14.727918 1 17 C5.158712 16.434128 8.955567 14.812337 12.25 12.25 C14 11 14 11 16.625 11.1875 C19 12 19 12 21 14 C18.325792 18.783605 14.125774 22.225694 9 24 C4.91565 24.974371 1.031678 25.799019 -2.976562 24.222656 C-6.084216 22.035516 -6.981407 20.081525 -7.8125 16.4375 C-7.363315 10.44836 -3.834156 4.480975 0 0 Z " fill="#E6548F" transform="translate(26,68)"/>
<path d="M0 0 C4.141829 0.862881 5.562265 2.183491 8 5.625 C8.767088 8.485718 8.804219 10.770024 8 13.625 C5.4375 16.6875 5.4375 16.6875 2 18.625 C-1.6875 18.75 -1.6875 18.75 -5 17.625 C-7.559091 14.818255 -7.963506 12.880459 -8.5 9.125 C-8 5.625 -8 5.625 -5.875 2.6875 C-3 0.625 -3 0.625 0 0 Z " fill="#373431" transform="translate(43,103.375)"/>
<path d="M0 0 C3.330293 0.986753 4.334076 1.355253 6.375 4 C7.064427 7.067949 6.947604 9.9155 6.375 13 C3.920695 16.537087 2.534012 17.763467 -1.6875 18.625 C-4.625 18 -4.625 18 -7 16 C-9.074607 12.169956 -9.602881 9.26322 -8.625 5 C-5.957335 1.038922 -4.825984 0 0 0 Z " fill="#34322F" transform="translate(99.625,115)"/>
<path d="M0 0 C2.5625 0.3125 2.5625 0.3125 4.207031 1.546875 C5.938798 3.802664 5.905176 5.062295 5.8125 7.875 C5.797031 8.660039 5.781562 9.445078 5.765625 10.253906 C5.5625 12.3125 5.5625 12.3125 4.5625 14.3125 C2.25 14.75 2.25 14.75 -0.4375 14.3125 C-3.619814 11.47422 -4.37862 9.891488 -4.8125 5.625 C-4.374525 1.756221 -3.966437 0.508518 0 0 Z " fill="#37302F" transform="translate(43.4375,137.6875)"/>
<path d="M0 0 C2.4375 0.8125 2.4375 0.8125 4.4375 2.8125 C4.823013 6.282117 4.58713 8.450237 3.25 11.6875 C1.4375 13.8125 1.4375 13.8125 -1.125 14.3125 C-3.5625 13.8125 -3.5625 13.8125 -5.5625 10.8125 C-6.119032 7.227567 -6.205275 3.928898 -4.375 0.75 C-2.5625 -0.1875 -2.5625 -0.1875 0 0 Z " fill="#37302F" transform="translate(61.5625,141.1875)"/>
<path d="M0 0 C4.086894 1.021723 7.134722 2.915802 10 6 C8.4375 8.1875 8.4375 8.1875 5 10 C4.175 10.5775 3.35 11.155 2.5 11.75 C-0.285106 13.142553 -1.939632 13.699513 -5 13 C-6.090504 9.510387 -4.601143 6.502023 -3.125 3.3125 C-1.796875 1.222656 -1.796875 1.222656 0 0 Z " fill="#FDCBAD" transform="translate(32,72)"/>
</svg>
