<?xml version="1.0" encoding="UTF-8"?>
<!-- Generator: visioncortex VTracer 0.6.4 -->
<svg version="1.1" xmlns="http://www.w3.org/2000/svg" width="240" height="240">
<path d="M0 0 C5.793241 3.560164 9.426632 8.774111 12 15 C12 15.99 12 16.98 12 18 C17.718513 18.119136 20.609428 16.04548 24.96875 12.566406 C30.372255 8.399473 35.085454 6.554111 41.921875 6.566406 C44.751013 7.156696 46.039035 7.850817 48 10 C48.364339 13.686762 48.246589 17.244149 48.140625 20.945312 C48.424219 21.953359 48.707812 22.961406 49 24 C52.308219 24.796561 52.308219 24.796561 54.75 24.835938 C58.404511 25.102412 61.52581 26.529625 64.875 27.9375 C65.537578 28.202402 66.200156 28.467305 66.882812 28.740234 C69.712379 29.899092 71.817244 30.817244 74 33 C74.99 33 75.98 33 77 33 C78.229401 30.889024 78.229401 30.889024 79.25 28.25 C81.762006 22.956041 83.493869 21.053133 89 19 C90.980469 18.984375 90.980469 18.984375 93 19.125 C95.631617 19.297067 96.631818 19.272907 98.78125 17.679688 C99.348437 17.125391 99.915625 16.571094 100.5 16 C103.084847 13.492224 104.613135 12.537049 108.25 12.4375 C112 13 112 13 114 14.3125 C115 16 115 16 115 19 C112.431025 19.908316 109.853428 20.405536 107.1875 20.960938 C106.465625 21.303828 105.74375 21.646719 105 22 C104.432268 24.483934 104.432268 24.483934 105 27 C106.812225 29.062499 106.812225 29.062499 109 31 C111.476037 34.073701 112.251694 36.186405 112 40.0625 C111.453813 43.20901 111.021511 43.976697 108.75 46.4375 C105.948453 48.029288 104.21838 48.91954 101 49 C97.827919 47.489485 95.253835 45.704602 93 43 C91.398838 38.196515 91.388295 32.835114 93 28 C88.939757 30.038021 88.939757 30.038021 87 34 C86.440111 37.656997 85.958526 41.408966 88.058594 44.617188 C89.079207 45.684821 90.10879 46.743912 91.144531 47.796875 C99.480507 57.694749 104.08966 70.561669 104.789062 83.300781 C104.905235 85.895505 104.905235 85.895505 105.53125 87.915771 C106.0319 90.141841 105.960126 91.78764 105.710938 94.046875 C105.108211 101.061816 105.108211 101.061816 106 108 C108.640156 111.082993 111.029982 112.686468 114.59375 114.589844 C115.387812 115.055195 116.181875 115.520547 117 116 C117 116.99 117 117.98 117 119 C115.566406 120.097656 115.566406 120.097656 113.5625 121.0625 C112.840625 121.410547 112.11875 121.758594 111.375 122.117188 C108.90162 123.036569 106.673199 123.361163 104.0625 123.6875 C101.80096 124.015811 101.80096 124.015811 100 125 C99.173513 127.266935 99.124875 129.194544 99.082031 131.601562 C98.951012 135.432315 98.01553 137.733452 96 141 C94.988086 140.930391 93.976172 140.860781 92.933594 140.789062 C91.481465 140.893477 91.481465 140.893477 90 141 C89.100738 143.754418 89.100738 143.754418 89.25 147.3125 C89.20887 148.684994 89.164437 150.057391 89.117188 151.429688 C89.100107 152.166709 89.083027 152.90373 89.06543 153.663086 C88.485857 174.363335 88.485857 174.363335 83.5 180.125 C79.536308 183.769581 76.678513 184.335613 71.390625 184.292969 C66.729241 183.721721 63.295817 181.295817 60 178 C60.04125 177.13375 60.0825 176.2675 60.125 175.375 C60.08375 174.59125 60.0425 173.8075 60 173 C58.68 173 57.36 173 56 173 C54.95457 175.086863 54.95457 175.086863 54 178 C52.382491 181.051791 50.621329 184.020429 48.875 187 C48.385801 187.83781 47.896602 188.67562 47.392578 189.538818 C45.933953 192.029206 44.468366 194.515346 43 197 C42.587822 197.700122 42.175645 198.400244 41.750977 199.121582 C40.675936 200.940565 39.590856 202.752968 38.5 204.5625 C37.891562 205.574414 37.283125 206.586328 36.65625 207.628906 C35 210 35 210 32 212 C31.34 211.34 30.68 210.68 30 210 C30.340673 206.184461 32.537209 203.200859 34.5 200 C35.061588 199.073083 35.061588 199.073083 35.634521 198.127441 C38.134521 194.009398 40.672955 189.915741 43.219513 185.826355 C44.781176 183.313702 46.333879 180.79557 47.885742 178.276855 C48.668452 177.011854 49.455388 175.749458 50.246582 174.489746 C51.373817 172.69459 52.486905 170.891326 53.597656 169.085938 C54.252581 168.034546 54.907505 166.983154 55.582275 165.899902 C57.046126 162.905652 57.583428 161.272749 57 158 C53.66886 155.77924 51.685615 155.447653 47.75 155 C46.651719 154.855625 45.553438 154.71125 44.421875 154.5625 C43.223047 154.779063 43.223047 154.779063 42 155 C42.168883 157.727624 42.168883 157.727624 43 161 C42.582031 164.472656 42.582031 164.472656 41.8125 168.0625 C41.571445 169.249727 41.330391 170.436953 41.082031 171.660156 C39.728384 175.838381 37.768772 178.673421 34.25 181.3125 C29.079224 182.892459 25.326259 182.68769 20.625 180.25 C18.084084 178.072072 17.11107 177.063692 16 174 C16.198413 172.30566 16.448948 170.616644 16.75 168.9375 C17.058965 166.590293 17.058965 166.590293 16 165 C12.148237 165.673316 8.829214 167.034363 5.257812 168.589844 C2 170 2 170 0 170 C-0.231698 172.714776 -0.231698 172.714776 -0.089844 176.097656 C-0.069863 177.374473 -0.049883 178.651289 -0.029297 179.966797 C0.01391 182.005312 0.061993 184.043541 0.116455 186.081787 C0.474944 200.507856 0.474944 200.507856 -3 206 C-5.93323 208.707597 -9.341323 209.913144 -13.3125 210.121094 C-18.022834 209.747131 -22.05168 208.696414 -26 206 C-28.057702 202.104056 -28.12807 199.165014 -27.773438 194.824219 C-27.712852 193.667285 -27.652266 192.510352 -27.589844 191.318359 C-27.445309 188.875728 -27.262291 186.435102 -27.042969 183.998047 C-26.841652 179.389845 -26.841652 179.389845 -28 175 C-31.099057 174.009863 -33.468785 174.276048 -36.689941 174.659668 C-40.039219 175.004032 -42.429043 174.597224 -45.6875 173.871094 C-48.045629 173.475422 -48.045629 173.475422 -50 174 C-51.519599 177.237983 -51.16107 180.553474 -51 184.0625 C-50.971703 185.969956 -50.950683 187.877536 -50.9375 189.785156 C-50.930652 190.690723 -50.923804 191.596289 -50.916748 192.529297 C-51.023603 195.700482 -51.581605 198.158707 -53 201 C-56.365494 203.893551 -60.297038 204.90304 -64.625 205.5 C-68.718316 204.893583 -70.840875 203.644849 -74 201 C-76.446081 197.415561 -76.339935 193.646349 -76.464844 189.453125 C-76.542251 187.952985 -76.622418 186.452985 -76.705078 184.953125 C-76.828707 182.604902 -76.937217 180.260894 -76.998291 177.910156 C-77.075597 168.402485 -77.075597 168.402485 -81.41333 160.305664 C-84.253036 158.192202 -84.253036 158.192202 -87.196289 156.607422 C-97.03998 150.963843 -103.148046 139.633556 -106.375 129.0625 C-108.113565 120.547081 -107.654761 111.259257 -105 103 C-104.704805 102.077031 -104.409609 101.154062 -104.105469 100.203125 C-101.326485 92.622294 -97.369621 87.385876 -92.011719 81.496094 C-89.686243 79.145006 -89.686243 79.145006 -90 76 C-92.376129 74.390929 -92.376129 74.390929 -95 73 C-97 71 -97 71 -97.125 67.625 C-96.140109 61.152857 -91.73289 56.176806 -88 51 C-87.054473 49.588477 -87.054473 49.588477 -86.089844 48.148438 C-82.67965 43.066874 -79.604863 38.802431 -74 36 C-68.407637 35.349725 -65.531682 36.978879 -61 40 C-60.67 40.66 -60.34 41.32 -60 42 C-55.080825 42.850684 -51.445251 40.488157 -47.25 38.25 C-45.823746 37.510118 -44.396667 36.771824 -42.96875 36.035156 C-42.285547 35.680825 -41.602344 35.326494 -40.898438 34.961426 C-38.554298 33.774283 -36.167877 32.715098 -33.75 31.6875 C-30.829917 30.436036 -28.493008 28.994407 -26 27 C-25.34 27 -24.68 27 -24 27 C-23.505 25.515 -23.505 25.515 -23 24 C-18.36936 22.757633 -13.756723 22.917988 -9 23 C-9.433125 22.278125 -9.86625 21.55625 -10.3125 20.8125 C-10.869375 19.884375 -11.42625 18.95625 -12 18 C-12.598125 17.195625 -13.19625 16.39125 -13.8125 15.5625 C-15 13 -15 13 -14.5 10.125 C-11.134042 3.112587 -8.46147 -2.394756 0 0 Z M-6 7 C-6.33 7.33 -6.66 7.66 -7 8 C-6.905343 10.93436 -6.809002 13.227077 -6 16 C-2.814893 18.821094 0.730725 20 5 20 C4.772122 15.933796 3.283908 13.66615 0.625 10.6875 C-0.283789 9.641426 -0.283789 9.641426 -1.210938 8.574219 C-2.978199 6.669705 -2.978199 6.669705 -6 7 Z M28 18 C28 18.99 28 19.98 28 21 C30.314956 21.86423 30.314956 21.86423 33.1875 22.25 C34.15043 22.420156 35.113359 22.590312 36.105469 22.765625 C39.038202 23.003093 41.212019 22.947813 44 22 C44.5 19 44.5 19 44 16 C42.806919 14.587992 42.806919 14.587992 39.375 14.75 C34.920954 14.806279 31.880243 15.817364 28 18 Z M99 30 C97.411059 31.588941 97.830016 33.248014 97.8125 35.4375 C97.79832 36.240586 97.784141 37.043672 97.769531 37.871094 C97.798376 40.216306 97.798376 40.216306 100 42 C102.588257 42.834258 102.588257 42.834258 105 42 C105.562646 37.780156 105.666363 35.269262 103.6875 31.5 C102.002595 29.667818 102.002595 29.667818 99 30 Z " fill="#FDD7B7" transform="translate(117,16)"/>
<path d="M0 0 C3.75 0.5625 3.75 0.5625 5.75 1.875 C6.75 3.5625 6.75 3.5625 6.75 6.5625 C4.181025 7.470816 1.603428 7.968036 -1.0625 8.523438 C-1.784375 8.866328 -2.50625 9.209219 -3.25 9.5625 C-3.817732 12.046434 -3.817732 12.046434 -3.25 14.5625 C-1.437775 16.624999 -1.437775 16.624999 0.75 18.5625 C3.226037 21.636201 4.001694 23.748905 3.75 27.625 C3.203813 30.77151 2.771511 31.539197 0.5 34 C-2.301547 35.591788 -4.03162 36.48204 -7.25 36.5625 C-10.422081 35.051985 -12.996165 33.267102 -15.25 30.5625 C-16.851162 25.759015 -16.861705 20.397614 -15.25 15.5625 C-19.310243 17.600521 -19.310243 17.600521 -21.25 21.5625 C-21.809889 25.219497 -22.291474 28.971466 -20.191406 32.179688 C-19.170793 33.247321 -18.14121 34.306412 -17.105469 35.359375 C-8.769493 45.257249 -4.16034 58.124169 -3.460938 70.863281 C-3.344765 73.458005 -3.344765 73.458005 -2.71875 75.478271 C-2.2181 77.704341 -2.289874 79.35014 -2.539062 81.609375 C-3.141789 88.624316 -3.141789 88.624316 -2.25 95.5625 C0.390156 98.645493 2.779982 100.248968 6.34375 102.152344 C7.137812 102.617695 7.931875 103.083047 8.75 103.5625 C8.75 104.5525 8.75 105.5425 8.75 106.5625 C7.316406 107.660156 7.316406 107.660156 5.3125 108.625 C4.590625 108.973047 3.86875 109.321094 3.125 109.679688 C0.65162 110.599069 -1.576801 110.923663 -4.1875 111.25 C-6.44904 111.578311 -6.44904 111.578311 -8.25 112.5625 C-9.076487 114.829435 -9.125125 116.757044 -9.167969 119.164062 C-9.298988 122.994815 -10.23447 125.295952 -12.25 128.5625 C-13.261914 128.492891 -14.273828 128.423281 -15.316406 128.351562 C-16.284492 128.421172 -17.252578 128.490781 -18.25 128.5625 C-19.149262 131.316918 -19.149262 131.316918 -19 134.875 C-19.04113 136.247494 -19.085563 137.619891 -19.132812 138.992188 C-19.149893 139.729209 -19.166973 140.46623 -19.18457 141.225586 C-19.764143 161.925835 -19.764143 161.925835 -24.75 167.6875 C-28.713692 171.332081 -31.571487 171.898113 -36.859375 171.855469 C-41.520759 171.284221 -44.954183 168.858317 -48.25 165.5625 C-48.20875 164.69625 -48.1675 163.83 -48.125 162.9375 C-48.16625 162.15375 -48.2075 161.37 -48.25 160.5625 C-49.57 160.5625 -50.89 160.5625 -52.25 160.5625 C-53.29543 162.649363 -53.29543 162.649363 -54.25 165.5625 C-55.867509 168.614291 -57.628671 171.582929 -59.375 174.5625 C-59.864199 175.40031 -60.353398 176.23812 -60.857422 177.101318 C-62.316047 179.591706 -63.781634 182.077846 -65.25 184.5625 C-65.662178 185.262622 -66.074355 185.962744 -66.499023 186.684082 C-67.574064 188.503065 -68.659144 190.315468 -69.75 192.125 C-70.358438 193.136914 -70.966875 194.148828 -71.59375 195.191406 C-73.25 197.5625 -73.25 197.5625 -76.25 199.5625 C-76.91 198.9025 -77.57 198.2425 -78.25 197.5625 C-77.909327 193.746961 -75.712791 190.763359 -73.75 187.5625 C-73.188412 186.635583 -73.188412 186.635583 -72.615479 185.689941 C-70.115479 181.571898 -67.577045 177.478241 -65.030487 173.388855 C-63.468824 170.876202 -61.916121 168.35807 -60.364258 165.839355 C-59.581548 164.574354 -58.794612 163.311958 -58.003418 162.052246 C-56.876183 160.25709 -55.763095 158.453826 -54.652344 156.648438 C-53.669957 155.07135 -53.669957 155.07135 -52.667725 153.462402 C-51.203874 150.468152 -50.666572 148.835249 -51.25 145.5625 C-54.375185 143.479043 -55.324618 143.436858 -58.875 143.1875 C-59.98875 142.65125 -61.1025 142.115 -62.25 141.5625 C-61.051287 138.508764 -59.229258 135.997405 -57.417969 133.265625 C-54.936663 129.313716 -53.627131 125.221616 -52.375 120.75 C-52.17302 120.045447 -51.97104 119.340894 -51.762939 118.61499 C-50.84394 115.260346 -50.143328 112.007364 -49.742188 108.550781 C-49.579766 107.564648 -49.417344 106.578516 -49.25 105.5625 C-48.59 105.5625 -47.93 105.5625 -47.25 105.5625 C-47.050657 100.730931 -47.538695 95.884406 -47.875 91.0625 C-47.922897 90.349326 -47.970793 89.636152 -48.020142 88.901367 C-48.741274 78.437547 -49.78561 68.524041 -53.25 58.5625 C-53.466724 57.930054 -53.683447 57.297607 -53.906738 56.645996 C-55.467913 52.176514 -57.268274 47.865814 -59.25 43.5625 C-59.763047 42.43457 -60.276094 41.306641 -60.804688 40.144531 C-62.401396 37.130648 -63.698846 34.831812 -66.25 32.5625 C-69.227142 32.373405 -71.699481 32.864814 -74.617188 33.453125 C-77.25 33.5625 -77.25 33.5625 -79.195312 32.171875 C-80.333787 30.784524 -81.428394 29.360212 -82.480469 27.90625 C-85.067597 24.47959 -88.273634 21.904609 -91.527344 19.128906 C-92.09582 18.611992 -92.664297 18.095078 -93.25 17.5625 C-93.25 17.2325 -93.25 16.9025 -93.25 16.5625 C-89.938323 16.887174 -87.029877 17.186852 -84.011719 18.640625 C-80.303317 19.878507 -77.048614 19.487092 -73.25 19 C-72.551328 18.93748 -71.852656 18.874961 -71.132812 18.810547 C-65.83924 18.166329 -63.798296 16.35654 -60.25 12.5625 C-55.477426 10.499569 -51.283393 12.592492 -46.6875 14.3125 C-45.932754 14.578047 -45.178008 14.843594 -44.400391 15.117188 C-40.512088 16.528624 -37.528401 18.001491 -34.25 20.5625 C-33.26 20.5625 -32.27 20.5625 -31.25 20.5625 C-30.020599 18.451524 -30.020599 18.451524 -29 15.8125 C-26.487994 10.518541 -24.756131 8.615633 -19.25 6.5625 C-17.269531 6.546875 -17.269531 6.546875 -15.25 6.6875 C-12.618383 6.859567 -11.618182 6.835407 -9.46875 5.242188 C-8.617969 4.410742 -8.617969 4.410742 -7.75 3.5625 C-5.165153 1.054724 -3.636865 0.099549 0 0 Z M-9.25 17.5625 C-10.838941 19.151441 -10.419984 20.810514 -10.4375 23 C-10.45168 23.803086 -10.465859 24.606172 -10.480469 25.433594 C-10.451624 27.778806 -10.451624 27.778806 -8.25 29.5625 C-5.661743 30.396758 -5.661743 30.396758 -3.25 29.5625 C-2.687354 25.342656 -2.583637 22.831762 -4.5625 19.0625 C-6.247405 17.230318 -6.247405 17.230318 -9.25 17.5625 Z " fill="#FDD8B8" transform="translate(225.25,28.4375)"/>
<path d="M0 0 C2.342231 3.513346 1.954408 5.189213 1.617188 9.259521 C0.891392 17.153461 0.891392 17.153461 4.441406 23.859375 C7.439893 25.975675 7.439893 25.975675 10.59375 27.589844 C11.387812 28.055195 12.181875 28.520547 13 29 C13 29.99 13 30.98 13 32 C11.566406 33.097656 11.566406 33.097656 9.5625 34.0625 C8.840625 34.410547 8.11875 34.758594 7.375 35.117188 C4.90162 36.036569 2.673199 36.361163 0.0625 36.6875 C-2.19904 37.015811 -2.19904 37.015811 -4 38 C-4.826487 40.266935 -4.875125 42.194544 -4.917969 44.601562 C-5.048988 48.432315 -5.98447 50.733452 -8 54 C-9.011914 53.930391 -10.023828 53.860781 -11.066406 53.789062 C-12.518535 53.893477 -12.518535 53.893477 -14 54 C-14.899262 56.754418 -14.899262 56.754418 -14.75 60.3125 C-14.79113 61.684994 -14.835563 63.057391 -14.882812 64.429688 C-14.899893 65.166709 -14.916973 65.90373 -14.93457 66.663086 C-15.514143 87.363335 -15.514143 87.363335 -20.5 93.125 C-24.463692 96.769581 -27.321487 97.335613 -32.609375 97.292969 C-37.270759 96.721721 -40.704183 94.295817 -44 91 C-43.95875 90.13375 -43.9175 89.2675 -43.875 88.375 C-43.91625 87.59125 -43.9575 86.8075 -44 86 C-45.32 86 -46.64 86 -48 86 C-49.04543 88.086863 -49.04543 88.086863 -50 91 C-51.617509 94.051791 -53.378671 97.020429 -55.125 100 C-55.614199 100.83781 -56.103398 101.67562 -56.607422 102.538818 C-58.066047 105.029206 -59.531634 107.515346 -61 110 C-61.412178 110.700122 -61.824355 111.400244 -62.249023 112.121582 C-63.324064 113.940565 -64.409144 115.752968 -65.5 117.5625 C-66.412656 119.080371 -66.412656 119.080371 -67.34375 120.628906 C-69 123 -69 123 -72 125 C-72.66 124.34 -73.32 123.68 -74 123 C-73.659327 119.184461 -71.462791 116.200859 -69.5 113 C-69.123433 112.380605 -68.746865 111.761211 -68.358887 111.123047 C-66.911786 108.745073 -65.456192 106.372418 -64 104 C-61.421976 99.798227 -58.847538 95.594329 -56.279053 91.386719 C-55.141058 89.526252 -53.997423 87.669335 -52.853516 85.8125 C-52.133859 84.635573 -51.414448 83.458496 -50.695312 82.28125 C-50.056099 81.240332 -49.416885 80.199414 -48.758301 79.126953 C-46.89312 75.809925 -45.46267 72.510355 -44 69 C-42.784714 66.75172 -41.53344 64.522583 -40.25 62.3125 C-39.906545 61.715986 -39.563091 61.119473 -39.209229 60.504883 C-37.465266 57.483241 -35.692848 54.480978 -33.886719 51.496094 C-32.921855 49.889277 -32.921855 49.889277 -31.9375 48.25 C-31.348398 47.285781 -30.759297 46.321562 -30.152344 45.328125 C-29.581934 44.175703 -29.581934 44.175703 -29 43 C-29.33 42.34 -29.66 41.68 -30 41 C-32.240857 40.397379 -34.48571 40.043928 -36.773438 39.660156 C-39.320899 38.904856 -40.33529 38.037482 -42 36 C-43 34 -43 34 -43 32 C-40.625 30.375 -40.625 30.375 -38 29 C-37.67 28.34 -37.34 27.68 -37 27 C-36.34 27 -35.68 27 -35 27 C-32.054059 22.038416 -33.418479 17.16167 -34.402344 11.8125 C-35.268132 6.520491 -35.268132 6.520491 -33.9375 3.9375 C-30.968429 2.500853 -29.140277 3.137963 -26 4 C-25.01 4.53625 -24.02 5.0725 -23 5.625 C-19.292226 7.324397 -17.880078 7.164023 -14 6 C-0.304348 0 -0.304348 0 0 0 Z " fill="#F3CE40" transform="translate(221,103)"/>
<path d="M0 0 C5.793241 3.560164 9.426632 8.774111 12 15 C12 15.99 12 16.98 12 18 C17.718513 18.119136 20.609428 16.04548 24.96875 12.566406 C30.372255 8.399473 35.085454 6.554111 41.921875 6.566406 C44.75715 7.157977 46.012114 7.865502 48 10 C48.785156 13.398438 48.785156 13.398438 49.0625 17.375 C49.177227 18.682109 49.291953 19.989219 49.410156 21.335938 C49 25 49 25 46.808594 27.851562 C40.82164 32.431291 34.411254 33.117951 27 33 C24.399092 32.27804 22.416298 31.258489 20 30 C18.68 30 17.36 30 16 30 C16.915234 30.819844 17.830469 31.639688 18.773438 32.484375 C19.974242 33.572604 21.174747 34.661163 22.375 35.75 C23.279922 36.558242 23.279922 36.558242 24.203125 37.382812 C24.783203 37.911328 25.363281 38.439844 25.960938 38.984375 C26.495093 39.466162 27.029248 39.947949 27.57959 40.444336 C29 42 29 42 30.01416 44.235352 C30.339487 44.817686 30.664814 45.40002 31 46 C33.912228 45.280083 33.912228 45.280083 37 44 C39.515625 43.6875 39.515625 43.6875 42 44 C44.613197 46.54257 46.217212 49.837135 48 53 C48.507891 53.870117 49.015781 54.740234 49.539062 55.636719 C54.254248 64.305406 56.630464 73.487918 59 83 C59.177246 83.592646 59.354492 84.185293 59.537109 84.795898 C60.615097 89.928847 60.440434 95.312437 60.612549 100.546387 C60.687728 102.756699 60.778193 104.966068 60.869141 107.175781 C60.917604 108.57028 60.965162 109.964811 61.011719 111.359375 C61.080724 113.269282 61.080724 113.269282 61.151123 115.217773 C61.101252 116.135908 61.051382 117.054043 61 118 C60.34 118 59.68 118 59 118 C59.004302 119.641228 59.015864 121.282689 59.05957 122.92334 C58.955792 126.541116 57.916162 129.865869 56.875 133.3125 C56.652717 134.055806 56.430435 134.799111 56.201416 135.564941 C53.836259 143.08858 50.880407 150.597647 44 155 C43.34 155 42.68 155 42 155 C42 155.66 42 156.32 42 157 C39.679682 157.414343 37.343609 157.748899 35 158 C35.607148 157.311641 36.214297 156.623281 36.839844 155.914062 C39.161331 152.782363 40.304113 150.054638 41.5625 146.375 C41.955664 145.248359 42.348828 144.121719 42.753906 142.960938 C42.950649 142.334775 43.147393 141.708613 43.350098 141.063477 C43.80372 139.623199 44.290584 138.193156 44.802246 136.772461 C47.55369 128.322888 47.523944 119.920616 47.500977 111.124023 C47.500012 108.532044 47.541579 105.943111 47.585938 103.351562 C47.747019 80.941555 41.209545 58.434449 25.738281 41.753906 C18.942149 34.918995 12.841188 30.026763 2.900635 29.772949 C1.414188 29.773261 -0.072287 29.784267 -1.558594 29.804688 C-2.347747 29.807517 -3.1369 29.810347 -3.949966 29.813263 C-6.445972 29.824369 -8.941605 29.849455 -11.4375 29.875 C-13.139969 29.885042 -14.842443 29.894166 -16.544922 29.902344 C-20.696756 29.924277 -24.848315 29.95874 -29 30 C-27.625 28.5 -27.625 28.5 -26 27 C-25.34 27 -24.68 27 -24 27 C-23.67 26.01 -23.34 25.02 -23 24 C-18.36936 22.757633 -13.756723 22.917988 -9 23 C-9.433125 22.278125 -9.86625 21.55625 -10.3125 20.8125 C-10.869375 19.884375 -11.42625 18.95625 -12 18 C-12.897188 16.793437 -12.897188 16.793437 -13.8125 15.5625 C-15 13 -15 13 -14.5 10.125 C-11.134042 3.112587 -8.46147 -2.394756 0 0 Z M-6 7 C-6.33 7.33 -6.66 7.66 -7 8 C-6.905343 10.93436 -6.809002 13.227077 -6 16 C-2.814893 18.821094 0.730725 20 5 20 C4.772122 15.933796 3.283908 13.66615 0.625 10.6875 C-0.283789 9.641426 -0.283789 9.641426 -1.210938 8.574219 C-2.978199 6.669705 -2.978199 6.669705 -6 7 Z M28 18 C28 18.99 28 19.98 28 21 C30.314956 21.86423 30.314956 21.86423 33.1875 22.25 C34.15043 22.420156 35.113359 22.590312 36.105469 22.765625 C39.038202 23.003093 41.212019 22.947813 44 22 C44.5 19 44.5 19 44 16 C42.806919 14.587992 42.806919 14.587992 39.375 14.75 C34.920954 14.806279 31.880243 15.817364 28 18 Z " fill="#EE739B" transform="translate(117,16)"/>
<path d="M0 0 C5.416314 3.328206 10.107446 7.214892 13 13 C13.371557 18.573356 13.247828 22.236519 10 27 C2.462878 32.809865 -4.87616 32.64329 -14 32 C-22.434745 30.170904 -30.620152 26.032776 -35.5 18.6875 C-37.312833 14.230953 -37.976852 10.737302 -37 6 C-28.977845 -7.286695 -12.540865 -6.348569 0 0 Z " fill="#FA838B" transform="translate(66,133)"/>
<path d="M0 0 C0.009163 2.913735 -0.117446 5.723859 -0.3125 8.625 C-0.713159 14.917966 -0.713159 14.917966 1.769531 20.460938 C3.941112 22.036128 3.941112 22.036128 6.25 23.125 C6.8275 23.41375 7.405 23.7025 8 24 C8 24.66 8 25.32 8 26 C4.973302 27.018155 1.910411 27.805803 -1.179688 28.609375 C-4.247412 29.753083 -4.247412 29.753083 -5.296875 32.832031 C-5.528906 33.877461 -5.760938 34.922891 -6 36 C-6.452258 37.647513 -6.909987 39.293542 -7.375 40.9375 C-7.588984 41.730273 -7.802969 42.523047 -8.023438 43.339844 C-8.345703 43.887695 -8.667969 44.435547 -9 45 C-12.675419 44.805771 -14.725193 42.697229 -17.414062 40.335938 C-19.790603 38.334024 -22.408295 36.708169 -25 35 C-25.66 34.34 -26.32 33.68 -27 33 C-28.155 32.690625 -29.31 32.38125 -30.5 32.0625 C-34 31 -34 31 -36 28 C-34.953125 26.535156 -34.953125 26.535156 -33.25 25.0625 C-29.323128 21.395627 -28.101366 19.596513 -27.75 14.0625 C-27.820035 10.630806 -28.679048 8.170284 -30 5 C-29.851562 2.75 -29.851562 2.75 -29 1 C-26.925781 1.484375 -26.925781 1.484375 -24.3125 2.75 C-18.862644 5.176965 -18.862644 5.176965 -13 5 C-10.357705 3.797444 -7.81005 2.498645 -5.269531 1.09375 C-3 0 -3 0 0 0 Z " fill="#FDED9D" transform="translate(219,108)"/>
<path d="M0 0 C1.875 0.1875 1.875 0.1875 4 1 C5.006429 2.328487 6.006922 3.661503 7 5 C7.99 5 8.98 5 10 5 C10.070151 7.486515 9.941324 9.697051 9.664062 12.15625 C9.587635 12.891942 9.511208 13.627634 9.432465 14.38562 C9.263515 15.953592 9.086361 17.520697 8.901855 19.086914 C8.629653 21.459445 8.405295 23.833231 8.183594 26.210938 C7.361387 33.936942 6.529363 40.164017 0.634277 45.767578 C-3.283331 48.721879 -7.255645 48.581416 -12 48 C-15.509689 46.607999 -18.320675 44.679325 -21 42 C-21 40.333333 -21 38.666667 -21 37 C-21.66 36.67 -22.32 36.34 -23 36 C-21.9375 33.832031 -21.9375 33.832031 -20 30.8125 C-19.650583 30.262393 -19.301167 29.712285 -18.941162 29.145508 C-18.1234 27.860281 -17.301314 26.577801 -16.476074 25.297363 C-14.763755 22.632308 -13.070968 19.955304 -11.378906 17.277344 C-8.882925 13.333374 -6.386086 9.389987 -3.878906 5.453125 C-3.348538 4.619424 -2.818169 3.785723 -2.271729 2.926758 C-1 1 -1 1 0 0 Z " fill="#FDD8B7" transform="translate(198,152)"/>
<path d="M0 0 C0.86625 0.185625 1.7325 0.37125 2.625 0.5625 C2.625 2.4375 2.625 2.4375 1.625 4.5625 C0.965 5.2225 0.305 5.8825 -0.375 6.5625 C-1.005722 12.238999 0.129404 15.192856 3.375 19.8125 C4.071094 20.828281 4.767188 21.844063 5.484375 22.890625 C7.425827 25.313897 8.963817 26.993356 11.625 28.5625 C16.281611 28.942946 16.281611 28.942946 20.625 27.5625 C21.530663 24.845511 21.757941 23.167545 21.800781 20.367188 C21.824629 19.569258 21.848477 18.771328 21.873047 17.949219 C21.916209 16.267191 21.947354 14.584813 21.966797 12.902344 C22.050781 10.492187 22.050781 10.492187 22.625 6.5625 C24.55542 5.70752 24.55542 5.70752 26.625 5.5625 C31.451671 10.567936 30.960425 16.473262 30.90625 23.035156 C30.427185 29.043432 28.313652 32.515649 24.5625 37.0625 C19.939259 39.423304 15.696509 39.48978 10.625 38.5625 C7.435062 37.042425 5.120707 35.042344 2.625 32.5625 C1.995937 31.947617 1.366875 31.332734 0.71875 30.699219 C-4.901464 24.757509 -8.470867 18.589095 -8.9375 10.3125 C-8.771509 6.637805 -8.407725 5.610625 -6.25 2.4375 C-3.375 0.5625 -3.375 0.5625 0 0 Z " fill="#E3618D" transform="translate(115.375,80.4375)"/>
<path d="M0 0 C3.085938 0.53125 3.085938 0.53125 6 2 C6.66 2.99 7.32 3.98 8 5 C6.881308 6.162221 5.744934 7.31009 4.549805 8.393555 C1.414026 11.643937 -0.623795 15.737802 -2.875 19.625 C-3.932767 21.415853 -4.991356 23.206221 -6.050781 24.996094 C-6.556899 25.855737 -7.063018 26.715381 -7.584473 27.601074 C-9.382595 30.648393 -11.202529 33.67744 -13.0625 36.6875 C-13.569102 37.516367 -14.075703 38.345234 -14.597656 39.199219 C-16 41 -16 41 -19 42 C-19.714088 43.646906 -20.365882 45.32068 -21 47 C-22.62475 50.048098 -24.378596 53.020301 -26.125 56 C-26.614199 56.83781 -27.103398 57.67562 -27.607422 58.538818 C-29.066047 61.029206 -30.531634 63.515346 -32 66 C-32.412178 66.700122 -32.824355 67.400244 -33.249023 68.121582 C-34.324064 69.940565 -35.409144 71.752968 -36.5 73.5625 C-37.412656 75.080371 -37.412656 75.080371 -38.34375 76.628906 C-40 79 -40 79 -43 81 C-43.66 80.34 -44.32 79.68 -45 79 C-44.659327 75.184461 -42.462791 72.200859 -40.5 69 C-40.123433 68.380605 -39.746865 67.761211 -39.358887 67.123047 C-37.911786 64.745073 -36.456192 62.372418 -35 60 C-32.421976 55.798227 -29.847538 51.594329 -27.279053 47.386719 C-26.141058 45.526252 -24.997423 43.669335 -23.853516 41.8125 C-23.133859 40.635573 -22.414448 39.458496 -21.695312 38.28125 C-21.056099 37.240332 -20.416885 36.199414 -19.758301 35.126953 C-17.892987 31.809688 -16.461961 28.510981 -15 25 C-12.788642 20.865721 -10.42786 16.82597 -8.041992 12.791016 C-7.041319 11.071021 -6.085963 9.324903 -5.132812 7.578125 C-4.552734 6.562344 -3.972656 5.546562 -3.375 4.5 C-2.613164 3.123281 -2.613164 3.123281 -1.835938 1.71875 C-0.927148 0.867969 -0.927148 0.867969 0 0 Z " fill="#E4B274" transform="translate(192,147)"/>
<path d="M0 0 C1.813919 3.540631 0.594888 7.216191 -0.1875 10.9375 C-0.428555 12.142773 -0.669609 13.348047 -0.917969 14.589844 C-2.259316 18.817266 -4.197419 21.648064 -7.75 24.3125 C-12.920776 25.892459 -16.673741 25.68769 -21.375 23.25 C-24.871118 20.253327 -26.352359 17.245273 -27 12.6875 C-26.984375 10.324219 -26.984375 10.324219 -26 8 C-18.214361 2.507252 -9.57009 -0.784434 0 0 Z " fill="#FCAAAC" transform="translate(159,173)"/>
<path d="M0 0 C0.33 0.66 0.66 1.32 1 2 C-0.01707 2.364805 -1.034141 2.729609 -2.082031 3.105469 C-7.097204 5.090875 -9.032684 8.816503 -11.6875 13.3125 C-12.607929 14.808682 -13.5285 16.304777 -14.449219 17.800781 C-15.096248 18.875134 -15.096248 18.875134 -15.756348 19.971191 C-16.878116 21.801166 -18.045746 23.581856 -19.253906 25.355469 C-21.687566 28.885884 -21.687566 28.885884 -22 33 C-15.582041 32.533239 -12.304277 29.930178 -7.957031 25.363281 C-6 24 -6 24 -3.269531 24.15625 C-2.520586 24.434687 -1.771641 24.713125 -1 25 C-0.802225 28.46107 -2.143937 30.213725 -4.0625 33.0625 C-8.085029 37.548721 -12.751298 39.733205 -18.6875 40.4375 C-23.24218 39.835938 -25.792991 38.207009 -29 35 C-29.305502 26.751445 -24.654442 21.454823 -20 15 C-19.369648 14.058984 -18.739297 13.117969 -18.089844 12.148438 C-13.264778 4.958559 -9.256345 -0.590831 0 0 Z " fill="#E15B89" transform="translate(49,52)"/>
<path d="M0 0 C5.840704 3.589331 9.30428 8.788664 12 15 C12 15.66 12 16.32 12 17 C11.175 17.37125 10.35 17.7425 9.5 18.125 C8.675 18.74375 7.85 19.3625 7 20 C7.113456 21.964766 7.113456 21.964766 7.53125 24.082031 C7.268281 26.021426 7.268281 26.021426 7 28 C3.383361 29.178591 -0.242825 28.786361 -4 28.5625 C-5.573945 28.520928 -5.573945 28.520928 -7.179688 28.478516 C-12.446109 28.304108 -12.446109 28.304108 -15 28 C-15 27.67 -15 27.34 -15 27 C-9.99064 26.152906 -4.945428 25.949645 0.125 26.0625 C2.043125 26.031562 2.043125 26.031562 4 26 C4 25.34 4 24.68 4 24 C2.031207 24 0.062238 24.004406 -1.90625 24.039062 C-6.520718 23.952972 -8.558457 22.451578 -11.75 19.1875 C-13.965086 16.049461 -14.785578 14.74414 -15 11 C-13.636719 8.140625 -13.636719 8.140625 -11.6875 5.25 C-11.051992 4.285781 -10.416484 3.321562 -9.761719 2.328125 C-6.736262 -1.670039 -4.66751 -1.320993 0 0 Z M-6 7 C-6.33 7.33 -6.66 7.66 -7 8 C-6.905343 10.93436 -6.809002 13.227077 -6 16 C-2.814893 18.821094 0.730725 20 5 20 C4.772122 15.933796 3.283908 13.66615 0.625 10.6875 C-0.283789 9.641426 -0.283789 9.641426 -1.210938 8.574219 C-2.978199 6.669705 -2.978199 6.669705 -6 7 Z " fill="#E04E7C" transform="translate(117,16)"/>
<path d="M0 0 C4.107034 0.855632 5.554011 2.24378 8 5.625 C8.663507 9.753489 8.435143 11.824336 6.4375 15.5 C3.238076 18.289242 1.219317 18.700345 -3 18.625 C-5.412819 16.783638 -6.651509 15.321982 -8 12.625 C-8.495127 8.25138 -8.492239 6.305448 -5.875 2.6875 C-3 0.625 -3 0.625 0 0 Z " fill="#332C23" transform="translate(43,103.375)"/>
<path d="M0 0 C3.293003 1.036686 4.345925 1.431326 6.375 4.0625 C7.291373 8.470997 6.84786 12.135695 4.8125 16.125 C2.375 18.0625 2.375 18.0625 -1.125 18.6875 C-4.625 18.0625 -4.625 18.0625 -7.0625 16 C-9.046825 12.26947 -9.284396 10.238676 -8.625 6.0625 C-6.626048 1.949613 -4.760049 0.08207 0 0 Z " fill="#312B22" transform="translate(99.625,114.9375)"/>
<path d="M0 0 C2.406268 3.347852 2.04956 5.987607 1.4375 10 C-0.5625 9.5 -0.5625 9.5 -3.5625 8 C-10.424164 7.142292 -15.398971 9.243997 -21.707031 11.90625 C-24.5625 13 -24.5625 13 -27.5625 13 C-27.546875 10.730469 -27.546875 10.730469 -26.5625 8 C-24.453125 6.050781 -24.453125 6.050781 -21.8125 4.3125 C-20.520859 3.440449 -20.520859 3.440449 -19.203125 2.550781 C-13.062994 -1.055183 -6.84226 -2.67015 0 0 Z " fill="#FD96BB" transform="translate(163.5625,24)"/>
<path d="M0 0 C3.346288 0.328067 6.29041 0.682552 9.375 2.0625 C13.225099 3.437535 16.95238 3.15873 21 3 C20.01 3.33 19.02 3.66 18 4 C18 4.66 18 5.32 18 6 C18.53625 6.268125 19.0725 6.53625 19.625 6.8125 C22.949638 8.474819 25.301088 10.426619 28 13 C27.67 13.99 27.34 14.98 27 16 C23.320869 17.292151 19.853826 17.518784 16 17 C13.748529 15.347135 12.403998 13.602575 10.769531 11.34375 C8.182403 7.91709 4.976366 5.342109 1.722656 2.566406 C1.15418 2.049492 0.585703 1.532578 0 1 C0 0.67 0 0.34 0 0 Z " fill="#FD9EC0" transform="translate(132,45)"/>
<path d="M0 0 C4.270782 2.850204 7.924772 6.239182 10 11 C10.4375 13.75 10.4375 13.75 10 16 C8.3125 17.125 8.3125 17.125 6 17 C3.427523 14.749082 1.326604 12.447568 -0.6875 9.6875 C-4.425488 6.959779 -8.524615 7.692531 -13 8 C-12.214483 6.68381 -11.421376 5.372148 -10.625 4.0625 C-10.184141 3.331602 -9.743281 2.600703 -9.289062 1.847656 C-6.669135 -1.907573 -4.0939 -1.158651 0 0 Z " fill="#FB8FB5" transform="translate(117,16)"/>
<path d="M0 0 C2.5625 0.3125 2.5625 0.3125 4.207031 1.511719 C6.019441 3.91956 5.899428 5.455882 5.8125 8.4375 C5.789297 9.77168 5.789297 9.77168 5.765625 11.132812 C5.5625 13.3125 5.5625 13.3125 4.5625 14.3125 C2.25 14.6875 2.25 14.6875 -0.4375 14.3125 C-3.619814 11.47422 -4.37862 9.891488 -4.8125 5.625 C-4.374525 1.756221 -3.966437 0.508518 0 0 Z " fill="#3D2421" transform="translate(43.4375,137.6875)"/>
<path d="M0 0 C2.375 0.75 2.375 0.75 3.375 1.75 C3.542969 3.710938 3.542969 3.710938 3.5625 6.125 C3.57668 6.916484 3.590859 7.707969 3.605469 8.523438 C3.375 10.75 3.375 10.75 1.375 13.75 C-1.125 14.0625 -1.125 14.0625 -3.625 13.75 C-6.039869 11.335131 -5.921193 10.622922 -5.9375 7.3125 C-5.954258 6.530039 -5.971016 5.747578 -5.988281 4.941406 C-5.363983 1.17548 -3.808847 -0.362747 0 0 Z " fill="#372220" transform="translate(61.625,141.25)"/>
<path d="M0 0 C4.270748 7.952913 3.229369 17.777861 3.25 26.5625 C3.251672 27.229308 3.253344 27.896116 3.255066 28.58313 C3.256513 38.196151 3.225154 47.827542 0 57 C-0.66 57.66 -1.32 58.32 -2 59 C-2.149024 55.3489 -2.131869 52.409027 -1.004395 48.911865 C0.422386 44.137808 0.249143 39.41728 0.195312 34.472656 C0.192483 33.483739 0.189653 32.494821 0.186737 31.475937 C0.175601 28.337998 0.150509 25.200352 0.125 22.0625 C0.114962 19.926436 0.105837 17.790368 0.097656 15.654297 C0.075684 10.436099 0.042273 5.218071 0 0 Z " fill="#ED7097" transform="translate(164,99)"/>
<path d="M0 0 C0.1875 1.625 0.1875 1.625 -1 4 C-1.391875 5.258125 -1.78375 6.51625 -2.1875 7.8125 C-2.785625 8.864375 -3.38375 9.91625 -4 11 C-7.125 11 -7.125 11 -10 10 C-11 9 -11 9 -11.25 5.625 C-11 2 -11 2 -10 0 C-6.493643 -1.753178 -3.739308 -0.934827 0 0 Z " fill="#FDA3C5" transform="translate(134,34)"/>
<path d="M0 0 C0 0.66 0 1.32 0 2 C-6.359865 3.002161 -12.694975 3.210308 -19.125 3.25 C-19.998984 3.270625 -20.872969 3.29125 -21.773438 3.3125 C-24.257812 3.328125 -24.257812 3.328125 -28 3 C-27.67 2.01 -27.34 1.02 -27 0 C-18.278722 -2.583616 -8.720307 -2.607401 0 0 Z " fill="#FD97BC" transform="translate(121,40)"/>
<path d="M0 0 C4.381076 0.285722 7.098246 3.466173 10.125 6.3125 C10.662539 6.799121 11.200078 7.285742 11.753906 7.787109 C13.995975 9.864238 15.824596 11.646316 17.191406 14.402344 C17.458242 14.92957 17.725078 15.456797 18 16 C20.912228 15.280083 20.912228 15.280083 24 14 C26.8125 13.6875 26.8125 13.6875 29 14 C29.33 14.99 29.66 15.98 30 17 C28.382812 17.625 28.382812 17.625 26.125 18 C23.916297 18.310174 23.916297 18.310174 22 19 C21.67 19.99 21.34 20.98 21 22 C20.321953 21.154375 19.643906 20.30875 18.945312 19.4375 C13.690226 12.99572 8.529496 7.371757 1.800781 2.390625 C1.206523 1.931719 0.612266 1.472813 0 1 C0 0.67 0 0.34 0 0 Z " fill="#E95C86" transform="translate(130,46)"/>
<path d="M0 0 C0.12375 0.639375 0.2475 1.27875 0.375 1.9375 C0.58125 2.618125 0.7875 3.29875 1 4 C1.66 4.33 2.32 4.66 3 5 C-0.678672 7.405285 -2.786592 6.703858 -7 6 C-9.829547 5.919408 -12.632583 5.883047 -15.460938 5.902344 C-16.646789 5.904466 -16.646789 5.904466 -17.856598 5.906631 C-20.362772 5.912195 -22.868854 5.924741 -25.375 5.9375 C-27.08203 5.94252 -28.789061 5.947082 -30.496094 5.951172 C-34.664097 5.962152 -38.832033 5.979392 -43 6 C-41.744049 4.511581 -41.744049 4.511581 -40 3 C-36.989193 2.857121 -34.204913 2.887347 -31.210938 3.066406 C-29.447924 3.140142 -27.684903 3.213704 -25.921875 3.287109 C-23.138651 3.42198 -20.355893 3.563504 -17.573242 3.709717 C-14.890434 3.845277 -12.207415 3.956898 -9.523438 4.066406 C-8.26568 4.144301 -8.26568 4.144301 -6.982513 4.22377 C-4.424803 4.371928 -4.424803 4.371928 -1 4 C-0.207879 2.021381 -0.207879 2.021381 0 0 Z " fill="#F0768B" transform="translate(131,40)"/>
<path d="M0 0 C0.5775 0.28875 1.155 0.5775 1.75 0.875 C1.6875 2.8125 1.6875 2.8125 0.75 4.875 C-2.490995 7.035663 -4.012798 7.253869 -7.8125 7.5625 C-9.268496 7.692051 -9.268496 7.692051 -10.753906 7.824219 C-13.25 7.875 -13.25 7.875 -15.25 6.875 C-15.25 6.215 -15.25 5.555 -15.25 4.875 C-13.167969 4.09375 -13.167969 4.09375 -10.4375 3.375 C-6.88455 2.431648 -3.456832 -0.192046 0 0 Z " fill="#FEC0B3" transform="translate(165.25,44.125)"/>
<path d="M0 0 C0.86625 0.185625 1.7325 0.37125 2.625 0.5625 C2.743855 3.890428 0.584198 6.054726 -1.375 8.5625 C-2.070803 9.880863 -2.747244 11.210411 -3.375 12.5625 C-2.625 5.8125 -2.625 5.8125 -0.375 3.5625 C-2.333944 3.675567 -2.333944 3.675567 -4.375 4.5625 C-7.471852 9.134043 -6.116339 14.403184 -5.375 19.5625 C-6.035 19.2325 -6.695 18.9025 -7.375 18.5625 C-8.825695 14.210416 -9.01168 10.10608 -8.375 5.5625 C-5.809506 1.789715 -4.499154 0.749859 0 0 Z " fill="#DC5884" transform="translate(115.375,80.4375)"/>
<path d="M0 0 C1.738301 0.270703 1.738301 0.270703 3.511719 0.546875 C4.435977 0.778906 5.360234 1.010937 6.3125 1.25 C6.6425 1.91 6.9725 2.57 7.3125 3.25 C4.089676 4.324275 1.697388 4.383296 -1.6875 4.375 C-2.739375 4.377578 -3.79125 4.380156 -4.875 4.382812 C-7.6875 4.25 -7.6875 4.25 -10.6875 3.25 C-10.6875 2.59 -10.6875 1.93 -10.6875 1.25 C-7.151452 -1.369295 -4.169206 -0.690977 0 0 Z " fill="#FDB9B7" transform="translate(149.6875,36.75)"/>
<path d="M0 0 C0.66 0 1.32 0 2 0 C1.712893 3.253876 0.809048 5.354626 -0.75 8.25 C-1.1625 9.1575 -1.575 10.065 -2 11 C-1.01 11.33 -0.02 11.66 1 12 C0.34 12 -0.32 12 -1 12 C-1 12.66 -1 13.32 -1 14 C-3.320318 14.414343 -5.656391 14.748899 -8 15 C-7.4225 14.38125 -6.845 13.7625 -6.25 13.125 C-3.692297 9.572635 -2.379363 6.115138 -0.929688 2.011719 C-0.622891 1.347852 -0.316094 0.683984 0 0 Z " fill="#EA6390" transform="translate(160,159)"/>
<path d="M0 0 C0.33 0.99 0.66 1.98 1 3 C3.440634 3.671479 3.440634 3.671479 6 4 C6.66 4.33 7.32 4.66 8 5 C8 7.125 8 7.125 7 9 C1.666667 8.666667 1.666667 8.666667 0 7 C-0.040929 4.667026 -0.042417 2.332948 0 0 Z " fill="#FD8CAF" transform="translate(123,36)"/>
<path d="M0 0 C0.33 0.66 0.66 1.32 1 2 C-0.800781 2.851562 -0.800781 2.851562 -3.3125 3.625 C-4.544199 4.015586 -4.544199 4.015586 -5.800781 4.414062 C-8.330787 5.088131 -10.365163 5 -13 5 C-8.328245 1.188832 -6.136364 -0.391683 0 0 Z " fill="#D95180" transform="translate(49,52)"/>
<path d="M0 0 C0.66 0 1.32 0 2 0 C2 0.99 2 1.98 2 3 C4.09965 2.59266 4.09965 2.59266 6.5 1.5625 C9.03125 0.566406 9.03125 0.566406 11 0 C11 0.66 11 1.32 11 2 C9.004287 2.679392 7.004052 3.345616 5 4 C4.67 4.66 4.34 5.32 4 6 C0.8125 5.9375 0.8125 5.9375 -2 5 C-1.5 2.4375 -1.5 2.4375 0 0 Z " fill="#F2749D" transform="translate(134,34)"/>
<path d="M0 0 C1.0725 0.103125 2.145 0.20625 3.25 0.3125 C2.6725 0.56 2.095 0.8075 1.5 1.0625 C-0.884499 2.252405 -0.884499 2.252405 -2.875 4.4375 C-3.49375 5.05625 -4.1125 5.675 -4.75 6.3125 C-5.41 6.3125 -6.07 6.3125 -6.75 6.3125 C-7.08 7.3025 -7.41 8.2925 -7.75 9.3125 C-7.75 5.3125 -7.75 5.3125 -6.1875 2.5625 C-3.75 0.3125 -3.75 0.3125 0 0 Z " fill="#FDCDBE" transform="translate(47.75,54.6875)"/>
<path d="M0 0 C0.919102 -0.01418 1.838203 -0.028359 2.785156 -0.042969 C3.49543 0.033086 4.205703 0.109141 4.9375 0.1875 C4.9375 0.8475 4.9375 1.5075 4.9375 2.1875 C-1.085325 3.143504 -6.971284 3.380872 -13.0625 3.1875 C-13.0625 2.8575 -13.0625 2.5275 -13.0625 2.1875 C-10.730022 1.848231 -8.396645 1.515099 -6.0625 1.1875 C-4.378751 -0.496249 -2.296734 0.016151 0 0 Z " fill="#FB8EB5" transform="translate(116.0625,39.8125)"/>
<path d="M0 0 C2.5 0.375 2.5 0.375 5 1 C3.917969 2.484375 3.917969 2.484375 2 4 C-1.136719 4.328125 -1.136719 4.328125 -4.6875 4.25 C-5.866992 4.234531 -7.046484 4.219062 -8.261719 4.203125 C-9.165352 4.136094 -10.068984 4.069063 -11 4 C-11 3.67 -11 3.34 -11 3 C-8.138768 2.707374 -5.277189 2.549278 -2.40625 2.378906 C-1.612188 2.253867 -0.818125 2.128828 0 2 C0 1.34 0 0.68 0 0 Z " fill="#FEA0C4" transform="translate(108,38)"/>
<path d="M0 0 C-0.1875 3 -0.1875 3 -1 6 C-1.268125 5.29875 -1.53625 4.5975 -1.8125 3.875 C-2.204375 3.25625 -2.59625 2.6375 -3 2 C-6.22405 3.669548 -6.22405 3.669548 -6.6875 6.625 C-6.790625 7.40875 -6.89375 8.1925 -7 9 C-7.66 8.01 -8.32 7.02 -9 6 C-8.25 3.375 -8.25 3.375 -7 1 C-4.441984 -0.279008 -2.813543 -0.532292 0 0 Z " fill="#DD4578" transform="translate(111,23)"/>
<path d="M0 0 C3 -0.3125 3 -0.3125 6 0 C5.443125 0.433125 4.88625 0.86625 4.3125 1.3125 C3.662813 2.147813 3.662813 2.147813 3 3 C4.25 4.75 4.25 4.75 6 6 C3 5.8125 3 5.8125 0 5 C-0.75 2.4375 -0.75 2.4375 0 0 Z " fill="#DE4479" transform="translate(132,39)"/>
<path d="M0 0 C0.66 0 1.32 0 2 0 C2.5625 1.933594 2.5625 1.933594 3 4.4375 C3.388188 6.877639 3.388188 6.877639 4 9 C4.66 9.33 5.32 9.66 6 10 C3 10 3 10 1.3125 8.375 C-0.335546 5.392822 -0.381359 3.355962 0 0 Z " fill="#E9CDB3" transform="translate(33,111)"/>
<path d="M0 0 C0.99 0.66 1.98 1.32 3 2 C2.67 2.99 2.34 3.98 2 5 C-0.748572 5.110408 -3.277797 4.475305 -6 4 C-5.34 3.34 -4.68 2.68 -4 2 C-2.68 2 -1.36 2 0 2 C0 1.34 0 0.68 0 0 Z " fill="#FEADC6" transform="translate(157,56)"/>
<path d="M0 0 C1.3125 1.8125 1.3125 1.8125 2 4 C-0.342895 5.822252 -1.978841 7 -5 7 C-4.875 5 -4.875 5 -4 3 C-2.68 3 -1.36 3 0 3 C0 2.01 0 1.02 0 0 Z " fill="#F06293" transform="translate(127,29)"/>
</svg>
