<?xml version="1.0" encoding="UTF-8"?>
<!-- Generator: visioncortex VTracer 0.6.4 -->
<svg version="1.1" xmlns="http://www.w3.org/2000/svg" width="240" height="240">
<path d="M0 0 C3.681677 3.405551 5.232403 5.70692 6.0625 10.6875 C5.376943 15.105533 3.809657 16.664175 0.617188 19.636719 C0.248516 20.189727 -0.120156 20.742734 -0.5 21.3125 C0.10987 22.67275 0.79037 24.001528 1.5 25.3125 C2.134249 31.43374 2.416013 37.269087 -0.125 42.9375 C-2.747058 45.559558 -5.253402 47.51651 -8.5 49.3125 C-9.49 49.3125 -10.48 49.3125 -11.5 49.3125 C-10.878946 51.682646 -10.153515 53.79697 -9.25 56.0625 C-3.617224 70.725598 -2.581554 89.764811 -8.296875 104.636719 C-8.693906 105.519727 -9.090937 106.402734 -9.5 107.3125 C-16.51195 123.817901 -20.11108 138.622797 -21.512207 156.448486 C-22.865809 173.364276 -22.865809 173.364276 -26.59375 177.808594 C-27.387812 178.449258 -28.181875 179.089922 -29 179.75 C-29.794062 180.408711 -30.588125 181.067422 -31.40625 181.746094 C-36.015438 185.194385 -40.902875 184.935003 -46.5 185.3125 C-47.38043 185.379531 -48.260859 185.446562 -49.167969 185.515625 C-55.14819 185.775231 -59.619337 184.901821 -64.5 181.3125 C-65.74966 179.956098 -66.97911 178.580794 -68.1875 177.1875 C-69.767998 175.336321 -69.767998 175.336321 -71.5 174.3125 C-74.138388 176.465621 -74.138388 176.465621 -75.261719 178.558594 C-76.880819 180.851893 -77.814421 181.420209 -80.5 182.3125 C-83.462251 182.646514 -86.396103 182.682688 -89.375 182.6875 C-90.165195 182.711992 -90.955391 182.736484 -91.769531 182.761719 C-97.161836 182.788635 -100.353791 182.057082 -104.5 178.3125 C-106.355338 175.741541 -107.975838 173.091062 -109.5 170.3125 C-109.519819 171.104226 -109.539639 171.895952 -109.560059 172.71167 C-109.655472 176.308108 -109.765086 179.903978 -109.875 183.5 C-109.905937 184.745879 -109.936875 185.991758 -109.96875 187.275391 C-110.007422 188.477441 -110.046094 189.679492 -110.085938 190.917969 C-110.133069 192.575421 -110.133069 192.575421 -110.181152 194.266357 C-110.80816 200.256538 -112.972478 203.250431 -117.472656 206.960938 C-119.619304 208.392036 -121.627464 209.226907 -124.0625 210.0625 C-125.196875 210.475 -126.33125 210.8875 -127.5 211.3125 C-126.84 211.9725 -126.18 212.6325 -125.5 213.3125 C-125.5 214.6325 -125.5 215.9525 -125.5 217.3125 C-128.435799 217.744273 -131.01181 217.86828 -133.961182 217.845947 C-134.860116 217.854563 -135.759051 217.863178 -136.685226 217.872055 C-139.677157 217.894887 -142.668164 217.887946 -145.660156 217.878906 C-147.725218 217.884134 -149.790276 217.890407 -151.855331 217.89769 C-156.190859 217.908126 -160.526059 217.903486 -164.861572 217.888916 C-170.440162 217.87171 -176.017725 217.895229 -181.5962 217.930406 C-185.862248 217.952277 -190.128046 217.950963 -194.394133 217.94264 C-196.452002 217.941815 -198.509888 217.948781 -200.567705 217.963411 C-203.435201 217.980672 -206.300797 217.966472 -209.168213 217.943604 C-210.032076 217.955296 -210.895939 217.966988 -211.78598 217.979034 C-214.127579 217.940689 -214.127579 217.940689 -217.5 217.3125 C-217.645737 214.898056 -217.645737 214.898056 -216.5 212.3125 C-213.735788 209.548288 -212.087157 210.037829 -208.214355 209.993652 C-207.248314 209.978584 -207.248314 209.978584 -206.262756 209.963211 C-204.130909 209.932284 -201.999188 209.915318 -199.867188 209.898438 C-198.390299 209.879733 -196.91342 209.860161 -195.436554 209.839752 C-191.54696 209.788344 -187.657331 209.748765 -183.767578 209.711609 C-179.799391 209.671623 -175.83135 209.620506 -171.863281 209.570312 C-164.07562 209.473451 -156.287889 209.389079 -148.5 209.3125 C-149.065898 208.818789 -149.631797 208.325078 -150.214844 207.816406 C-150.94832 207.175742 -151.681797 206.535078 -152.4375 205.875 C-153.168398 205.236914 -153.899297 204.598828 -154.652344 203.941406 C-155.621394 203.087085 -156.586512 202.225988 -157.5 201.3125 C-157.574618 199.83507 -157.583268 198.354168 -157.5625 196.875 C-157.554766 195.980391 -157.547031 195.085781 -157.539062 194.164062 C-157.513021 192.263021 -157.486979 190.361979 -157.460938 188.460938 C-157.453203 187.566328 -157.445469 186.671719 -157.4375 185.75 C-157.425898 184.923711 -157.414297 184.097422 -157.402344 183.246094 C-157.283722 181.305264 -157.283722 181.305264 -158.5 180.3125 C-158.479375 179.466875 -158.45875 178.62125 -158.4375 177.75 C-158.458125 176.945625 -158.47875 176.14125 -158.5 175.3125 C-159.16 175.3125 -159.82 175.3125 -160.5 175.3125 C-160.766572 178.22965 -160.923355 181.076229 -161 184 C-161.320371 195.938543 -161.320371 195.938543 -165.121094 200.078125 C-165.720508 200.567969 -166.319922 201.057813 -166.9375 201.5625 C-167.832754 202.312734 -167.832754 202.312734 -168.746094 203.078125 C-173.233008 206.235954 -178.562034 205.571533 -183.8125 205.625 C-184.750293 205.654004 -185.688086 205.683008 -186.654297 205.712891 C-192.481328 205.766274 -195.92727 205.287258 -200.5 201.3125 C-202.363281 199.460937 -202.363281 199.460937 -203.8125 197.6875 C-204.549199 196.801914 -204.549199 196.801914 -205.300781 195.898438 C-207.97893 192.356651 -207.675375 188.975949 -207.753906 184.707031 C-207.80324 183.150323 -207.854743 181.593682 -207.908203 180.037109 C-207.990706 177.585758 -208.062333 175.136855 -208.096924 172.684326 C-207.946127 163.286327 -207.946127 163.286327 -211.227295 154.802979 C-213.232233 153.074841 -215.247473 151.694024 -217.5 150.3125 C-228.35533 139.025117 -231.67545 126.914306 -231.75 111.6875 C-231.770625 110.657539 -231.79125 109.627578 -231.8125 108.566406 C-231.873032 96.535753 -228.945676 83.947727 -220.5 74.9375 C-219.84 74.07125 -219.18 73.205 -218.5 72.3125 C-218.940859 71.732422 -219.381719 71.152344 -219.835938 70.554688 C-223.2701 65.927435 -222.28857 59.763919 -221.5 54.3125 C-219.703546 49.903021 -217.217426 46.205586 -214.5 42.3125 C-213.527402 40.744355 -213.527402 40.744355 -212.535156 39.144531 C-208.044095 31.985513 -203.398949 26.201624 -196.0625 21.875 C-189.697801 20.477871 -184.290495 20.969455 -178.324219 23.558594 C-175.134758 24.876722 -173.385334 25.599103 -169.976562 24.495605 C-169.035547 24.061353 -168.094531 23.6271 -167.125 23.179688 C-166.067083 22.705232 -165.009165 22.230776 -163.919189 21.741943 C-162.790857 21.228977 -161.662524 20.716011 -160.5 20.1875 C-152.39184 16.632137 -144.426848 13.348587 -135.8125 11.25 C-135.086113 11.071304 -134.359727 10.892607 -133.611328 10.708496 C-120.682027 7.788138 -107.822454 6.934303 -94.625 7 C-93.508304 7.002236 -93.508304 7.002236 -92.369049 7.004517 C-77.472816 7.058091 -64.243959 8.742073 -50.039062 13.542969 C-47.46368 14.457524 -47.46368 14.457524 -44.5 14.3125 C-42.442011 12.581441 -42.442011 12.581441 -40.4375 10.375 C-36.727747 6.457998 -35.126801 5.290607 -29.75 5.0625 C-24.360728 4.596569 -22.349072 2.978282 -18.5 -0.6875 C-12.556773 -2.75747 -5.615958 -2.707694 0 0 Z " fill="#EAEAE9" transform="translate(234.5,22.6875)"/>
<path d="M0 0 C3.681677 3.405551 5.232403 5.70692 6.0625 10.6875 C5.376943 15.105533 3.809657 16.664175 0.617188 19.636719 C0.248516 20.189727 -0.120156 20.742734 -0.5 21.3125 C0.10987 22.67275 0.79037 24.001528 1.5 25.3125 C2.134249 31.43374 2.416013 37.269087 -0.125 42.9375 C-2.747058 45.559558 -5.253402 47.51651 -8.5 49.3125 C-9.49 49.3125 -10.48 49.3125 -11.5 49.3125 C-10.878946 51.682646 -10.153515 53.79697 -9.25 56.0625 C-3.617224 70.725598 -2.581554 89.764811 -8.296875 104.636719 C-8.693906 105.519727 -9.090937 106.402734 -9.5 107.3125 C-16.51195 123.817901 -20.11108 138.622797 -21.512207 156.448486 C-22.865809 173.364276 -22.865809 173.364276 -26.59375 177.808594 C-27.387812 178.449258 -28.181875 179.089922 -29 179.75 C-29.794062 180.408711 -30.588125 181.067422 -31.40625 181.746094 C-36.015438 185.194385 -40.902875 184.935003 -46.5 185.3125 C-47.38043 185.379531 -48.260859 185.446562 -49.167969 185.515625 C-55.14819 185.775231 -59.619337 184.901821 -64.5 181.3125 C-65.74966 179.956098 -66.97911 178.580794 -68.1875 177.1875 C-69.767998 175.336321 -69.767998 175.336321 -71.5 174.3125 C-74.138388 176.465621 -74.138388 176.465621 -75.261719 178.558594 C-76.880819 180.851893 -77.814421 181.420209 -80.5 182.3125 C-83.462251 182.646514 -86.396103 182.682688 -89.375 182.6875 C-90.165195 182.711992 -90.955391 182.736484 -91.769531 182.761719 C-97.161836 182.788635 -100.353791 182.057082 -104.5 178.3125 C-106.355338 175.741541 -107.975838 173.091062 -109.5 170.3125 C-109.519819 171.104226 -109.539639 171.895952 -109.560059 172.71167 C-109.655472 176.308108 -109.765086 179.903978 -109.875 183.5 C-109.905937 184.745879 -109.936875 185.991758 -109.96875 187.275391 C-110.007422 188.477441 -110.046094 189.679492 -110.085938 190.917969 C-110.133069 192.575421 -110.133069 192.575421 -110.181152 194.266357 C-110.80816 200.256538 -112.972478 203.250431 -117.472656 206.960938 C-119.619304 208.392036 -121.627464 209.226907 -124.0625 210.0625 C-125.196875 210.475 -126.33125 210.8875 -127.5 211.3125 C-126.84 211.9725 -126.18 212.6325 -125.5 213.3125 C-125.5 214.6325 -125.5 215.9525 -125.5 217.3125 C-128.435799 217.744273 -131.01181 217.86828 -133.961182 217.845947 C-134.860116 217.854563 -135.759051 217.863178 -136.685226 217.872055 C-139.677157 217.894887 -142.668164 217.887946 -145.660156 217.878906 C-147.725218 217.884134 -149.790276 217.890407 -151.855331 217.89769 C-156.190859 217.908126 -160.526059 217.903486 -164.861572 217.888916 C-170.440162 217.87171 -176.017725 217.895229 -181.5962 217.930406 C-185.862248 217.952277 -190.128046 217.950963 -194.394133 217.94264 C-196.452002 217.941815 -198.509888 217.948781 -200.567705 217.963411 C-203.435201 217.980672 -206.300797 217.966472 -209.168213 217.943604 C-210.032076 217.955296 -210.895939 217.966988 -211.78598 217.979034 C-214.127579 217.940689 -214.127579 217.940689 -217.5 217.3125 C-217.645737 214.898056 -217.645737 214.898056 -216.5 212.3125 C-213.735788 209.548288 -212.087157 210.037829 -208.214355 209.993652 C-207.248314 209.978584 -207.248314 209.978584 -206.262756 209.963211 C-204.130909 209.932284 -201.999188 209.915318 -199.867188 209.898438 C-198.390299 209.879733 -196.91342 209.860161 -195.436554 209.839752 C-191.54696 209.788344 -187.657331 209.748765 -183.767578 209.711609 C-179.799391 209.671623 -175.83135 209.620506 -171.863281 209.570312 C-164.07562 209.473451 -156.287889 209.389079 -148.5 209.3125 C-149.065898 208.818789 -149.631797 208.325078 -150.214844 207.816406 C-150.94832 207.175742 -151.681797 206.535078 -152.4375 205.875 C-153.168398 205.236914 -153.899297 204.598828 -154.652344 203.941406 C-155.621394 203.087085 -156.586512 202.225988 -157.5 201.3125 C-157.574618 199.83507 -157.583268 198.354168 -157.5625 196.875 C-157.554766 195.980391 -157.547031 195.085781 -157.539062 194.164062 C-157.513021 192.263021 -157.486979 190.361979 -157.460938 188.460938 C-157.453203 187.566328 -157.445469 186.671719 -157.4375 185.75 C-157.425898 184.923711 -157.414297 184.097422 -157.402344 183.246094 C-157.283722 181.305264 -157.283722 181.305264 -158.5 180.3125 C-158.479375 179.466875 -158.45875 178.62125 -158.4375 177.75 C-158.458125 176.945625 -158.47875 176.14125 -158.5 175.3125 C-159.16 175.3125 -159.82 175.3125 -160.5 175.3125 C-160.766572 178.22965 -160.923355 181.076229 -161 184 C-161.320371 195.938543 -161.320371 195.938543 -165.121094 200.078125 C-165.720508 200.567969 -166.319922 201.057813 -166.9375 201.5625 C-167.832754 202.312734 -167.832754 202.312734 -168.746094 203.078125 C-173.233008 206.235954 -178.562034 205.571533 -183.8125 205.625 C-184.750293 205.654004 -185.688086 205.683008 -186.654297 205.712891 C-192.481328 205.766274 -195.92727 205.287258 -200.5 201.3125 C-202.363281 199.460937 -202.363281 199.460937 -203.8125 197.6875 C-204.549199 196.801914 -204.549199 196.801914 -205.300781 195.898438 C-207.97893 192.356651 -207.675375 188.975949 -207.753906 184.707031 C-207.80324 183.150323 -207.854743 181.593682 -207.908203 180.037109 C-207.990706 177.585758 -208.062333 175.136855 -208.096924 172.684326 C-207.946127 163.286327 -207.946127 163.286327 -211.227295 154.802979 C-213.232233 153.074841 -215.247473 151.694024 -217.5 150.3125 C-228.35533 139.025117 -231.67545 126.914306 -231.75 111.6875 C-231.770625 110.657539 -231.79125 109.627578 -231.8125 108.566406 C-231.873032 96.535753 -228.945676 83.947727 -220.5 74.9375 C-219.84 74.07125 -219.18 73.205 -218.5 72.3125 C-218.940859 71.732422 -219.381719 71.152344 -219.835938 70.554688 C-223.2701 65.927435 -222.28857 59.763919 -221.5 54.3125 C-219.703546 49.903021 -217.217426 46.205586 -214.5 42.3125 C-213.527402 40.744355 -213.527402 40.744355 -212.535156 39.144531 C-208.044095 31.985513 -203.398949 26.201624 -196.0625 21.875 C-189.697801 20.477871 -184.290495 20.969455 -178.324219 23.558594 C-175.134758 24.876722 -173.385334 25.599103 -169.976562 24.495605 C-169.035547 24.061353 -168.094531 23.6271 -167.125 23.179688 C-166.067083 22.705232 -165.009165 22.230776 -163.919189 21.741943 C-162.790857 21.228977 -161.662524 20.716011 -160.5 20.1875 C-152.39184 16.632137 -144.426848 13.348587 -135.8125 11.25 C-135.086113 11.071304 -134.359727 10.892607 -133.611328 10.708496 C-120.682027 7.788138 -107.822454 6.934303 -94.625 7 C-93.508304 7.002236 -93.508304 7.002236 -92.369049 7.004517 C-77.472816 7.058091 -64.243959 8.742073 -50.039062 13.542969 C-47.46368 14.457524 -47.46368 14.457524 -44.5 14.3125 C-42.442011 12.581441 -42.442011 12.581441 -40.4375 10.375 C-36.727747 6.457998 -35.126801 5.290607 -29.75 5.0625 C-24.360728 4.596569 -22.349072 2.978282 -18.5 -0.6875 C-12.556773 -2.75747 -5.615958 -2.707694 0 0 Z M-20.5 11.3125 C-20.5 11.9725 -20.5 12.6325 -20.5 13.3125 C-21.49 12.9825 -22.48 12.6525 -23.5 12.3125 C-27.593632 11.926308 -29.968801 12.052108 -33.6875 13.875 C-37.108171 16.839581 -38.570237 19.230309 -40.5 23.3125 C-40.5 24.3025 -40.5 25.2925 -40.5 26.3125 C-42.911667 25.400416 -45.129694 24.386159 -47.4375 23.25 C-53.33644 20.501819 -59.088438 18.382902 -65.4375 16.9375 C-66.109666 16.782732 -66.781831 16.627964 -67.474365 16.468506 C-103.183695 8.764261 -137.964517 17.650133 -170.046631 33.170898 C-175.101052 35.522821 -175.101052 35.522821 -177.5 36.3125 C-178.5625 34.5625 -178.5625 34.5625 -179.5 32.3125 C-181.130457 30.705105 -181.130457 30.705105 -183.5 30.3125 C-190.173051 32.04255 -192.862867 35.681406 -196.5 41.3125 C-197.090391 42.222578 -197.680781 43.132656 -198.289062 44.070312 C-199.498968 45.959825 -200.697216 47.85686 -201.882812 49.761719 C-203.190487 51.824307 -204.556343 53.783639 -206 55.75 C-207.680154 58.169336 -207.680154 58.169336 -207.625 60.75 C-207.25375 61.265625 -206.8825 61.78125 -206.5 62.3125 C-200.965457 62.727591 -197.602176 59.291205 -193.648438 55.90625 C-191.541942 54.343613 -190.135914 53.438305 -187.5 53.3125 C-187.656551 57.304556 -188.171319 61.003322 -190.5 64.3125 C-192.1875 65.375 -192.1875 65.375 -194.5 66.3125 C-195.61375 66.828125 -196.7275 67.34375 -197.875 67.875 C-201.5 69.3125 -201.5 69.3125 -204.5 69.4375 C-209.505366 70.897398 -211.624866 75.164766 -214.5 79.3125 C-214.978242 79.941563 -215.456484 80.570625 -215.949219 81.21875 C-224.833968 92.958358 -225.708508 107.107123 -224.5 121.3125 C-222.311917 133.209384 -214.894552 143.796859 -205.5 151.3125 C-204.574453 151.652813 -203.648906 151.993125 -202.695312 152.34375 C-201.970859 152.663437 -201.246406 152.983125 -200.5 153.3125 C-200.83 154.3025 -201.16 155.2925 -201.5 156.3125 C-201.598932 159.260088 -201.642248 162.177874 -201.625 165.125 C-201.620166 165.972881 -201.615332 166.820762 -201.610352 167.694336 C-201.586418 170.234113 -201.547599 172.773063 -201.5 175.3125 C-201.487432 176.021323 -201.474863 176.730146 -201.461914 177.460449 C-201.221838 187.622979 -201.221838 187.622979 -196.5 196.3125 C-194.386589 197.347751 -194.386589 197.347751 -192.5 197.3125 C-192.976309 196.48041 -193.452617 195.64832 -193.943359 194.791016 C-195.627966 191.026543 -196.142345 187.711106 -196.40625 183.65625 C-196.458256 182.949723 -196.510261 182.243196 -196.563843 181.515259 C-196.667823 180.036675 -196.764942 178.557594 -196.855469 177.078125 C-197.001508 174.788868 -197.187416 172.504934 -197.375 170.21875 C-197.471174 168.78141 -197.565013 167.343912 -197.65625 165.90625 C-197.747129 164.59334 -197.838008 163.28043 -197.931641 161.927734 C-197.789199 161.064707 -197.646758 160.20168 -197.5 159.3125 C-195.20166 159.849365 -195.20166 159.849365 -192.5 161.3125 C-190.136421 161.882925 -187.759508 162.399592 -185.375 162.875 C-184.721365 163.005759 -184.067729 163.136519 -183.394287 163.27124 C-178.396738 164.23341 -173.457817 164.759941 -168.378906 165.003906 C-167.758867 165.105742 -167.138828 165.207578 -166.5 165.3125 C-166.5 165.9725 -166.5 166.6325 -166.5 167.3125 C-163.462202 168.831399 -160.667867 168.054813 -157.3125 167.8125 C-153.476562 167.753906 -153.476562 167.753906 -150.5 168.3125 C-149.41545 171.521491 -150.565124 174.162503 -151.5 177.3125 C-151.17 177.6425 -150.84 177.9725 -150.5 178.3125 C-150.437375 179.863346 -150.440544 181.416972 -150.472656 182.96875 C-150.484902 183.908477 -150.497148 184.848203 -150.509766 185.816406 C-150.544923 187.813875 -150.583986 189.811278 -150.626953 191.808594 C-150.643389 193.218184 -150.643389 193.218184 -150.660156 194.65625 C-150.676995 195.524434 -150.693833 196.392617 -150.711182 197.287109 C-150.606647 198.289678 -150.606647 198.289678 -150.5 199.3125 C-149.84 199.6425 -149.18 199.9725 -148.5 200.3125 C-148.014853 198.175156 -148.014853 198.175156 -147.867188 195.363281 C-147.783398 194.28627 -147.699609 193.209258 -147.613281 192.099609 C-147.534648 190.952988 -147.456016 189.806367 -147.375 188.625 C-147.245449 186.980479 -147.245449 186.980479 -147.113281 185.302734 C-146.175504 174.308287 -146.175504 174.308287 -146.5 163.3125 C-147.16 162.9825 -147.82 162.6525 -148.5 162.3125 C-147.888184 160.347656 -147.888184 160.347656 -146.5 158.3125 C-144.592285 157.371094 -144.592285 157.371094 -142.289062 156.75 C-141.456328 156.510234 -140.623594 156.270469 -139.765625 156.023438 C-138.894219 155.788828 -138.022812 155.554219 -137.125 155.3125 C-129.454863 153.321209 -129.454863 153.321209 -123.5 148.3125 C-122.504844 147.711797 -121.509687 147.111094 -120.484375 146.492188 C-116.99658 143.944819 -115.483807 141.271412 -113.75 137.4375 C-113.459961 136.838086 -113.169922 136.238672 -112.871094 135.621094 C-111.512874 132.76201 -110.387206 129.952059 -109.441406 126.929688 C-109.130742 126.066016 -108.820078 125.202344 -108.5 124.3125 C-105.569281 123.045162 -104.004244 123.177215 -100.9375 124 C-98.040483 125.559932 -96.434627 126.617841 -94.5 129.3125 C-93.278262 133.675849 -93.12565 137.189451 -94.5625 141.5 C-96.882963 144.868414 -99.111243 147.959197 -102.5 150.3125 C-104.830945 150.662142 -107.164048 150.998045 -109.5 151.3125 C-110.718699 153.816975 -110.718699 153.816975 -111.5 156.3125 C-112.82 156.3125 -114.14 156.3125 -115.5 156.3125 C-115.5 156.9725 -115.5 157.6325 -115.5 158.3125 C-116.82 158.3125 -118.14 158.3125 -119.5 158.3125 C-119.768125 157.590625 -120.03625 156.86875 -120.3125 156.125 C-120.704375 155.526875 -121.09625 154.92875 -121.5 154.3125 C-126.715249 155.788514 -130.237456 157.865607 -133.5 162.3125 C-134.06539 166.268724 -133.879711 170.142102 -133.6875 174.125 C-133.610275 176.235392 -133.540781 178.346088 -133.480469 180.457031 C-133.438171 181.388782 -133.395874 182.320532 -133.352295 183.280518 C-133.401038 183.951072 -133.44978 184.621626 -133.5 185.3125 C-134.16 185.3125 -134.82 185.3125 -135.5 185.3125 C-135.786124 188.381999 -135.786124 188.381999 -135.6875 192.0625 C-135.681055 193.315469 -135.674609 194.568437 -135.667969 195.859375 C-135.557494 199.699083 -135.557494 199.699083 -134.5 203.3125 C-129.325153 204.022773 -125.857414 203.120611 -121.5 200.3125 C-118.665324 197.484492 -117.554923 196.054644 -117.255615 192.010254 C-117.355598 190.782261 -117.455581 189.554268 -117.558594 188.289062 C-117.632075 186.927252 -117.698926 185.565071 -117.759766 184.202637 C-117.792395 183.5033 -117.825024 182.803964 -117.858643 182.083435 C-118.428526 166.575275 -118.428526 166.575275 -114.750488 162.259766 C-110.130032 159.404187 -105.029702 158.515514 -99.717773 157.719238 C-96.954964 157.212541 -94.956843 156.169296 -92.625 154.625 C-88.101903 151.841556 -83.221667 150.593278 -78.125 149.207031 C-75.353946 148.605698 -75.353946 148.605698 -74.5 146.3125 C-73.778125 146.044375 -73.05625 145.77625 -72.3125 145.5 C-65.761024 142.733821 -62.537319 138.503958 -59.5 132.3125 C-59.5 131.6525 -59.5 130.9925 -59.5 130.3125 C-58.84 130.3125 -58.18 130.3125 -57.5 130.3125 C-56.994246 128.327925 -56.994246 128.327925 -56.789062 125.816406 C-56.678203 124.864434 -56.567344 123.912461 -56.453125 122.931641 C-56.238195 120.929461 -56.027112 118.926864 -55.820312 116.923828 C-54.657038 107.042605 -51.410665 98.635742 -44.5 91.3125 C-40.429453 88.598802 -37.365648 87.704294 -32.5 88.3125 C-28.215942 89.740519 -26.84056 90.699492 -24.625 94.6875 C-23.633933 97.88094 -23.030856 100.028493 -23.5 103.3125 C-24.16 103.9725 -24.82 104.6325 -25.5 105.3125 C-26.296064 107.380986 -26.296064 107.380986 -26.9375 109.777344 C-27.192734 110.659707 -27.447969 111.54207 -27.710938 112.451172 C-27.971328 113.374785 -28.231719 114.298398 -28.5 115.25 C-29.016101 117.072961 -29.536752 118.894641 -30.0625 120.714844 C-30.290664 121.524294 -30.518828 122.333745 -30.753906 123.167725 C-31.5 125.3125 -31.5 125.3125 -33.5 128.3125 C-32.51 128.6425 -31.52 128.9725 -30.5 129.3125 C-30.535156 131.148438 -30.535156 131.148438 -31.5 133.3125 C-33.496094 135.164062 -33.496094 135.164062 -35.9375 136.9375 C-40.971519 140.394446 -40.971519 140.394446 -43.375 145.8125 C-44.5 149.3125 -44.5 149.3125 -46.625 150.625 C-47.24375 150.851875 -47.8625 151.07875 -48.5 151.3125 C-48.5 151.9725 -48.5 152.6325 -48.5 153.3125 C-49.36625 153.580625 -50.2325 153.84875 -51.125 154.125 C-51.90875 154.516875 -52.6925 154.90875 -53.5 155.3125 C-53.206094 155.968633 -52.912187 156.624766 -52.609375 157.300781 C-51.493635 160.329779 -51.450602 161.649243 -51.726562 164.773438 C-52.129561 169.476345 -52.367927 173.644983 -51.5 178.3125 C-47.287121 180.190854 -43.687249 178.825899 -39.5 177.3125 C-35.466307 175.26027 -32.835324 173.168227 -30.5 169.3125 C-30.019914 166.769262 -29.692163 164.39276 -29.472656 161.828125 C-29.360077 160.728242 -29.360077 160.728242 -29.245224 159.60614 C-29.005526 157.259276 -28.782113 154.911323 -28.5625 152.5625 C-27.091251 136.874709 -24.616902 122.283582 -18.375 107.6875 C-17.073379 104.566512 -15.782195 101.441514 -14.5 98.3125 C-13.894785 96.850703 -13.894785 96.850703 -13.277344 95.359375 C-8.818999 77.884457 -13.997501 60.330362 -22.427246 45.076172 C-23.911744 42.635568 -25.687457 40.524348 -27.5625 38.375 C-30.156721 35.28918 -30.960217 33.495781 -30.6875 29.4375 C-30.228901 26.426932 -29.786694 25.555461 -27.425781 23.554688 C-26.790273 23.144766 -26.154766 22.734844 -25.5 22.3125 C-25.534805 23.19293 -25.569609 24.073359 -25.605469 24.980469 C-25.646074 26.722637 -25.646074 26.722637 -25.6875 28.5 C-25.722305 29.648555 -25.757109 30.797109 -25.792969 31.980469 C-25.473194 35.617373 -24.653238 37.406418 -22.5 40.3125 C-19.079059 42.878206 -15.652265 42.749581 -11.5 42.3125 C-8.110604 40.175707 -6.774174 39.135023 -5.5 35.3125 C-4.635764 29.139388 -6.60396 25.937446 -9.992188 21.035156 C-10.489766 20.46668 -10.987344 19.898203 -11.5 19.3125 C-12.16 19.3125 -12.82 19.3125 -13.5 19.3125 C-12.914062 17.371094 -12.914062 17.371094 -11.5 15.3125 C-9.335938 14.660156 -9.335938 14.660156 -6.875 14.375 C-4.498492 14.008711 -4.498492 14.008711 -2.5 13.3125 C-1.583333 10.8125 -1.583333 10.8125 -2.5 8.3125 C-4.959939 5.852561 -5.850019 5.962575 -9.25 5.875 C-14.671751 5.961434 -16.900186 7.333758 -20.5 11.3125 Z " fill="#BCBCBC" transform="translate(234.5,22.6875)"/>
<path d="M0 0 C5.886761 3.329065 10.238984 6.790468 13.3125 12.9375 C13.785362 18.185497 14.202201 23.158098 11.8125 27.9375 C4.336111 33.918611 -2.129415 34.912096 -11.6875 33.9375 C-14.870002 33.261097 -17.718158 32.255955 -20.6875 30.9375 C-21.397773 30.635859 -22.108047 30.334219 -22.839844 30.023438 C-27.292843 27.983516 -30.421673 25.669874 -33.6875 21.9375 C-34.214727 21.357422 -34.741953 20.777344 -35.285156 20.179688 C-38.135634 15.622099 -37.587268 10.074475 -36.6875 4.9375 C-29.178002 -6.44244 -10.839145 -5.479937 0 0 Z " fill="#B9A4B5" transform="translate(65.6875,132.0625)"/>
<path d="M0 0 C2.909126 2.086982 4.593712 3.640691 5.632812 7.117188 C6.448231 12.269939 6.050349 15.615123 3 20 C0.889021 22.676809 -1.188553 25.0492 -4 27 C-6.33212 27.07523 -8.668531 27.093259 -11 27 C-11.834924 29.424598 -11.834924 29.424598 -12 32 C-12.99 32.33 -13.98 32.66 -15 33 C-15.99 32.505 -15.99 32.505 -17 32 C-17 32.66 -17 33.32 -17 34 C-18.32 34 -19.64 34 -21 34 C-21.66 33.01 -22.32 32.02 -23 31 C-27.694781 32.477987 -30.791889 34.174944 -34 38 C-35.561138 41.122276 -35.336861 44.502523 -35.5 47.9375 C-35.865712 55.597136 -35.865712 55.597136 -37 59 C-36.990393 60.557163 -36.922515 62.114396 -36.816406 63.667969 C-36.757432 65.006982 -36.757432 65.006982 -36.697266 66.373047 C-36.60679 68.262536 -36.489205 70.150906 -36.345703 72.037109 C-36.18953 76.619285 -36.18953 76.619285 -37 79 C-41.851545 79.964187 -45.623036 79.425279 -50 77 C-50.530029 74.89502 -50.530029 74.89502 -50.386719 72.257812 C-50.319768 70.777163 -50.319768 70.777163 -50.251465 69.266602 C-50.168481 68.188623 -50.085498 67.110645 -50 66 C-49.873591 64.309556 -49.873591 64.309556 -49.744629 62.584961 C-49.352268 57.768712 -48.918604 52.957598 -48.447266 48.148438 C-48.347363 46.983125 -48.247461 45.817813 -48.144531 44.617188 C-48.045032 43.561284 -47.945532 42.505381 -47.843018 41.41748 C-47.894822 40.619712 -47.946626 39.821943 -48 39 C-48.99 38.67 -49.98 38.34 -51 38 C-50.625 36.125 -50.625 36.125 -49 34 C-43.064234 30.908455 -35.733219 28 -29 28 C-28.7525 27.4225 -28.505 26.845 -28.25 26.25 C-27 24 -27 24 -23.8125 22.625 C-17.444719 19.314818 -14.684706 10.355029 -12.236328 4.025879 C-11.565403 2.319376 -10.789156 0.655151 -10 -1 C-5.936134 -2.354622 -3.971967 -1.506608 0 0 Z " fill="#736E69" transform="translate(136,147)"/>
<path d="M0 0 C2.035156 -0.164062 2.035156 -0.164062 5 1 C6.243945 1.225586 7.487891 1.451172 8.769531 1.683594 C10.11722 1.934724 11.464875 2.186029 12.8125 2.4375 C13.505371 2.559316 14.198242 2.681133 14.912109 2.806641 C16.623436 3.132046 18.315257 3.557093 20 4 C20 4.66 20 5.32 20 6 C22.047914 6.162533 24.09853 6.316192 26.152344 6.363281 C26.76207 6.573398 27.371797 6.783516 28 7 C29.706346 11.23367 28.669894 15.472259 27.8125 19.8125 C27.673765 20.523015 27.535029 21.23353 27.39209 21.965576 C26.101985 28.165051 24.635043 33.444806 19.9375 38 C15.310325 39.575209 10.821887 39.817269 6 39 C0.107513 33.668703 0.395084 27.5066 0 20 C-0.175387 16.395893 -0.293317 12.794902 -0.375 9.1875 C-0.413108 8.273071 -0.451216 7.358643 -0.490479 6.416504 C-0.523438 3.855469 -0.523438 3.855469 0 0 Z " fill="#A3A2A1" transform="translate(37,182)"/>
<path d="M0 0 C0.721875 0.33 1.44375 0.66 2.1875 1 C2.096411 4.461377 1.121727 6.09866 -0.8125 9 C-0.5751 13.917579 1.078907 16.801742 4 20.6875 C4.68707 21.619492 5.374141 22.551484 6.082031 23.511719 C8.015755 25.797028 9.618916 27.478254 12.1875 29 C15.814 29.089162 15.814 29.089162 19.1875 28 C21.967534 24.428241 21.376856 20.172731 21.25 15.875 C21.067568 8.239865 21.067568 8.239865 22.1875 6 C24.5625 5.5 24.5625 5.5 27.1875 6 C30.104963 10.525897 30.702356 14.602963 30.625 19.875 C30.618877 20.581003 30.612754 21.287007 30.606445 22.014404 C30.404098 28.754888 28.941005 32.838569 24.5 37.9375 C19.851677 40.073216 15.567382 40.754597 10.625 39.1875 C0.676096 34.577032 -4.595168 27.968239 -8.8125 18 C-10.319008 13.480477 -10.558139 9.640406 -8.5625 5.25 C-5.938986 1.876911 -4.422543 0 0 0 Z " fill="#8E9FAD" transform="translate(115.8125,80)"/>
<path d="M0 0 C4.530763 3.151835 6.377659 7.326795 7.375 12.6875 C6.671775 15.939914 5.204885 17.670115 2.875 20 C1.885 20 0.895 20 -0.125 20 C-0.96875 18.355469 -0.96875 18.355469 -1.625 16.1875 C-2.590403 13.032702 -3.463721 11.036951 -6.125 9 C-11.420038 8.487577 -14.851025 8.503112 -19.125 12 C-21.014386 17.668159 -20.4329 23.767726 -19.625 29.625 C-19.13 30.40875 -18.635 31.1925 -18.125 32 C-15.272255 32.607962 -12.985119 32.91797 -10.125 33 C-7.125 33.25 -7.125 33.25 -5.125 34 C-4.375 36.1875 -4.375 36.1875 -5.125 39 C-7.20844 41.354232 -9.455115 43.336324 -12.125 45 C-13.115 45 -14.105 45 -15.125 45 C-14.910156 43.25 -14.910156 43.25 -14.1875 41 C-13.459284 38.852522 -13.459284 38.852522 -13.125 37 C-13.785 37 -14.445 37 -15.125 37 C-15.3725 38.175625 -15.62 39.35125 -15.875 40.5625 C-16.2875 41.696875 -16.7 42.83125 -17.125 44 C-19.9375 44.0625 -19.9375 44.0625 -23.125 43 C-24.015742 42.801484 -24.906484 42.602969 -25.824219 42.398438 C-26.583477 41.936953 -27.342734 41.475469 -28.125 41 C-28.435115 38.263881 -28.424999 36.251405 -28.125 33.5625 C-28.05813 32.841108 -27.99126 32.119717 -27.922363 31.376465 C-26.679595 19.373728 -23.329854 9.347416 -14.125 1 C-9.217953 -1.519835 -5.233763 -1.674804 0 0 Z " fill="#7A7A79" transform="translate(205.125,111)"/>
<path d="M0 0 C1.313846 7.591108 -0.944689 16.724348 -5 23.1875 C-8.746184 26.58248 -12.754259 26.274732 -17.554688 26.21875 C-20.74944 25.932957 -22.588609 25.109967 -25 23 C-27.28394 19.19893 -27.720585 15.793106 -27.636719 11.40625 C-27 9 -27 9 -25.269531 7.34375 C-22.89481 6.003116 -20.548605 4.968075 -18 4 C-16.892051 3.541738 -16.892051 3.541738 -15.761719 3.074219 C-5.297998 -1.083681 -5.297998 -1.083681 0 0 Z " fill="#ABABAB" transform="translate(160,172)"/>
<path d="M0 0 C2.9375 2.0625 2.9375 2.0625 5 5 C5.3386 7.332575 5.673204 9.665742 6 12 C6.692227 11.795039 7.384453 11.590078 8.097656 11.378906 C8.72543 11.253867 9.353203 11.128828 10 11 C9.804688 13.097656 9.804688 13.097656 8.875 16.0625 C8.561758 17.073125 8.248516 18.08375 7.925781 19.125 C7.620273 20.07375 7.314766 21.0225 7 22 C6.690625 23.175625 6.38125 24.35125 6.0625 25.5625 C5 28 5 28 2.9375 29.625 C2.298125 29.74875 1.65875 29.8725 1 30 C0.9175 29.38125 0.835 28.7625 0.75 28.125 C0.5025 27.42375 0.255 26.7225 0 26 C-1.975493 25.93415 -3.954923 25.883814 -5.929688 25.96875 C-8.806576 26.012175 -10.579346 25.566305 -13 24 C-15.77805 18.840765 -15.566306 12.715335 -15 7 C-13.766699 3.978412 -12.84363 2.656157 -10.3125 0.6875 C-6.821074 -0.350491 -3.566038 -0.679245 0 0 Z " fill="#AEAEAE" transform="translate(199,119)"/>
<path d="M0 0 C0.33 0.66 0.66 1.32 1 2 C0.01 2.33 -0.98 2.66 -2 3 C-7.571304 5.210835 -9.947195 10.100687 -13 15 C-13.635508 15.988711 -14.271016 16.977422 -14.925781 17.996094 C-16.131824 19.876323 -17.330495 21.761314 -18.519531 23.652344 C-19.654011 25.451347 -20.820241 27.230361 -22 29 C-22 29.99 -22 30.98 -22 32 C-16.418009 32.286256 -13.142629 29.013339 -9.148438 25.59375 C-7.015181 24.011262 -5.619347 23.32027 -3 23 C-2.67 23.33 -2.34 23.66 -2 24 C-2.164249 28.270476 -2.528903 30.439777 -5.3125 33.75 C-11.148814 38.636216 -14.863732 40.393091 -22.546875 40.269531 C-25 40 -25 40 -28.125 38.5 C-30.221573 35.70457 -30.781863 33.757288 -30.542969 30.257812 C-29.425289 25.610194 -26.64706 21.911579 -24 18 C-23.042871 16.468594 -23.042871 16.468594 -22.066406 14.90625 C-11.03834 -2.463492 -11.03834 -2.463492 0 0 Z " fill="#8C9FAE" transform="translate(50,52)"/>
<path d="M0 0 C0.759258 0.078633 1.518516 0.157266 2.300781 0.238281 C7.414681 1.200799 7.414681 1.200799 9.6875 2.6875 C9.846794 5.470274 9.716611 7.48879 9.25 10.1875 C9.139463 10.904219 9.028926 11.620937 8.915039 12.359375 C6.961163 24.009295 6.961163 24.009295 3.6875 28.6875 C1 29.75 1 29.75 -2.3125 28.6875 C-10.767556 23.322331 -10.767556 23.322331 -12.3125 18.6875 C-13.158125 18.89375 -14.00375 19.1 -14.875 19.3125 C-15.679375 19.43625 -16.48375 19.56 -17.3125 19.6875 C-18.0625 17.1875 -18.0625 17.1875 -17.3125 14.6875 C-13.974456 14.811131 -11.318126 15.184687 -8.3125 16.6875 C-6.381536 12.825572 -6.894603 8.035835 -6.691406 3.777344 C-6.566367 2.757695 -6.441328 1.738047 -6.3125 0.6875 C-3.873871 -0.531815 -2.68612 -0.302471 0 0 Z " fill="#7E7A79" transform="translate(56.3125,187.3125)"/>
<path d="M0 0 C0.346116 3.006694 0.562243 5.919943 0.6875 8.9375 C0.734551 9.787637 0.781602 10.637773 0.830078 11.513672 C1.05579 16.157411 1.05579 16.157411 1 18 C-0.80467 19.80467 -3.731028 19.414926 -6.1875 19.621094 C-6.785625 19.746133 -7.38375 19.871172 -8 20 C-8.33 20.66 -8.66 21.32 -9 22 C-7.208913 21.834877 -5.421673 21.62805 -3.636719 21.40625 C-0.567871 21.351562 -0.567871 21.351562 2 22 C3.800359 25.717307 3.39456 29.449248 3.1875 33.5 C3.213604 35.145488 3.213604 35.145488 3.240234 36.824219 C3.171771 39.803281 3.054481 42.209875 2 45 C-1.511022 45.787519 -2.701228 45.826736 -6 45 C-6.982266 44.76668 -7.964531 44.533359 -8.976562 44.292969 C-11 43 -11 43 -11.523438 40.925781 C-11.474453 40.063398 -11.425469 39.201016 -11.375 38.3125 C-11.327305 37.341836 -11.279609 36.371172 -11.230469 35.371094 C-11.154414 34.258633 -11.078359 33.146172 -11 32 C-10.951049 30.657671 -10.905624 29.31521 -10.863281 27.972656 C-10.538379 20.148078 -10.538379 20.148078 -10 17 C-9.01 16.67 -8.02 16.34 -7 16 C-6.671193 13.509462 -6.671193 13.509462 -6.875 10.625 C-7.006889 7.292595 -7.063091 5.189274 -6 2 C-3.854126 0.684787 -2.529869 0 0 0 Z " fill="#776B69" transform="translate(97,181)"/>
<path d="M0 0 C0.851058 -0.009532 1.702116 -0.019064 2.578964 -0.028885 C3.960222 -0.027518 3.960222 -0.027518 5.369385 -0.026123 C6.31387 -0.030408 7.258355 -0.034693 8.231461 -0.039108 C10.231285 -0.044858 12.231129 -0.045347 14.230957 -0.041016 C17.29504 -0.037858 20.358156 -0.061299 23.422119 -0.08667 C25.362873 -0.088943 27.30363 -0.089646 29.244385 -0.088623 C30.622607 -0.102438 30.622607 -0.102438 32.028671 -0.116531 C32.882882 -0.110303 33.737092 -0.104074 34.617188 -0.097656 C35.368384 -0.098286 36.11958 -0.098915 36.893539 -0.099564 C39.467885 0.387051 40.358333 1.154774 41.873291 3.274658 C41.873291 4.594658 41.873291 5.914658 41.873291 7.274658 C40.006332 7.789322 40.006332 7.789322 37.359375 7.808105 C36.37513 7.823942 35.390886 7.839778 34.376816 7.856094 C33.301864 7.851134 32.226911 7.846175 31.119385 7.841064 C29.484418 7.850362 29.484418 7.850362 27.816422 7.859848 C25.50539 7.866973 23.194308 7.863725 20.883301 7.851074 C17.322376 7.837203 13.764072 7.871248 10.203369 7.909424 C7.96704 7.910375 5.730708 7.908517 3.494385 7.903564 C1.87892 7.923452 1.87892 7.923452 0.23082 7.943741 C-0.750273 7.931208 -1.731365 7.918675 -2.742188 7.905762 C-3.614888 7.9048 -4.487588 7.903838 -5.386734 7.902847 C-6.248022 7.591894 -6.248022 7.591894 -7.126709 7.274658 C-6.909189 2.07309 -5.101799 0.031325 0 0 Z " fill="#BFBFBF" transform="translate(196.126708984375,232.725341796875)"/>
<path d="M0 0 C2.351562 0.472656 2.351562 0.472656 4.976562 2.410156 C6.852598 6.588599 7.235947 9.971771 6.351562 14.472656 C5.057141 17.522014 4.09931 18.285673 1.351562 20.472656 C-2.906825 21.450115 -6.325518 21.150249 -10.210938 19.160156 C-12.577195 14.736284 -12.328773 10.365284 -11.648438 5.472656 C-9.237031 -0.117422 -5.61167 -0.322795 0 0 Z " fill="#DA3F41" transform="translate(45.6484375,102.52734375)"/>
<path d="M0 0 C2.431196 1.870151 3.640692 3.281383 5 6 C5.350629 11.347094 5.444036 14.628723 2 19 C-1.474101 20.737051 -5.201844 20.445254 -9 20 C-11.5625 18.6875 -11.5625 18.6875 -13 16 C-13.858374 10.635163 -13.927709 6.478537 -11 1.8125 C-6.832392 -0.70543 -4.825214 -0.689316 0 0 Z " fill="#DA3C3E" transform="translate(103,114)"/>
<path d="M0 0 C0.66 0.33 1.32 0.66 2 1 C1.34 1.66 0.68 2.32 0 3 C0.99 3.66 1.98 4.32 3 5 C2.988281 6.894531 2.988281 6.894531 2 9 C-0.144531 10.824219 -0.144531 10.824219 -2.8125 12.6875 C-7.322048 16.100131 -9.408397 18.841182 -11.085938 24.214844 C-11.387578 24.803945 -11.689219 25.393047 -12 26 C-14.101562 26.628906 -14.101562 26.628906 -16 27 C-16 27.66 -16 28.32 -16 29 C-16.66 29 -17.32 29 -18 29 C-18.696859 23.99901 -18.229859 19.299915 -16.5625 14.5625 C-16.376875 13.386875 -16.19125 12.21125 -16 11 C-19.231297 9.055419 -19.231297 9.055419 -23 8 C-23.66 7.01 -24.32 6.02 -25 5 C-23.826309 5.411855 -23.826309 5.411855 -22.628906 5.832031 C-21.616992 6.155586 -20.605078 6.479141 -19.5625 6.8125 C-18.553164 7.148945 -17.543828 7.485391 -16.503906 7.832031 C-15.264473 7.915176 -15.264473 7.915176 -14 8 C-13.101239 5.676011 -13.101239 5.676011 -13 3 C-12.67 2.34 -12.34 1.68 -12 1 C-11.34 1 -10.68 1 -10 1 C-10.316901 3.915493 -10.682455 6.364911 -12 9 C-8.12586 6.948985 -5.30764 5.30764 -2.1875 2.1875 C-1.465625 1.465625 -0.74375 0.74375 0 0 Z " fill="#DAD5D3" transform="translate(202,147)"/>
<path d="M0 0 C3.680278 -0.632886 5.940134 -0.685796 9.125 1.375 C9.74375 1.91125 10.3625 2.4475 11 3 C11.857227 3.171445 12.714453 3.342891 13.597656 3.519531 C14.786816 4.252363 14.786816 4.252363 16 5 C16.726596 8.125492 16.511647 11.128543 16.3125 14.3125 C16.309277 15.187129 16.306055 16.061758 16.302734 16.962891 C16.175781 19.425781 16.175781 19.425781 15 23 C9.975056 22.07287 6.001126 20.268905 3 16 C1.968467 13.292863 1.361893 10.589783 0.8125 7.75 C0.628809 7.004922 0.445117 6.259844 0.255859 5.492188 C-0.167969 3.359375 -0.167969 3.359375 0 0 Z " fill="#908585" transform="translate(167,178)"/>
<path d="M0 0 C3.802009 -0.105028 5.886825 0.389394 9.058594 2.503906 C10.197892 7.148737 10.480533 10.320556 8.058594 14.503906 C5.245831 18.120316 3.953666 19.36737 -0.628906 20.066406 C-3.941406 19.503906 -3.941406 19.503906 -5.378906 18.003906 C-6.549292 12.80219 -6.671032 8.367648 -4.441406 3.503906 C-1.941406 0.503906 -1.941406 0.503906 0 0 Z " fill="#737271" transform="translate(192.94140625,122.49609375)"/>
<path d="M0 0 C1.863281 0.207031 1.863281 0.207031 4 1 C4.729609 1.228164 5.459219 1.456328 6.210938 1.691406 C8.449255 2.592389 10.191962 3.392855 12 5 C11.5625 8.5625 11.5625 8.5625 10.777344 10.628906 C9.571554 14.306867 9.654033 18.028703 9.539062 21.875 C9.361172 22.57625 9.183281 23.2775 9 24 C7.68 24 6.36 24 5 24 C4.71125 22.906875 4.4225 21.81375 4.125 20.6875 C3.379503 16.773527 3.379503 16.773527 0 15.1875 C-1.485 14.599687 -1.485 14.599687 -3 14 C-3.66 13.34 -4.32 12.68 -5 12 C-4.732707 7.32237 -2.631483 3.759261 0 0 Z " fill="#574E4A" transform="translate(175,153)"/>
<path d="M0 0 C1.125 1.6875 1.125 1.6875 1 4 C-1.375 6.625 -1.375 6.625 -4 9 C-5.82762 12.655241 -5.331477 17.264052 -5.429688 21.322266 C-5.523438 23.472656 -5.523438 23.472656 -6 27 C-9.029211 28.009737 -10.630164 28.048073 -13.75 27.75 C-14.569844 27.682969 -15.389687 27.615938 -16.234375 27.546875 C-16.817031 27.366406 -17.399687 27.185937 -18 27 C-17.67 26.01 -17.34 25.02 -17 24 C-15.169922 23.806885 -15.169922 23.806885 -12.96875 23.878906 C-10.806183 23.787097 -10.806183 23.787097 -9 23 C-7.884513 20.011258 -8.252561 17.075698 -8.5 13.9375 C-8.536094 13.083496 -8.572187 12.229492 -8.609375 11.349609 C-8.704053 9.231186 -8.847564 7.115052 -9 5 C-9.99 5.66 -10.98 6.32 -12 7 C-12.99 7 -13.98 7 -15 7 C-15.519218 10.196897 -15.519218 10.196897 -15.5625 14 C-15.638997 16.336634 -15.765609 18.673893 -16 21 C-16.66 21 -17.32 21 -18 21 C-18.10794 18.151318 -17.92637 15.349946 -17.777344 12.503906 C-17.887559 11.264473 -17.887559 11.264473 -18 10 C-18.99 9.67 -19.98 9.34 -21 9 C-20.625 7.125 -20.625 7.125 -19 5 C-13.438658 2.164806 -6.315576 -1.114513 0 0 Z " fill="#69645F" transform="translate(106,176)"/>
<path d="M0 0 C2.909126 2.086982 4.593712 3.640691 5.632812 7.117188 C6.446556 12.259352 6.004215 15.593818 3 20 C0.301198 23.282327 -1.325667 24.775222 -5.375 26.125 C-6.674375 26.063125 -6.674375 26.063125 -8 26 C-8.125 23.5625 -8.125 23.5625 -7 21 C-5.68 21 -4.36 21 -3 21 C-3 20.34 -3 19.68 -3 19 C-2.34 18.67 -1.68 18.34 -1 18 C-0.562335 12.638609 -0.997956 7.961587 -3 3 C-6.583757 2.666456 -6.583757 2.666456 -10 3 C-10 1.68 -10 0.36 -10 -1 C-5.936134 -2.354622 -3.971967 -1.506608 0 0 Z " fill="#544641" transform="translate(136,147)"/>
<path d="M0 0 C0.66 0.33 1.32 0.66 2 1 C2.33 1.99 2.66 2.98 3 4 C6.336825 7.134121 9.603633 9.720727 14.125 10.625 C14.74375 10.74875 15.3625 10.8725 16 11 C15.5 13 15.5 13 14 15 C9.366043 16.544652 4.834414 16.615157 0 16 C-2.6875 14.0625 -2.6875 14.0625 -4 11 C-4.473409 7.955931 -4.883893 4.98314 -4 2 C-2.68 2 -1.36 2 0 2 C0 1.34 0 0.68 0 0 Z " fill="#8D8081" transform="translate(43,205)"/>
<path d="M0 0 C3.5625 -0.25 3.5625 -0.25 7 0 C4.87755 3.495801 2.41333 5.021679 -1.160156 6.917969 C-3.061011 8.035881 -4.601218 9.290355 -6.25 10.75 C-9 13 -9 13 -12 13 C-13.46422 15.842308 -14.161133 18.644533 -14.9375 21.75 C-15.288125 22.8225 -15.63875 23.895 -16 25 C-16.99 25.33 -17.98 25.66 -19 26 C-20.351687 21.32898 -20.619866 16.487678 -18.75 12 C-17 10 -17 10 -15.125 8.3125 C-14.75375 7.879375 -14.3825 7.44625 -14 7 C-14.99 6.34 -15.98 5.68 -17 5 C-14.0625 3.75 -14.0625 3.75 -11 3 C-10.375 4.875 -10.375 4.875 -10 7 C-8.68 7 -7.36 7 -6 7 C-6 6.34 -6 5.68 -6 5 C-5.195625 4.87625 -4.39125 4.7525 -3.5625 4.625 C-2.716875 4.41875 -1.87125 4.2125 -1 4 C-0.87625 3.319375 -0.7525 2.63875 -0.625 1.9375 C-0.315625 0.978438 -0.315625 0.978438 0 0 Z " fill="#D2CECC" transform="translate(125,174)"/>
<path d="M0 0 C0.928125 0.711563 0.928125 0.711563 1.875 1.4375 C2.20683 4.27917 1.981644 6.794767 0.875 9.4375 C-2.93443 12.104972 -7.274443 12.318894 -11.808594 12.300781 C-12.573008 12.015898 -13.337422 11.731016 -14.125 11.4375 C-15.333192 7.368119 -15.006497 3.561011 -14.125 -0.5625 C-9.955314 -2.647343 -4.431905 -0.797743 0 0 Z " fill="#605453" transform="translate(64.125,188.5625)"/>
<path d="M0 0 C2.9375 2.25 2.9375 2.25 4.507812 3.710938 C6.00446 5.153084 6.00446 5.153084 8.3125 5.875 C8.869375 6.24625 9.42625 6.6175 10 7 C10.367607 9.32818 10.702416 11.661838 11 14 C11.99 14.33 12.98 14.66 14 15 C13.34 15 12.68 15 12 15 C12.844785 17.528691 12.844785 17.528691 14 20 C10.596873 18.941249 7.986468 17.990978 5 16 C3.783125 15.9175 2.56625 15.835 1.3125 15.75 C0.219375 15.5025 -0.87375 15.255 -2 15 C-2.3125 12.0625 -2.3125 12.0625 -2 9 C-2.66 8.34 -3.32 7.68 -4 7 C-3.8125 4.5 -3.8125 4.5 -3 2 C-2.01 1.34 -1.02 0.68 0 0 Z " fill="#B0AEAE" transform="translate(169,163)"/>
<path d="M0 0 C3.916114 0.376549 6.007679 1.056972 9.25 3.3125 C11.592302 6.65245 13.005009 9.995675 13.75 14 C13.046775 17.252414 11.579885 18.982615 9.25 21.3125 C8.26 21.3125 7.27 21.3125 6.25 21.3125 C5.4375 17.8125 5.4375 17.8125 5.25 14.3125 C5.91 14.3125 6.57 14.3125 7.25 14.3125 C7.226108 11.853012 7.226108 11.853012 6.25 9.3125 C4.283271 8.162417 4.283271 8.162417 2.25 7.3125 C1.92 6.3225 1.59 5.3325 1.25 4.3125 C0.198125 3.961875 -0.85375 3.61125 -1.9375 3.25 C-2.865625 2.940625 -3.79375 2.63125 -4.75 2.3125 C-2.75 0.3125 -2.75 0.3125 0 0 Z " fill="#888583" transform="translate(198.75,109.6875)"/>
<path d="M0 0 C0.226875 0.639375 0.45375 1.27875 0.6875 1.9375 C1.120625 2.618125 1.55375 3.29875 2 4 C2.845625 4.04125 3.69125 4.0825 4.5625 4.125 C5.366875 4.41375 6.17125 4.7025 7 5 C8.230196 8.383039 8.749489 11.454098 8 15 C3.229599 15.98698 -0.728057 15.481442 -5 13 C-5.488281 10.398438 -5.488281 10.398438 -5.3125 7.375 C-5.267383 6.372109 -5.222266 5.369219 -5.175781 4.335938 C-5.117773 3.565078 -5.059766 2.794219 -5 2 C-4.67 2.66 -4.34 3.32 -4 4 C-2.68 4 -1.36 4 0 4 C0 2.68 0 1.36 0 0 Z " fill="#8E8283" transform="translate(91,211)"/>
<path d="M0 0 C0.346116 3.006694 0.562243 5.919943 0.6875 8.9375 C0.734551 9.787637 0.781602 10.637773 0.830078 11.513672 C1.05579 16.157411 1.05579 16.157411 1 18 C0 19 0 19 -3.375 19.1875 C-7 19 -7 19 -10 17 C-9.01 16.67 -8.02 16.34 -7 16 C-6.671193 13.509462 -6.671193 13.509462 -6.875 10.625 C-7.006889 7.292595 -7.063091 5.189274 -6 2 C-3.854126 0.684787 -2.529869 0 0 0 Z " fill="#A4A4A4" transform="translate(97,181)"/>
<path d="M0 0 C5.8265 0 10.494462 2.084 15.125 5.625 C16.929595 7.178097 16.929595 7.178097 19.3125 7.3125 C19.869375 7.539375 20.42625 7.76625 21 8 C21.0625 11.0625 21.0625 11.0625 20 14 C16.848143 14.542488 15.340981 14.200739 12.578125 12.574219 C11.809844 11.951602 11.041562 11.328984 10.25 10.6875 C9.471406 10.072617 8.692813 9.457734 7.890625 8.824219 C6 7 6 7 5 4 C3.731563 4.309375 3.731563 4.309375 2.4375 4.625 C1.633125 4.74875 0.82875 4.8725 0 5 C-0.75 2.5 -0.75 2.5 0 0 Z " fill="#6A5859" transform="translate(39,202)"/>
<path d="M0 0 C2.5625 0.3125 2.5625 0.3125 4.207031 1.546875 C5.938798 3.802664 5.905176 5.062295 5.8125 7.875 C5.797031 8.660039 5.781562 9.445078 5.765625 10.253906 C5.5625 12.3125 5.5625 12.3125 4.5625 14.3125 C2.25 14.75 2.25 14.75 -0.4375 14.3125 C-3.619814 11.47422 -4.37862 9.891488 -4.8125 5.625 C-4.374525 1.756221 -3.966437 0.508518 0 0 Z " fill="#36312F" transform="translate(43.4375,137.6875)"/>
<path d="M0 0 C2.5625 0.4375 2.5625 0.4375 4.375 1.5625 C6.129857 4.333328 5.949249 6.214591 5.5625 9.4375 C4.375 12.3125 4.375 12.3125 2.5625 14.4375 C0 14.9375 0 14.9375 -2.4375 14.4375 C-4.905012 10.736231 -4.744712 8.815265 -4.4375 4.4375 C-3.541632 1.261241 -3.294121 0.591253 0 0 Z " fill="#36312F" transform="translate(60.4375,140.5625)"/>
<path d="M0 0 C4.613055 1.407373 7.566402 3.461863 10.6875 7.125 C11.875 10.0625 11.875 10.0625 11.6875 12.125 C9.9375 12.125 9.9375 12.125 7.6875 11.125 C7.275 10.609375 6.8625 10.09375 6.4375 9.5625 C3.577163 7.212937 0.197159 7.791071 -3.3125 8.125 C-4.323125 8.393125 -5.33375 8.66125 -6.375 8.9375 C-7.014375 8.999375 -7.65375 9.06125 -8.3125 9.125 C-8.401515 6.009463 -7.428794 4.294968 -5.6875 1.75 C-3.3125 0.125 -3.3125 0.125 0 0 Z " fill="#5E5853" transform="translate(194.3125,111.875)"/>
<path d="M0 0 C0.99 0 1.98 0 3 0 C5.802553 2.906351 6 3.78825 6 8 C6.33 7.01 6.66 6.02 7 5 C9.625 4.4375 9.625 4.4375 12 5 C11.855171 8.258643 11.028945 10.913166 10 14 C6.086891 13.733197 2.417988 12.935698 -1 11 C-1.375 8.398438 -1.375 8.398438 -1 5.375 C-0.896875 4.372109 -0.79375 3.369219 -0.6875 2.335938 C-0.460625 1.565078 -0.23375 0.794219 0 0 Z " fill="#504B47" transform="translate(178,141)"/>
<path d="M0 0 C1.460629 2.647389 2 3.894483 2 7 C2.683203 6.792461 3.366406 6.584922 4.070312 6.371094 C4.707109 6.248633 5.343906 6.126172 6 6 C5.804688 8.097656 5.804688 8.097656 4.875 11.0625 C4.561758 12.073125 4.248516 13.08375 3.925781 14.125 C3.620273 15.07375 3.314766 16.0225 3 17 C2.690625 18.175625 2.38125 19.35125 2.0625 20.5625 C1 23 1 23 -1.0625 24.625 C-1.701875 24.74875 -2.34125 24.8725 -3 25 C-3.625 23.25 -3.625 23.25 -4 21 C-4.66 20.34 -5.32 19.68 -6 19 C-5.093145 18.414121 -5.093145 18.414121 -4.167969 17.816406 C-1.655111 16.107384 -1.655111 16.107384 -1.425781 12.714844 C-1.388398 11.46832 -1.351016 10.221797 -1.3125 8.9375 C-1.066741 2.133482 -1.066741 2.133482 0 0 Z " fill="#ABABAB" transform="translate(203,124)"/>
<path d="M0 0 C0.66 0.99 1.32 1.98 2 3 C1.017131 4.676826 0.014491 6.342114 -1 8 C-1.434115 10.950882 -1.434115 10.950882 -1.3125 14 C-1.308633 15.010625 -1.304766 16.02125 -1.300781 17.0625 C-0.917657 20.804184 0.334491 23.668981 2 27 C1.34 27 0.68 27 0 27 C-0.663476 29.48401 -0.663476 29.48401 -1 32 C-1.778977 29.663068 -2.404106 27.383577 -3 25 C-3.33 24.01 -3.66 23.02 -4 22 C-4.99 22 -5.98 22 -7 22 C-7.911706 14.059871 -4.284493 6.42674 0 0 Z " fill="#75706C" transform="translate(185,119)"/>
<path d="M0 0 C0.33 0.99 0.66 1.98 1 3 C2.11375 2.896875 3.2275 2.79375 4.375 2.6875 C6.169375 2.842187 6.169375 2.842187 8 3 C11.108676 7.195098 11.718158 12.972897 11 18 C9 19.3125 9 19.3125 7 19 C7.020625 18.13375 7.04125 17.2675 7.0625 16.375 C7.345293 12.843333 7.345293 12.843333 4.75 10.25 C2.215848 7.936961 2.215848 7.936961 -0.4375 7.0625 C-0.953125 6.711875 -1.46875 6.36125 -2 6 C-1.25 2.875 -1.25 2.875 0 0 Z " fill="#999696" transform="translate(125,147)"/>
<path d="M0 0 C1 1 1 1 1.3125 4.3125 C1 8 1 8 -0.75 10.5 C-3 12 -3 12 -5.1875 12.125 C-7 11 -7 11 -7.875 8.25 C-8.006471 4.831756 -7.620318 2.984797 -6 0 C-3.497492 -1.251254 -2.597013 -0.837746 0 0 Z " fill="#898988" transform="translate(198,127)"/>
<path d="M0 0 C0.66 0 1.32 0 2 0 C2.335938 2.667969 2.335938 2.667969 2.375 6.1875 C2.403359 7.336055 2.431719 8.484609 2.460938 9.667969 C1.913145 13.627862 0.816291 15.213992 -2 18 C-5.25 19.3125 -5.25 19.3125 -8 20 C-7.673867 19.47793 -7.347734 18.955859 -7.011719 18.417969 C-3.852464 13.096628 -2.02607 8.128866 -0.675781 2.089844 C-0.452773 1.400195 -0.229766 0.710547 0 0 Z " fill="#E1E0DF" transform="translate(64,201)"/>
<path d="M0 0 C1.356222 0.96873 2.684413 1.976766 4 3 C4.9075 3.350625 5.815 3.70125 6.75 4.0625 C7.86375 4.526563 7.86375 4.526563 9 5 C9 5.66 9 6.32 9 7 C8.01 7 7.02 7 6 7 C6.254758 9.523919 6.254758 9.523919 7 12 C0.25 9.25 0.25 9.25 -2 7 C-1.673024 4.384195 -1.179609 2.359219 0 0 Z " fill="#837C78" transform="translate(172,158)"/>
<path d="M0 0 C0.66 -0.144375 1.32 -0.28875 2 -0.4375 C4 1 4 1 4.53125 4.125 C4.515781 6.043125 4.515781 6.043125 4.5 8 C4.510312 9.27875 4.520625 10.5575 4.53125 11.875 C4 15 4 15 2 16.4375 C1.34 16.293125 0.68 16.14875 0 16 C-0.435141 13.184379 -0.556227 10.820743 -0.5 8 C-0.515469 7.223984 -0.530938 6.447969 -0.546875 5.648438 C-0.53125 3.4375 -0.53125 3.4375 0 0 Z " fill="#605A55" transform="translate(38,182)"/>
<path d="M0 0 C0.66 0 1.32 0 2 0 C1.683099 2.915493 1.317545 5.364911 0 8 C0.99 8.33 1.98 8.66 3 9 C1.7625 9.092813 1.7625 9.092813 0.5 9.1875 C-0.325 9.455625 -1.15 9.72375 -2 10 C-2.250077 12.5419 -2.250077 12.5419 -2 15 C-2.66 15 -3.32 15 -4 15 C-3.896875 14.236875 -3.79375 13.47375 -3.6875 12.6875 C-3.790625 11.800625 -3.89375 10.91375 -4 10 C-7.373476 8.316094 -7.373476 8.316094 -11 7 C-11.66 6.01 -12.32 5.02 -13 4 C-11.826309 4.411855 -11.826309 4.411855 -10.628906 4.832031 C-9.616992 5.155586 -8.605078 5.479141 -7.5625 5.8125 C-6.553164 6.148945 -5.543828 6.485391 -4.503906 6.832031 C-3.264473 6.915176 -3.264473 6.915176 -2 7 C-1.101239 4.676011 -1.101239 4.676011 -1 2 C-0.67 1.34 -0.34 0.68 0 0 Z " fill="#B6B5B4" transform="translate(190,148)"/>
<path d="M0 0 C1.32 0 2.64 0 4 0 C4.018857 2.991965 3.809071 5.56419 3.375 8.5 C3.27832 9.31082 3.181641 10.121641 3.082031 10.957031 C2.812693 12.985588 2.416691 14.996515 2 17 C1.34 17 0.68 17 0 17 C-0.10794 14.151318 0.07363 11.349946 0.222656 8.503906 C0.112441 7.264473 0.112441 7.264473 0 6 C-0.99 5.67 -1.98 5.34 -3 5 C-2.258212 3.0219 -1.502813 1.502813 0 0 Z " fill="#61574F" transform="translate(88,180)"/>
<path d="M0 0 C2.560661 0.731617 3.753525 1.65963 5.3125 3.8125 C6.192132 6.611331 5.967582 8.246112 5 11 C4.01 11.33 3.02 11.66 2 12 C1.34 11.67 0.68 11.34 0 11 C-0.335938 8.425781 -0.335938 8.425781 -0.375 5.3125 C-0.403359 4.277383 -0.431719 3.242266 -0.460938 2.175781 C-0.308828 1.457773 -0.156719 0.739766 0 0 Z " fill="#BEBEBE" transform="translate(216,46)"/>
<path d="M0 0 C3.364951 0.348098 5.433499 1.891803 8 4 C7.34 4 6.68 4 6 4 C6 4.99 6 5.98 6 7 C5.01 7 4.02 7 3 7 C3 7.66 3 8.32 3 9 C0.4375 8.4375 0.4375 8.4375 -2 7 C-1.863114 4.262276 -1.219593 2.439186 0 0 Z " fill="#686059" transform="translate(175,153)"/>
<path d="M0 0 C3.532486 0 5.054246 1.043397 7.8125 3.25 C10 6 10 6 10.5625 8.75 C10 11 10 11 8.125 12.25 C7.42375 12.1675 6.7225 12.085 6 12 C5.298672 9.67685 4.635148 7.342109 4 5 C1.966405 3.731954 1.966405 3.731954 0 3 C0 2.01 0 1.02 0 0 Z " fill="#665F5D" transform="translate(123,154)"/>
<path d="M0 0 C3.187039 -0.740483 6.072298 -0.472832 9 1 C9.669592 4.164265 9.136452 6.991746 8 10 C7.34 10 6.68 10 6 10 C6.154687 8.793438 6.154687 8.793438 6.3125 7.5625 C6.209375 6.716875 6.10625 5.87125 6 5 C3.67182 4.632393 1.338162 4.297584 -1 4 C-1.003906 1.992188 -1.003906 1.992188 0 0 Z " fill="#978F90" transform="translate(90,204)"/>
<path d="M0 0 C0.33 0 0.66 0 1 0 C1.128859 2.658086 1.185241 5.278702 1.1875 7.9375 C1.199746 8.692246 1.211992 9.446992 1.224609 10.224609 C1.229793 12.151188 1.123166 14.077355 1 16 C-1.49554 17.24777 -2.928429 17.009881 -5.6875 16.75 C-6.516367 16.682969 -7.345234 16.615938 -8.199219 16.546875 C-8.793477 16.366406 -9.387734 16.185937 -10 16 C-9.67 15.01 -9.34 14.02 -9 13 C-7.1875 12.910156 -7.1875 12.910156 -5 13.0625 C-2.798339 13.056359 -2.798339 13.056359 -1 12 C-0.160822 8.799199 -0.062148 5.894387 -0.035156 2.589844 C-0.023555 1.735195 -0.011953 0.880547 0 0 Z " fill="#5A5652" transform="translate(98,187)"/>
<path d="M0 0 C3.5625 -0.25 3.5625 -0.25 7 0 C4.443402 4.210867 1.220184 5.698082 -3 8 C-3.66 8.66 -4.32 9.32 -5 10 C-5.99 10 -6.98 10 -8 10 C-8.33 9.01 -8.66 8.02 -9 7 C-8.01 7 -7.02 7 -6 7 C-6 6.34 -6 5.68 -6 5 C-5.195625 4.87625 -4.39125 4.7525 -3.5625 4.625 C-2.716875 4.41875 -1.87125 4.2125 -1 4 C-0.87625 3.319375 -0.7525 2.63875 -0.625 1.9375 C-0.41875 1.298125 -0.2125 0.65875 0 0 Z " fill="#B1B0AF" transform="translate(125,174)"/>
<path d="M0 0 C0.33 0 0.66 0 1 0 C0.896875 1.03125 0.79375 2.0625 0.6875 3.125 C0.790625 4.07375 0.89375 5.0225 1 6 C3.008382 5.359027 5.008278 4.691006 7 4 C8.0625 6 8.0625 6 8 9 C6.5625 12.3125 6.5625 12.3125 5 15 C4 12 4 12 5 9 C4.195625 8.938125 3.39125 8.87625 2.5625 8.8125 C1.716875 8.544375 0.87125 8.27625 0 8 C-0.569188 5.184017 -0.276749 2.905862 0 0 Z " fill="#8D8B8A" transform="translate(55,201)"/>
<path d="M0 0 C4.268788 0.47431 6.315117 2.807166 9 6 C10.0625 8.875 10.0625 8.875 10 11 C8.25 11 8.25 11 6 10 C5.54625 9.505 5.0925 9.01 4.625 8.5 C2.319711 6.372041 0.041004 6.405467 -3 6 C-3 5.67 -3 5.34 -3 5 C-2.01 5.020625 -1.02 5.04125 0 5.0625 C0.99 5.041875 1.98 5.02125 3 5 C3 4.34 3 3.68 3 3 C2.34 3 1.68 3 1 3 C0.67 2.01 0.34 1.02 0 0 Z " fill="#656463" transform="translate(196,113)"/>
<path d="M0 0 C0.33 0.66 0.66 1.32 1 2 C1.825 2.2475 2.65 2.495 3.5 2.75 C4.325 3.1625 5.15 3.575 6 4 C6.8125 7.125 6.8125 7.125 7 10 C0.434312 7.629057 0.434312 7.629057 -2 5 C-1.25 2.3125 -1.25 2.3125 0 0 Z " fill="#A7A7A7" transform="translate(122,155)"/>
<path d="M0 0 C7.294118 -0.470588 7.294118 -0.470588 11 2 C11 3.32 11 4.64 11 6 C8.343293 5.262026 6.268513 4.184603 4 2.625 C3.34 2.41875 2.68 2.2125 2 2 C-0.772879 3.784683 -0.772879 3.784683 -3 6 C-2 4 -1 2 0 0 Z " fill="#787877" transform="translate(191,123)"/>
<path d="M0 0 C1.498289 3.882358 0.431106 6.434493 -0.9375 10.25 C-1.317773 11.327656 -1.698047 12.405313 -2.089844 13.515625 C-2.390195 14.335469 -2.690547 15.155313 -3 16 C-3.28875 15.38125 -3.5775 14.7625 -3.875 14.125 C-4.9372 11.866742 -4.9372 11.866742 -7 10 C-6.38125 9.54625 -5.7625 9.0925 -5.125 8.625 C-4.42375 8.08875 -3.7225 7.5525 -3 7 C-3 5.68 -3 4.36 -3 3 C-1.5 1.25 -1.5 1.25 0 0 Z " fill="#9C9C9C" transform="translate(204,133)"/>
<path d="M0 0 C6.230769 1.615385 6.230769 1.615385 9 3 C9 3.66 9 4.32 9 5 C7.68 5 6.36 5 5 5 C3.769998 7.475705 3.769998 7.475705 4 10 C6.495824 9.901286 6.495824 9.901286 9 9 C8.67 9.66 8.34 10.32 8 11 C4.25 11.625 4.25 11.625 1 11 C1.447598 8.787158 2.394359 6.950511 3.351562 4.910156 C3.565547 4.279805 3.779531 3.649453 4 3 C2.265967 1.424599 2.265967 1.424599 0 1 C0 0.67 0 0.34 0 0 Z " fill="#847C7A" transform="translate(124,163)"/>
<path d="M0 0 C7.283582 -0.238806 7.283582 -0.238806 11 1 C11 1.66 11 2.32 11 3 C11.66 3.33 12.32 3.66 13 4 C12.34 4 11.68 4 11 4 C10.625992 6.32716 10.292353 8.661179 10 11 C9.67 11 9.34 11 9 11 C8.979375 9.72125 8.95875 8.4425 8.9375 7.125 C8.815951 4.918825 8.815951 4.918825 8 3 C5.322885 1.633083 3.025121 1.43216 0 1 C0 0.67 0 0.34 0 0 Z " fill="#CAC7C6" transform="translate(57,187)"/>
<path d="M0 0 C0.33 0 0.66 0 1 0 C1.292458 2.339665 1.450538 4.679758 1.621094 7.03125 C1.746133 7.680937 1.871172 8.330625 2 9 C2.66 9 3.32 9 4 9 C4 9.99 4 10.98 4 12 C1.6875 12.8125 1.6875 12.8125 -1 13 C-1.99 12.34 -2.98 11.68 -4 11 C-3.343867 10.939414 -2.687734 10.878828 -2.011719 10.816406 C-1.347852 10.546992 -0.683984 10.277578 0 10 C0.450016 7.641355 0.450016 7.641355 0.1875 4.9375 C0.102145 3.292694 0.032874 1.646692 0 0 Z " fill="#B3B2B2" transform="translate(91,187)"/>
<path d="M0 0 C1.8125 0 1.8125 0 4 1 C5.9375 3.375 5.9375 3.375 7 6 C5.9375 8.1875 5.9375 8.1875 4 9 C1.444281 5.933137 0 4.056047 0 0 Z " fill="#605A55" transform="translate(120,161)"/>
<path d="M0 0 C1.6875 2.875 1.6875 2.875 1.5 5.6875 C1.231875 6.409375 0.96375 7.13125 0.6875 7.875 C0.3575 7.875 0.0275 7.875 -0.3125 7.875 C-0.405313 6.668438 -0.405313 6.668438 -0.5 5.4375 C-0.768125 4.591875 -1.03625 3.74625 -1.3125 2.875 C-3.300713 2.477357 -5.301943 2.137247 -7.3125 1.875 C-6.3125 -1.125 -6.3125 -1.125 -4.5 -2.125 C-2.3125 -2.125 -2.3125 -2.125 0 0 Z " fill="#D2CCCB" transform="translate(166.3125,169.125)"/>
<path d="M0 0 C0.556875 0.268125 1.11375 0.53625 1.6875 0.8125 C0.6975 0.8125 -0.2925 0.8125 -1.3125 0.8125 C-1.3125 1.4725 -1.3125 2.1325 -1.3125 2.8125 C-1.9725 2.8125 -2.6325 2.8125 -3.3125 2.8125 C-3.4775 3.6375 -3.6425 4.4625 -3.8125 5.3125 C-3.9775 6.1375 -4.1425 6.9625 -4.3125 7.8125 C-4.9725 7.8125 -5.6325 7.8125 -6.3125 7.8125 C-6.974298 9.792956 -6.974298 9.792956 -7.3125 11.8125 C-7.747478 7.375725 -7.787523 5.445863 -5.0625 1.8125 C-2.3125 -0.1875 -2.3125 -0.1875 0 0 Z " fill="#6D6C6A" transform="translate(195.3125,124.1875)"/>
<path d="M0 0 C2.125 1.375 2.125 1.375 4 4 C4.375 6.75 4.375 6.75 4 9 C3.34 9 2.68 9 2 9 C1.67 8.01 1.34 7.02 1 6 C0.01 5.67 -0.98 5.34 -2 5 C-1.4375 2.1875 -1.4375 2.1875 0 0 Z " fill="#A1A09F" transform="translate(119,162)"/>
<path d="M0 0 C1.858378 0.41925 3.711738 0.860812 5.5625 1.3125 C7.111309 1.677949 7.111309 1.677949 8.691406 2.050781 C9.453242 2.364023 10.215078 2.677266 11 3 C10.67 3.99 10.34 4.98 10 6 C8.222656 5.742188 8.222656 5.742188 6.0625 4.875 C5.352227 4.604297 4.641953 4.333594 3.910156 4.054688 C2 3 2 3 0 0 Z " fill="#A7A6A4" transform="translate(177,152)"/>
<path d="M0 0 C1.980469 1.113281 1.980469 1.113281 4 3 C4.425781 5.917969 4.425781 5.917969 4.3125 9.1875 C4.288008 10.27418 4.263516 11.360859 4.238281 12.480469 C4.159648 13.311914 4.081016 14.143359 4 15 C3.67 15 3.34 15 3 15 C2.614636 13.449512 2.293461 11.882977 2 10.3125 C1.835 9.442383 1.67 8.572266 1.5 7.675781 C1.335 6.792773 1.17 5.909766 1 5 C0.668878 3.332893 0.336219 1.666087 0 0 Z " fill="#6B5B5A" transform="translate(133,150)"/>
<path d="M0 0 C3.5 -0.25 3.5 -0.25 7 0 C5.75 2 5.75 2 4 4 C2.68 4 1.36 4 0 4 C0 2.68 0 1.36 0 0 Z " fill="#B8B5B4" transform="translate(125,174)"/>
<path d="M0 0 C-0.457992 5.770697 -0.457992 5.770697 -1 8 C-1.99 8.495 -1.99 8.495 -3 9 C-2.62875 7.545938 -2.62875 7.545938 -2.25 6.0625 C-2.1675 5.051875 -2.085 4.04125 -2 3 C-3.897688 2.004692 -3.897688 2.004692 -6 2 C-1.125 0 -1.125 0 0 0 Z " fill="#847275" transform="translate(62,207)"/>
<path d="M0 0 C1.699219 1.144531 1.699219 1.144531 3.6875 2.8125 C4.351367 3.355195 5.015234 3.897891 5.699219 4.457031 C6.128477 4.966211 6.557734 5.475391 7 6 C6.34 6.66 5.68 7.32 5 8 C3.457031 6.699219 3.457031 6.699219 1.8125 4.6875 C0.986855 3.703301 0.986855 3.703301 0.144531 2.699219 C-0.422012 1.858105 -0.422012 1.858105 -1 1 C-0.67 0.67 -0.34 0.34 0 0 Z " fill="#E5E0DC" transform="translate(207,106)"/>
<path d="M0 0 C1 2 1 2 0.441406 3.945312 C0.151367 4.664609 -0.138672 5.383906 -0.4375 6.125 C-0.868691 7.21168 -0.868691 7.21168 -1.308594 8.320312 C-1.536758 8.874609 -1.764922 9.428906 -2 10 C-3.125 8.25 -3.125 8.25 -4 6 C-3.057733 3.330245 -2.013842 2.013842 0 0 Z " fill="#969696" transform="translate(203,139)"/>
<path d="M0 0 C1.485 0.99 1.485 0.99 3 2 C2.8125 4.625 2.8125 4.625 2 7 C1.34 7 0.68 7 0 7 C-0.125 3.5 -0.125 3.5 0 0 Z " fill="#504844" transform="translate(129,159)"/>
</svg>
