<?xml version="1.0" encoding="UTF-8"?>
<!-- Generator: visioncortex VTracer 0.6.4 -->
<svg version="1.1" xmlns="http://www.w3.org/2000/svg" width="240" height="240">
<path d="M0 0 C0.965155 -0.009532 1.930311 -0.019064 2.924713 -0.028885 C4.474776 -0.027518 4.474776 -0.027518 6.056152 -0.026123 C7.132791 -0.030408 8.209431 -0.034693 9.318695 -0.039108 C11.596571 -0.044846 13.874465 -0.045356 16.152344 -0.041016 C19.608887 -0.037872 23.06456 -0.061266 26.520996 -0.08667 C28.741047 -0.088945 30.9611 -0.089646 33.181152 -0.088623 C34.712997 -0.102438 34.712997 -0.102438 36.275787 -0.116531 C45.297494 -0.059427 55.028599 1.098783 62.01709 7.274658 C65.062648 11.120134 67.715321 14.614928 68.603027 19.497314 C69.302988 20.8721 69.302988 20.8721 70.01709 22.274658 C73.083968 23.269232 76.188271 23.245198 79.39209 23.337158 C87.031757 23.808824 94.276088 24.713779 101.70459 26.587158 C102.539902 26.794939 103.375215 27.00272 104.23584 27.216797 C108.925015 28.468848 112.737329 30.07234 116.89209 32.649658 C118.97547 34.000804 118.97547 34.000804 121.01709 34.274658 C123.842632 31.765172 125.286179 28.588267 127.01709 25.274658 C129.26709 22.712158 129.26709 22.712158 132.01709 21.274658 C134.598532 21.215702 137.145221 21.340163 139.724121 21.458252 C142.29694 21.509458 142.29694 21.509458 144.26709 18.899658 C144.84459 18.033408 145.42209 17.167158 146.01709 16.274658 C150.634401 14.017306 154.049709 14.149968 159.01709 15.274658 C162.01709 17.274658 162.01709 17.274658 162.825684 19.024658 C163.091033 22.143864 162.147276 24.341218 161.07959 27.274658 C159.581268 31.825495 158.807129 35.490104 159.01709 40.274658 C159.291025 47.631787 157.886847 55.764542 153.126465 61.587158 C151.01709 63.274658 151.01709 63.274658 148.626465 63.602783 C148.095371 63.824502 147.564277 64.046221 147.01709 64.274658 C147.608724 66.680637 148.347073 68.738829 149.26709 71.024658 C156.806083 92.396511 150.283813 113.720022 141.567871 133.637939 C139.203823 139.181841 137.772669 144.019251 137.306152 150.044189 C137.197952 151.337925 137.089751 152.63166 136.978271 153.9646 C136.923819 154.63888 136.869366 155.31316 136.813263 156.007874 C134.101403 188.949555 134.101403 188.949555 127.01709 196.274658 C121.694087 200.262547 116.428791 200.054918 110.01709 199.274658 C105.915856 197.832155 103.459272 195.937932 101.01709 192.274658 C100.743897 189.824368 100.568297 187.362508 100.45459 184.899658 C100.358117 178.475233 100.358117 178.475233 99.01709 172.274658 C95.804625 170.370975 92.715102 169.600021 89.01709 170.274658 C87.285529 173.710723 87.344578 177.485156 87.01709 181.274658 C85.683591 187.622112 84.270377 192.098968 79.01709 196.274658 C76.320448 197.622979 74.151215 197.443765 71.14209 197.462158 C70.092793 197.476338 69.043496 197.490518 67.962402 197.505127 C65.040284 197.276473 63.452755 196.850677 61.01709 195.274658 C58.873001 192.747697 57.957315 191.153214 58.185059 187.805908 C58.274004 186.949971 58.362949 186.094033 58.45459 185.212158 C58.238027 183.263096 58.238027 183.263096 58.01709 181.274658 C54.885696 180.763983 53.138055 181.496533 50.294434 182.864502 C46.051558 187.354818 47.141521 193.327594 47.134277 199.204346 C47.111086 203.912145 46.472833 208.169763 45.26709 212.712158 C44.962871 213.886494 44.658652 215.06083 44.345215 216.270752 C42.296837 220.9037 38.672671 223.440359 34.01709 225.274658 C28.168612 226.121148 22.121589 225.369694 17.01709 222.274658 C14.684623 219.863897 14.04497 218.605154 13.759277 215.218506 C13.803105 214.053677 13.846934 212.888848 13.89209 211.688721 C13.90627 210.429307 13.920449 209.169893 13.935059 207.872314 C13.976402 205.870108 14.018549 203.867516 14.109375 201.866943 C14.388986 195.951141 14.388986 195.951141 13.01709 190.274658 C9.883905 189.762346 7.753434 190.424456 4.748291 191.394775 C2.01709 192.274658 2.01709 192.274658 -1.67041 191.899658 C-2.433535 192.023408 -3.19666 192.147158 -3.98291 192.274658 C-4.16024 195.191004 -4.16024 195.191004 -3.947754 197.512939 C-3.994113 201.154708 -4.776503 204.516517 -5.67041 208.024658 C-5.983652 209.298252 -6.296895 210.571846 -6.619629 211.884033 C-8.158056 215.710265 -9.53491 217.092514 -12.98291 219.274658 C-18.486754 221.109273 -24.037257 220.969534 -29.48291 219.024658 C-33.367822 216.30522 -33.768305 214.454985 -34.60791 209.837158 C-34.944709 207.101316 -34.942646 204.664333 -34.760254 201.899658 C-34.689355 200.724033 -34.618457 199.548408 -34.54541 198.337158 C-34.443574 197.214385 -34.341738 196.091611 -34.236816 194.934814 C-34.483027 194.056963 -34.729238 193.179111 -34.98291 192.274658 C-38.168718 191.548488 -38.168718 191.548488 -40.592041 191.476562 C-50.219572 190.663536 -63.110135 185.95318 -69.768066 178.887939 C-72.996389 174.600809 -73.154985 171.838049 -72.444092 166.533691 C-71.797461 163.36626 -70.622191 160.515483 -69.40625 157.528564 C-66.132355 149.42085 -64.490719 142.529998 -64.85791 133.774658 C-65.444704 119.4867 -62.291533 106.01605 -55.119629 93.587158 C-53.688817 91.105829 -53.688817 91.105829 -53.98291 87.274658 C-54.47791 86.779658 -54.47791 86.779658 -54.98291 86.274658 C-56.562757 69.844256 -45.836492 55.110867 -36.217285 42.735596 C-34.583667 40.802136 -32.771959 39.063707 -30.98291 37.274658 C-30.384785 36.367158 -29.78666 35.459658 -29.17041 34.524658 C-27.378374 31.862205 -25.777506 30.064423 -23.54541 27.837158 C-19.312075 23.17056 -17.947042 17.797995 -16.318848 11.860596 C-14.539396 7.084172 -12.38529 3.447083 -7.627838 1.12532 C-4.925033 0.256044 -2.829239 0.015445 0 0 Z " fill="#FED1B0" transform="translate(73.98291015625,1.725341796875)"/>
<path d="M0 0 C0.965155 -0.009532 1.930311 -0.019064 2.924713 -0.028885 C4.474776 -0.027518 4.474776 -0.027518 6.056152 -0.026123 C7.132791 -0.030408 8.209431 -0.034693 9.318695 -0.039108 C11.596571 -0.044846 13.874465 -0.045356 16.152344 -0.041016 C19.608887 -0.037872 23.06456 -0.061266 26.520996 -0.08667 C28.741047 -0.088945 30.9611 -0.089646 33.181152 -0.088623 C34.712997 -0.102438 34.712997 -0.102438 36.275787 -0.116531 C45.297494 -0.059427 55.028599 1.098783 62.01709 7.274658 C68.510541 15.332796 70.328847 22.577715 70.317871 32.716064 C70.322156 33.601968 70.326441 34.487871 70.330856 35.40062 C70.336572 37.263816 70.33712 39.127034 70.332764 40.990234 C70.329595 43.832174 70.353126 46.67308 70.378418 49.514893 C70.380691 51.331949 70.381395 53.149007 70.380371 54.966064 C70.389581 55.809962 70.398791 56.65386 70.408279 57.523331 C70.361905 63.463085 69.249226 67.619808 65.325684 72.286377 C54.190488 82.259235 37.893376 82.669675 23.57959 82.649658 C22.365454 82.648047 21.151318 82.646436 19.900391 82.644775 C4.08637 82.432786 -16.160896 81.096672 -27.98291 69.274658 C-31.999347 63.628363 -31.724341 57.997459 -31.98291 51.274658 C-32.035762 50.354268 -32.088613 49.433877 -32.143066 48.485596 C-32.369381 42.12912 -31.811211 36.369393 -27.365723 31.505127 C-26.146011 30.345616 -24.920667 29.192003 -23.689941 28.044189 C-19.64144 23.847459 -18.043698 18.670972 -16.54541 13.149658 C-15.189212 8.384638 -13.578188 5.698732 -9.98291 2.274658 C-6.553114 0.614038 -3.79375 0.020711 0 0 Z " fill="#2A2526" transform="translate(73.98291015625,1.725341796875)"/>
<path d="M0 0 C0.99 0.495 0.99 0.495 2 1 C2.75893 7.337556 2.916236 13.737558 -1 19 C-9.667952 28.603343 -21.798842 30.364652 -34.256348 31.224854 C-37.652935 31.339111 -41.039002 31.379752 -44.4375 31.375 C-45.651636 31.373389 -46.865771 31.371777 -48.116699 31.370117 C-63.93072 31.158127 -84.177986 29.822014 -96 18 C-99.615173 13.902804 -99.638678 9.424026 -99.46875 4.15625 C-99.314063 3.444688 -99.159375 2.733125 -99 2 C-96.280691 2.069726 -95.316116 2.661907 -93 4 C-86.532183 7.246168 -80.11555 9.146039 -73.0625 10.6875 C-71.198762 11.106046 -69.335457 11.526522 -67.472656 11.949219 C-66.660627 12.127996 -65.848599 12.306772 -65.011963 12.490967 C-63 13 -63 13 -61 14 C-32.169293 16.116842 -32.169293 16.116842 -6 6 C-3.938137 4.054931 -1.980583 2.02889 0 0 Z " fill="#433C3D" transform="translate(142,53)"/>
<path d="M0 0 C5.733739 3.022143 11.536301 7.355473 13.957031 13.558594 C14.489221 19.146587 14.207187 22.791699 10.957031 27.558594 C3.581393 33.243981 -3.010525 33.091053 -12.042969 32.558594 C-19.928049 31.19242 -26.8855 27.882245 -32.417969 22.058594 C-35.41594 17.44633 -36.726312 13.360638 -36.625 7.84375 C-35.488955 3.38344 -31.794079 0.921858 -28.042969 -1.441406 C-18.927017 -5.872978 -8.958423 -3.823849 0 0 Z " fill="#FC7D85" transform="translate(68.04296875,121.44140625)"/>
<path d="M0 0 C1.351582 0.212695 1.351582 0.212695 2.730469 0.429688 C5.024792 7.747991 2.453965 16.761351 0.542969 23.992188 C0.347273 24.753218 0.151577 25.514248 -0.050049 26.29834 C-1.47366 31.206554 -3.235816 34.077908 -7.269531 37.429688 C-9.966173 38.778009 -12.135406 38.598794 -15.144531 38.617188 C-16.193828 38.631367 -17.243125 38.645547 -18.324219 38.660156 C-22.330559 38.346663 -24.384072 37.441641 -27.019531 34.429688 C-29.261736 29.048396 -29.119287 21.978955 -27.269531 16.429688 C-26.609531 16.429688 -25.949531 16.429688 -25.269531 16.429688 C-25.397148 15.364922 -25.524766 14.300156 -25.65625 13.203125 C-25.269531 9.429688 -25.269531 9.429688 -23.76416 8.118164 C-21.577868 6.951932 -19.379532 5.982705 -17.082031 5.054688 C-16.313105 4.713086 -15.54418 4.371484 -14.751953 4.019531 C-9.80761 1.872031 -5.340413 0.701846 0 0 Z " fill="#FFA8A7" transform="translate(160.26953125,160.5703125)"/>
<path d="M0 0 C1.184491 2.368981 1.069017 3.6769 1 6.3125 C0.329715 18.014945 0.329715 18.014945 4.1875 28.5625 C5.084688 29.769063 5.084688 29.769063 6 31 C4.60131 35.196069 1.871166 36.843564 -1.765625 39.046875 C-4.21174 40.090322 -5.744726 40.172792 -8.375 40 C-9.57125 40 -10.7675 40 -12 40 C-13.227728 42.232597 -13.227728 42.232597 -14 45 C-15.871746 47.17913 -17.545297 48.396929 -20 50 C-21.875 49.3125 -21.875 49.3125 -23 47 C-25.109647 30.725579 -13.500592 15.693326 -4.253906 3.382812 C-3 2 -3 2 0 0 Z " fill="#E5528F" transform="translate(42,41)"/>
<path d="M0 0 C1.875 0.125 1.875 0.125 4 1 C8.532894 6.897162 7.563092 13.961345 7 21 C5.950333 25.66265 3.666226 28.9251 0 32 C-4.026822 34.013411 -8.632178 33.59009 -13 33 C-20.749964 29.802377 -26.758016 23.032867 -30.132812 15.457031 C-30.893069 13.302972 -31.598399 11.248966 -32 9 C-31 8 -31 8 -27.769531 7.503906 C-24 8 -24 8 -22.520996 9.300293 C-21.125748 11.123342 -19.893056 12.983929 -18.6875 14.9375 C-16.00249 19.652404 -16.00249 19.652404 -12 23 C-8.541996 23.416732 -8.541996 23.416732 -5 23 C-2.914405 21.209582 -2.111425 19.716005 -1.688721 16.999756 C-1.515846 14.601729 -1.427868 12.216124 -1.375 9.8125 C-1.105216 1.105216 -1.105216 1.105216 0 0 Z " fill="#E65690" transform="translate(142,75)"/>
<path d="M0 0 C6.265754 0.161251 14.31843 0.981697 19.550781 4.601562 C21.099047 6.931943 21.087058 8.595797 21.0625 11.375 C21.070234 12.252852 21.077969 13.130703 21.085938 14.035156 C20.954453 14.78668 20.822969 15.538203 20.6875 16.3125 C16.927607 18.819095 14.190043 18.469171 9.875 18.1875 C9.175684 18.164297 8.476367 18.141094 7.755859 18.117188 C2.734537 17.816566 -0.30807 16.56265 -4.3125 13.3125 C-5.489232 10.959036 -5.478739 9.431897 -5.5 6.8125 C-5.51418 6.018437 -5.528359 5.224375 -5.542969 4.40625 C-5.126287 0.620805 -3.588389 0.338527 0 0 Z " fill="#F9E9DE" transform="translate(65.3125,43.6875)"/>
<path d="M0 0 C4.141829 0.862881 5.562265 2.183491 8 5.625 C8.767088 8.485718 8.804219 10.770024 8 13.625 C5.4375 16.6875 5.4375 16.6875 2 18.625 C-1.6875 18.75 -1.6875 18.75 -5 17.625 C-7.559091 14.818255 -7.963506 12.880459 -8.5 9.125 C-8 5.625 -8 5.625 -5.875 2.6875 C-3 0.625 -3 0.625 0 0 Z " fill="#373431" transform="translate(46,92.375)"/>
<path d="M0 0 C3.330293 0.986753 4.334076 1.355253 6.375 4 C7.064427 7.067949 6.947604 9.9155 6.375 13 C3.920695 16.537087 2.534012 17.763467 -1.6875 18.625 C-4.625 18 -4.625 18 -7 16 C-9.074607 12.169956 -9.602881 9.26322 -8.625 5 C-5.957335 1.038922 -4.825984 0 0 0 Z " fill="#34322F" transform="translate(102.625,104)"/>
<path d="M0 0 C0.66 0.33 1.32 0.66 2 1 C3.170019 6.074255 3.595662 10.819378 3 16 C-0.094154 20.070896 -3.838678 21.659848 -8.804688 22.441406 C-9.529141 22.295742 -10.253594 22.150078 -11 22 C-11.822182 19.326617 -11.346499 17.657935 -10.059082 15.213379 C-8.784174 13.200555 -7.443053 11.254315 -6.0625 9.3125 C-5.136056 7.975719 -4.210245 6.6385 -3.285156 5.300781 C-2.871448 4.714661 -2.457739 4.12854 -2.031494 3.524658 C-0.928376 1.965738 -0.928376 1.965738 0 0 Z " fill="#FCCBAE" transform="translate(41,52)"/>
<path d="M0 0 C2.5625 0.3125 2.5625 0.3125 4.207031 1.546875 C5.938798 3.802664 5.905176 5.062295 5.8125 7.875 C5.797031 8.660039 5.781562 9.445078 5.765625 10.253906 C5.5625 12.3125 5.5625 12.3125 4.5625 14.3125 C2.25 14.75 2.25 14.75 -0.4375 14.3125 C-3.619814 11.47422 -4.37862 9.891488 -4.8125 5.625 C-4.374525 1.756221 -3.966437 0.508518 0 0 Z " fill="#37302F" transform="translate(46.4375,126.6875)"/>
<path d="M0 0 C2.4375 0.8125 2.4375 0.8125 4.4375 2.8125 C4.823013 6.282117 4.58713 8.450237 3.25 11.6875 C1.4375 13.8125 1.4375 13.8125 -1.125 14.3125 C-3.5625 13.8125 -3.5625 13.8125 -5.5625 10.8125 C-6.119032 7.227567 -6.205275 3.928898 -4.375 0.75 C-2.5625 -0.1875 -2.5625 -0.1875 0 0 Z " fill="#37302F" transform="translate(64.5625,130.1875)"/>
<path d="M0 0 C3.015625 0.035156 3.015625 0.035156 6.25 1.0625 C7.327656 1.383477 8.405313 1.704453 9.515625 2.035156 C10.335469 2.353555 11.155313 2.671953 12 3 C12 3.33 12 3.66 12 4 C9.331347 4.408042 6.680701 4.756846 4 5.0625 C3.236875 5.153379 2.47375 5.244258 1.6875 5.337891 C-0.20782 5.56296 -2.103851 5.782027 -4 6 C-2.390625 2.933594 -2.390625 2.933594 0 0 Z " fill="#A19F9F" transform="translate(55,24)"/>
<path d="M0 0 C4.650379 0.273552 8.385105 0.949932 12 4 C12.125 6.4375 12.125 6.4375 11 8 C9.286644 6.727221 7.630726 5.377058 6 4 C4.003798 3.322045 2.004613 2.652665 0 2 C0 1.34 0 0.68 0 0 Z " fill="#8A8888" transform="translate(110,33)"/>
</svg>
