<?xml version="1.0" encoding="UTF-8"?>
<!-- Generator: visioncortex VTracer 0.6.4 -->
<svg version="1.1" xmlns="http://www.w3.org/2000/svg" width="240" height="240">
<path d="M0 0 C3.51794 2.052132 5.823595 4.563571 8 8 C8 8.66 8 9.32 8 10 C10.368939 9.379643 10.368939 9.379643 13.25 8.25 C33.841452 1.187347 55.467386 3.191191 76.398438 7.738281 C77.256953 7.824648 78.115469 7.911016 79 8 C80.645994 5.729818 80.645994 5.729818 82 3 C87.586214 -1.157413 93.309311 -0.935258 100 0 C103.615941 1.379997 106.136835 3.42363 109 6 C109.505151 6.44521 110.010303 6.89042 110.530762 7.349121 C112.21441 8.851721 113.861719 10.385622 115.5 11.9375 C116.029241 12.427021 116.558481 12.916543 117.10376 13.420898 C119.587965 15.890857 120.995336 17.987098 122.1875 21.285156 C121.872955 27.517082 118.227903 31.877068 114.871094 36.972656 C111.727327 41.924195 111.727327 41.924195 111.03125 47.652344 C111.350937 48.75707 111.670625 49.861797 112 51 C112.309375 52.166602 112.61875 53.333203 112.9375 54.535156 C113.288125 55.69918 113.63875 56.863203 114 58.0625 C119.025383 74.782985 118.757495 92.040915 110.75 107.75 C107.225947 113.982561 103.032075 118.967925 98 124 C99.819161 125.846883 99.819161 125.846883 102.4375 127.6875 C116.110321 138.238329 125.930546 151.809041 132 168 C132.380064 168.754751 132.760128 169.509502 133.15171 170.287125 C134.817183 174.378815 134.817183 174.378815 134 177 C128.674117 178.629783 123.025197 178.20447 117.50415 178.132812 C115.709719 178.14172 113.915304 178.154489 112.120926 178.170868 C107.219594 178.203563 102.320012 178.179084 97.418761 178.143066 C92.3093 178.113009 87.199954 178.128079 82.090439 178.136719 C73.505724 178.14396 64.921713 178.11447 56.337158 178.063477 C46.389336 178.004822 36.442744 178.00307 26.49482 178.03208 C16.956429 178.058656 7.418489 178.045848 -2.119875 178.014587 C-6.193012 178.001903 -10.265805 178.003122 -14.338942 178.015198 C-19.130326 178.027566 -23.920323 178.00564 -28.711458 177.956394 C-30.477582 177.943865 -32.243837 177.943457 -34.009964 177.955563 C-36.40735 177.970042 -38.800368 177.942084 -41.197372 177.902344 C-41.909802 177.916595 -42.622232 177.930845 -43.35625 177.945528 C-45.2751 177.886475 -45.2751 177.886475 -48 177 C-48.011416 171.726963 -46.118512 167.137541 -44 162.375 C-43.693848 161.683499 -43.387695 160.991997 -43.072266 160.279541 C-38.450791 150.232907 -32.187359 141.467365 -24 134 C-23.13375 133.113125 -22.2675 132.22625 -21.375 131.3125 C-19 129 -19 129 -16.1875 126.8125 C-15.465625 126.214375 -14.74375 125.61625 -14 125 C-14 124.34 -14 123.68 -14 123 C-15.010625 122.195625 -16.02125 121.39125 -17.0625 120.5625 C-26.137087 112.975852 -31.05622 101.348516 -32.75 89.8125 C-32.8325 88.554375 -32.915 87.29625 -33 86 C-33.077344 85.046738 -33.077344 85.046738 -33.15625 84.074219 C-33.724206 71.50819 -29.813487 59.410387 -25 48 C-23.649238 45.109345 -23.649238 45.109345 -25.003906 42.918701 C-25.518242 42.134709 -26.032578 41.350718 -26.5625 40.542969 C-27.111641 39.677363 -27.660781 38.811758 -28.226562 37.919922 C-29.403508 36.106545 -30.585761 34.296601 -31.773438 32.490234 C-35.942002 25.890007 -35.942002 25.890007 -36.214844 21.703125 C-34.64311 18.205891 -32.429428 16.003132 -29.5625 13.5625 C-29.0277 13.09022 -28.4929 12.617939 -27.941895 12.131348 C-19.062941 4.419778 -12.131801 -1.281652 0 0 Z " fill="#FED2AF" transform="translate(70,36)"/>
<path d="M0 0 C3.309293 0.989596 6.133611 2.618116 9.125 4.3125 C32.87238 15.809791 67.997451 16.334183 93 8 C98.394973 5.943234 103.207271 3.195153 108 0 C113.008572 0.076792 115.889891 3.148528 119.3125 6.4375 C119.88573 6.981001 120.45896 7.524502 121.049561 8.084473 C132.104447 18.741925 141.499833 32.151992 146 47 C146.319426 48.021198 146.638851 49.042396 146.967957 50.094539 C146.978531 51.053341 146.989105 52.012143 147 53 C144.474329 53.703152 142.785768 53.814705 140.204102 53.768631 C139.089515 53.783729 139.089515 53.783729 137.952412 53.799133 C135.431141 53.825671 132.911956 53.808712 130.390625 53.792236 C128.596054 53.801991 126.801495 53.81429 125.006958 53.828964 C120.110201 53.860761 115.214178 53.85405 110.317368 53.838885 C106.241337 53.829778 102.165443 53.839409 98.08942 53.849223 C88.48006 53.872187 78.871058 53.864485 69.261719 53.837158 C59.321311 53.809342 49.381803 53.828713 39.441471 53.872034 C30.931102 53.907709 22.421012 53.916394 13.91058 53.902641 C8.817031 53.89456 3.723988 53.896542 -1.369507 53.923502 C-6.156706 53.947489 -10.942642 53.937875 -15.729752 53.901514 C-17.494298 53.893807 -19.258941 53.898235 -21.023422 53.915188 C-23.418468 53.936314 -25.809284 53.915076 -28.204102 53.882156 C-28.915849 53.898454 -29.627597 53.914751 -30.360912 53.931542 C-32.277893 53.878095 -32.277893 53.878095 -35 53 C-35.010753 47.72698 -33.118497 43.137508 -31 38.375 C-30.693848 37.683499 -30.387695 36.991997 -30.072266 36.279541 C-25.451035 26.233439 -19.18798 17.466118 -11 10 C-10.154375 9.13375 -9.30875 8.2675 -8.4375 7.375 C-7.633125 6.59125 -6.82875 5.8075 -6 5 C-5.516602 4.508867 -5.033203 4.017734 -4.535156 3.511719 C-3 2.0625 -3 2.0625 0 0 Z " fill="#917971" transform="translate(57,160)"/>
<path d="M0 0 C3.901587 2.654926 7.032293 5.357842 8.8125 9.8125 C9.512369 15.072568 9.805722 19.322667 6.8125 23.8125 C7.885 23.1525 8.9575 22.4925 10.0625 21.8125 C13.122307 19.929542 13.946086 19.8125 17.8125 19.8125 C18.192151 22.976258 18.21544 24.050981 16.8125 26.8125 C7.280824 35.069481 -4.537094 36.308986 -16.625 36.1875 C-17.775488 36.199102 -18.925977 36.210703 -20.111328 36.222656 C-32.710162 36.179827 -42.167293 33.832707 -51.1875 24.8125 C-51.0625 22.75 -51.0625 22.75 -50.1875 20.8125 C-48.5 19.8125 -48.5 19.8125 -46.1875 19.8125 C-44.151412 21.090046 -42.146409 22.419498 -40.1875 23.8125 C-39.8575 23.4825 -39.5275 23.1525 -39.1875 22.8125 C-39.5175 21.8225 -39.8475 20.8325 -40.1875 19.8125 C-40.71672 15.257742 -40.663919 11.784396 -38.625 7.625 C-28.179589 -4.427398 -14.389124 -8.191562 0 0 Z " fill="#F87D83" transform="translate(127.1875,111.1875)"/>
<path d="M0 0 C13.559926 9.887446 23.448812 27.686732 27 44 C27 44.33 27 44.66 27 45 C18.981286 47.532506 10.006437 49.125962 1.752441 47.095703 C-1.273682 44.791619 -1.542696 44.234854 -2.342285 40.693359 C-4.050916 27.947004 -3.18309 13.664601 -1 1 C-0.67 0.67 -0.34 0.34 0 0 Z " fill="#E7CFBB" transform="translate(177,168)"/>
<path d="M0 0 C0.66 0 1.32 0 2 0 C5.056509 12.367878 6.713859 32.989306 2 45 C-2.29371 48.60239 -6.109007 48.612207 -11.5625 48.25 C-16.384478 47.820019 -20.666542 47.241978 -25 45 C-25.554594 41.606708 -25.354129 40.955831 -24 38 C-23.566875 36.770234 -23.13375 35.540469 -22.6875 34.273438 C-22.138606 32.968153 -21.575506 31.668772 -21 30.375 C-20.693848 29.683499 -20.387695 28.991997 -20.072266 28.279541 C-15.742501 18.867056 -9.994025 10.293148 -2.3125 3.269531 C-0.868232 2.013106 -0.868232 2.013106 0 0 Z " fill="#E9D0BC" transform="translate(47,168)"/>
<path d="M0 0 C0.928125 0.556875 0.928125 0.556875 1.875 1.125 C3.62433 11.426609 -2.792569 21.305795 -8.296875 29.574219 C-16.527838 41.058874 -16.527838 41.058874 -22.125 42.125 C-28.17176 42.91932 -28.17176 42.91932 -31.125 42.125 C-30.75 39.3125 -30.75 39.3125 -29.125 36.125 C-27.776153 33.229545 -27.776153 33.229545 -29.128906 30.996094 C-29.643242 30.193008 -30.157578 29.389922 -30.6875 28.5625 C-31.236641 27.683359 -31.785781 26.804219 -32.351562 25.898438 C-32.936797 24.983203 -33.522031 24.067969 -34.125 23.125 C-35.280179 21.318442 -36.426494 19.506176 -37.5625 17.6875 C-38.334004 16.482871 -38.334004 16.482871 -39.121094 15.253906 C-40.125 13.125 -40.125 13.125 -39.125 10.125 C-33.122611 9.282693 -29.521363 11.093273 -24.5625 14.0625 C-18.273152 17.872471 -18.273152 17.872471 -11.125 19.125 C-9.865276 17.520277 -9.865276 17.520277 -9.5 15.1875 C-5.576166 0.32801 -5.576166 0.32801 0 0 Z " fill="#FEA5A7" transform="translate(74.125,47.875)"/>
<path d="M0 0 C2.25 -0.1875 2.25 -0.1875 5 1 C9.062236 5.375922 10.591602 9.976395 12.460938 15.550781 C12.968828 16.359023 13.476719 17.167266 14 18 C17.668112 18.737692 19.505897 18.256303 22.816406 16.539062 C24.175723 15.591602 24.175723 15.591602 25.5625 14.625 C29.89012 11.641705 33.627148 9.361086 38.875 8.5625 C39.57625 8.706875 40.2775 8.85125 41 9 C40.864958 14.79556 36.541582 19.779169 33.417969 24.410156 C30.812975 28.552768 29.669662 31.071486 30.390625 36.003906 C30.65021 37.126478 30.65021 37.126478 30.915039 38.271729 C30.957095 39.127223 30.957095 39.127223 31 40 C26.572729 40.974 22.941632 40.122417 19 38 C9.712525 31.676613 5.951832 21.122989 2 11 C1.632617 10.127305 1.265234 9.254609 0.886719 8.355469 C-0.233256 5.380383 -0.52342 3.140519 0 0 Z " fill="#FEA5A7" transform="translate(151,49)"/>
<path d="M0 0 C2.926656 0.496559 5.175537 1.528537 7.714844 3.03125 C8.744482 3.62873 8.744482 3.62873 9.794922 4.238281 C11.220408 5.07772 12.644893 5.91886 14.068359 6.761719 C23.136815 12.014114 33.964638 12.514377 44.175781 10.316406 C49.719922 8.426536 54.211465 5.640255 58.980469 2.289062 C61.685027 0.562749 63.76717 -0.425372 67 0 C67.530283 3.247982 67.50914 4.176628 66 7 C56.458146 15.251902 44.658272 16.496566 32.5625 16.375 C31.412012 16.386602 30.261523 16.398203 29.076172 16.410156 C16.477338 16.367327 7.020207 14.020207 -2 5 C-1.464286 1.464286 -1.464286 1.464286 0 0 Z " fill="#3A3531" transform="translate(78,131)"/>
<path d="M0 0 C3.4375 0.6875 3.4375 0.6875 5.875 2.6875 C7.875181 6.527848 8.166695 9.441013 7.4375 13.6875 C5.298611 18.256944 5.298611 18.256944 2.4375 19.6875 C-1.004382 20.061618 -2.902527 20.097753 -5.875 18.25 C-8.326908 14.526732 -8.999343 11.124903 -8.5625 6.6875 C-6.798569 2.543527 -4.4592 0.860547 0 0 Z " fill="#313334" transform="translate(77.5625,97.3125)"/>
<path d="M0 0 C3.5 0.5625 3.5 0.5625 5.9375 1.9375 C8.375783 6.033816 8.22718 9.922043 7.5 14.5625 C5.9375 17.6875 5.9375 17.6875 3.5 19.5625 C0 20.1875 0 20.1875 -3.5 19.5625 C-6.200513 17.415938 -7.279963 15.816939 -7.878906 12.402344 C-8.082426 8.469824 -7.745509 6.043697 -5.9375 2.5 C-3.5 0.5625 -3.5 0.5625 0 0 Z " fill="#2F3132" transform="translate(146.5,97.4375)"/>
<path d="M0 0 C2.625 0.125 2.625 0.125 5 1 C6.476941 3.953881 6.209308 6.651619 6.25 9.9375 C6.275781 11.184023 6.301563 12.430547 6.328125 13.714844 C6 17 6 17 4.613281 18.949219 C3 20 3 20 0.9375 19.875 C-1 19 -1 19 -3 16 C-3.300781 13.222656 -3.300781 13.222656 -3.3125 10.0625 C-3.329258 9.022227 -3.346016 7.981953 -3.363281 6.910156 C-2.959309 3.674038 -2.314992 2.271002 0 0 Z " fill="#373335" transform="translate(101,116)"/>
<path d="M0 0 C3.297148 0.329715 4.622684 0.622684 7 3 C7.611432 7.931163 7.520712 12.574893 5.8125 17.25 C5.214375 17.8275 4.61625 18.405 4 19 C1.375 18.9375 1.375 18.9375 -1 18 C-2.485207 15.029586 -2.170582 12.302356 -2.1875 9 C-2.20168 7.741875 -2.215859 6.48375 -2.230469 5.1875 C-2 2 -2 2 0 0 Z " fill="#333133" transform="translate(119,117)"/>
<path d="M0 0 C5.975998 -0.831049 9.6048 0.94199 14.5625 3.875 C15.832084 4.606012 17.104193 5.332657 18.378906 6.054688 C18.98106 6.398545 19.583213 6.742402 20.203613 7.09668 C22.236633 8.184733 22.236633 8.184733 25.589844 9.070312 C26.782871 9.530508 26.782871 9.530508 28 10 C27.01 11.485 27.01 11.485 26 13 C20.546339 13.88221 17.042323 11.776982 12.5 9.125 C11.221306 8.393949 9.940082 7.667304 8.65625 6.945312 C8.046523 6.601455 7.436797 6.257598 6.808594 5.90332 C4.772277 4.822944 4.772277 4.822944 1.46875 3.929688 C0.654063 3.622891 -0.160625 3.316094 -1 3 C-0.67 2.01 -0.34 1.02 0 0 Z " fill="#FC7F89" transform="translate(35,58)"/>
<path d="M0 0 C0.25 1.8125 0.25 1.8125 -1 4 C-2.616745 4.741008 -4.244666 5.464877 -5.914062 6.078125 C-8.336244 7.148602 -10.244886 8.555442 -12.375 10.125 C-16.520178 12.981042 -20.870257 14.835873 -26 14 C-26.33 13.01 -26.66 12.02 -27 11 C-25.025433 10.261399 -23.017934 9.610234 -21 9 C-19.11165 7.889514 -17.25626 6.72113 -15.4375 5.5 C-5.71585 -1.008679 -5.71585 -1.008679 0 0 Z " fill="#FC808A" transform="translate(192,58)"/>
<path d="M0 0 C2.125 0.25 2.125 0.25 4 1.6875 C4.37125 2.203125 4.7425 2.71875 5.125 3.25 C3.05917 5.31583 -1.103231 4.480637 -3.9375 4.5 C-4.696113 4.520625 -5.454727 4.54125 -6.236328 4.5625 C-8.410156 4.578125 -8.410156 4.578125 -11.875 4.25 C-11.875 3.26 -11.875 2.27 -11.875 1.25 C-10.082031 0.738281 -10.082031 0.738281 -7.6875 0.5625 C-6.866367 0.501914 -6.045234 0.441328 -5.199219 0.378906 C-3.464216 0.282679 -1.731137 0.150534 0 0 Z " fill="#31302C" transform="translate(119.875,142.75)"/>
</svg>
