<?xml version="1.0" encoding="UTF-8"?>
<!-- Generator: visioncortex VTracer 0.6.4 -->
<svg version="1.1" xmlns="http://www.w3.org/2000/svg" width="240" height="240">
<path d="M0 0 C1.765625 1.34375 1.765625 1.34375 3 3 C3 3.99 3 4.98 3 6 C1.136719 6.695312 1.136719 6.695312 -1.3125 7.125 C-3.997563 7.61791 -6.399176 8.133059 -9 9 C-9 10.32 -9 11.64 -9 13 C-8.4225 13.28875 -7.845 13.5775 -7.25 13.875 C-3.878083 15.560958 -2.767433 17.708918 -1 21 C0.231963 25.009766 0.449166 28.040417 -1.375 31.9375 C-5.050941 34.82574 -8.396944 35.089776 -13 35 C-14.051875 34.731875 -15.10375 34.46375 -16.1875 34.1875 C-16.785625 34.125625 -17.38375 34.06375 -18 34 C-16.920915 37.912438 -15.361226 41.613656 -13.791504 45.351562 C-6.718437 62.316451 -5.376726 79.974133 -12.359375 97.390625 C-13.38002 99.694967 -14.408836 101.995704 -15.445312 104.292969 C-20.756038 116.494444 -23.472295 129.690196 -24.453125 142.898438 C-24.574579 144.5061 -24.574579 144.5061 -24.698486 146.14624 C-24.855536 148.308844 -24.999023 150.472484 -25.127686 152.636963 C-25.791927 162.175598 -25.791927 162.175598 -29 166 C-34.369059 169.992377 -40.593627 169.666965 -47 169 C-50.504361 167.67076 -52.383408 166.616592 -55 164 C-55.226237 160.450668 -55.317811 156.93986 -55.302734 153.384766 C-55.41502 149.215699 -55.632276 147.47324 -58.273438 144.074219 C-62.09441 141.167433 -64.183727 140.163263 -69 140 C-69.397948 143.335341 -69.397948 143.335341 -69.105469 146.015625 C-68.878764 152.430531 -69.746717 161.458003 -74.3125 166.375 C-79.384293 169.594375 -86.324661 168.798304 -92 168 C-95.475251 166.843601 -95.842424 166.236364 -98 163 C-97.921507 160.975432 -97.770555 158.952878 -97.5625 156.9375 C-97.184633 154.188911 -97.184633 154.188911 -98 152 C-101.936829 151.078153 -104.274616 151.751441 -108.042969 153.164062 C-110.313449 154.784191 -110.925428 155.738345 -111.697754 158.448242 C-112.456199 164.652174 -112.241538 170.847433 -112.042725 177.081543 C-111.982684 181.18281 -112.304649 184.953949 -113 189 C-116.109897 192.189638 -118.594906 193.906327 -123.046875 194.203125 C-124.268906 194.218594 -125.490938 194.234062 -126.75 194.25 C-127.961719 194.275781 -129.173438 194.301562 -130.421875 194.328125 C-135.239627 193.886322 -138.576701 192.423299 -142 189 C-142.314569 186.346936 -142.511755 183.787398 -142.625 181.125 C-142.670923 180.366467 -142.716846 179.607935 -142.76416 178.826416 C-143.021567 174.11507 -142.802284 169.643241 -142.375 164.9375 C-142.185035 162.163051 -142.185035 162.163051 -143 160 C-145.851439 159.083834 -148.057371 159.319097 -151.023438 159.660156 C-153.842004 159.981961 -155.871392 159.805728 -158.625 159.25 C-159.73875 159.1675 -160.8525 159.085 -162 159 C-163.141505 161.777077 -163.144397 164.615356 -163.210938 167.589844 C-163.253477 168.890186 -163.253477 168.890186 -163.296875 170.216797 C-163.34884 172.026488 -163.393147 173.836416 -163.429688 175.646484 C-163.603725 180.530424 -163.790083 184.056613 -167 188 C-171.440863 190.826004 -176.914333 190.545184 -182 190 C-185.401685 188.663624 -187.434788 187.565212 -190 185 C-190.264628 182.296018 -190.416535 179.667488 -190.5 176.957031 C-190.582293 175.309126 -190.667007 173.661341 -190.753906 172.013672 C-190.883694 169.417665 -190.999656 166.824551 -191.07373 164.226318 C-191.033205 154.09488 -191.033205 154.09488 -195.258789 145.351074 C-197.774581 143.604427 -200.231614 142.292688 -203 141 C-205.75 138.5 -205.75 138.5 -208 136 C-208.479531 135.512734 -208.959063 135.025469 -209.453125 134.523438 C-215.609121 127.96326 -219.254049 119.951412 -220 111 C-220.33 110.01 -220.66 109.02 -221 108 C-220.923652 90.115423 -217.222541 76.760855 -204.1875 63.753906 C-202.769078 62.055214 -202.769078 62.055214 -203.183594 59.859375 C-203.878268 57.808634 -203.878268 57.808634 -206.0625 56.6875 C-208 55 -208 55 -208.347656 51.886719 C-207.932856 47.249347 -206.545198 44.177274 -204.375 40.125 C-204.011807 39.426812 -203.648613 38.728623 -203.274414 38.009277 C-195.30612 22.917175 -195.30612 22.917175 -190 21 C-185.807862 20.480148 -183.712275 21.462257 -180.3125 23.875 C-179.545508 24.408672 -178.778516 24.942344 -177.988281 25.492188 C-176 27 -176 27 -174 29 C-168.796027 28.714745 -164.747232 26.606369 -160.1875 24.3125 C-138.354267 13.759022 -115.027592 7.77034 -90.75 7.75 C-90.031358 7.749325 -89.312715 7.748651 -88.572296 7.747955 C-71.983748 7.77272 -52.306289 8.462474 -38 18 C-37.01 18 -36.02 18 -35 18 C-33.89013 16.321093 -33.89013 16.321093 -33.0625 14.1875 C-31.613724 10.744305 -30.30951 8.843124 -27 7 C-24.203125 6.777344 -24.203125 6.777344 -21.25 6.9375 C-18.385868 7.128844 -18.385868 7.128844 -16 7 C-16 6.34 -16 5.68 -16 5 C-11.05323 0.579482 -6.714523 -1.561517 0 0 Z M-13 19 C-14.393158 20.179351 -14.393158 20.179351 -14.3125 23.5 C-14.209375 24.655 -14.10625 25.81 -14 27 C-12.175765 28.247744 -12.175765 28.247744 -10 28 C-9.34 27.34 -8.68 26.68 -8 26 C-8 22.916667 -8 22.916667 -9 20 C-10.934009 18.932452 -10.934009 18.932452 -13 19 Z M-25 22 C-25.924668 24.372709 -25.924668 24.372709 -26 27 C-25.34 27.66 -24.68 28.32 -24 29 C-23.01 29 -22.02 29 -21 29 C-21.004892 25.465374 -21.004892 25.465374 -22 22 C-22.99 22 -23.98 22 -25 22 Z " fill="#F5BF90" transform="translate(231,30)"/>
<path d="M0 0 C0.70125 0.495 1.4025 0.99 2.125 1.5 C6.245532 3.649843 9.985046 3.355805 14.5625 3.375 C25.316879 3.675489 34.399739 5.675699 42.304688 13.472656 C44.067176 15.171804 44.067176 15.171804 46.800781 16.582031 C51.284517 19.506599 53.616003 24.125241 56.3125 28.625 C57.117842 29.932109 57.117842 29.932109 57.939453 31.265625 C61.87615 37.679512 63.16635 41.477063 63.203125 49.09375 C63.208825 49.996215 63.214525 50.898679 63.220398 51.828491 C63.229851 53.738351 63.236383 55.648226 63.240234 57.558105 C63.249961 60.488242 63.28099 63.417684 63.3125 66.347656 C63.319028 68.200517 63.324279 70.053382 63.328125 71.90625 C63.340472 72.786478 63.352819 73.666707 63.36554 74.573608 C63.356445 77.041016 63.356445 77.041016 63 81 C59.53148 83.312347 58.52683 83.185956 54.5 82.8125 C53.540937 82.736445 52.581875 82.660391 51.59375 82.582031 C48.609988 81.912482 47.649519 81.567097 46 79 C45.410156 75.839844 45.410156 75.839844 45.0625 71.9375 C42.806978 50.511271 37.685566 31.738309 20.878906 17.160156 C17.71838 15.208647 14.392249 14.865309 10.741455 14.535156 C9.909914 14.458376 9.078373 14.381597 8.221634 14.30249 C6.884093 14.183695 6.884093 14.183695 5.519531 14.0625 C4.128394 13.935004 4.128394 13.935004 2.709152 13.804932 C-0.256139 13.533677 -3.221792 13.266656 -6.1875 13 C-9.135279 12.732569 -12.082973 12.46424 -15.030594 12.195068 C-16.862589 12.02803 -18.694686 11.862108 -20.526901 11.69751 C-26.026754 11.199131 -31.513214 10.626467 -37 10 C-27.310893 3.540595 -11.649491 -1.226262 0 0 Z " fill="#DF9E68" transform="translate(117,41)"/>
<path d="M0 0 C2.632812 0.574219 2.632812 0.574219 6.125 1.6875 C7.83043 2.219238 7.83043 2.219238 9.570312 2.761719 C13 4 13 4 16.117188 5.582031 C18.861164 7.133787 18.861164 7.133787 21.613281 7.292969 C25.261988 8.373846 26.434301 11.164944 28.1875 14.3125 C28.700869 15.185518 28.700869 15.185518 29.224609 16.076172 C34.635277 25.353103 35.186093 33.185863 35.3125 43.8125 C35.341504 44.64459 35.370508 45.47668 35.400391 46.333984 C35.463266 52.365226 35.463266 52.365226 33.164062 55.515625 C30.339049 57.45336 28.42504 57.930101 25 58 C20.434783 55.869565 20.434783 55.869565 19 53 C18.92395 51.282529 18.853224 49.564619 18.8125 47.845947 C18.396246 33.470538 17.115574 17.086834 6.183594 6.742188 C4.728514 5.581247 3.240375 4.460575 1.722656 3.382812 C1.15418 2.926484 0.585703 2.470156 0 2 C0 1.34 0 0.68 0 0 Z " fill="#DF9E68" transform="translate(174,41)"/>
<path d="M0 0 C2.4375 1.5 2.4375 1.5 4 4 C4.562097 6.680371 4.775324 9.258947 5 12 C5.33 12.33 5.66 12.66 6 13 C6.181004 15.765497 6.278188 18.482182 6.3125 21.25 C6.341504 22.014414 6.370508 22.778828 6.400391 23.566406 C6.444112 27.460964 6.235332 29.579957 4.292969 33.046875 C2 35 2 35 -0.357422 35.281738 C-3.420712 34.955146 -4.998733 34.112239 -7.574219 32.445312 C-8.822354 31.646738 -8.822354 31.646738 -10.095703 30.832031 C-10.950996 30.268711 -11.806289 29.705391 -12.6875 29.125 C-13.554395 28.569414 -14.421289 28.013828 -15.314453 27.441406 C-21.652301 23.347699 -21.652301 23.347699 -24 21 C-24 20.01 -24 19.02 -24 18 C-19.560807 18.137211 -16.810454 20.320687 -13.375 22.9375 C-12.433984 23.647773 -11.492969 24.358047 -10.523438 25.089844 C-9.274336 26.035371 -9.274336 26.035371 -8 27 C-5.1849 29.27735 -5.1849 29.27735 -2 29 C-1.444917 24.354481 -1.81386 19.668203 -2 15 C-2.007734 14.008711 -2.015469 13.017422 -2.023438 11.996094 C-2.048463 9.303139 -2.048463 9.303139 -3 6 C-9.011237 6.150281 -15.876801 11.876801 -20 16 C-22.1875 15.875 -22.1875 15.875 -24 15 C-23.68256 11.36105 -22.08065 9.798236 -19.375 7.5 C-13.161755 2.359148 -8.335108 -1.093129 0 0 Z " fill="#D68163" transform="translate(131,66)"/>
<path d="M0 0 C1.262637 -0.029004 2.525273 -0.058008 3.826172 -0.087891 C14.200843 -0.159063 14.200843 -0.159063 17.902344 2.175781 C20.0625 4.3125 20.0625 4.3125 20.6875 6.8125 C19.869847 10.083113 18.681262 11.212218 16.0625 13.3125 C7.386584 14.770845 -6.538544 14.245137 -13.9375 9.3125 C-15.154375 9.02375 -16.37125 8.735 -17.625 8.4375 C-18.718125 8.06625 -19.81125 7.695 -20.9375 7.3125 C-20.9375 3.3125 -20.9375 3.3125 -18.9375 1.3125 C-12.803279 -0.369648 -6.308547 0.048157 0 0 Z " fill="#DF9E68" transform="translate(88.9375,57.6875)"/>
<path d="M0 0 C-0.804375 0.969375 -1.60875 1.93875 -2.4375 2.9375 C-5.684262 7.263928 -8.261341 11.869198 -10.8125 16.625 C-11.209451 17.35324 -11.606401 18.081479 -12.015381 18.831787 C-15.055854 24.603897 -15.055854 24.603897 -16 31 C-12.796015 31.061615 -9.783128 28.959445 -7 27.5 C-2.320215 25.045966 -2.320215 25.045966 0.421875 24.652344 C0.942656 24.43707 1.463437 24.221797 2 24 C1.567997 21.638956 1.567997 21.638956 0.25 19.0625 C-2 14.113924 -2 14.113924 -2 12 C0.622815 12.850344 1.803418 13.694206 3.300781 16.023438 C3.634648 16.799453 3.968516 17.575469 4.3125 18.375 C4.659258 19.145859 5.006016 19.916719 5.363281 20.710938 C6.099887 23.359103 6.146968 24.505474 5 27 C-1.017764 32.027662 -10.297926 36.728098 -18 38 C-20.886719 36.554688 -20.886719 36.554688 -23 34 C-23.967808 28.151075 -22.060273 24.13904 -19.375 19.125 C-19.011807 18.426812 -18.648613 17.728623 -18.274414 17.009277 C-9.029054 -0.501614 -9.029054 -0.501614 0 0 Z " fill="#D67F5E" transform="translate(46,51)"/>
<path d="M0 0 C4.095767 0.052963 7.633726 0.198974 11.3125 2.1875 C11.4375 4.0625 11.4375 4.0625 10.3125 6.1875 C9.61125 6.8475 8.91 7.5075 8.1875 8.1875 C6.091127 9.981692 6.091127 9.981692 6.25 12.25 C7.232616 14.435362 7.232616 14.435362 9.875 15.6875 C10.679375 16.1825 11.48375 16.6775 12.3125 17.1875 C12.3125 18.5075 12.3125 19.8275 12.3125 21.1875 C10.125 21.75 10.125 21.75 7.3125 21.1875 C6.4875 20.32125 5.6625 19.455 4.8125 18.5625 C3.9875 17.77875 3.1625 16.995 2.3125 16.1875 C-0.258642 16.798911 -0.258642 16.798911 -2.6875 18.1875 C-5.5 18.5625 -5.5 18.5625 -7.6875 18.1875 C-7.6875 16.8675 -7.6875 15.5475 -7.6875 14.1875 C-5.25 12.5625 -5.25 12.5625 -2.6875 11.1875 C-2.3575 10.5275 -2.0275 9.8675 -1.6875 9.1875 C-2.3475 9.1875 -3.0075 9.1875 -3.6875 9.1875 C-5.835592 5.965362 -5.981362 4.909746 -5.6875 1.1875 C-4.058208 -0.441792 -2.240559 0.016746 0 0 Z " fill="#DA7F61" transform="translate(61.6875,125.8125)"/>
<path d="M0 0 C2.875 1.5625 2.875 1.5625 5 4 C5.578755 7.978942 5.361091 10.244991 3.625 13.875 C2 16 2 16 0 17 C-3.465009 17.376631 -5.36348 17.385262 -8.375 15.5625 C-10.775136 11.777671 -10.78423 8.361277 -10 4 C-7.345458 -0.186009 -4.804639 -0.784431 0 0 Z " fill="#3A3A35" transform="translate(96,114)"/>
<path d="M0 0 C3.52666 0.793499 5.110543 1.831691 7.5 4.5625 C8.169286 9.247505 8.112711 11.386096 5.9375 15.5625 C3.5 17.5625 3.5 17.5625 0 18.1875 C-3.5 17.5625 -3.5 17.5625 -5.9375 15.5 C-7.911437 11.788999 -8.166948 9.7124 -7.5 5.5625 C-5.213258 2.491733 -3.775929 0.849584 0 0 Z " fill="#383831" transform="translate(45.5,104.4375)"/>
<path d="M0 0 C3.571223 0.123146 5.668671 0.837598 9 2 C11.453791 2.501912 13.912496 2.980251 16.375 3.4375 C23.521957 4.799937 23.521957 4.799937 26 8 C4.400243 12.897111 4.400243 12.897111 0 11 C-1.519516 7.108118 -1.5529 3.888774 0 0 Z " fill="#EFC298" transform="translate(11,126)"/>
<path d="M0 0 C7.12585 -0.152541 7.12585 -0.152541 10.082031 0.105469 C10.082031 0.765469 10.082031 1.425469 10.082031 2.105469 C8.210938 3.035156 8.210938 3.035156 5.644531 3.980469 C2.076151 5.342756 -1.472201 6.718868 -4.980469 8.230469 C-5.713945 8.542422 -6.447422 8.854375 -7.203125 9.175781 C-9.100204 9.992305 -9.100204 9.992305 -9.917969 12.105469 C-6.959708 12.272171 -6.959708 12.272171 -3.917969 12.105469 C-4.577969 12.765469 -5.237969 13.425469 -5.917969 14.105469 C-8.9709 13.944788 -10.654505 13.28843 -13.167969 11.542969 C-15.881713 7.76311 -16.5319 5.786693 -15.917969 1.105469 C-10.889903 -0.638209 -5.254923 0.141459 0 0 Z " fill="#EDC49B" transform="translate(26.91796875,138.89453125)"/>
<path d="M0 0 C0 0.99 0 1.98 0 3 C-2.338962 3.701689 -4.478909 4.172718 -6.875 4.5625 C-8.25655 4.809677 -9.63806 5.057073 -11.019531 5.304688 C-11.699673 5.42167 -12.379814 5.538652 -13.080566 5.65918 C-15.588861 6.10456 -18.073364 6.646218 -20.5625 7.1875 C-27.528483 8.548134 -27.528483 8.548134 -31 8 C-31 6.68 -31 5.36 -31 4 C-29.015625 3.178711 -29.015625 3.178711 -26.25 2.734375 C-25.248398 2.566797 -24.246797 2.399219 -23.214844 2.226562 C-22.153945 2.069297 -21.093047 1.912031 -20 1.75 C-18.970039 1.577266 -17.940078 1.404531 -16.878906 1.226562 C-11.233284 0.320386 -5.713692 -0.521924 0 0 Z " fill="#49463F" transform="translate(131,130)"/>
<path d="M0 0 C1.886719 -0.264648 1.886719 -0.264648 4.6875 -0.109375 C6.201504 -0.033965 6.201504 -0.033965 7.746094 0.042969 C9.356777 0.145449 9.356777 0.145449 11 0.25 C12.564277 0.329277 12.564277 0.329277 14.160156 0.410156 C17.110544 0.570544 20.053855 0.775791 23 1 C23.751523 1.043184 24.503047 1.086367 25.277344 1.130859 C27.1875 1.296875 27.1875 1.296875 30 2 C30.478242 2.683203 30.956484 3.366406 31.449219 4.070312 C31.300977 4.707109 31.152734 5.343906 31 6 C28.132685 6.20317 25.656775 6.130697 22.8125 5.875 C21.992737 5.812964 21.172974 5.750928 20.328369 5.687012 C5.437381 4.476362 5.437381 4.476362 1 3 C0.67 2.01 0.34 1.02 0 0 Z " fill="#534F48" transform="translate(99,141)"/>
<path d="M0 0 C2.622815 0.850344 3.803418 1.694206 5.300781 4.023438 C5.634648 4.799453 5.968516 5.575469 6.3125 6.375 C6.659258 7.145859 7.006016 7.916719 7.363281 8.710938 C8.105146 11.378008 8.180692 12.495501 7 15 C4.890625 16.703125 4.890625 16.703125 2.25 18.25 C1.388906 18.770781 0.527812 19.291562 -0.359375 19.828125 C-3.17139 21.076061 -4.96145 21.502782 -8 21 C-8 18 -8 18 -6 16 C-4.875825 15.257773 -3.727455 14.551425 -2.5625 13.875 C-1.965664 13.521797 -1.368828 13.168594 -0.753906 12.804688 C1 12 1 12 4 12 C3.433666 9.731705 3.433666 9.731705 2.1875 7.125 C0 2.15534 0 2.15534 0 0 Z " fill="#D88462" transform="translate(44,63)"/>
<path d="M0 0 C0 0.99 0 1.98 0 3 C-8.117499 5.27582 -18.641459 6.347217 -27 5 C-26.67 4.01 -26.34 3.02 -26 2 C-18.369501 0.137202 -7.749655 -1.498374 0 0 Z " fill="#3C3C36" transform="translate(37,135)"/>
<path d="M0 0 C5.660239 0.17969 10.484778 1.315866 15.78125 3.246094 C18.0272 4.009242 20.242656 4.513976 22.5625 5 C24.264063 5.495 24.264063 5.495 26 6 C26 6.99 26 7.98 26 9 C17.838026 8.985051 7.499597 6.117436 0 3 C0 2.01 0 1.02 0 0 Z " fill="#40403A" transform="translate(11,123)"/>
<path d="M0 0 C4.8656 0.175513 9.473479 2.845517 13.8125 4.875 C14.600762 5.226914 15.389023 5.578828 16.201172 5.941406 C16.945605 6.288164 17.690039 6.634922 18.457031 6.992188 C19.137415 7.305269 19.817798 7.61835 20.518799 7.940918 C21.007595 8.290415 21.496392 8.639912 22 9 C22 9.99 22 10.98 22 12 C16.689278 11.849222 12.269707 9.468351 7.625 7.125 C6.888945 6.773086 6.152891 6.421172 5.394531 6.058594 C3.544979 5.135533 1.764333 4.077039 0 3 C0 2.01 0 1.02 0 0 Z " fill="#43413C" transform="translate(98,147)"/>
<path d="M0 0 C-0.33 0.99 -0.66 1.98 -1 3 C-3.440953 4.210171 -5.77643 5.226688 -8.3125 6.1875 C-8.989902 6.460137 -9.667305 6.732773 -10.365234 7.013672 C-13.824179 8.362762 -16.240198 9 -20 9 C-19.75 7.1875 -19.75 7.1875 -18 5 C-16.021906 4.045505 -14.03886 3.346648 -11.953125 2.660156 C-9.9156 2.03771 -9.9156 2.03771 -7.875 0.8125 C-5.164284 -0.362144 -2.902806 -0.337536 0 0 Z " fill="#3D3D37" transform="translate(37,142)"/>
<path d="M0 0 C4.159287 0.203076 7.05503 2.019883 10.4375 4.3125 C11.343711 4.906758 12.249922 5.501016 13.183594 6.113281 C13.783008 6.735898 14.382422 7.358516 15 8 C14.628906 10.425781 14.628906 10.425781 13 12 C10.46875 10.929688 10.46875 10.929688 7.5 8.875 C6.520313 8.212422 5.540625 7.549844 4.53125 6.867188 C2 5 2 5 0 3 C0 2.01 0 1.02 0 0 Z " fill="#DC8969" transform="translate(107,84)"/>
<path d="M0 0 C4.615526 -0.627456 9.508122 -0.159194 14 1 C13.01 1.680625 13.01 1.680625 12 2.375 C11.34 2.91125 10.68 3.4475 10 4 C10 4.66 10 5.32 10 6 C10.99 6.66 11.98 7.32 13 8 C10.5625 7.6875 10.5625 7.6875 8 7 C7.67 6.01 7.34 5.02 7 4 C5.012767 3.296188 3.01222 2.628819 1 2 C0.67 1.34 0.34 0.68 0 0 Z " fill="#F3CCA2" transform="translate(103,145)"/>
<path d="M0 0 C1.949219 0.0625 1.949219 0.0625 4 1 C4.644531 3.25 4.644531 3.25 4.8125 6 C4.88082 6.9075 4.949141 7.815 5.019531 8.75 C5 11 5 11 4 12 C0.4375 12.125 0.4375 12.125 -3 12 C-3 11.67 -3 11.34 -3 11 C-2.01 11.04125 -1.02 11.0825 0 11.125 C0.99 11.08375 1.98 11.0425 3 11 C3 10.01 3 9.02 3 8 C0.5 7.75 0.5 7.75 -2 8 C-0.625 6.5 -0.625 6.5 1 5 C1.66 5 2.32 5 3 5 C3 4.01 3 3.02 3 2 C2.01 2 1.02 2 0 2 C0 1.34 0 0.68 0 0 Z " fill="#DBB18D" transform="translate(34,127)"/>
<path d="M0 0 C4.409185 -0.304082 8.741705 -0.330717 13 1 C13 1.66 13 2.32 13 3 C10.410156 3.300781 10.410156 3.300781 7.0625 3.3125 C5.960352 3.329258 4.858203 3.346016 3.722656 3.363281 C2.82418 3.243398 1.925703 3.123516 1 3 C0.67 2.01 0.34 1.02 0 0 Z " fill="#3E3D36" transform="translate(99,141)"/>
<path d="M0 0 C0 0.99 0 1.98 0 3 C-2.79511 4.397555 -4.924054 4.334342 -8 4 C-8 2.68 -8 1.36 -8 0 C-5.195534 -1.302073 -2.828529 -1.212227 0 0 Z " fill="#685D4F" transform="translate(108,134)"/>
<path d="M0 0 C3.451022 0.345102 4.817193 0.738408 7.125 3.3125 C7.375 6 7.375 6 7.125 8.3125 C6.815625 7.673125 6.50625 7.03375 6.1875 6.375 C5.290484 4.376392 5.290484 4.376392 4.125 3.3125 C0.652431 3.003827 -1.262229 2.925487 -4.25 4.8125 C-4.78625 5.3075 -5.3225 5.8025 -5.875 6.3125 C-5.072002 2.297511 -4.390353 0.477212 0 0 Z " fill="#34332E" transform="translate(92.875,113.6875)"/>
<path d="M0 0 C3.213164 0.88639 4.03378 2.056702 5.75 4.9375 C7 8 7 8 7 11 C6.01 11 5.02 11 4 11 C2.832031 9.101562 2.832031 9.101562 1.8125 6.625 C1.46832 5.812891 1.124141 5.000781 0.769531 4.164062 C0 2 0 2 0 0 Z " fill="#E79F7A" transform="translate(44,63)"/>
<path d="M0 0 C3 -0.125 3 -0.125 6 0 C5.01 0.66 4.02 1.32 3 2 C4.98166 3.035868 6.984738 4.031124 9 5 C9.33 5.99 9.66 6.98 10 8 C5.765702 6.689384 1.925926 5.056437 -2 3 C-1.34 2.67 -0.68 2.34 0 2 C0 1.34 0 0.68 0 0 Z " fill="#D7B390" transform="translate(101,144)"/>
<path d="M0 0 C-0.99 0.495 -0.99 0.495 -2 1 C-2 1.66 -2 2.32 -2 3 C-0.333854 3.041654 1.333854 3.041654 3 3 C3 3.33 3 3.66 3 4 C0.321231 3.907319 -2.328423 3.758807 -5 3.5625 C-5.763125 3.510293 -6.52625 3.458086 -7.3125 3.404297 C-9.208641 3.273937 -11.104364 3.137518 -13 3 C-8.481662 0.662929 -5.110186 -0.11356 0 0 Z " fill="#F4D2AB" transform="translate(112,137)"/>
<path d="M0 0 C2.1875 -0.230469 2.1875 -0.230469 5 -0.1875 C6.392188 -0.177832 6.392188 -0.177832 7.8125 -0.167969 C8.534375 -0.112539 9.25625 -0.057109 10 0 C10 0.33 10 0.66 10 1 C8.845 0.979375 7.69 0.95875 6.5 0.9375 C5.345 0.958125 4.19 0.97875 3 1 C3 1.66 3 2.32 3 3 C4.666146 3.041654 6.333854 3.041654 8 3 C8 3.33 8 3.66 8 4 C3.529515 4.151542 -0.658386 4.221079 -5 3 C-5 2.67 -5 2.34 -5 2 C-3.7625 2.030937 -3.7625 2.030937 -2.5 2.0625 C-1.675 2.041875 -0.85 2.02125 0 2 C0 1.34 0 0.68 0 0 Z " fill="#6F6255" transform="translate(112,142)"/>
<path d="M0 0 C3.0625 0.1875 3.0625 0.1875 5.0625 2.1875 C1.400695 3.030987 -1.994732 3.322554 -5.75 3.3125 C-7.21373 3.316367 -7.21373 3.316367 -8.707031 3.320312 C-9.443086 3.276484 -10.179141 3.232656 -10.9375 3.1875 C-10.9375 2.8575 -10.9375 2.5275 -10.9375 2.1875 C-8.605022 1.848231 -6.271645 1.515099 -3.9375 1.1875 C-2.9375 0.1875 -2.9375 0.1875 0 0 Z " fill="#F4D3AA" transform="translate(31.9375,131.8125)"/>
<path d="M0 0 C2.5625 -0.3125 2.5625 -0.3125 5 0 C5 0.66 5 1.32 5 2 C7.332961 2.04166 9.667039 2.04166 12 2 C12 2.33 12 2.66 12 3 C9.816342 3.154071 7.62641 3.222145 5.4375 3.25 C4.219336 3.275781 3.001172 3.301562 1.746094 3.328125 C0.386777 3.165703 0.386777 3.165703 -1 3 C-0.67 2.01 -0.34 1.02 0 0 Z " fill="#45433C" transform="translate(11,137)"/>
<path d="M0 0 C5.60733 -0.534031 5.60733 -0.534031 8 0 C8 0.99 8 1.98 8 3 C4.5625 3.375 4.5625 3.375 1 3 C0.67 2.01 0.34 1.02 0 0 Z " fill="#45423B" transform="translate(123,130)"/>
<path d="M0 0 C2.5625 0.5625 2.5625 0.5625 5 2 C5 2.99 5 3.98 5 5 C1.9375 4.9375 1.9375 4.9375 -1 4 C-1.1875 1.8125 -1.1875 1.8125 0 0 Z " fill="#4F4940" transform="translate(115,154)"/>
<path d="M0 0 C5.699416 -0.452335 5.699416 -0.452335 8 0 C8.33 0.99 8.66 1.98 9 3 C7.128906 3.144531 7.128906 3.144531 4.5625 2.8125 C3.718164 2.71582 2.873828 2.619141 2.003906 2.519531 C1.342617 2.348086 0.681328 2.176641 0 2 C0 1.34 0 0.68 0 0 Z " fill="#333635" transform="translate(115,143)"/>
<path d="M0 0 C0.33 0.66 0.66 1.32 1 2 C-4.396567 3.06162 -4.396567 3.06162 -7 3 C-7.66 2.34 -8.32 1.68 -9 1 C-5.769657 -0.076781 -3.382547 -0.220601 0 0 Z " fill="#393B36" transform="translate(114,133)"/>
<path d="M0 0 C0.925781 1.945312 0.925781 1.945312 1 4 C-0.871094 4.390625 -0.871094 4.390625 -3.4375 4.25 C-4.281836 4.213906 -5.126172 4.177813 -5.996094 4.140625 C-6.657383 4.094219 -7.318672 4.047812 -8 4 C-5.300453 2.200302 -3.130981 0.823942 0 0 Z " fill="#DAA980" transform="translate(88,47)"/>
<path d="M0 0 C3.916066 0.534009 6.393389 1.196695 10 3 C6.7 3.33 3.4 3.66 0 4 C0.66 3.34 1.32 2.68 2 2 C1.34 1.34 0.68 0.68 0 0 Z " fill="#655B4F" transform="translate(112,132)"/>
<path d="M0 0 C2.343609 0.251101 4.679682 0.585657 7 1 C3.097445 3.601703 -0.47014 3.226493 -5 3 C-5 2.67 -5 2.34 -5 2 C-3.7625 2.030937 -3.7625 2.030937 -2.5 2.0625 C-1.675 2.041875 -0.85 2.02125 0 2 C0 1.34 0 0.68 0 0 Z " fill="#C09E7D" transform="translate(19,134)"/>
</svg>
