<?xml version="1.0" encoding="UTF-8"?>
<!-- Generator: visioncortex VTracer 0.6.4 -->
<svg version="1.1" xmlns="http://www.w3.org/2000/svg" width="240" height="240">
<path d="M0 0 C1.589555 1.325909 3.173145 2.659011 4.75 4 C5.486055 4.590391 6.222109 5.180781 6.980469 5.789062 C28.225459 23.461886 41.966453 51.749573 44.75 79 C47.072314 113.280807 39.229318 143.56681 16.75 170 C16.159609 170.736055 15.569219 171.472109 14.960938 172.230469 C-2.711886 193.475459 -30.999573 207.216453 -58.25 210 C-92.530807 212.322314 -122.81681 204.479318 -149.25 182 C-149.986055 181.409609 -150.722109 180.819219 -151.480469 180.210938 C-172.725459 162.538114 -186.466453 134.250427 -189.25 107 C-191.572314 72.719193 -183.729318 42.43319 -161.25 16 C-160.364414 14.895918 -160.364414 14.895918 -159.460938 13.769531 C-120.725822 -32.795023 -46.356561 -36.291375 0 0 Z " fill="#FED1B0" transform="translate(192.25,27)"/>
<path d="M0 0 C1.589555 1.325909 3.173145 2.659011 4.75 4 C5.486055 4.590391 6.222109 5.180781 6.980469 5.789062 C28.225459 23.461886 41.966453 51.749573 44.75 79 C47.072314 113.280807 39.229318 143.56681 16.75 170 C16.159609 170.736055 15.569219 171.472109 14.960938 172.230469 C-2.711886 193.475459 -30.999573 207.216453 -58.25 210 C-92.530807 212.322314 -122.81681 204.479318 -149.25 182 C-149.986055 181.409609 -150.722109 180.819219 -151.480469 180.210938 C-172.725459 162.538114 -186.466453 134.250427 -189.25 107 C-191.572314 72.719193 -183.729318 42.43319 -161.25 16 C-160.364414 14.895918 -160.364414 14.895918 -159.460938 13.769531 C-120.725822 -32.795023 -46.356561 -36.291375 0 0 Z M-153.105469 18.511719 C-163.49395 30.565384 -171.501329 44.121998 -176.625 59.1875 C-176.863799 59.887139 -177.102598 60.586777 -177.348633 61.307617 C-185.80561 87.75556 -182.641375 117.589576 -170.195801 142.200684 C-165.236298 151.635773 -159.308722 160.026026 -152.25 168 C-151.637695 168.696094 -151.025391 169.392188 -150.394531 170.109375 C-138.521054 182.767667 -122.370468 191.828775 -106.0625 197.375 C-105.362861 197.613799 -104.663223 197.852598 -103.942383 198.098633 C-76.667672 206.819977 -46.457406 202.807858 -21.261719 190 C-12.38448 185.316624 -4.460617 179.732903 3.211914 173.275391 C4.246865 172.417203 5.301781 171.582598 6.374023 170.771484 C10.113475 167.885779 11.814687 165.257689 13.75 161 C15.118488 159.04309 16.516433 157.106569 17.9375 155.1875 C35.008404 131.096065 40.517386 100.388915 35.625 71.4375 C28.956286 41.660915 11.48281 16.390667 -14.25 0 C-59.229297 -27.624894 -116.857684 -19.350068 -153.105469 18.511719 Z " fill="#A0AFAE" transform="translate(192.25,27)"/>
<path d="M0 0 C5.733739 3.022143 11.536301 7.355473 13.957031 13.558594 C14.489221 19.146587 14.207187 22.791699 10.957031 27.558594 C3.581393 33.243981 -3.010525 33.091053 -12.042969 32.558594 C-19.928049 31.19242 -26.8855 27.882245 -32.417969 22.058594 C-35.41594 17.44633 -36.726312 13.360638 -36.625 7.84375 C-35.488955 3.38344 -31.794079 0.921858 -28.042969 -1.441406 C-18.927017 -5.872978 -8.958423 -3.823849 0 0 Z " fill="#FC7D85" transform="translate(65.04296875,132.44140625)"/>
<path d="M0 0 C0 1.875 0 1.875 -1 4 C-1.66 4.66 -2.32 5.32 -3 6 C-3.831215 11.629216 -1.731884 14.794344 1.3125 19.25 C1.716621 19.873906 2.120742 20.497812 2.537109 21.140625 C4.500878 24.10384 6.010185 26.00679 9 28 C12.5 28.5 12.5 28.5 16 28 C18.095694 26.204382 18.902531 24.740695 19.263184 22 C19.415552 18.762335 19.436943 15.531851 19.439453 12.291016 C19.496094 9.894531 19.496094 9.894531 20 6 C21.926025 5.178467 21.926025 5.178467 24 5 C26.486156 6.841597 27.001569 8.004707 28 11 C29.057557 28.327662 29.057557 28.327662 22.9375 35.375 C19.142311 38.558061 15.776647 38.461541 10.949219 38.398438 C3.94094 37.451624 -0.583408 32.806131 -4.875 27.5 C-5.936933 26.014279 -6.98127 24.515671 -8 23 C-8.639375 22.071875 -9.27875 21.14375 -9.9375 20.1875 C-11.620427 15.13872 -11.779211 10.255998 -11 5 C-8.075079 0.526591 -5.38926 -1.154841 0 0 Z " fill="#E65590" transform="translate(118,81)"/>
<path d="M0 0 C3.652113 3.217337 4.394767 5.509004 5 10.25 C4.432199 14.887042 2.233281 17.868819 -1.207031 20.957031 C-5.023719 23.343321 -9.036739 23.071871 -13.375 22.3125 C-16.778901 19.759574 -18.767148 17.216249 -20.375 13.3125 C-20.617525 8.793442 -19.902132 5.184994 -17.5625 1.3125 C-12.660795 -3.169059 -5.709895 -2.854947 0 0 Z " fill="#FFF9F4" transform="translate(186.375,62.6875)"/>
<path d="M0 0 C0.33 0.99 0.66 1.98 1 3 C-0.005469 3.362227 -1.010937 3.724453 -2.046875 4.097656 C-7.434516 6.153467 -9.471821 10.643709 -12.25 15.4375 C-13.27489 17.145223 -14.300894 18.852278 -15.328125 20.558594 C-15.770596 21.314548 -16.213066 22.070503 -16.668945 22.849365 C-18 25 -18 25 -19.588867 27.093994 C-21.309762 29.418393 -22.356446 31.059318 -22 34 C-15.993567 33.504056 -11.811503 30.200443 -7.578125 26.253906 C-6 25 -6 25 -3 24.25 C-2.34 24.4975 -1.68 24.745 -1 25 C-0.700551 29.092463 -2.213273 31.61108 -4.6875 34.6875 C-8.966483 39.259841 -12.78685 41.139988 -19.0625 41.4375 C-22.400416 41.311636 -24.04963 40.976178 -27.125 39.5 C-29.18783 36.749559 -29.837861 34.850545 -29.613281 31.398438 C-28.246707 26.054001 -25.002097 21.558958 -22 17 C-21.413477 16.082188 -20.826953 15.164375 -20.222656 14.21875 C-15.221398 6.68851 -9.783941 -0.832676 0 0 Z " fill="#E75690" transform="translate(49,51)"/>
<path d="M0 0 C5.043185 3.635784 7.007902 8.031908 8 14 C8.224591 17.105407 8.293562 20.199546 8.3125 23.3125 C8.318059 24.101648 8.323618 24.890796 8.329346 25.703857 C8.239087 32.922244 8.239087 32.922244 6 36 C3.138797 37.430601 1.159894 37.386926 -2 37 C-5.25978 33.003894 -5.421824 29.143301 -5.5 24.1875 C-5.717418 18.158415 -6.641288 13.537845 -9 8 C-9.375 4.625 -9.375 4.625 -9 2 C-5.481755 -0.345497 -4.142243 -0.579914 0 0 Z " fill="#FFFDFC" transform="translate(195,95)"/>
<path d="M0 0 C4.141829 0.862881 5.562265 2.183491 8 5.625 C8.767088 8.485718 8.804219 10.770024 8 13.625 C5.4375 16.6875 5.4375 16.6875 2 18.625 C-1.6875 18.75 -1.6875 18.75 -5 17.625 C-7.559091 14.818255 -7.963506 12.880459 -8.5 9.125 C-8 5.625 -8 5.625 -5.875 2.6875 C-3 0.625 -3 0.625 0 0 Z " fill="#373431" transform="translate(43,103.375)"/>
<path d="M0 0 C3.330293 0.986753 4.334076 1.355253 6.375 4 C7.064427 7.067949 6.947604 9.9155 6.375 13 C3.920695 16.537087 2.534012 17.763467 -1.6875 18.625 C-4.625 18 -4.625 18 -7 16 C-9.074607 12.169956 -9.602881 9.26322 -8.625 5 C-5.957335 1.038922 -4.825984 0 0 0 Z " fill="#34322F" transform="translate(99.625,115)"/>
<path d="M0 0 C2.5625 0.3125 2.5625 0.3125 4.207031 1.546875 C5.938798 3.802664 5.905176 5.062295 5.8125 7.875 C5.797031 8.660039 5.781562 9.445078 5.765625 10.253906 C5.5625 12.3125 5.5625 12.3125 4.5625 14.3125 C2.25 14.75 2.25 14.75 -0.4375 14.3125 C-3.619814 11.47422 -4.37862 9.891488 -4.8125 5.625 C-4.374525 1.756221 -3.966437 0.508518 0 0 Z " fill="#37302F" transform="translate(43.4375,137.6875)"/>
<path d="M0 0 C2.4375 0.8125 2.4375 0.8125 4.4375 2.8125 C4.823013 6.282117 4.58713 8.450237 3.25 11.6875 C1.4375 13.8125 1.4375 13.8125 -1.125 14.3125 C-3.5625 13.8125 -3.5625 13.8125 -5.5625 10.8125 C-6.119032 7.227567 -6.205275 3.928898 -4.375 0.75 C-2.5625 -0.1875 -2.5625 -0.1875 0 0 Z " fill="#37302F" transform="translate(61.5625,141.1875)"/>
<path d="M0 0 C0.99 0.33 1.98 0.66 3 1 C2.038639 3.018857 1.0293 5.014921 0 7 C-0.713672 10.737718 -0.713672 10.737718 -1 14 C-2.578125 12.785156 -2.578125 12.785156 -4 11 C-3.671875 8.808594 -3.671875 8.808594 -2.75 6.4375 C-2.456094 5.652461 -2.162188 4.867422 -1.859375 4.058594 C-1.286111 2.685367 -0.66549 1.33098 0 0 Z " fill="#F9C2AD" transform="translate(21,73)"/>
</svg>
