<?xml version="1.0" encoding="UTF-8"?>
<!-- Generator: visioncortex VTracer 0.6.4 -->
<svg version="1.1" xmlns="http://www.w3.org/2000/svg" width="240" height="240">
<path d="M0 0 C0.8125 1.9375 0.8125 1.9375 1 4 C-1 7 -1 7 -3.375 7.667969 C-4.24125 7.839414 -5.1075 8.010859 -6 8.1875 C-8.411533 8.761127 -8.411533 8.761127 -10 10 C-9.042372 12.509828 -7.538051 14.094463 -5.726562 16.0625 C-2.7726 19.377353 -2.717629 22.673776 -2.78125 27 C-3.104395 29.95447 -4.126342 31.724844 -6 34 C-9.421767 36.566325 -12.846404 36.364351 -17 36 C-20.649763 34.341017 -23.124127 32.564159 -25 29 C-25.746399 25.007128 -26 21.057114 -26 17 C-27.629346 21.121288 -28.60382 23.789972 -27 28 C-26.170237 29.122621 -25.311599 30.224044 -24.4375 31.3125 C-12.250774 46.854992 -8.287936 64.590155 -10 84 C-11.26071 90.63567 -13.800409 96.566188 -16.4375 102.75 C-22.453361 117.095516 -24.800424 130.719201 -26.012207 146.135986 C-27.33904 162.717245 -27.33904 162.717245 -30.523438 167.09375 C-35.61754 170.962688 -39.778276 171.795232 -46.152344 171.464844 C-50.304523 170.787053 -52.653371 169.546348 -56 167 C-58.465814 163.30128 -58.358818 161.036671 -58.5625 156.625 C-58.685381 154.08212 -58.829395 151.540124 -59 149 C-59.050273 148.062852 -59.100547 147.125703 -59.152344 146.160156 C-59.842935 143.709036 -59.842935 143.709036 -62.6875 142.582031 C-67.334463 141.48982 -67.334463 141.48982 -72 142 C-73.176511 145.519435 -73.059869 148.595154 -73.015625 152.296875 C-72.991595 157.992029 -74.332015 162.028745 -78.0625 166.4375 C-81.415388 169.141442 -83.614461 169.161458 -87.875 169.1875 C-88.924297 169.20168 -89.973594 169.215859 -91.054688 169.230469 C-93.976806 169.001815 -95.564335 168.576018 -98 167 C-100.144088 164.473039 -101.059775 162.878556 -100.832031 159.53125 C-100.743086 158.675312 -100.654141 157.819375 -100.5625 156.9375 C-100.779063 154.988438 -100.779063 154.988438 -101 153 C-103.784744 153.419547 -105.923824 154.526699 -108.421875 155.808594 C-111 157 -111 157 -115 157 C-115.531309 159.834798 -115.531309 159.834798 -115.320312 163.386719 C-115.309909 164.040742 -115.299506 164.694765 -115.288788 165.368607 C-115.252956 167.475779 -115.190699 169.581063 -115.125 171.6875 C-115.06963 173.775912 -115.020114 175.864023 -114.982635 177.952835 C-114.946949 179.861668 -114.892146 181.770114 -114.836426 183.678467 C-115.035874 187.72846 -115.675033 190.713161 -118.628906 193.582031 C-123.824223 196.888142 -127.878826 197.981094 -134 197 C-137.772746 196.079818 -140.861602 195.17812 -143.602295 192.341797 C-145.471623 189.209815 -145.247791 187.10982 -145.089844 183.484375 C-145.071152 182.233984 -145.052461 180.983594 -145.033203 179.695312 C-144.968996 177.048408 -144.869579 174.402141 -144.736328 171.757812 C-144.697036 166.757269 -144.697036 166.757269 -146 162 C-149.203892 160.944777 -151.569851 161.195526 -154.903809 161.624512 C-157.891447 161.986835 -159.410717 161.759633 -162.199219 160.835938 C-163.123477 160.890078 -164.047734 160.944219 -165 161 C-166.086774 164.485203 -165.882374 168.005094 -165.8125 171.625 C-165.811218 173.638031 -165.817483 175.651084 -165.832031 177.664062 C-165.818899 178.565923 -165.805767 179.467783 -165.792236 180.396973 C-166.103849 184.301096 -167.008971 187.104877 -169.9375 189.75 C-174.700414 192.636615 -179.599433 192.470345 -185 192 C-190.299451 190.107339 -190.299451 190.107339 -192.116699 187.234863 C-193.160518 184.593869 -193.417193 182.323679 -193.632812 179.492188 C-193.758496 177.887305 -193.758496 177.887305 -193.886719 176.25 C-194.004668 174.579375 -194.004668 174.579375 -194.125 172.875 C-194.211367 171.784453 -194.297734 170.693906 -194.386719 169.570312 C-194.7738 164.433802 -194.99941 159.46662 -194.742188 154.320312 C-194.654584 151.974211 -194.654584 151.974211 -195 150 C-197.175625 148.426917 -197.175625 148.426917 -200 148 C-211.910543 140.072591 -219.938096 129.565026 -223.613281 115.683594 C-225.71841 101.075278 -223.930759 86.641511 -216 74 C-214.476968 72.213115 -212.935014 70.442192 -211.375 68.6875 C-209.275338 66.347642 -209.275338 66.347642 -208 64 C-209.75 60.75 -209.75 60.75 -213 59 C-214 58 -214 58 -214.5 54.6875 C-214.40767 48.212877 -210.423705 43.245375 -207 38 C-206.316797 36.912031 -205.633594 35.824062 -204.929688 34.703125 C-196.607203 21.72891 -196.607203 21.72891 -189 20 C-183.9561 20.364958 -180.873132 21.04761 -177.375 24.863281 C-174.319467 27.337806 -174.319467 27.337806 -171.669678 26.550049 C-168.833039 25.383831 -166.15189 24.052838 -163.4375 22.625 C-161.446273 21.652978 -159.454091 20.68291 -157.460938 19.714844 C-156.509287 19.240308 -155.557637 18.765771 -154.577148 18.276855 C-123.599052 2.92867 -84.439376 1.741154 -51.804688 11.914062 C-49.109584 12.957571 -46.972418 14.239233 -44.5625 15.8125 C-43.386875 16.204375 -42.21125 16.59625 -41 17 C-38.356655 14.40071 -36.797159 11.214049 -35 8 C-32.75 5.4375 -32.75 5.4375 -30 4 C-27.418558 3.941044 -24.871869 4.065505 -22.292969 4.183594 C-19.72015 4.2348 -19.72015 4.2348 -17.75 1.625 C-17.1725 0.75875 -16.595 -0.1075 -16 -1 C-10.337813 -3.76818 -5.250317 -3.500212 0 0 Z M-16 17 C-16.713293 20.138488 -17.207372 22.326039 -16.25 25.4375 C-15.8375 25.953125 -15.425 26.46875 -15 27 C-14.01 26.67 -13.02 26.34 -12 26 C-12.14272 22.71745 -12.433894 20.679327 -14.5625 18.125 C-15.036875 17.75375 -15.51125 17.3825 -16 17 Z " fill="#FED1B0" transform="translate(233,30)"/>
<path d="M0 0 C5.733739 3.022143 11.536301 7.355473 13.957031 13.558594 C14.489221 19.146587 14.207187 22.791699 10.957031 27.558594 C3.581393 33.243981 -3.010525 33.091053 -12.042969 32.558594 C-19.928049 31.19242 -26.8855 27.882245 -32.417969 22.058594 C-35.41594 17.44633 -36.726312 13.360638 -36.625 7.84375 C-35.488955 3.38344 -31.794079 0.921858 -28.042969 -1.441406 C-18.927017 -5.872978 -8.958423 -3.823849 0 0 Z " fill="#FC7D85" transform="translate(65.04296875,132.44140625)"/>
<path d="M0 0 C0 1.875 0 1.875 -1 4 C-1.66 4.66 -2.32 5.32 -3 6 C-3.831215 11.629216 -1.731884 14.794344 1.3125 19.25 C1.716621 19.873906 2.120742 20.497812 2.537109 21.140625 C4.500878 24.10384 6.010185 26.00679 9 28 C12.5 28.5 12.5 28.5 16 28 C18.095694 26.204382 18.902531 24.740695 19.263184 22 C19.415552 18.762335 19.436943 15.531851 19.439453 12.291016 C19.496094 9.894531 19.496094 9.894531 20 6 C21.926025 5.178467 21.926025 5.178467 24 5 C26.486156 6.841597 27.001569 8.004707 28 11 C29.057557 28.327662 29.057557 28.327662 22.9375 35.375 C19.142311 38.558061 15.776647 38.461541 10.949219 38.398438 C3.94094 37.451624 -0.583408 32.806131 -4.875 27.5 C-5.936933 26.014279 -6.98127 24.515671 -8 23 C-8.639375 22.071875 -9.27875 21.14375 -9.9375 20.1875 C-11.620427 15.13872 -11.779211 10.255998 -11 5 C-8.075079 0.526591 -5.38926 -1.154841 0 0 Z " fill="#E65590" transform="translate(118,81)"/>
<path d="M0 0 C1.054453 0.154687 2.108906 0.309375 3.195312 0.46875 C4.65276 7.576304 2.403827 16.05172 -0.804688 22.46875 C-2.742289 24.758642 -4.142499 26.137656 -6.804688 27.46875 C-8.76018 27.591325 -10.720394 27.644274 -12.679688 27.65625 C-13.728984 27.67043 -14.778281 27.684609 -15.859375 27.699219 C-19.831248 27.388422 -21.897227 26.473438 -24.554688 23.53125 C-26.137269 19.653926 -27.070829 16.481679 -27.019531 12.269531 C-24.62171 6.741436 -18.330331 5.058841 -13.011719 2.929688 C-8.641817 1.349513 -4.614729 0.56855 0 0 Z " fill="#FFA8A7" transform="translate(157.8046875,171.53125)"/>
<path d="M0 0 C-0.33 0.99 -0.66 1.98 -1 3 C-2.570078 3.54334 -2.570078 3.54334 -4.171875 4.097656 C-9.453897 6.170809 -11.516865 10.721434 -14.25 15.4375 C-15.27489 17.145223 -16.300894 18.852278 -17.328125 20.558594 C-17.770596 21.314548 -18.213066 22.070503 -18.668945 22.849365 C-20 25 -20 25 -21.588867 27.093994 C-23.309762 29.418393 -24.356446 31.059318 -24 34 C-17.993567 33.504056 -13.811503 30.200443 -9.578125 26.253906 C-8 25 -8 25 -5 24.25 C-4.34 24.4975 -3.68 24.745 -3 25 C-2.700551 29.092463 -4.213273 31.61108 -6.6875 34.6875 C-11.505491 39.847193 -16.622442 41.689207 -23.585938 42.183594 C-26.192558 41.985356 -27.500118 41.557974 -29.625 40.0625 C-31.990437 37.012332 -32.958093 35.242178 -32.644531 31.355469 C-31.1913 26.044569 -27.980935 21.567018 -25 17 C-24.316797 15.912031 -23.633594 14.824062 -22.929688 13.703125 C-17.218156 4.799217 -11.597748 -3.015415 0 0 Z " fill="#E6538F" transform="translate(51,51)"/>
<path d="M0 0 C4.141829 0.862881 5.562265 2.183491 8 5.625 C8.767088 8.485718 8.804219 10.770024 8 13.625 C5.4375 16.6875 5.4375 16.6875 2 18.625 C-1.6875 18.75 -1.6875 18.75 -5 17.625 C-7.559091 14.818255 -7.963506 12.880459 -8.5 9.125 C-8 5.625 -8 5.625 -5.875 2.6875 C-3 0.625 -3 0.625 0 0 Z " fill="#373431" transform="translate(43,103.375)"/>
<path d="M0 0 C3.330293 0.986753 4.334076 1.355253 6.375 4 C7.064427 7.067949 6.947604 9.9155 6.375 13 C3.920695 16.537087 2.534012 17.763467 -1.6875 18.625 C-4.625 18 -4.625 18 -7 16 C-9.074607 12.169956 -9.602881 9.26322 -8.625 5 C-5.957335 1.038922 -4.825984 0 0 0 Z " fill="#34322F" transform="translate(99.625,115)"/>
<path d="M0 0 C2.5625 0.3125 2.5625 0.3125 4.207031 1.546875 C5.938798 3.802664 5.905176 5.062295 5.8125 7.875 C5.797031 8.660039 5.781562 9.445078 5.765625 10.253906 C5.5625 12.3125 5.5625 12.3125 4.5625 14.3125 C2.25 14.75 2.25 14.75 -0.4375 14.3125 C-3.619814 11.47422 -4.37862 9.891488 -4.8125 5.625 C-4.374525 1.756221 -3.966437 0.508518 0 0 Z " fill="#37302F" transform="translate(43.4375,137.6875)"/>
<path d="M0 0 C2.4375 0.8125 2.4375 0.8125 4.4375 2.8125 C4.823013 6.282117 4.58713 8.450237 3.25 11.6875 C1.4375 13.8125 1.4375 13.8125 -1.125 14.3125 C-3.5625 13.8125 -3.5625 13.8125 -5.5625 10.8125 C-6.119032 7.227567 -6.205275 3.928898 -4.375 0.75 C-2.5625 -0.1875 -2.5625 -0.1875 0 0 Z " fill="#37302F" transform="translate(61.5625,141.1875)"/>
</svg>
