<?xml version="1.0" encoding="UTF-8"?>
<!-- Generator: visioncortex VTracer 0.6.4 -->
<svg version="1.1" xmlns="http://www.w3.org/2000/svg" width="240" height="240">
<path d="M0 0 C5.78472 -0.855363 9.328919 1.524867 14.0625 4.4375 C20.118034 8.385142 20.118034 8.385142 27 10 C29.45667 9.119559 29.45667 9.119559 31.8125 7.6875 C36.22133 5.349976 40.053154 3.691683 45 3 C45.986133 2.846602 46.972266 2.693203 47.988281 2.535156 C51.266602 2.242949 53.811288 2.163541 57 3 C58.912302 5.328616 59.799606 7.528546 60.867188 10.339844 C62.355959 13.83589 64.479299 15.745783 67.238281 18.277344 C69.121081 20.118396 70.592705 22.048589 72.125 24.1875 C76.59782 30.271936 82.071757 33.245112 88.671875 36.730469 C91 38 91 38 92 39 C91.830858 41.394696 91.608614 43.777159 91.351562 46.164062 C91.565547 46.769922 91.779531 47.375781 92 48 C94.335309 47.680799 96.66827 47.344373 99 47 C101.492775 47.110838 103.982924 47.301133 106.464844 47.558594 C107.143017 47.626597 107.821189 47.6946 108.519913 47.764664 C110.660002 47.981068 112.798664 48.209071 114.9375 48.4375 C116.39901 48.587361 117.860598 48.736457 119.322266 48.884766 C122.882462 49.247674 126.441477 49.620988 130 50 C127.780718 52.908025 126.070309 54.953128 123 57 C121.527085 62.247259 121.637715 64.976417 124.3125 69.75 C125.203608 71.169644 126.099259 72.586448 127 74 C127.284883 74.685781 127.569766 75.371562 127.863281 76.078125 C129.409337 78.692075 131.227237 79.554337 133.875 81 C140.59504 84.691007 140.59504 84.691007 143 88 C142.722656 91.199219 142.722656 91.199219 142.0625 94.6875 C141.703483 98.140316 141.703483 98.140316 143 101 C148.522126 102.521168 153.838472 102.29699 159.52832 102.072754 C162.908396 101.973261 166.190893 102.176106 169.5625 102.4375 C170.574414 102.498086 171.586328 102.558672 172.628906 102.621094 C175 103 175 103 177 105 C176.278125 105.825 175.55625 106.65 174.8125 107.5 C174.214375 108.325 173.61625 109.15 173 110 C175.214339 111.087427 175.214339 111.087427 178 112 C179.465309 114.699254 180.059372 117.25728 180.75 120.25 C182.617099 125.851297 185.834029 130.535105 189.726562 134.964844 C193.728099 139.601696 194.814223 142.984946 194.464844 149.128906 C193.459195 155.340267 191.137535 160.989368 188.050781 166.445312 C187.704023 167.618359 187.357266 168.791406 187 170 C188.594557 172.611087 189.821797 174.090577 192 176.125 C192.548738 176.676316 193.097476 177.227632 193.662842 177.795654 C195.420651 179.553464 197.209225 181.275854 199 183 C200.721073 184.708549 202.433414 186.425526 204.145508 188.143066 C205.254887 189.25407 206.367515 190.361838 207.483398 191.466309 C210.928202 194.880895 214.192827 198.378246 217.296875 202.109375 C219.052272 204.124921 219.052272 204.124921 221.453125 206.203125 C227.725123 211.859467 227.725123 211.859467 228.523438 215.171875 C228.2503 218.9958 226.948847 221.060105 224.5 223.9375 C223.2625 224.958438 223.2625 224.958438 222 226 C221.67 226.33 221.34 226.66 221 227 C216.947083 227.822363 213.41576 227.915659 209.874023 225.625 C207.75095 223.674459 205.806504 221.640213 203.875 219.5 C202.879199 218.455859 202.879199 218.455859 201.863281 217.390625 C198.669785 214.015893 195.5928 210.546887 192.546875 207.039062 C188.617029 202.525245 184.539813 198.172262 180.375 193.875 C179.268984 192.687773 179.268984 192.687773 178.140625 191.476562 C177.421328 190.739219 176.702031 190.001875 175.960938 189.242188 C175.319468 188.570425 174.677998 187.898662 174.01709 187.206543 C173.35145 186.808384 172.685811 186.410225 172 186 C169.382504 186.634911 169.382504 186.634911 167 188 C158.270942 191.854233 149.700702 195.067077 140 194 C136.99811 192.499055 134.879257 190.790626 133 188 C133 187.34 133 186.68 133 186 C130.902646 185.183202 130.902646 185.183202 128.3125 184.5625 C124.484151 183.487304 121.201704 182.45464 118 180 C118 179.34 118 178.68 118 178 C115.809754 177.316718 113.603075 176.84379 111.359375 176.367188 C108.577417 174.755126 108.4352 173.956657 107.273438 171.0625 C106.119598 168.51012 105.506723 167.28066 103.033203 165.910645 C100.658271 165.169111 98.314943 164.610676 95.875 164.125 C94.246184 163.757943 92.618507 163.385779 90.992188 163.007812 C90.274019 162.859731 89.55585 162.71165 88.815918 162.559082 C87 162 87 162 85 160 C91.405933 161.106908 97.713639 162.339452 104 164 C103.67 163.01 103.34 162.02 103 161 C100.839747 160.079095 98.646061 159.235632 96.4375 158.4375 C92.816406 156.882812 92.816406 156.882812 90 155 C89.46766 152.175517 89.842089 150.034237 90.261719 147.207031 C90.175352 146.478711 90.088984 145.750391 90 145 C87.252613 143.516318 84.77029 143.013852 81.699219 142.5 C79 142 79 142 76 140 C75.007812 137.136719 75.007812 137.136719 74.125 133.6875 C72.575043 128.413018 71.475211 125.405052 67 122 C66.218828 121.342578 65.437656 120.685156 64.632812 120.007812 C59.960918 115.838733 59.960918 115.838733 54.375 113.324219 C52 112 52 112 51.399658 109.902344 C51.222654 109.0825 51.045649 108.262656 50.863281 107.417969 C50.281042 104.973354 50.281042 104.973354 49 103 C45.4145 101.822636 41.92232 102.104874 38.1875 102.3125 C30.645422 102.63663 30.645422 102.63663 28 102 C28.238281 99.292969 28.238281 99.292969 30 96 C31.473822 93.414642 31.473822 93.414642 32 91 C30.036023 89.547498 30.036023 89.547498 27.25 88.8125 C22.133056 87.133056 22.133056 87.133056 20 85 C19.472656 83.152344 19.472656 83.152344 19.0625 80.9375 C18.709035 79.291516 18.354851 77.645686 18 76 C17.842734 75.236875 17.685469 74.47375 17.523438 73.6875 C15.932289 67.577489 12.945497 64.923331 8.171875 60.945312 C4.885923 58.002139 2.860158 55.374307 2 51 C2.219145 42.015075 4.919168 33.406994 9.355469 25.621094 C10.326408 22.85109 10.326408 22.85109 8.550781 19.878906 C7.82296 18.761323 7.07603 17.655998 6.3125 16.5625 C-0.95722 5.625639 -0.95722 5.625639 -1.0625 1.625 C-0.536562 0.820625 -0.536562 0.820625 0 0 Z " fill="#D78265" transform="translate(7,7)"/>
<path d="M0 0 C7.539878 0.031505 15.018128 0.433347 22.5354 1.003418 C23.709092 1.082051 24.882783 1.160684 26.092041 1.241699 C27.209014 1.325488 28.325986 1.409277 29.476807 1.495605 C30.989965 1.605579 30.989965 1.605579 32.533691 1.717773 C34.9729 2.128418 34.9729 2.128418 36.9729 4.128418 C36.251025 4.953418 35.52915 5.778418 34.7854 6.628418 C34.187275 7.453418 33.58915 8.278418 32.9729 9.128418 C35.18724 10.215845 35.18724 10.215845 37.9729 11.128418 C39.43821 13.827672 40.032273 16.385698 40.7229 19.378418 C42.589999 24.979715 45.806929 29.663523 49.699463 34.093262 C53.701 38.730114 54.787123 42.113364 54.437744 48.257324 C53.432095 54.468685 51.110435 60.117786 48.023682 65.57373 C47.503545 67.333301 47.503545 67.333301 46.9729 69.128418 C48.567457 71.739505 49.794697 73.218995 51.9729 75.253418 C52.521638 75.804734 53.070376 76.35605 53.635742 76.924072 C55.393552 78.681882 57.182126 80.404272 58.9729 82.128418 C60.693973 83.836967 62.406314 85.553944 64.118408 87.271484 C65.227787 88.382488 66.340415 89.490256 67.456299 90.594727 C70.901103 94.009313 74.165727 97.506664 77.269775 101.237793 C79.025173 103.253339 79.025173 103.253339 81.426025 105.331543 C87.698024 110.987885 87.698024 110.987885 88.496338 114.300293 C88.2232 118.124218 86.921747 120.188523 84.4729 123.065918 C83.6479 123.746543 82.8229 124.427168 81.9729 125.128418 C81.6429 125.458418 81.3129 125.788418 80.9729 126.128418 C76.919983 126.950781 73.388661 127.044077 69.846924 124.753418 C67.723851 122.802877 65.779405 120.768631 63.8479 118.628418 C63.184033 117.932324 62.520166 117.23623 61.836182 116.519043 C58.642685 113.144311 55.5657 109.675305 52.519775 106.16748 C48.589929 101.653663 44.512713 97.30068 40.3479 93.003418 C39.241885 91.816191 39.241885 91.816191 38.113525 90.60498 C37.394229 89.867637 36.674932 89.130293 35.933838 88.370605 C35.292368 87.698843 34.650898 87.02708 33.98999 86.334961 C33.324351 85.936802 32.658711 85.538643 31.9729 85.128418 C29.355405 85.763329 29.355405 85.763329 26.9729 87.128418 C18.243842 90.982651 9.673603 94.195495 -0.0271 93.128418 C-3.028989 91.627473 -5.147843 89.919044 -7.0271 87.128418 C-7.0271 86.468418 -7.0271 85.808418 -7.0271 85.128418 C-9.124454 84.31162 -9.124454 84.31162 -11.7146 83.690918 C-15.542948 82.615722 -18.825395 81.583058 -22.0271 79.128418 C-22.0271 78.468418 -22.0271 77.808418 -22.0271 77.128418 C-24.217345 76.445136 -26.424025 75.972208 -28.667725 75.495605 C-31.449683 73.883544 -31.5919 73.085075 -32.753662 70.190918 C-33.907501 67.638538 -34.520377 66.409078 -36.993896 65.039062 C-39.368829 64.297529 -41.712156 63.739094 -44.1521 63.253418 C-45.780916 62.886361 -47.408592 62.514197 -49.034912 62.13623 C-49.753081 61.988149 -50.47125 61.840068 -51.211182 61.6875 C-53.0271 61.128418 -53.0271 61.128418 -55.0271 59.128418 C-48.621167 60.235325 -42.313461 61.46787 -36.0271 63.128418 C-36.3571 62.138418 -36.6871 61.148418 -37.0271 60.128418 C-40.378102 58.699903 -43.77585 57.501563 -47.218506 56.312012 C-50.0271 54.128418 -50.0271 54.128418 -50.853027 51.848389 C-51.233051 48.809042 -51.183309 46.976145 -50.0271 44.128418 C-46.341189 41.626439 -42.218705 40.651068 -37.9646 39.440918 C-25.711018 35.322011 -15.991136 30.408626 -9.0271 19.128418 C-6.228711 13.342277 -4.5898 7.337732 -3.0271 1.128418 C-2.0271 0.128418 -2.0271 0.128418 0 0 Z " fill="#D68265" transform="translate(147.027099609375,107.87158203125)"/>
<path d="M0 0 C0.75 1.4375 0.75 1.4375 1 4 C1.54429 8.027744 2.88483 10.829396 4.964844 14.253906 C6 16 6 16 6.824219 18.027344 C8.398325 20.668286 10.192973 21.535629 12.875 23 C16.462787 24.970606 19.482165 26.725094 22 30 C22.566406 33.199219 22.566406 33.199219 22.5625 36.6875 C22.584414 37.846367 22.606328 39.005234 22.628906 40.199219 C22.421367 41.123477 22.213828 42.047734 22 43 C21.211094 43.128906 20.422188 43.257812 19.609375 43.390625 C18.317734 43.692266 18.317734 43.692266 17 44 C16.028039 46.725783 15.340699 49.261112 14.6875 52.0625 C11.187958 64.14831 3.394912 73.329756 -7.631348 79.463867 C-18.22416 84.541601 -28.71591 87.950327 -40.4375 85.0625 C-42.860806 84.032959 -43.776777 83.420787 -45.019531 81.078125 C-45.774435 78.736711 -46.390655 76.383044 -47 74 C-49.544103 66.494192 -54.48817 62.318474 -61 58 C-62.486322 57.323281 -63.985402 56.673314 -65.5 56.0625 C-68.108542 54.897781 -68.871272 54.23054 -70.289062 51.691406 C-71.665982 47.464134 -71.665982 47.464134 -71 45 C-68.461978 44.763405 -66.469407 45.421537 -64.039062 46.148438 C-63.036172 46.429453 -62.033281 46.710469 -61 47 C-59.739297 47.363516 -58.478594 47.727031 -57.179688 48.101562 C-54.349941 48.415384 -53.292616 48.195462 -50.896973 46.595215 C-48.637838 44.491451 -46.563145 42.296141 -44.5 40 C-43.075423 38.476819 -41.648354 36.955964 -40.21875 35.4375 C-39.52032 34.688071 -38.82189 33.938643 -38.102295 33.166504 C-35.48293 30.467137 -32.703665 28.017248 -29.844238 25.577148 C-27.220477 23.333371 -24.713714 20.978089 -22.1875 18.625 C-16.650629 13.506876 -10.894682 8.702708 -5 4 C-4.086055 3.226562 -3.172109 2.453125 -2.230469 1.65625 C-1.126387 0.836406 -1.126387 0.836406 0 0 Z " fill="#D68265" transform="translate(128,65)"/>
<path d="M0 0 C7.539878 0.031505 15.018128 0.433347 22.5354 1.003418 C23.709092 1.082051 24.882783 1.160684 26.092041 1.241699 C27.209014 1.325488 28.325986 1.409277 29.476807 1.495605 C30.989965 1.605579 30.989965 1.605579 32.533691 1.717773 C34.9729 2.128418 34.9729 2.128418 36.9729 4.128418 C34.95864 6.283805 32.934392 8.187711 30.7229 10.128418 C29.32959 11.388476 27.939092 12.651648 26.551025 13.91748 C25.807881 14.594561 25.064736 15.271641 24.299072 15.969238 C20.261095 19.717335 16.365786 23.605668 12.4729 27.503418 C11.732656 28.239473 10.992412 28.975527 10.229736 29.733887 C5.605045 34.369017 1.24106 39.165221 -3.0271 44.128418 C-5.236195 46.603492 -7.458486 49.065588 -9.687256 51.522949 C-11.297442 53.315927 -12.887594 55.127034 -14.460693 56.952637 C-15.245732 57.85627 -16.030771 58.759902 -16.8396 59.690918 C-17.547295 60.517207 -18.25499 61.343496 -18.984131 62.194824 C-21.212585 64.303973 -22.033633 64.788304 -25.0271 65.128418 C-27.560791 64.339844 -27.560791 64.339844 -30.378662 63.07373 C-31.902334 62.398906 -31.902334 62.398906 -33.456787 61.710449 C-35.038467 60.989219 -35.038467 60.989219 -36.6521 60.253418 C-37.714287 59.780332 -38.776475 59.307246 -39.87085 58.819824 C-47.108015 55.58796 -47.108015 55.58796 -50.0271 54.128418 C-51.057147 50.602221 -51.178968 47.628087 -50.0271 44.128418 C-46.361578 41.604869 -42.212994 40.649443 -37.9646 39.440918 C-25.711018 35.322011 -15.991136 30.408626 -9.0271 19.128418 C-6.228711 13.342277 -4.5898 7.337732 -3.0271 1.128418 C-2.0271 0.128418 -2.0271 0.128418 0 0 Z " fill="#98B985" transform="translate(147.027099609375,107.87158203125)"/>
<path d="M0 0 C2.527797 0.126495 5.017566 0.317307 7.535156 0.558594 C8.288407 0.626597 9.041657 0.6946 9.817734 0.764664 C12.233147 0.9839 14.647794 1.21062 17.0625 1.4375 C18.695919 1.58708 20.329382 1.736175 21.962891 1.884766 C25.9758 2.250871 29.988036 2.623691 34 3 C31.403964 6.313692 28.974447 9.007547 25.625 11.5625 C15.369652 19.595606 5.67149 28.200999 -3.806396 37.132568 C-7.4748 40.588842 -11.189224 43.95376 -15.046875 47.199219 C-17.184173 49.169807 -19.101157 51.302362 -21.057617 53.449951 C-26.854363 59.679393 -26.854363 59.679393 -30.09375 60.585938 C-32.252462 60.347064 -33.979217 59.795949 -36 59 C-44.492668 56.133913 -52.348516 55.600744 -61.266357 55.730469 C-65.898619 55.677286 -65.898619 55.677286 -68 55 C-67.675781 52.195312 -67.675781 52.195312 -66 49 C-65.62875 47.741875 -65.2575 46.48375 -64.875 45.1875 C-63.828125 43.386719 -63.828125 43.386719 -62 42 C-58.79551 41.597558 -55.729444 41.505857 -52.507324 41.48877 C-44.68168 41.288476 -38.46539 38.37424 -32 34 C-32 33.34 -32 32.68 -32 32 C-30.298438 31.7525 -30.298438 31.7525 -28.5625 31.5 C-22.161091 30.054885 -18.943939 24.881993 -15 20 C-14.236875 19.153086 -13.47375 18.306172 -12.6875 17.433594 C-9.073851 13.310162 -6.636435 10.469439 -6.3125 4.875 C-6.209375 3.59625 -6.10625 2.3175 -6 1 C-3.5 0.5 -3.5 0.5 -1 1 C-0.67 0.67 -0.34 0.34 0 0 Z " fill="#98B986" transform="translate(103,54)"/>
<path d="M0 0 C1.878906 -0.078125 1.878906 -0.078125 4 1 C6.339844 3.265625 6.339844 3.265625 8.9375 6.25 C13.062446 10.912122 17.314097 15.382657 21.75 19.75 C25.782048 23.733539 29.668458 27.747945 33.296875 32.109375 C35.052272 34.124921 35.052272 34.124921 37.453125 36.203125 C43.725123 41.859467 43.725123 41.859467 44.523438 45.171875 C44.2503 48.9958 42.948847 51.060105 40.5 53.9375 C39.675 54.618125 38.85 55.29875 38 56 C37.67 56.33 37.34 56.66 37 57 C32.947083 57.822363 29.41576 57.915659 25.874023 55.625 C23.75095 53.674459 21.806504 51.640213 19.875 49.5 C19.211133 48.803906 18.547266 48.107812 17.863281 47.390625 C14.667852 44.01385 11.598419 40.542314 8.570312 37.015625 C3.931824 31.670908 -1.236912 26.850288 -6.386719 22.003906 C-7.125352 21.285898 -7.863984 20.567891 -8.625 19.828125 C-9.297891 19.187783 -9.970781 18.547441 -10.664062 17.887695 C-12 16 -12 16 -11.819824 13.885742 C-10.713232 11.340382 -9.14402 9.893294 -7.125 8 C-4.960239 5.95506 -3.122 4.187108 -1.492188 1.6875 C-0.999766 1.130625 -0.507344 0.57375 0 0 Z " fill="#F2C875" transform="translate(191,177)"/>
<path d="M0 0 C4.59565 0.437681 7.646573 2.255912 11.570312 4.578125 C12.272852 4.973867 12.975391 5.369609 13.699219 5.777344 C17.392046 7.906479 20.758651 9.94363 23.445312 13.328125 C23.381797 16.440383 23.192905 18.434661 21.164062 20.859375 C19.211423 22.527995 17.316653 23.640406 15.007812 24.765625 C14.245977 25.156211 13.484141 25.546797 12.699219 25.949219 C10.445313 26.328125 10.445313 26.328125 8.453125 24.921875 C5.866408 21.58028 3.801059 18.08328 1.757812 14.390625 C1.35498 13.687441 0.952148 12.984258 0.537109 12.259766 C-1.465392 8.680755 -3.214587 5.496336 -3.554688 1.328125 C-2.554688 0.328125 -2.554688 0.328125 0 0 Z " fill="#F8C773" transform="translate(9.5546875,6.671875)"/>
</svg>
