<?xml version="1.0" encoding="UTF-8"?>
<!-- Generator: visioncortex VTracer 0.6.4 -->
<svg version="1.1" xmlns="http://www.w3.org/2000/svg" width="240" height="240">
<path d="M0 0 C2.570337 1.886871 3.751209 3.056308 4.566406 6.148438 C4.558774 10.498741 4.441437 12.999686 1.3125 16.1875 C0.167812 17.579687 0.167812 17.579687 -1 19 C0.173702 21.933192 0.173702 21.933192 2 25 C2.611119 29.152665 2.484191 32.775281 0.9375 36.6875 C-4.339292 42.985607 -4.339292 42.985607 -8 45 C-10.855469 45.144531 -10.855469 45.144531 -13.75 45.0625 C-16.267204 44.976156 -16.267204 44.976156 -18 46 C-17.276691 50.666733 -14.993479 54.754717 -13 59 C-11.206605 64.208569 -10.742388 69.517876 -10.4375 75 C-10.342754 76.670625 -10.342754 76.670625 -10.246094 78.375 C-11.040334 82.193936 -11.754293 83.132418 -14.21875 85.976562 C-18.802341 91.466855 -20.57772 97.581467 -22.483154 104.331543 C-23.06957 106.399937 -23.691574 108.455239 -24.318359 110.511719 C-25.87461 115.703174 -25.87461 115.703174 -27 121 C-26.01 122.485 -26.01 122.485 -25 124 C-23.797323 130.094334 -25.018293 134.523399 -28 139.875 C-31.361657 145.981351 -31.884519 151.125383 -31 158 C-30.67 158.66 -30.34 159.32 -30 160 C-29.444872 164.632135 -29.363576 167.981721 -31.875 172 C-36.2659 176.132612 -41.675486 175.545463 -47.398438 175.40625 C-52.233244 174.860892 -52.233244 174.860892 -54.4375 172.4375 C-56.242659 168.46615 -56.692504 166.308913 -56 162 C-55.34 161.13375 -54.68 160.2675 -54 159.375 C-50.894659 154.134737 -51.370463 148.947277 -52 143 C-53.015646 139.202649 -54.818498 136.272253 -57 133 C-57.390137 131.0103 -57.732026 129.009801 -58 127 C-58.400898 127.565898 -58.801797 128.131797 -59.214844 128.714844 C-63.86416 134.713621 -63.86416 134.713621 -67.292969 135.578125 C-68.844177 135.650879 -70.39657 135.701764 -71.949219 135.730469 C-74.336314 135.829 -74.336314 135.829 -76.4375 138.5 C-79.814829 141.794955 -82.079767 141.468343 -86.628906 141.691406 C-89.949927 142.123631 -91.641198 143.712677 -94 146 C-96.797488 146.932496 -98.543209 147.134762 -101.4375 147.125 C-102.199336 147.127578 -102.961172 147.130156 -103.746094 147.132812 C-105.953159 147.00276 -107.879693 146.608562 -110 146 C-109.67 146.33 -109.34 146.66 -109 147 C-108.422203 153.0002 -108.691527 156.910041 -112 162 C-113.729191 166.873173 -114.065065 171.685648 -113.875 176.816406 C-113.294538 192.551758 -113.294538 192.551758 -117.375 197.1875 C-122.217115 201.441786 -126.376656 201.474895 -132.710938 201.390625 C-136.799119 200.905093 -139.043234 200.013599 -141.882812 197.046875 C-144.120924 192.946278 -144.060144 188.468213 -143 184 C-142.017734 182.857246 -142.017734 182.857246 -141.015625 181.691406 C-138.256497 178.007221 -138.229441 174.995766 -138.0625 170.5 C-138.007715 169.753633 -137.95293 169.007266 -137.896484 168.238281 C-137.657696 163.504397 -138.196306 160.971317 -141 157 C-141.245566 155.774102 -141.245566 155.774102 -141.496094 154.523438 C-141.662383 154.020703 -141.828672 153.517969 -142 153 C-143.510545 153.880191 -143.510545 153.880191 -145.0625 155.625 C-148.753302 158.981625 -151.994422 160.614956 -157 161 C-159.006133 160.875868 -161.012251 160.751306 -163.017822 160.618408 C-166.132342 160.443395 -168.930245 160.399129 -172 161 C-173.258857 165.360146 -170.643862 169.54332 -168.898438 173.492188 C-167.306781 177.934984 -167.313619 182.358435 -168 187 C-169.657565 190.173405 -171.753086 192.376543 -175 194 C-177.320313 194.34375 -177.320313 194.34375 -180.125 194.5 C-181.035078 194.572188 -181.945156 194.644375 -182.882812 194.71875 C-187.843023 193.575042 -191.073003 191.165409 -194 187 C-195.076659 182.790045 -194.986872 178.821404 -194.8125 174.5 C-194.818301 173.397852 -194.824102 172.295703 -194.830078 171.160156 C-194.731343 165.853952 -194.576311 162.120944 -191.207031 157.878906 C-190.478711 156.928867 -189.750391 155.978828 -189 155 C-190.281914 153.203353 -190.281914 153.203353 -192.875 152.4375 C-197.759043 150.181642 -200.216103 148.669763 -203 144 C-202.980469 141.652344 -202.980469 141.652344 -202.75 139.1875 C-202.498784 136.909895 -202.498784 136.909895 -203 135 C-205.248393 134.212567 -207.233352 134.248637 -209.609375 134.21875 C-213.665596 133.847592 -215.228346 131.903638 -218 129 C-222.964887 122.439257 -223.469134 113.950929 -224 106 C-224.077344 105.16082 -224.154687 104.321641 -224.234375 103.457031 C-224.679728 95.47779 -221.607806 90.8535 -217.25 84.414062 C-212.379873 77.08788 -209.461854 69.984464 -207.375 61.441406 C-203.891963 47.835791 -194.697028 37.610067 -182.9375 30.5 C-180.309558 28.967061 -177.658625 27.478922 -175 26 C-174.087102 25.480105 -174.087102 25.480105 -173.155762 24.949707 C-164.828527 20.24499 -157.503677 17.857096 -148 17 C-147.234297 16.891719 -146.468594 16.783438 -145.679688 16.671875 C-139.933415 15.866125 -134.316248 16.070334 -128.527344 16.355469 C-125.147991 16.014914 -124.22226 15.663114 -121.485596 14.006592 C-116.295009 11.332959 -111.442887 11.457776 -105.703125 11.539062 C-104.633102 11.539979 -103.56308 11.540895 -102.460632 11.54184 C-100.204829 11.547858 -97.949034 11.563552 -95.693359 11.588379 C-92.274433 11.62474 -88.856599 11.629399 -85.4375 11.628906 C-83.234366 11.638745 -81.031239 11.650405 -78.828125 11.664062 C-77.318139 11.667401 -77.318139 11.667401 -75.777649 11.670807 C-63.637929 11.82979 -54.774484 13.499617 -44.617188 20.125 C-43.32168 20.558125 -43.32168 20.558125 -42 21 C-40.716121 18.343142 -40.716121 18.343142 -40 15 C-38.414062 12.953125 -38.414062 12.953125 -36.625 11.25 C-36.039766 10.677656 -35.454531 10.105312 -34.851562 9.515625 C-31.631471 6.87977 -28.689183 5.823754 -24.625 5.125 C-21.31382 4.461694 -20.044696 4.035341 -17.3125 1.875 C-11.995749 -1.134482 -5.966181 -0.977591 0 0 Z M-137 140 C-137 140.99 -137 141.98 -137 143 C-136.34 142.01 -135.68 141.02 -135 140 C-135.66 140 -136.32 140 -137 140 Z " fill="#EAEAE9" transform="translate(233,24)"/>
<path d="M0 0 C2.570337 1.886871 3.751209 3.056308 4.566406 6.148438 C4.558774 10.498741 4.441437 12.999686 1.3125 16.1875 C0.167812 17.579687 0.167812 17.579687 -1 19 C0.173702 21.933192 0.173702 21.933192 2 25 C2.611119 29.152665 2.484191 32.775281 0.9375 36.6875 C-4.339292 42.985607 -4.339292 42.985607 -8 45 C-10.855469 45.144531 -10.855469 45.144531 -13.75 45.0625 C-16.267204 44.976156 -16.267204 44.976156 -18 46 C-17.276691 50.666733 -14.993479 54.754717 -13 59 C-11.206605 64.208569 -10.742388 69.517876 -10.4375 75 C-10.342754 76.670625 -10.342754 76.670625 -10.246094 78.375 C-11.040334 82.193936 -11.754293 83.132418 -14.21875 85.976562 C-18.802341 91.466855 -20.57772 97.581467 -22.483154 104.331543 C-23.06957 106.399937 -23.691574 108.455239 -24.318359 110.511719 C-25.87461 115.703174 -25.87461 115.703174 -27 121 C-26.01 122.485 -26.01 122.485 -25 124 C-23.797323 130.094334 -25.018293 134.523399 -28 139.875 C-31.361657 145.981351 -31.884519 151.125383 -31 158 C-30.67 158.66 -30.34 159.32 -30 160 C-29.444872 164.632135 -29.363576 167.981721 -31.875 172 C-36.2659 176.132612 -41.675486 175.545463 -47.398438 175.40625 C-52.233244 174.860892 -52.233244 174.860892 -54.4375 172.4375 C-56.242659 168.46615 -56.692504 166.308913 -56 162 C-55.34 161.13375 -54.68 160.2675 -54 159.375 C-50.894659 154.134737 -51.370463 148.947277 -52 143 C-53.015646 139.202649 -54.818498 136.272253 -57 133 C-57.390137 131.0103 -57.732026 129.009801 -58 127 C-58.400898 127.565898 -58.801797 128.131797 -59.214844 128.714844 C-63.86416 134.713621 -63.86416 134.713621 -67.292969 135.578125 C-68.844177 135.650879 -70.39657 135.701764 -71.949219 135.730469 C-74.336314 135.829 -74.336314 135.829 -76.4375 138.5 C-79.814829 141.794955 -82.079767 141.468343 -86.628906 141.691406 C-89.949927 142.123631 -91.641198 143.712677 -94 146 C-96.797488 146.932496 -98.543209 147.134762 -101.4375 147.125 C-102.199336 147.127578 -102.961172 147.130156 -103.746094 147.132812 C-105.953159 147.00276 -107.879693 146.608562 -110 146 C-109.67 146.33 -109.34 146.66 -109 147 C-108.422203 153.0002 -108.691527 156.910041 -112 162 C-113.729191 166.873173 -114.065065 171.685648 -113.875 176.816406 C-113.294538 192.551758 -113.294538 192.551758 -117.375 197.1875 C-122.217115 201.441786 -126.376656 201.474895 -132.710938 201.390625 C-136.799119 200.905093 -139.043234 200.013599 -141.882812 197.046875 C-144.120924 192.946278 -144.060144 188.468213 -143 184 C-142.017734 182.857246 -142.017734 182.857246 -141.015625 181.691406 C-138.256497 178.007221 -138.229441 174.995766 -138.0625 170.5 C-138.007715 169.753633 -137.95293 169.007266 -137.896484 168.238281 C-137.657696 163.504397 -138.196306 160.971317 -141 157 C-141.245566 155.774102 -141.245566 155.774102 -141.496094 154.523438 C-141.662383 154.020703 -141.828672 153.517969 -142 153 C-143.510545 153.880191 -143.510545 153.880191 -145.0625 155.625 C-148.753302 158.981625 -151.994422 160.614956 -157 161 C-159.006133 160.875868 -161.012251 160.751306 -163.017822 160.618408 C-166.132342 160.443395 -168.930245 160.399129 -172 161 C-173.258857 165.360146 -170.643862 169.54332 -168.898438 173.492188 C-167.306781 177.934984 -167.313619 182.358435 -168 187 C-169.657565 190.173405 -171.753086 192.376543 -175 194 C-177.320313 194.34375 -177.320313 194.34375 -180.125 194.5 C-181.035078 194.572188 -181.945156 194.644375 -182.882812 194.71875 C-187.843023 193.575042 -191.073003 191.165409 -194 187 C-195.076659 182.790045 -194.986872 178.821404 -194.8125 174.5 C-194.818301 173.397852 -194.824102 172.295703 -194.830078 171.160156 C-194.731343 165.853952 -194.576311 162.120944 -191.207031 157.878906 C-190.478711 156.928867 -189.750391 155.978828 -189 155 C-190.281914 153.203353 -190.281914 153.203353 -192.875 152.4375 C-197.759043 150.181642 -200.216103 148.669763 -203 144 C-202.980469 141.652344 -202.980469 141.652344 -202.75 139.1875 C-202.498784 136.909895 -202.498784 136.909895 -203 135 C-205.248393 134.212567 -207.233352 134.248637 -209.609375 134.21875 C-213.665596 133.847592 -215.228346 131.903638 -218 129 C-222.964887 122.439257 -223.469134 113.950929 -224 106 C-224.077344 105.16082 -224.154687 104.321641 -224.234375 103.457031 C-224.679728 95.47779 -221.607806 90.8535 -217.25 84.414062 C-212.379873 77.08788 -209.461854 69.984464 -207.375 61.441406 C-203.891963 47.835791 -194.697028 37.610067 -182.9375 30.5 C-180.309558 28.967061 -177.658625 27.478922 -175 26 C-174.087102 25.480105 -174.087102 25.480105 -173.155762 24.949707 C-164.828527 20.24499 -157.503677 17.857096 -148 17 C-147.234297 16.891719 -146.468594 16.783438 -145.679688 16.671875 C-139.933415 15.866125 -134.316248 16.070334 -128.527344 16.355469 C-125.147991 16.014914 -124.22226 15.663114 -121.485596 14.006592 C-116.295009 11.332959 -111.442887 11.457776 -105.703125 11.539062 C-104.633102 11.539979 -103.56308 11.540895 -102.460632 11.54184 C-100.204829 11.547858 -97.949034 11.563552 -95.693359 11.588379 C-92.274433 11.62474 -88.856599 11.629399 -85.4375 11.628906 C-83.234366 11.638745 -81.031239 11.650405 -78.828125 11.664062 C-77.318139 11.667401 -77.318139 11.667401 -75.777649 11.670807 C-63.637929 11.82979 -54.774484 13.499617 -44.617188 20.125 C-43.32168 20.558125 -43.32168 20.558125 -42 21 C-40.716121 18.343142 -40.716121 18.343142 -40 15 C-38.414062 12.953125 -38.414062 12.953125 -36.625 11.25 C-36.039766 10.677656 -35.454531 10.105312 -34.851562 9.515625 C-31.631471 6.87977 -28.689183 5.823754 -24.625 5.125 C-21.31382 4.461694 -20.044696 4.035341 -17.3125 1.875 C-11.995749 -1.134482 -5.966181 -0.977591 0 0 Z M-114 23 C-114.747817 23.219624 -115.495635 23.439248 -116.266113 23.665527 C-118.522865 24.365307 -118.522865 24.365307 -121 26 C-119.219497 28.206183 -119.219497 28.206183 -116 30 C-114.671621 30.920391 -114.671621 30.920391 -113.316406 31.859375 C-112.407617 32.483281 -111.498828 33.107188 -110.5625 33.75 C-105.661381 37.298859 -102.148591 40.84776 -99 46 C-98.627461 46.605859 -98.254922 47.211719 -97.871094 47.835938 C-96.9375 49.5 -96.9375 49.5 -96 52 C-96.99 52 -97.98 52 -99 52 C-99.716158 50.353993 -100.374391 48.682509 -101 47 C-110.405867 33.951665 -124.222209 27.216892 -139.808594 24.289062 C-149.433315 23.019491 -157.306198 24.438864 -166 29 C-166 29.66 -166 30.32 -166 31 C-167.651219 31.704057 -169.323 32.359771 -171 33 C-186.523148 41.222228 -195.353572 50.64645 -202 67 C-202.644937 69.112983 -203.252533 71.237927 -203.8125 73.375 C-205.664024 80.217961 -209.282757 85.698138 -213.292236 91.470215 C-216.847812 96.821335 -217.75963 100.6285 -217 107 C-216.921689 107.676597 -216.843379 108.353193 -216.762695 109.050293 C-216.489782 110.981276 -216.120698 112.897883 -215.75 114.8125 C-215.517969 116.07707 -215.285937 117.341641 -215.046875 118.644531 C-213.917426 122.264667 -213.006012 123.741429 -210 126 C-207.841648 126.892036 -207.841648 126.892036 -205.5625 127.25 C-204.821289 127.399531 -204.080078 127.549062 -203.316406 127.703125 C-200.924249 128.102211 -200.924249 128.102211 -198.21875 127.691406 C-197.120469 127.84416 -197.120469 127.84416 -196 128 C-195.652344 130.449219 -195.652344 130.449219 -195.9375 133.6875 C-196.1844 138.659644 -196.1844 138.659644 -194.25 143.1875 C-191.963136 145.029696 -190.864939 145.652735 -188 146 C-186.669688 146.556875 -186.669688 146.556875 -185.3125 147.125 C-184.549375 147.08375 -183.78625 147.0425 -183 147 C-182.431188 144.64417 -182.308508 142.424884 -182.238281 140.003906 C-182.159648 139.342617 -182.081016 138.681328 -182 138 C-181.34 138 -180.68 138 -180 138 C-179.980469 140.152344 -179.980469 140.152344 -180.1875 142.9375 C-180.307711 145.611403 -180.307711 145.611403 -180 148 C-179.236875 148.53625 -178.47375 149.0725 -177.6875 149.625 C-176.800625 149.41875 -175.91375 149.2125 -175 149 C-173.553494 146.462965 -172.756597 143.811096 -172 141 C-172.020625 141.649687 -172.04125 142.299375 -172.0625 142.96875 C-171.999149 145.534475 -171.886792 147.585698 -171 150 C-168.772165 151.05761 -167.319145 151.026629 -164.878906 150.773438 C-162.568323 150.075145 -162.568323 150.075145 -161.5 146.625 C-160.954454 143.27968 -160.954454 143.27968 -161 141 C-160.34 141 -159.68 141 -159 141 C-158.967452 143.050543 -158.944223 145.103227 -159.027344 147.152344 C-159.214284 149.017904 -159.214284 149.017904 -158 150 C-153.08335 150.541168 -153.08335 150.541168 -148.886719 148.324219 C-146.786399 145.736869 -146.044053 143.686052 -145.125 140.5 C-143.822054 136.7027 -143.156588 135.149629 -140.1875 132.3125 C-136.351557 130.732994 -134.119875 130.431741 -130 131 C-128.728842 131.603124 -127.479095 132.252718 -126.25 132.9375 C-120.818172 135.874477 -114.780177 136.988962 -108.730469 135.40625 C-102.926719 132.831738 -98.894244 128.454209 -95.871094 122.941406 C-94.546964 118.470243 -94.567117 114.01593 -94.4375 109.375 C-94.377539 107.486853 -94.313898 105.598819 -94.246094 103.710938 C-94.210201 102.462561 -94.210201 102.462561 -94.173584 101.188965 C-94 99 -94 99 -93 96 C-92.955728 94.417286 -92.960675 92.832845 -93 91.25 C-93.048498 87.054892 -92.59372 83.15604 -92 79 C-91.469501 72.115574 -92.47545 66.200601 -94.34375 59.566406 C-95 57 -95 57 -95 54 C-89.986443 62.326864 -88.333093 67.515875 -90 77 C-90.389697 80.225398 -90.722072 83.456585 -91.0625 86.6875 C-91.239401 88.274906 -91.41767 89.86216 -91.597656 91.449219 C-91.73043 92.620977 -91.863203 93.792734 -92 95 C-87.922057 91.963088 -83.86257 88.906215 -79.851562 85.78125 C-59.238265 69.741739 -59.238265 69.741739 -54.359375 70.304688 C-52 71 -52 71 -50 72 C-48.844044 75.197169 -48.865994 78.314928 -48.875 81.6875 C-48.872422 82.660742 -48.869844 83.633984 -48.867188 84.636719 C-49 87 -49 87 -50 88 C-50.250077 90.5419 -50.250077 90.5419 -50 93 C-49.34 93 -48.68 93 -48 93 C-47.67 92.01 -47.34 91.02 -47 90 C-47.33 94.62 -47.66 99.24 -48 104 C-42.860303 100.137735 -42.860303 100.137735 -41.850098 94.618164 C-41.79644 93.939795 -41.742783 93.261426 -41.6875 92.5625 C-41.613218 91.859639 -41.538936 91.156777 -41.462402 90.432617 C-40.922196 84.828133 -40.963684 79.292341 -41.320312 73.671875 C-41 71 -41 71 -39.191406 68.628906 C-37 67 -37 67 -33.8125 67.1875 C-31 68 -31 68 -30 69 C-27.5 69.166667 -27.5 69.166667 -25 69 C-23.328017 67.328017 -23.748679 65.358324 -23.6875 63.0625 C-23.764817 55.630356 -25.731799 49.721841 -30.5 44 C-32.859788 41.95481 -32.859788 41.95481 -35.375 40.875 C-36.179375 40.441875 -36.179375 40.441875 -37 40 C-36.67 39.01 -36.34 38.02 -36 37 C-35.834148 33.410949 -35.834148 33.410949 -37 30 C-40.34421 28.496886 -40.34421 28.496886 -44 28 C-44.99 27.67 -45.98 27.34 -47 27 C-47.928125 27.286172 -47.928125 27.286172 -48.875 27.578125 C-51.876238 28.173959 -53.310869 27.142585 -56 25.75 C-64.146314 21.834549 -72.956897 19.541313 -82 19 C-82.979688 18.935547 -83.959375 18.871094 -84.96875 18.804688 C-94.981176 18.460223 -104.410792 20.173492 -114 23 Z M-137 140 C-137 140.99 -137 141.98 -137 143 C-136.34 142.01 -135.68 141.02 -135 140 C-135.66 140 -136.32 140 -137 140 Z " fill="#888884" transform="translate(233,24)"/>
<path d="M0 0 C2.226562 1.296875 2.226562 1.296875 3.140625 3.46875 C3.403308 5.825393 3.503336 7.941954 3.226562 10.296875 C2.896563 10.626875 2.566563 10.956875 2.226562 11.296875 C3.278437 11.833125 4.330312 12.369375 5.414062 12.921875 C10.64113 15.795721 12.050872 19.710355 14.476562 25.046875 C15.565792 29.76687 15.580017 34.471805 15.226562 39.296875 C14.226562 40.296875 14.226562 40.296875 11.851562 40.484375 C9.226562 40.296875 9.226562 40.296875 6.226562 38.296875 C3.510938 38.500547 1.789713 38.889489 -0.425781 40.492188 C-2.345308 43.062684 -1.99932 44.80838 -1.835938 47.984375 C-1.727659 53.338157 -1.903706 58.540349 -2.460938 63.859375 C-2.514514 64.537664 -2.568091 65.215952 -2.623291 65.914795 C-3.252446 71.378655 -4.015066 71.490178 -8.773438 75.296875 C-8.443438 70.676875 -8.113438 66.056875 -7.773438 61.296875 C-8.103437 62.286875 -8.433437 63.276875 -8.773438 64.296875 C-9.433437 64.296875 -10.093437 64.296875 -10.773438 64.296875 C-10.960938 61.859375 -10.960938 61.859375 -10.773438 59.296875 C-10.443438 58.966875 -10.113438 58.636875 -9.773438 58.296875 C-9.674049 56.528342 -9.643745 54.755692 -9.648438 52.984375 C-9.645859 52.018867 -9.643281 51.053359 -9.640625 50.058594 C-9.759231 47.592285 -9.891041 45.598329 -10.773438 43.296875 C-11.701562 42.78125 -12.629687 42.265625 -13.585938 41.734375 C-14.307813 41.26 -15.029687 40.785625 -15.773438 40.296875 C-14.273438 38.609375 -14.273438 38.609375 -11.773438 37.296875 C-10.783437 37.296875 -9.793438 37.296875 -8.773438 37.296875 C-8.606563 34.880417 -8.606563 34.880417 -8.773438 32.296875 C-8.278437 31.306875 -8.278437 31.306875 -7.773438 30.296875 C-17.069557 34.905969 -25.798086 39.583868 -33.83667 46.196777 C-37.60864 49.296875 -37.60864 49.296875 -39.773438 49.296875 C-39.523438 47.296875 -39.523438 47.296875 -38.773438 45.296875 C-38.113438 45.296875 -37.453438 45.296875 -36.773438 45.296875 C-37.713164 44.049707 -37.713164 44.049707 -38.671875 42.777344 C-39.497438 41.67972 -40.322957 40.582062 -41.148438 39.484375 C-41.560937 38.937168 -41.973437 38.389961 -42.398438 37.826172 C-47.815661 30.61777 -47.815661 30.61777 -47.460938 27.921875 C-47.002604 26.171875 -46.544271 24.421875 -46.085938 22.671875 C-45.473583 20.033277 -45.473583 20.033277 -47.773438 17.296875 C-47.443437 16.306875 -47.113438 15.316875 -46.773438 14.296875 C-46.113438 14.296875 -45.453438 14.296875 -44.773438 14.296875 C-44.111639 12.316419 -44.111639 12.316419 -43.773438 10.296875 C-36.253428 17.496884 -31.87555 25.859833 -27.773438 35.296875 C-27.773438 35.956875 -27.773438 36.616875 -27.773438 37.296875 C-26.783437 36.636875 -25.793438 35.976875 -24.773438 35.296875 C-25.303343 25.581934 -31.888853 17.635891 -38.429688 10.976562 C-38.873125 10.422266 -39.316563 9.867969 -39.773438 9.296875 C-39.113438 8.966875 -38.453438 8.636875 -37.773438 8.296875 C-37.010312 8.93625 -36.247187 9.575625 -35.460938 10.234375 C-32.955474 12.468547 -32.955474 12.468547 -30.023438 12.859375 C-28.909687 12.580938 -28.909687 12.580938 -27.773438 12.296875 C-27.649687 11.45125 -27.525937 10.605625 -27.398438 9.734375 C-27.089063 8.527812 -27.089063 8.527812 -26.773438 7.296875 C-22.977408 6.999147 -20.991912 7.285155 -18.046875 9.730469 C-14.782448 13.340635 -13.149208 16.596327 -11.773438 21.296875 C-11.113438 21.296875 -10.453438 21.296875 -9.773438 21.296875 C-9.773438 20.636875 -9.773438 19.976875 -9.773438 19.296875 C-9.113438 19.296875 -8.453438 19.296875 -7.773438 19.296875 C-7.083032 17.639901 -6.420374 15.971299 -5.773438 14.296875 C-4.907187 13.399687 -4.907187 13.399687 -4.023438 12.484375 C-2.526 9.86386 -2.715722 9.011559 -3.273438 6.109375 C-3.810929 4.015352 -3.810929 4.015352 -4.773438 2.296875 C-7.31395 1.320767 -7.31395 1.320767 -9.773438 1.296875 C-9.773438 0.636875 -9.773438 -0.023125 -9.773438 -0.703125 C-6.417024 -2.381332 -3.458806 -1.056581 0 0 Z " fill="#8C8C87" transform="translate(193.7734375,52.703125)"/>
<path d="M0 0 C3.741577 4.302813 6.860262 9.651674 7.101562 15.433594 C6.847327 18.313469 6.434766 21.141497 6 24 C5.723358 26.276741 5.464183 28.555131 5.205566 30.833984 C4.819376 34.224578 4.40909 37.6121 4 41 C4.741211 40.345156 5.482422 39.690313 6.246094 39.015625 C12.614929 33.468442 19.156247 28.303388 26.0625 23.4375 C27.150992 22.66938 27.150992 22.66938 28.261475 21.885742 C36.874747 15.890219 36.874747 15.890219 40.5625 16.25 C43 17 43 17 46 19 C48.501191 25.636108 47.696876 34.557464 45 41 C42.2976 38.2976 41.572564 35.181759 40.4375 31.625 C40.216426 30.952109 39.995352 30.279219 39.767578 29.585938 C38.875904 26.848955 38.033923 24.259685 37.660156 21.398438 C37.333379 20.706211 37.333379 20.706211 37 20 C34.175431 20.131857 34.175431 20.131857 32 22 C32.702692 24.477738 33.487089 26.260375 34.6875 28.5 C37.621139 34.502389 38.841516 39.236707 38 46 C37.67 45.34 37.34 44.68 37 44 C36.01 44.495 36.01 44.495 35 45 C34.878856 47.555836 34.860769 50.011767 34.9375 52.5625 C34.998301 55.046352 35.020937 57.514466 35 60 C34.67 60 34.34 60 34 60 C33.381166 57.04537 32.807332 54.091277 32.25 51.125 C30.940085 44.454712 29.412889 38.64438 25.953125 32.714844 C25 31 25 31 25 29 C22.851466 29.531956 22.851466 29.531956 21 31 C21.459665 34.532163 23.103266 37.751781 24.5 41 C28.70682 50.783302 29.488262 60.033909 25.949219 70.257812 C25 72 25 72 22 74 C22.875 68.25 22.875 68.25 24 66 C24.298842 64.467052 24.543586 62.923105 24.75 61.375 C24.868594 60.557734 24.987188 59.740469 25.109375 58.898438 C25.055234 57.958711 25.055234 57.958711 25 57 C24.01 57 23.02 57 22 57 C21.833333 60.5 21.833333 60.5 22 64 C21.67 64 21.34 64 21 64 C20.716289 62.088033 20.47532 60.169724 20.25 58.25 C19.260877 51.474882 17.584981 44.904048 14 39 C10.947295 38.841886 10.947295 38.841886 8 40 C9.008309 42.172477 10.096446 44.133203 11.3125 46.1875 C15.844679 54.532174 16.486156 61.983925 14.1875 71.289062 C13.284639 74.018805 12.443801 76.513186 11 79 C9.515 79.495 9.515 79.495 8 80 C8.19916 79.147285 8.19916 79.147285 8.402344 78.277344 C8.956195 75.85576 9.481868 73.429464 10 71 C10.163711 70.276836 10.327422 69.553672 10.496094 68.808594 C10.952967 66.732417 10.952967 66.732417 11 64 C10.044805 64.264902 10.044805 64.264902 9.070312 64.535156 C8.387109 64.688555 7.703906 64.841953 7 65 C6 61.5625 6 61.5625 5.570312 59.285156 C4.988061 56.952161 4.160768 55.509574 2.875 53.5 C-1.299797 45.693595 0.742229 34.358732 2 26 C2.569757 19.130047 1.516115 13.258734 -0.441406 6.664062 C-1.006219 3.97034 -0.915071 2.55735 0 0 Z " fill="#858580" transform="translate(138,77)"/>
<path d="M0 0 C5.576694 2.636256 9.286175 6.980404 12.3125 12.3125 C13.67386 17.634181 13.979847 22.779083 11.375 27.75 C8.541815 32.085479 4.964755 35.345082 0 37 C-6.345639 37.537766 -10.728484 36.679902 -16 33 C-20.595743 28.648588 -23.280214 24.158827 -23.5 17.8125 C-23.392752 11.649871 -21.245271 7.420238 -17 3 C-11.636506 -0.955353 -6.433969 -0.778021 0 0 Z " fill="#090908" transform="translate(101,100)"/>
<path d="M0 0 C3.684459 -0.288977 5.716681 -0.023563 8.621094 2.292969 C13.090895 7.180726 18 14.235567 18 21 C18.66 21.33 19.32 21.66 20 22 C18.851445 22.605859 17.702891 23.211719 16.519531 23.835938 C8.145389 28.328542 0.244222 32.906935 -7.114014 38.950684 C-10.832707 42 -10.832707 42 -13 42 C-12.75 40 -12.75 40 -12 38 C-11.34 38 -10.68 38 -10 38 C-10.939727 36.752832 -10.939727 36.752832 -11.898438 35.480469 C-12.724001 34.382845 -13.549519 33.285187 -14.375 32.1875 C-14.99375 31.366689 -14.99375 31.366689 -15.625 30.529297 C-21.042223 23.320895 -21.042223 23.320895 -20.6875 20.625 C-20.229167 18.875 -19.770833 17.125 -19.3125 15.375 C-18.700145 12.736402 -18.700145 12.736402 -21 10 C-20.67 9.01 -20.34 8.02 -20 7 C-19.34 7 -18.68 7 -18 7 C-17.338202 5.019544 -17.338202 5.019544 -17 3 C-9.47999 10.200009 -5.102113 18.562958 -1 28 C-1 28.66 -1 29.32 -1 30 C-0.01 29.34 0.98 28.68 2 28 C1.470094 18.285059 -5.115415 10.339016 -11.65625 3.679688 C-12.099687 3.125391 -12.543125 2.571094 -13 2 C-12.34 1.67 -11.68 1.34 -11 1 C-10.236875 1.639375 -9.47375 2.27875 -8.6875 2.9375 C-6.182036 5.171672 -6.182036 5.171672 -3.25 5.5625 C-2.13625 5.284063 -2.13625 5.284063 -1 5 C-0.87625 4.154375 -0.7525 3.30875 -0.625 2.4375 C-0.315625 1.230938 -0.315625 1.230938 0 0 Z " fill="#898984" transform="translate(167,60)"/>
<path d="M0 0 C3.861759 2.896319 6.482605 6.200621 7.371094 11.007812 C7.604327 18.443851 5.213665 24.415802 0.238281 29.964844 C-4.152305 33.749832 -7.961079 34.833156 -13.730469 34.460938 C-17.037696 33.789246 -18.776049 32.501945 -21 30 C-24.066171 25.081124 -23.480565 19.594082 -23 14 C-21.034976 8.311774 -17.370181 4.963865 -12.8125 1.1875 C-8.551675 -0.611515 -4.547762 -0.807826 0 0 Z " fill="#090908" transform="translate(52,96)"/>
<path d="M0 0 C3.441653 0.35299 5.068725 1.045817 8 3 C9.971281 2.914356 9.971281 2.914356 12 2.4375 C15.750944 1.864151 15.750944 1.864151 18.0625 3.125 C19 5 19 5 19 7.3125 C18 10 18 10 15.602539 12.725098 C12.875684 15.925448 11.638607 19.058862 10.359375 23.085938 C10.146861 23.746552 9.934347 24.407166 9.715393 25.087799 C9.272067 26.475707 8.835436 27.865769 8.405273 29.257812 C7.752346 31.367419 7.077288 33.468922 6.398438 35.570312 C4.345238 42.04393 2.511259 48.207164 2 55 C3.437502 56.687988 3.437502 56.687988 5 58 C4.875 60.625 4.875 60.625 4 63 C1 64 1 64 -1.8125 63 C-4.987891 61.708399 -4.987891 61.708399 -8.25 62.75 C-9.1575 62.8325 -10.065 62.915 -11 63 C-12.5625 60.3125 -12.5625 60.3125 -13 57 C-11.701859 54.403718 -10.753843 53.296421 -8.042969 52.230469 C-2.022246 48.604221 -0.202287 36.948225 1.441406 30.457031 C2.159496 27.298443 2.701146 24.227621 3 21 C3.076055 20.2575 3.152109 19.515 3.230469 18.75 C3.374022 16.391067 3.413025 14.328758 3 12 C0.583332 9.249583 0.583332 9.249583 -2 7 C-2.4375 4.3125 -2.4375 4.3125 -2 2 C-1.34 1.34 -0.68 0.68 0 0 Z " fill="#EDEDED" transform="translate(196,93)"/>
<path d="M0 0 C4.694726 1.442561 7.102157 4.900502 9.523438 8.972656 C10.440945 12.917939 10.760158 16.640276 10.148438 20.660156 C8.354501 23.530455 7.165805 25.151473 4.148438 26.660156 C-0.598785 27.221579 -5.507417 27.672793 -9.976562 25.742188 C-12.791033 23.435133 -13.688832 21.419567 -14.449219 17.871094 C-14.832915 12.359816 -14.306969 8.365327 -10.914062 3.910156 C-7.498309 0.605034 -4.732694 -0.444195 0 0 Z " fill="#878783" transform="translate(145.8515625,171.33984375)"/>
<path d="M0 0 C0.125 2.4375 0.125 2.4375 0 5 C0.99 5.66 1.98 6.32 3 7 C3.600612 5.098212 3.600612 5.098212 4 3 C4.66 3 5.32 3 6 3 C5.9175 3.804375 5.835 4.60875 5.75 5.4375 C5.87375 6.705938 5.87375 6.705938 6 8 C8.935034 9.322945 8.935034 9.322945 12 9 C12.250077 6.5419 12.250077 6.5419 12 4 C12.99 4 13.98 4 15 4 C14.7525 4.969375 14.505 5.93875 14.25 6.9375 C14.1675 7.948125 14.085 8.95875 14 10 C17.394182 11.413498 17.394182 11.413498 21 11 C21.25031 8.583802 21.25031 8.583802 21 6 C23.0625 4.875 23.0625 4.875 25 5 C24.786292 7.635734 24.181377 9.637245 23 12 C25.20361 12.445847 25.20361 12.445847 27.9375 12.4375 C28.874648 12.477461 29.811797 12.517422 30.777344 12.558594 C31.51082 12.374258 32.244297 12.189922 33 12 C33.171885 9.481722 33.171885 9.481722 33 7 C33.99 7 34.98 7 36 7 C35.7525 7.99 35.505 8.98 35.25 10 C35.1675 10.99 35.085 11.98 35 13 C38.332479 13.334179 38.332479 13.334179 42 13 C42.99 13.66 43.98 14.32 45 15 C44.289727 14.953594 43.579453 14.907187 42.847656 14.859375 C41.928555 14.823281 41.009453 14.787187 40.0625 14.75 C39.145977 14.703594 38.229453 14.657187 37.285156 14.609375 C36.531055 14.738281 35.776953 14.867188 35 15 C34.092294 16.962567 34.092294 16.962567 34 19 C34 17.68 34 16.36 34 15 C33.34 15 32.68 15 32 15 C31.707806 17.045356 31.423984 19.093895 31.246094 21.152344 C31 23 31 23 30 24 C27.204429 24.638643 24.736811 24.955525 22 24 C20.888728 21.025031 20.899998 18.15005 21 15 C20.762168 15.883652 20.762168 15.883652 20.519531 16.785156 C19.830545 19.004378 19.151771 20.979902 18 23 C17.113125 23.20625 16.22625 23.4125 15.3125 23.625 C14.549375 23.08875 13.78625 22.5525 13 22 C12.712403 19.326244 12.820263 16.833061 13.019531 14.152344 C13.013086 13.44207 13.006641 12.731797 13 12 C12.34 12 11.68 12 11 12 C10.721098 14.091338 10.721098 14.091338 10.6875 16.5625 C10.464844 19.054688 10.464844 19.054688 10 21 C7.75 21.1875 7.75 21.1875 5 20 C4.13375 19.731875 3.2675 19.46375 2.375 19.1875 C-0.451139 17.77443 -1.42251 16.730625 -3 14 C-3.046875 11.019531 -3.046875 11.019531 -2.75 7.8125 C-2.552136 4.689269 -2.552136 4.689269 -3 2 C-6.438084 0.591856 -6.438084 0.591856 -10 1 C-10 0.67 -10 0.34 -10 0 C-6.43504 -1.01856 -3.492672 -1.397069 0 0 Z " fill="#9A9B95" transform="translate(40,150)"/>
<path d="M0 0 C0 0.66 0 1.32 0 2 C-1.27875 2.0825 -2.5575 2.165 -3.875 2.25 C-6.048217 2.399104 -6.048217 2.399104 -8 3 C-9.988354 5.714553 -9.988354 5.714553 -10 9 C-8.334547 11.166417 -8.334547 11.166417 -6 13 C-2.956207 17.022155 -2.361373 19.982217 -3 25 C-4.5 27.4375 -4.5 27.4375 -7 29 C-9.810009 29.610371 -12.193938 29.644014 -15 29 C-17.5 27.0625 -17.5 27.0625 -19 24 C-19.523909 19.801132 -19.271169 16.022097 -18.1875 11.9375 C-18.125625 11.298125 -18.06375 10.65875 -18 10 C-20.325155 9.246575 -20.325155 9.246575 -23 10 C-24.705323 11.940095 -24.705323 11.940095 -26 14 C-26.66 14 -27.32 14 -28 14 C-28.216563 15.701563 -28.216563 15.701563 -28.4375 17.4375 C-28.623125 18.613125 -28.80875 19.78875 -29 21 C-29.99 21.33 -30.98 21.66 -32 22 C-32.611986 17.31448 -31.598707 12.990964 -29.1875 9 C-25.128959 6.453464 -21.564998 6.08732 -16.839844 5.652344 C-13.426956 4.868365 -12.253475 3.611409 -10 1 C-6.527123 -1.431014 -4.02899 -1.098815 0 0 Z " fill="#E0E0DF" transform="translate(230,32)"/>
<path d="M0 0 C5.17089 3.693493 7.445761 8.994219 9 15 C9.340227 18.699964 9.409206 22.303729 9 26 C8 27 8 27 5.625 27.1875 C3 27 3 27 0 25 C-2.450324 24.833143 -2.450324 24.833143 -5.0625 25 C-7.722656 25.125 -7.722656 25.125 -10 25 C-10.66 24.34 -11.32 23.68 -12 23 C-11.875 20.5 -11.875 20.5 -11 18 C-10.319375 17.731875 -9.63875 17.46375 -8.9375 17.1875 C-8.298125 16.795625 -7.65875 16.40375 -7 16 C-6.400947 10.113782 -6.400947 10.113782 -9 5 C-8.75 2.875 -8.75 2.875 -8 1 C-5.111383 -0.444309 -3.203523 -0.376885 0 0 Z " fill="#ECECEB" transform="translate(200,66)"/>
<path d="M0 0 C2.269531 0.855469 2.269531 0.855469 5.269531 2.855469 C7.770722 9.491577 6.966407 18.412933 4.269531 24.855469 C1.567132 22.153069 0.842095 19.037227 -0.292969 15.480469 C-0.514043 14.807578 -0.735117 14.134687 -0.962891 13.441406 C-1.854565 10.704424 -2.696546 8.115154 -3.070312 5.253906 C-3.288164 4.792422 -3.506016 4.330938 -3.730469 3.855469 C-6.555038 3.987326 -6.555038 3.987326 -8.730469 5.855469 C-8.027777 8.333207 -7.24338 10.115843 -6.042969 12.355469 C-3.10933 18.357858 -1.888953 23.092176 -2.730469 29.855469 C-3.060469 29.195469 -3.390469 28.535469 -3.730469 27.855469 C-4.390469 28.185469 -5.050469 28.515469 -5.730469 28.855469 C-5.851612 31.411305 -5.8697 33.867236 -5.792969 36.417969 C-5.732167 38.901821 -5.709532 41.369935 -5.730469 43.855469 C-6.060469 43.855469 -6.390469 43.855469 -6.730469 43.855469 C-7.129157 41.82559 -7.521797 39.794364 -7.88623 37.758057 C-9.495923 28.872922 -11.60768 22.07243 -16.535156 14.421875 C-17.730469 11.855469 -17.730469 11.855469 -17.320312 9.777344 C-15.080382 7.069614 -12.386833 5.345376 -9.417969 3.542969 C-8.564287 2.985127 -8.564287 2.985127 -7.693359 2.416016 C-4.989632 0.749079 -3.208636 -0.169842 0 0 Z " fill="#74736E" transform="translate(178.73046875,93.14453125)"/>
<path d="M0 0 C3.684459 -0.288977 5.716681 -0.023563 8.621094 2.292969 C12.701091 6.754473 16.069768 12.266922 18 18 C17.875 20.15625 17.875 20.15625 17 22 C15.222656 23.300781 15.222656 23.300781 13.0625 24.3125 C12.352227 24.659258 11.641953 25.006016 10.910156 25.363281 C9.964629 25.678457 9.964629 25.678457 9 26 C8.34 25.67 7.68 25.34 7 25 C5.68 25 4.36 25 3 25 C1.224886 22.337329 -0.174322 19.719625 -1.625 16.875 C-4.356013 11.76624 -7.608737 7.800525 -11.65625 3.679688 C-12.099687 3.125391 -12.543125 2.571094 -13 2 C-12.34 1.67 -11.68 1.34 -11 1 C-10.236875 1.639375 -9.47375 2.27875 -8.6875 2.9375 C-6.182036 5.171672 -6.182036 5.171672 -3.25 5.5625 C-2.13625 5.284063 -2.13625 5.284063 -1 5 C-0.87625 4.154375 -0.7525 3.30875 -0.625 2.4375 C-0.41875 1.633125 -0.2125 0.82875 0 0 Z " fill="#868681" transform="translate(167,60)"/>
<path d="M0 0 C3.223485 1.813211 4.442402 4.913315 6 8.125 C6.4125 8.90875 6.825 9.6925 7.25 10.5 C8.337945 14.307807 8.682337 18.207067 8 22.125 C6.632812 23.898438 6.632812 23.898438 5 25.125 C2.5625 25.125 2.5625 25.125 0 24.125 C-0.66 23.196875 -1.32 22.26875 -2 21.3125 C-2.99 20.229688 -2.99 20.229688 -4 19.125 C-6.581191 20.856225 -6.581191 20.856225 -9 23.125 C-11.257135 22.936905 -12.395456 22.729544 -14 21.125 C-14.816403 16.952274 -14.534529 15.036619 -12.355469 11.320312 C-4.462473 0.278905 -4.462473 0.278905 0 0 Z " fill="#0C0C0B" transform="translate(65,118.875)"/>
<path d="M0 0 C2.058594 0.058594 2.058594 0.058594 4.4375 0.4375 C7.605851 0.93337 8.871211 1.04293 12 0 C15 2 15 2 15.5 4.4375 C15.335 5.283125 15.17 6.12875 15 7 C14.200781 7.407344 13.401562 7.814687 12.578125 8.234375 C9.725951 9.81846 9.725951 9.81846 8.890625 13.082031 C8.679219 14.313086 8.467813 15.544141 8.25 16.8125 C8.08069 17.794886 8.08069 17.794886 7.907959 18.797119 C7.570072 20.861271 7.276971 22.92684 7 25 C6.906704 25.683525 6.813408 26.367051 6.717285 27.071289 C5.885614 33.026864 5.885614 33.026864 6 39 C7.32 39 8.64 39 10 39 C10.5 41.4375 10.5 41.4375 10 44 C8.25 44.9375 8.25 44.9375 6 45 C5.040937 44.505 5.040937 44.505 4.0625 44 C1.958297 42.712838 1.958297 42.712838 -0.6875 43.625 C-1.450625 43.74875 -2.21375 43.8725 -3 44 C-4 42.1875 -4 42.1875 -4 40 C-3.01 39.34 -2.02 38.68 -1 38 C0.785344 32.643967 0.761158 26.917902 1.1875 21.3125 C1.348955 19.401143 1.348955 19.401143 1.513672 17.451172 C1.60584 16.246543 1.698008 15.041914 1.792969 13.800781 C1.880867 12.688723 1.968765 11.576665 2.059326 10.430908 C2.039749 9.628708 2.020171 8.826509 2 8 C1.34 8 0.68 8 0 8 C-1.25 5.125 -1.25 5.125 -2 2 C-1.34 1.34 -0.68 0.68 0 0 Z " fill="#ECECEB" transform="translate(101,172)"/>
<path d="M0 0 C4.544182 5.826194 5.367378 11.182019 5.3125 18.375 C5.307585 19.129424 5.302671 19.883848 5.297607 20.661133 C5.14972 27.659624 4.057708 32.25639 -0.25 38 C-3.743586 40.54079 -5.77385 40.650177 -10 40 C-10.495 38.515 -10.495 38.515 -11 37 C-11.99 36.67 -12.98 36.34 -14 36 C-13.468906 35.636484 -12.937813 35.272969 -12.390625 34.898438 C-6.851617 30.956443 -3.199384 27.598152 -1 21 C-0.852848 19.374329 -0.752781 17.744131 -0.683594 16.113281 C-0.641699 15.175488 -0.599805 14.237695 -0.556641 13.271484 C-0.517324 12.29502 -0.478008 11.318555 -0.4375 10.3125 C-0.394316 9.324434 -0.351133 8.336367 -0.306641 7.318359 C-0.200583 4.879045 -0.098523 2.439629 0 0 Z " fill="#83827D" transform="translate(138,123)"/>
<path d="M0 0 C6.079147 4.20864 8.601498 11.953699 10 19 C10.542502 26.209022 10.541989 33.499066 7 40 C6.01 40.66 5.02 41.32 4 42 C4.875 36.25 4.875 36.25 6 34 C6.298842 32.467052 6.543586 30.923105 6.75 29.375 C6.868594 28.557734 6.987188 27.740469 7.109375 26.898438 C7.073281 26.271953 7.037187 25.645469 7 25 C6.01 25 5.02 25 4 25 C3.833333 28.5 3.833333 28.5 4 32 C3.67 32 3.34 32 3 32 C2.716289 30.088033 2.47532 28.169724 2.25 26.25 C1.38636 20.12418 -0.398617 15.113293 -3.074219 9.558594 C-4.0851 6.764809 -4.094578 5.709821 -3 3 C-1.75 0.9375 -1.75 0.9375 0 0 Z " fill="#72726C" transform="translate(156,109)"/>
<path d="M0 0 C0.99 0 1.98 0 3 0 C9.996983 10.522181 12.603375 22.504734 11 35 C9.54072 39.055662 7.881201 42.761953 5 46 C3.68 46 2.36 46 1 46 C1.625 43.9375 1.625 43.9375 3 41 C6.887828 30.416468 5.427182 20.201767 1 10 C0.454727 9.10668 -0.090547 8.213359 -0.652344 7.292969 C-2 5 -2 5 -1.75 2.75 C-1 1 -1 1 0 0 Z " fill="#EAEAEA" transform="translate(160,106)"/>
<path d="M0 0 C3.946958 2.343506 5.679529 6.727994 7.238281 10.886719 C9.42457 19.822474 9.30141 30.725255 5 39 C3 42.0625 3 42.0625 1 44 C0.01 44 -0.98 44 -2 44 C-1.671875 41.917969 -1.671875 41.917969 -0.75 39.1875 C-0.456094 38.29418 -0.162187 37.400859 0.140625 36.480469 C0.424219 35.661914 0.707812 34.843359 1 34 C3.195335 27.413995 3.124487 19.953827 0.660156 13.480469 C-0.406998 11.403912 -1.519854 9.349883 -2.6875 7.328125 C-4 5 -4 5 -4 3 C-2.25 1.125 -2.25 1.125 0 0 Z " fill="#E9E9E9" transform="translate(150,114)"/>
<path d="M0 0 C2 2 2 2 2.3125 3.75 C2.904727 6.29849 2.904727 6.29849 5.53125 8.617188 C8.743577 12.377625 8.527098 15.620632 8.1875 20.375 C8.050968 22.931057 7.984782 25.437264 8 28 C10.123586 28.169007 10.123586 28.169007 12.125 26.75 C12.74375 26.5025 13.3625 26.255 14 26 C14 27.32 14 28.64 14 30 C13.01 30.33 12.02 30.66 11 31 C11 31.66 11 32.32 11 33 C8.804688 32.984375 8.804688 32.984375 6 32 C3.507812 29.453125 3.507812 29.453125 1.125 26.25 C0.323203 25.203281 -0.478594 24.156563 -1.304688 23.078125 C-3 20 -3 20 -2.800781 17.273438 C-2.536523 16.523203 -2.272266 15.772969 -2 15 C-1.270346 12.437173 -1.270346 12.437173 -1 10 C-1.66 9.01 -2.32 8.02 -3 7 C-2.67 6.01 -2.34 5.02 -2 4 C-1.34 4 -0.68 4 0 4 C0 2.68 0 1.36 0 0 Z " fill="#BBBBB7" transform="translate(149,63)"/>
<path d="M0 0 C0.66 0.66 1.32 1.32 2 2 C1.547942 2.744836 1.095884 3.489673 0.630127 4.25708 C-1.29856 7.50237 -1.281292 9.15854 -1.082031 12.886719 C-1.045293 13.989512 -1.008555 15.092305 -0.970703 16.228516 C-0.864674 18.546761 -0.747366 20.864517 -0.619141 23.181641 C-0.52823 26.220911 -0.461043 29.006394 -1 32 C-4.151266 33.958779 -5.805576 34.061252 -9.4375 33.875 C-10.210938 33.441875 -10.210938 33.441875 -11 33 C-10.875 31 -10.875 31 -10 29 C-9.34 28.67 -8.68 28.34 -8 28 C-7.752946 25.192654 -7.752946 25.192654 -7.875 21.8125 C-7.890469 20.556953 -7.905937 19.301406 -7.921875 18.007812 C-7.946773 16.671853 -7.972829 15.335915 -8 14 C-8.05297 11.39566 -8.092908 8.792308 -8.125 6.1875 C-8.148203 5.026055 -8.171406 3.864609 -8.195312 2.667969 C-8.130859 1.787539 -8.066406 0.907109 -8 0 C-5.092889 -1.453556 -3.104029 -0.71134 0 0 Z " fill="#EAEAEA" transform="translate(196,159)"/>
<path d="M0 0 C1.129213 2.408189 2.120209 4.769323 3.0625 7.25 C3.33127 7.931914 3.600039 8.613828 3.876953 9.316406 C7.231599 17.933077 8.934677 27.061511 5.988281 36.105469 C4.796611 38.585431 3.683473 40.823341 2 43 C0.515 43.495 0.515 43.495 -1 44 C-0.67 42.824375 -0.34 41.64875 0 40.4375 C2.727551 27.735476 0.79275 17.769738 -4 6 C-4.847656 3.730469 -4.847656 3.730469 -5 2 C-2 0 -2 0 0 0 Z " fill="#E9E9E8" transform="translate(175,97)"/>
<path d="M0 0 C2.226562 1.296875 2.226562 1.296875 3.140625 3.46875 C3.403308 5.825393 3.503336 7.941954 3.226562 10.296875 C2.896562 10.626875 2.566563 10.956875 2.226562 11.296875 C3.216563 11.956875 4.206562 12.616875 5.226562 13.296875 C4.050938 13.544375 2.875313 13.791875 1.664062 14.046875 C0.529687 14.459375 -0.604688 14.871875 -1.773438 15.296875 C-1.922509 17.371411 -1.922509 17.371411 -0.773438 19.296875 C0.866401 22.576553 0.405019 25.668262 0.226562 29.296875 C-0.433437 28.966875 -1.093437 28.636875 -1.773438 28.296875 C-2.928438 28.35875 -4.083438 28.420625 -5.273438 28.484375 C-6.428438 28.4225 -7.583438 28.360625 -8.773438 28.296875 C-10.273438 26.609375 -10.273438 26.609375 -10.773438 24.296875 C-10.523438 21.546875 -10.523438 21.546875 -9.773438 19.296875 C-9.113438 19.296875 -8.453438 19.296875 -7.773438 19.296875 C-7.083032 17.639901 -6.420374 15.971299 -5.773438 14.296875 C-5.195938 13.69875 -4.618437 13.100625 -4.023438 12.484375 C-2.526 9.86386 -2.715722 9.011559 -3.273438 6.109375 C-3.810929 4.015352 -3.810929 4.015352 -4.773438 2.296875 C-7.31395 1.320767 -7.31395 1.320767 -9.773438 1.296875 C-9.773438 0.636875 -9.773438 -0.023125 -9.773438 -0.703125 C-6.417024 -2.381332 -3.458806 -1.056581 0 0 Z " fill="#90908B" transform="translate(193.7734375,52.703125)"/>
<path d="M0 0 C0.125 2.4375 0.125 2.4375 0 5 C0.99 5.66 1.98 6.32 3 7 C3.600612 5.098212 3.600612 5.098212 4 3 C4.66 3 5.32 3 6 3 C5.938125 3.94875 5.87625 4.8975 5.8125 5.875 C5.874375 6.90625 5.93625 7.9375 6 9 C6.845625 9.2475 7.69125 9.495 8.5625 9.75 C9.366875 10.1625 10.17125 10.575 11 11 C11.42155 14.50522 11.134237 17.653377 10 21 C7.75 21.25 7.75 21.25 5 20 C4.13375 19.731875 3.2675 19.46375 2.375 19.1875 C-0.451139 17.77443 -1.42251 16.730625 -3 14 C-3.046875 11.019531 -3.046875 11.019531 -2.75 7.8125 C-2.552136 4.689269 -2.552136 4.689269 -3 2 C-6.438084 0.591856 -6.438084 0.591856 -10 1 C-10 0.67 -10 0.34 -10 0 C-6.43504 -1.01856 -3.492672 -1.397069 0 0 Z " fill="#A2A39D" transform="translate(40,150)"/>
<path d="M0 0 C3.675623 -0.255156 7.360113 0.489528 11 1 C12.647422 1.206895 12.647422 1.206895 14.328125 1.417969 C20.530242 2.294355 20.530242 2.294355 23 3 C23.99 4.485 23.99 4.485 25 6 C22.710938 7.640625 22.710938 7.640625 19.375 9.25 C17.746914 10.062109 17.746914 10.062109 16.085938 10.890625 C12.962211 12.013585 11.94106 12.379212 9 11 C7.183594 9.660156 7.183594 9.660156 5.4375 8.0625 C3.326134 6.148634 1.391657 4.594438 -1 3 C-0.67 2.01 -0.34 1.02 0 0 Z " fill="#DCDDD9" transform="translate(122,50)"/>
<path d="M0 0 C0.993867 0.015469 1.987734 0.030937 3.011719 0.046875 C4.150605 0.147422 4.150605 0.147422 5.3125 0.25 C5.3125 0.58 5.3125 0.91 5.3125 1.25 C3.084437 1.983346 0.833673 2.608836 -1.425781 3.238281 C-5.130155 4.895333 -6.309226 7.279281 -7.75 10.976562 C-8.376525 12.91357 -9.001518 14.851073 -9.625 16.789062 C-10.6875 19.25 -10.6875 19.25 -13.6875 21.25 C-17.3125 21.6875 -17.3125 21.6875 -20.6875 21.25 C-21.83238 18.674021 -21.6875 16.780337 -21.6875 14 C-21.3575 13.4225 -21.0275 12.845 -20.6875 12.25 C-17.542235 11.597209 -14.516354 11.293624 -11.3125 11.125 C-10.508125 10.691875 -10.508125 10.691875 -9.6875 10.25 C-9.300008 7.925047 -8.969919 5.590042 -8.6875 3.25 C-6.31337 -0.21623 -4.017116 -0.105023 0 0 Z " fill="#C9CAC5" transform="translate(95.6875,152.75)"/>
<path d="M0 0 C8.690943 0.831444 19.162703 8.638657 25 15 C32 23.829703 32 23.829703 32 28 C31.01 28 30.02 28 29 28 C27.527344 26.09375 27.527344 26.09375 25.9375 23.5 C18.68363 12.725869 7.530468 5.996416 -5 3 C-4.360625 2.690625 -3.72125 2.38125 -3.0625 2.0625 C-1.063892 1.165484 -1.063892 1.165484 0 0 Z " fill="#979894" transform="translate(105,48)"/>
<path d="M0 0 C1.955322 0.045166 1.955322 0.045166 4 1 C5.505502 5.516505 5.3377 10.111361 5.523438 14.847656 C5.680703 15.88793 5.837969 16.928203 6 18 C6.99 18.66 7.98 19.32 9 20 C9 22.09375 9 22.09375 8 24 C5.75 24.53125 5.75 24.53125 3 24.5 C2.0925 24.510312 1.185 24.520625 0.25 24.53125 C-0.86375 24.268281 -0.86375 24.268281 -2 24 C-3 21.96875 -3 21.96875 -3 20 C-2.01 20 -1.02 20 0 20 C0.355476 18.037696 0.355476 18.037696 0.152344 15.589844 C0.124629 14.682988 0.096914 13.776133 0.068359 12.841797 C-0.019064 10.901521 -0.110226 8.961411 -0.205078 7.021484 C-0.231504 6.115918 -0.25793 5.210352 -0.285156 4.277344 C-0.325198 3.434216 -0.365239 2.591089 -0.406494 1.722412 C-0.272351 1.154016 -0.138208 0.58562 0 0 Z " fill="#EAEAEA" transform="translate(49,186)"/>
<path d="M0 0 C2.9375 0.5 2.9375 0.5 6 2 C9.217167 8.177816 8.78056 15.67712 7.125 22.3125 C6.75375 23.199375 6.3825 24.08625 6 25 C3.309072 22.309072 2.534118 19.222135 1.375 15.6875 C1.145547 15.022988 0.916094 14.358477 0.679688 13.673828 C-0.997469 8.627383 -1.686551 5.059654 0 0 Z " fill="#696963" transform="translate(177,93)"/>
<path d="M0 0 C0.66 0 1.32 0 2 0 C2 0.66 2 1.32 2 2 C2.639375 2.0825 3.27875 2.165 3.9375 2.25 C4.618125 2.4975 5.29875 2.745 6 3 C7.361502 8.150742 6.986126 13.239269 6.6875 18.5 C6.634326 19.743301 6.634326 19.743301 6.580078 21.011719 C6.334661 25.619702 5.974474 29.757117 4 34 C1.875 35.875 1.875 35.875 0 37 C0.216563 35.979062 0.216563 35.979062 0.4375 34.9375 C2.70864 23.0771 2.936446 11.745786 0 0 Z " fill="#E8E8E8" transform="translate(185,91)"/>
<path d="M0 0 C0.99 0.33 1.98 0.66 3 1 C1.399613 2.858514 -0.166305 4.390473 -2 6 C-2.496289 6.452461 -2.992578 6.904922 -3.503906 7.371094 C-6.034015 9.597326 -7.85058 10.958163 -11.125 11.875 C-12.053125 12.431875 -12.053125 12.431875 -13 13 C-12.076441 14.641882 -11.129281 16.273956 -10.082031 17.839844 C-8.271697 21.453977 -7.813685 26.100861 -9 30 C-11.867691 29.355985 -12.939848 28.084299 -14.625 25.722656 C-15.07875 24.844805 -15.5325 23.966953 -16 23.0625 C-16.474375 22.187227 -16.94875 21.311953 -17.4375 20.410156 C-17.623125 19.614805 -17.80875 18.819453 -18 18 C-16.125 16.183594 -16.125 16.183594 -14 15 C-14.66 15 -15.32 15 -16 15 C-14.932618 11.797855 -14.435067 11.28971 -11.875 9.335938 C-11.251094 8.853828 -10.627187 8.371719 -9.984375 7.875 C-9.329531 7.38 -8.674688 6.885 -8 6.375 C-6.708066 5.383161 -5.416386 4.39099 -4.125 3.398438 C-3.09375 2.606953 -2.0625 1.815469 -1 1 C-0.67 0.67 -0.34 0.34 0 0 Z " fill="#84847E" transform="translate(159,104)"/>
<path d="M0 0 C0.99 0 1.98 0 3 0 C5.778458 3.154137 7.764782 6.6769 8.5 10.8125 C7.891212 13.475946 7.304377 14.518615 5 16 C2.532527 15.845783 1.305214 15.236904 -0.640625 13.726562 C-2 12 -2 12 -2.109375 9.84375 C-1.990781 9.070312 -1.872187 8.296875 -1.75 7.5 C-1.641719 6.726562 -1.533437 5.953125 -1.421875 5.15625 C-1 3 -1 3 0 0 Z " fill="#6B6B66" transform="translate(216,43)"/>
<path d="M0 0 C0.99 0.66 1.98 1.32 3 2 C0.365171 3.679058 -2.218869 5.093816 -5 6.5 C-11.890217 10.123674 -18.099492 14.007633 -24.113281 18.951172 C-27.834717 22 -27.834717 22 -30 22 C-29.75 20 -29.75 20 -29 18 C-28.34 18 -27.68 18 -27 18 C-27 17.34 -27 16.68 -27 16 C-26.01 16 -25.02 16 -24 16 C-24 15.34 -24 14.68 -24 14 C-21.758706 12.415247 -19.422002 11.041009 -17.066406 9.632812 C-14.675443 7.743545 -14.625017 6.860654 -14 4 C-10.9375 3.125 -10.9375 3.125 -8 3 C-8 3.66 -8 4.32 -8 5 C-7.236875 4.505 -6.47375 4.01 -5.6875 3.5 C-3 2 -3 2 0 2 C0 1.34 0 0.68 0 0 Z " fill="#7D7D78" transform="translate(184,80)"/>
<path d="M0 0 C0.825 0.0825 1.65 0.165 2.5 0.25 C3.5 3.25 3.5 3.25 2.5 6.25 C2.431451 8.144708 2.415196 10.041683 2.4375 11.9375 C2.446523 12.931367 2.455547 13.925234 2.464844 14.949219 C2.476445 15.708477 2.488047 16.467734 2.5 17.25 C0.515625 16.042969 0.515625 16.042969 -1.5 14.25 C-1.890625 11.988281 -1.890625 11.988281 -1.75 9.5625 C-1.713906 8.754258 -1.677812 7.946016 -1.640625 7.113281 C-1.571016 6.190957 -1.571016 6.190957 -1.5 5.25 C-1.9125 6.36375 -2.325 7.4775 -2.75 8.625 C-3.782727 11.008959 -4.316022 12.102817 -6.375 13.75 C-9.064823 14.382899 -10.896912 14.142487 -13.5 13.25 C-13.17 12.59 -12.84 11.93 -12.5 11.25 C-11.51 11.58 -10.52 11.91 -9.5 12.25 C-8.783379 9.931521 -8.11758 7.596803 -7.5 5.25 C-6.84 5.25 -6.18 5.25 -5.5 5.25 C-4.408337 3.316694 -4.408337 3.316694 -3.5 1.25 C-2.5 0.25 -2.5 0.25 0 0 Z " fill="#6C6C66" transform="translate(209.5,40.75)"/>
<path d="M0 0 C3.420792 1.060656 5.283205 2.909769 7 6 C7.625 8.875 7.625 8.875 7 12 C3.837403 15.646491 0.298352 17.850824 -4 20 C-3.67 16.37 -3.34 12.74 -3 9 C-2.34 9.66 -1.68 10.32 -1 11 C-0.67 10.67 -0.34 10.34 0 10 C-0.049016 7.313053 -0.197665 4.639695 -0.355469 1.957031 C-0.238164 1.311211 -0.120859 0.665391 0 0 Z " fill="#DEDFDA" transform="translate(146,92)"/>
<path d="M0 0 C4.168873 1.042218 6.682802 4.603748 9 8 C10.888754 11.238583 12.723862 14.469352 14 18 C13.67 18.99 13.34 19.98 13 21 C12.01 21 11.02 21 10 21 C8.316406 18.332031 8.316406 18.332031 6.5625 14.8125 C4.804519 11.308337 3.23062 8.27635 0.714844 5.261719 C0.148945 4.515352 -0.416953 3.768984 -1 3 C-0.67 2.01 -0.34 1.02 0 0 Z " fill="#E9E9E9" transform="translate(169,61)"/>
<path d="M0 0 C3.879275 4.461166 6.925526 9.83704 7.066406 15.820312 C6.822331 18.576487 6.454777 21.271341 6 24 C5.855625 25.216875 5.71125 26.43375 5.5625 27.6875 C5.376875 28.450625 5.19125 29.21375 5 30 C4.34 30 3.68 30 3 30 C2.691406 27.359375 2.691406 27.359375 2.5625 23.75 C2.237313 17.700291 1.253905 12.318121 -0.476562 6.523438 C-1.018448 3.911066 -0.87589 2.487529 0 0 Z " fill="#74736E" transform="translate(138,77)"/>
<path d="M0 0 C0.33 0 0.66 0 1 0 C1.534287 7.480019 0.279916 12.960112 -4.25 19 C-7.709509 21.516007 -9.81619 21.410177 -14 21 C-13.29875 20.360625 -12.5975 19.72125 -11.875 19.0625 C-6.424643 13.596659 -2.866478 7.090761 0 0 Z " fill="#C0C1BC" transform="translate(142,142)"/>
<path d="M0 0 C1.216875 0.003867 2.43375 0.007734 3.6875 0.011719 C6.733614 0.288312 8.446458 0.710152 11 2.3125 C10.34 2.374375 9.68 2.43625 9 2.5 C8.34 2.768125 7.68 3.03625 7 3.3125 C7.04125 4.158125 7.0825 5.00375 7.125 5.875 C7.08375 6.679375 7.0425 7.48375 7 8.3125 C4.3125 8.875 4.3125 8.875 1 8.3125 C-0.670838 6.984398 -2.337297 5.650773 -4 4.3125 C-7.689748 3.510278 -7.689748 3.510278 -11 3.3125 C-7.478909 -0.023734 -4.749548 -0.065407 0 0 Z " fill="#D0D1CB" transform="translate(160,57.6875)"/>
<path d="M0 0 C0.33 0 0.66 0 1 0 C1.567922 8.191181 2.022111 17.551646 -2 25 C-2.99 25.33 -3.98 25.66 -5 26 C-5.328125 23.472656 -5.328125 23.472656 -5.25 20.0625 C-5.234531 18.939727 -5.219063 17.816953 -5.203125 16.660156 C-5.136094 15.782305 -5.069063 14.904453 -5 14 C-4.67 14 -4.34 14 -4 14 C-4.009362 11.682971 -4.13471 9.380016 -4.257812 7.066406 C-4.172734 6.384492 -4.087656 5.702578 -4 5 C-3.01 4.67 -2.02 4.34 -1 4 C-0.347867 1.975367 -0.347867 1.975367 0 0 Z " fill="#7D7C77" transform="translate(176,117)"/>
<path d="M0 0 C3.161118 -0.387795 6.058357 -0.265871 9 1 C9.633887 3.840302 8.946774 6.288253 8 9 C6.480206 10.519794 5.043756 10.387907 2.9375 10.5625 C1.638125 10.376875 0.33875 10.19125 -1 10 C-1.567563 6.090122 -1.764586 3.529171 0 0 Z " fill="#EAEAEA" transform="translate(63,164)"/>
<path d="M0 0 C5.648635 0.461113 9.338302 1.697964 14 5 C13.67 5.99 13.34 6.98 13 8 C13.659968 9.669331 14.325589 11.336452 15 13 C14.34 13 13.68 13 13 13 C13 13.66 13 14.32 13 15 C12.34 15 11.68 15 11 15 C9.886719 13.425781 9.886719 13.425781 8.6875 11.3125 C6.518947 7.676795 4.089166 4.917545 1 2 C0.67 1.34 0.34 0.68 0 0 Z " fill="#E1E2DE" transform="translate(171,59)"/>
<path d="M0 0 C3.145475 -0.625587 6.057733 -0.272169 9 1 C9.125 4.5 9.125 4.5 8 8 C7 9 7 9 3.5 9.375 C2.345 9.25125 1.19 9.1275 0 9 C-1.156286 6.398355 -1.062408 4.639103 -0.789062 1.839844 C-0.528672 1.232695 -0.268281 0.625547 0 0 Z " fill="#EBEBEA" transform="translate(75,165)"/>
<path d="M0 0 C4.583412 0.42127 8.144149 2.531247 12 4.875 C12.622617 5.226914 13.245234 5.578828 13.886719 5.941406 C15.625 6.992188 15.625 6.992188 18 9 C17.089844 10.886719 17.089844 10.886719 15 12 C13.378906 11.339844 13.378906 11.339844 11.5625 9.9375 C6.456497 6.387158 0.914847 4.764596 -5 3 C-4.360625 2.690625 -3.72125 2.38125 -3.0625 2.0625 C-1.063892 1.165484 -1.063892 1.165484 0 0 Z " fill="#8E8E8A" transform="translate(105,48)"/>
<path d="M0 0 C2 0.0625 2 0.0625 4 2 C4.572307 5.863071 4.56608 8.08012 2.5 11.4375 C-1.24892 13.780575 -3.610358 13.487738 -8 13 C-10.0625 11.625 -10.0625 11.625 -11 10 C-10 8 -10 8 -8 7 C-8 7.66 -8 8.32 -8 9 C-5.113048 9.8424 -5.113048 9.8424 -2 10 C0.224846 8.2336 0.224846 8.2336 0.054688 5.984375 C-0.004609 5.247031 -0.063906 4.509687 -0.125 3.75 C-0.08375 2.5125 -0.0425 1.275 0 0 Z " fill="#DCDCDC" transform="translate(223,48)"/>
<path d="M0 0 C0.66 0.99 1.32 1.98 2 3 C2.99 3 3.98 3 5 3 C6.150726 7.571803 5.30656 12.08584 3.125 16.1875 C2.42375 17.115625 1.7225 18.04375 1 19 C0.34 18.34 -0.32 17.68 -1 17 C-0.982518 14.080474 -0.860554 11.277021 -0.625 8.375 C-0.568281 7.573203 -0.511562 6.771406 -0.453125 5.945312 C-0.31152 3.962845 -0.156977 1.981309 0 0 Z " fill="#A3A39F" transform="translate(158,131)"/>
<path d="M0 0 C3.5625 -0.6875 3.5625 -0.6875 7 1 C7.649276 4.222106 7.190351 6.954101 6 10 C3.5 11.125 3.5 11.125 1 11 C-1.127091 8.872909 -0.499824 4.997485 -0.503906 2.160156 C-0.337617 1.447305 -0.171328 0.734453 0 0 Z " fill="#E8E8E8" transform="translate(53,162)"/>
<path d="M0 0 C3.684459 -0.288977 5.716681 -0.023563 8.621094 2.292969 C12.701091 6.754473 16.069768 12.266922 18 18 C17.753906 20.363281 17.753906 20.363281 17 22 C15 21 15 21 14.359375 19.214844 C14.057734 18.087559 14.057734 18.087559 13.75 16.9375 C11.955467 11.235077 9.026257 5.889351 3.847656 2.65625 C3.23793 2.439687 2.628203 2.223125 2 2 C1.328434 3.936184 1.328434 3.936184 1 6 C0.34 5.67 -0.32 5.34 -1 5 C-1.0625 2.375 -1.0625 2.375 0 0 Z " fill="#888883" transform="translate(167,60)"/>
<path d="M0 0 C4.290175 5.51258 5.216151 10.383671 5.363281 17.242188 C5.183457 18.112305 5.183457 18.112305 5 19 C2 19 2 19 0 18 C-0.227051 16.234131 -0.227051 16.234131 -0.195312 13.964844 C-0.188867 13.155957 -0.182422 12.34707 -0.175781 11.513672 C-0.159023 10.663535 -0.142266 9.813398 -0.125 8.9375 C-0.115977 8.083496 -0.106953 7.229492 -0.097656 6.349609 C-0.074006 4.232955 -0.038134 2.116443 0 0 Z " fill="#A3A39E" transform="translate(138,123)"/>
<path d="M0 0 C0.99 0 1.98 0 3 0 C2.7525 0.99 2.505 1.98 2.25 3 C2.1675 3.99 2.085 4.98 2 6 C5.332479 6.334179 5.332479 6.334179 9 6 C9.99 6.66 10.98 7.32 12 8 C11.289727 7.953594 10.579453 7.907187 9.847656 7.859375 C8.928555 7.823281 8.009453 7.787187 7.0625 7.75 C6.145977 7.703594 5.229453 7.657187 4.285156 7.609375 C3.531055 7.738281 2.776953 7.867188 2 8 C1.092294 9.962567 1.092294 9.962567 1 12 C1 10.68 1 9.36 1 8 C-0.818445 7.508879 -0.818445 7.508879 -3 7.75 C-3.7425 7.786094 -4.485 7.822188 -5.25 7.859375 C-5.8275 7.905781 -6.405 7.952188 -7 8 C-6.34 7.01 -5.68 6.02 -5 5 C-4.13375 5.04125 -3.2675 5.0825 -2.375 5.125 C-1.59125 5.08375 -0.8075 5.0425 0 5 C0.166667 2.5 0.166667 2.5 0 0 Z " fill="#A3A49F" transform="translate(73,157)"/>
<path d="M0 0 C0.33 0 0.66 0 1 0 C1.415774 6.548438 0.765838 11.998892 -2 18 C-2.66 18.66 -3.32 19.32 -4 20 C-4.080558 17.854769 -4.138985 15.708695 -4.1875 13.5625 C-4.222305 12.367539 -4.257109 11.172578 -4.292969 9.941406 C-4.196289 8.970742 -4.099609 8.000078 -4 7 C-3.01 6.67 -2.02 6.34 -1 6 C-0.342276 2.970655 -0.342276 2.970655 0 0 Z " fill="#7E7E79" transform="translate(186,111)"/>
<path d="M0 0 C3.0625 -0.75 3.0625 -0.75 6 1 C6.52365 4.525911 6.188447 7.640819 5 11 C4.154375 11.2475 3.30875 11.495 2.4375 11.75 C0 10 0 10 -0.539062 7.632812 C-0.68606 4.901761 -0.706942 2.646255 0 0 Z " fill="#ECECEC" transform="translate(45,160)"/>
<path d="M0 0 C1.1875 1.5 1.1875 1.5 2 4 C2.268125 4.61875 2.53625 5.2375 2.8125 5.875 C3.109151 9.237047 1.887719 11.303258 0 14 C-2.471775 12.098634 -3.023148 9.925927 -3.9375 7 C-4 4 -4 4 -2.1875 1.375 C-1.465625 0.92125 -0.74375 0.4675 0 0 Z " fill="#C4C4BF" transform="translate(146,68)"/>
<path d="M0 0 C0.33 0 0.66 0 1 0 C1.606979 7.297868 1.102472 14.965803 -1 22 C-1.66 22.33 -2.32 22.66 -3 23 C-4.097158 15.191655 -2.78271 7.324439 0 0 Z " fill="#7D7C76" transform="translate(110,186)"/>
<path d="M0 0 C0.33 0 0.66 0 1 0 C1.326184 3.050421 1.566056 6.065244 1.75 9.125 C1.81832 9.980938 1.886641 10.836875 1.957031 11.71875 C2.269192 16.921432 2.282646 20.768699 -1 25 C-2.765625 24.117188 -2.765625 24.117188 -4 22 C-3.671875 20.195312 -3.671875 20.195312 -2.75 18.125 C-0.75192 12.959024 -0.475463 8.025699 -0.210938 2.527344 C-0.106523 1.276309 -0.106523 1.276309 0 0 Z " fill="#93938E" transform="translate(139,128)"/>
<path d="M0 0 C0.33 0 0.66 0 1 0 C1.292555 2.600484 1.450644 5.201352 1.621094 7.8125 C1.746133 8.534375 1.871172 9.25625 2 10 C4.123586 10.169007 4.123586 10.169007 6.125 8.75 C6.74375 8.5025 7.3625 8.255 8 8 C8 9.32 8 10.64 8 12 C7.01 12.33 6.02 12.66 5 13 C5 13.66 5 14.32 5 15 C2.625 14.9375 2.625 14.9375 0 14 C-1.375 11.4375 -1.375 11.4375 -2 9 C-1.67 9 -1.34 9 -1 9 C-0.786563 7.505938 -0.629943 6.003626 -0.5 4.5 C-0.370057 2.996374 -0.213437 1.494062 0 0 Z " fill="#A4A4A0" transform="translate(155,81)"/>
<path d="M0 0 C0.33 0 0.66 0 1 0 C1.25 2.9375 1.25 2.9375 1 6 C0.01 6.33 -0.98 6.66 -2 7 C-2 7.66 -2 8.32 -2 9 C0.003493 8.688346 2.003265 8.352365 4 8 C4.99 8.33 5.98 8.66 7 9 C6.67 9.99 6.34 10.98 6 12 C3.96875 12.109375 3.96875 12.109375 1.5 11.75 C0.685313 11.641719 -0.129375 11.533437 -0.96875 11.421875 C-3 11 -3 11 -4 10 C-4.1875 7.4375 -4.1875 7.4375 -4 5 C-3.34 5 -2.68 5 -2 5 C-1.4093 3.053967 -1.4093 3.053967 -1 1 C-0.67 0.67 -0.34 0.34 0 0 Z " fill="#787770" transform="translate(142,179)"/>
<path d="M0 0 C3.508993 2.71664 5.311325 5.947181 7 10 C7 11.32 7 12.64 7 14 C4.130648 13.31037 3.07433 12.110561 1.445312 9.6875 C0.791758 8.357188 0.791758 8.357188 0.125 7 C-0.326172 6.113125 -0.777344 5.22625 -1.242188 4.3125 C-1.617305 3.167812 -1.617305 3.167812 -2 2 C-1.34 1.34 -0.68 0.68 0 0 Z " fill="#DBDCD8" transform="translate(143,120)"/>
<path d="M0 0 C0.873144 2.357488 1.049244 3.778402 0.5 6.25 C-1.733606 10.344944 -4.839156 13.594064 -8 17 C-8.33 16.01 -8.66 15.02 -9 14 C-7.787997 11.67553 -6.551314 9.559789 -5.125 7.375 C-4.558457 6.477812 -4.558457 6.477812 -3.980469 5.5625 C-1.219284 1.219284 -1.219284 1.219284 0 0 Z " fill="#CDCEC9" transform="translate(25,108)"/>
<path d="M0 0 C0.33 0 0.66 0 1 0 C1.074651 2.675495 1.091868 5.325238 1.0625 8 C1.057988 8.763125 1.053477 9.52625 1.048828 10.3125 C1.036979 12.208366 1.019043 14.104192 1 16 C0.34 15.34 -0.32 14.68 -1 14 C-1.33 14.99 -1.66 15.98 -2 17 C-2.66 17 -3.32 17 -4 17 C-4.1875 14.5625 -4.1875 14.5625 -4 12 C-3.67 11.67 -3.34 11.34 -3 11 C-2.71806 8.713157 -2.55223 6.426367 -2.378906 4.128906 C-2 2 -2 2 0 0 Z " fill="#A3A4A1" transform="translate(187,100)"/>
<path d="M0 0 C-0.33 0.66 -0.66 1.32 -1 2 C-1.66 1.67 -2.32 1.34 -3 1 C-2.67 1.721875 -2.34 2.44375 -2 3.1875 C-0.984789 6.042781 -0.666685 8.000164 -1 11 C-1.99 11.495 -1.99 11.495 -3 12 C-3.268125 11.0925 -3.53625 10.185 -3.8125 9.25 C-4.693333 5.770057 -4.693333 5.770057 -7.875 4.3125 C-8.57625 3.879375 -9.2775 3.44625 -10 3 C-7.323467 -0.441256 -4.097923 -0.476503 0 0 Z " fill="#807F79" transform="translate(188,90)"/>
<path d="M0 0 C0.66 0 1.32 0 2 0 C3.070312 1.679688 3.070312 1.679688 4.125 3.875 C4.478203 4.594297 4.831406 5.313594 5.195312 6.054688 C6 8 6 8 6 10 C4.038521 11.389381 2.038334 12.726041 0 14 C-0.053566 11.66691 -0.092591 9.33348 -0.125 7 C-0.148203 5.700625 -0.171406 4.40125 -0.195312 3.0625 C-0.130859 2.051875 -0.066406 1.04125 0 0 Z " fill="#75746E" transform="translate(156,76)"/>
<path d="M0 0 C0.741715 5.63703 -1.141419 11.162402 -4 16 C-4.99 16 -5.98 16 -7 16 C-6.925781 14.242188 -6.925781 14.242188 -6.3125 11.875 C-6.102383 11.057734 -5.892266 10.240469 -5.675781 9.398438 C-4.046832 3.61708 -4.046832 3.61708 -3 1 C-1 0 -1 0 0 0 Z " fill="#E1E1E1" transform="translate(150,140)"/>
<path d="M0 0 C0 0.66 0 1.32 0 2 C-0.825 2.433125 -1.65 2.86625 -2.5 3.3125 C-5.243637 4.748497 -5.243637 4.748497 -5.5625 7.5 C-4.84946 10.669065 -3.613817 11.22935 -1 13 C-1.33 13.66 -1.66 14.32 -2 15 C-5 14.0625 -5 14.0625 -8 12 C-9.1875 8.625 -9.1875 8.625 -9 5 C-6.026007 1.006352 -5.069515 0 0 0 Z " fill="#7D7D75" transform="translate(200,90)"/>
<path d="M0 0 C0.66 0 1.32 0 2 0 C2.519531 2.082031 2.519531 2.082031 2.8125 4.8125 C2.976855 6.15248 2.976855 6.15248 3.144531 7.519531 C3 10 3 10 1.65625 11.828125 C0 13 0 13 -2.3125 12.9375 C-2.869375 12.628125 -3.42625 12.31875 -4 12 C-3.375 10.4375 -3.375 10.4375 -2 8 C-1.638785 6.590185 -1.307174 5.172568 -1 3.75 C-0.67 2.5125 -0.34 1.275 0 0 Z " fill="#95948F" transform="translate(72,165)"/>
<path d="M0 0 C0.33 0 0.66 0 1 0 C0.860077 1.667173 0.712926 3.333742 0.5625 5 C0.389265 7.710579 0.389265 7.710579 1 10 C3.796842 10.861958 6.050718 10.327698 9 10 C8.67 10.99 8.34 11.98 8 13 C4.464902 13.549904 2.626744 13.385689 -0.4375 11.5 C-2.807277 7.708356 -1.919135 5.312866 -1 1 C-0.67 0.67 -0.34 0.34 0 0 Z " fill="#81817B" transform="translate(61,164)"/>
<path d="M0 0 C3.427557 3.427557 2.845993 8.328449 3 13 C2.896816 15.510817 2.600504 17.543392 2 20 C1.34 20 0.68 20 0 20 C-0.227051 18.164062 -0.227051 18.164062 -0.195312 15.625 C-0.188867 14.722656 -0.182422 13.820312 -0.175781 12.890625 C-0.159023 11.936719 -0.142266 10.982812 -0.125 10 C-0.115977 9.046094 -0.106953 8.092187 -0.097656 7.109375 C-0.073956 4.73934 -0.040967 2.369789 0 0 Z " fill="#83837D" transform="translate(143,134)"/>
<path d="M0 0 C0.33 0 0.66 0 1 0 C1.074685 2.50941 1.09188 4.991371 1.0625 7.5 C1.057988 8.21543 1.053477 8.930859 1.048828 9.667969 C1.036979 11.445348 1.019043 13.222684 1 15 C0.34 14.34 -0.32 13.68 -1 13 C-1.66 13.99 -2.32 14.98 -3 16 C-3.247508 14.189913 -3.472564 12.376743 -3.6875 10.5625 C-3.815117 9.553164 -3.942734 8.543828 -4.074219 7.503906 C-4.049727 6.677617 -4.025234 5.851328 -4 5 C-3.01 4.67 -2.02 4.34 -1 4 C-0.347867 1.975367 -0.347867 1.975367 0 0 Z " fill="#ABABA7" transform="translate(176,117)"/>
<path d="M0 0 C0.66 0.66 1.32 1.32 2 2 C0.625 4.125 0.625 4.125 -1 6 C-1 5.34 -1 4.68 -1 4 C-3.557114 4.689317 -3.557114 4.689317 -6 6 C-6 6.66 -6 7.32 -6 8 C-7.75 9.1875 -7.75 9.1875 -10 10 C-12.140625 9.550781 -12.140625 9.550781 -14 9 C-11.71688 7.44414 -9.425089 5.905392 -7.125 4.375 C-6.474023 3.928984 -5.823047 3.482969 -5.152344 3.023438 C-3.490221 1.926779 -1.748963 0.952073 0 0 Z " fill="#83837D" transform="translate(176,93)"/>
<path d="M0 0 C4 6 4 6 4 10 C1.625 10.375 1.625 10.375 -1 10 C-3 7 -3 7 -2.75 4.3125 C-2.5025 3.549375 -2.255 2.78625 -2 2 C-1.34 2 -0.68 2 0 2 C0 1.34 0 0.68 0 0 Z " fill="#B9BAB6" transform="translate(186,70)"/>
<path d="M0 0 C2.019531 0.605469 2.019531 0.605469 4 2 C4.53125 4.234375 4.53125 4.234375 4.5 6.75 C4.510312 7.590469 4.520625 8.430937 4.53125 9.296875 C4.355937 9.858906 4.180625 10.420938 4 11 C2.019531 10.414062 2.019531 10.414062 0 9 C-0.910781 6.337718 -1.02764 4.359315 -0.8125 1.5625 C-0.544375 1.046875 -0.27625 0.53125 0 0 Z " fill="#EBEBEA" transform="translate(38,157)"/>
<path d="M0 0 C0.33 0 0.66 0 1 0 C1.581632 6.397954 0.480028 11.513241 -3 17 C-3.66 17 -4.32 17 -5 17 C-4.526468 11.155267 -2.242823 5.363272 0 0 Z " fill="#767670" transform="translate(151,140)"/>
<path d="M0 0 C3.4375 -0.0625 3.4375 -0.0625 7 1 C8.154066 3.934159 8.706646 6.896039 8 10 C6.128906 10.058594 6.128906 10.058594 4 9 C2.734375 6.933594 2.734375 6.933594 1.75 4.4375 C1.414844 3.611211 1.079688 2.784922 0.734375 1.933594 C0.492031 1.295508 0.249687 0.657422 0 0 Z " fill="#E5E5E4" transform="translate(189,53)"/>
<path d="M0 0 C-2.406157 2.655069 -4.179598 3.921647 -7.78125 4.265625 C-10.530339 4.251454 -13.256553 4.172967 -16 4 C-13.415883 2.277255 -11.450973 1.311045 -8.5625 0.3125 C-7.419746 -0.095488 -7.419746 -0.095488 -6.253906 -0.511719 C-3.781703 -1.047291 -2.370167 -0.804453 0 0 Z " fill="#EFEFEE" transform="translate(49,236)"/>
<path d="M0 0 C0.66 0.33 1.32 0.66 2 1 C0.118704 4.493835 -1.762311 5.883398 -5.3125 7.625 C-6.199375 7.74875 -7.08625 7.8725 -8 8 C-8.125 5.8125 -8.125 5.8125 -7 3 C-4.593884 0.422019 -3.555518 0 0 0 Z " fill="#DFE0DC" transform="translate(150,61)"/>
<path d="M0 0 C2 1.8125 2 1.8125 4 4 C4 4.99 4 5.98 4 7 C4.66 7 5.32 7 6 7 C6 7.66 6 8.32 6 9 C4.03125 9.265625 4.03125 9.265625 1.5 9.25 C0.247031 9.257734 0.247031 9.257734 -1.03125 9.265625 C-1.680937 9.177969 -2.330625 9.090313 -3 9 C-3 8.34 -3 7.68 -3 7 C-2.34 6.67 -1.68 6.34 -1 6 C-0.342276 2.970655 -0.342276 2.970655 0 0 Z " fill="#AAAAA6" transform="translate(143,179)"/>
<path d="M0 0 C1.243301 0.396387 1.243301 0.396387 2.511719 0.800781 C3.105977 1.093398 3.700234 1.386016 4.3125 1.6875 C3.9825 2.3475 3.6525 3.0075 3.3125 3.6875 C0.519531 4.023438 0.519531 4.023438 -2.875 4.0625 C-4.00293 4.090859 -5.130859 4.119219 -6.292969 4.148438 C-7.083164 3.996328 -7.873359 3.844219 -8.6875 3.6875 C-8.175781 1.726562 -8.175781 1.726562 -6.6875 -0.3125 C-3.96197 -1.675265 -2.845418 -0.942517 0 0 Z " fill="#807F78" transform="translate(195.6875,155.3125)"/>
<path d="M0 0 C0.66 -0.33 1.32 -0.66 2 -1 C2 -0.34 2 0.32 2 1 C2.66 1.33 3.32 1.66 4 2 C1.625 3.5625 1.625 3.5625 -1 5 C-1.66 4.67 -2.32 4.34 -3 4 C-4.32 4 -5.64 4 -7 4 C-8.5 2.0625 -8.5 2.0625 -9 0 C-5.924121 -1.599457 -3.240586 -0.682229 0 0 Z " fill="#91918C" transform="translate(177,81)"/>
<path d="M0 0 C0 0.33 0 0.66 0 1 C-1.051875 1.28875 -2.10375 1.5775 -3.1875 1.875 C-7.618797 3.182596 -10.737412 4.737412 -14 8 C-16.763675 8.016649 -19.261852 7.4858 -22 7 C-22 6.67 -22 6.34 -22 6 C-20.611356 5.694438 -19.213187 5.431992 -17.8125 5.1875 C-14.468343 4.505125 -13.131829 4.109322 -10.4375 1.875 C-6.872536 -0.86728 -4.412755 -0.373962 0 0 Z " fill="#6F6F6A" transform="translate(230,30)"/>
<path d="M0 0 C2.125 0.5625 2.125 0.5625 4 2 C4 5.0625 4 5.0625 3 8 C0.9375 9.375 0.9375 9.375 -1 9 C-1.229517 6.153988 -1.353548 3.793609 -1 1 C-0.67 0.67 -0.34 0.34 0 0 Z " fill="#6C6C66" transform="translate(146,133)"/>
<path d="M0 0 C0.12375 0.66 0.2475 1.32 0.375 2 C0.58125 2.66 0.7875 3.32 1 4 C1.66 4 2.32 4 3 4 C2.828125 6.371094 2.828125 6.371094 2.25 9.4375 C1.979297 10.951504 1.979297 10.951504 1.703125 12.496094 C1.471094 13.322383 1.239062 14.148672 1 15 C0.01 15.495 0.01 15.495 -1 16 C-1.747278 10.731055 -0.886076 5.205699 0 0 Z " fill="#7D7C77" transform="translate(140,103)"/>
<path d="M0 0 C0.33 0 0.66 0 1 0 C1.374008 2.32716 1.707647 4.661179 2 7 C2.33 5.35 2.66 3.7 3 2 C5 4 5 4 5.75 7.0625 C5.5025 8.031875 5.255 9.00125 5 10 C1.689073 10.908768 -1.57924 10.987783 -5 11 C-4.03127 10.648086 -4.03127 10.648086 -3.042969 10.289062 C-0.787669 9.190016 -0.787669 9.190016 -0.425781 6.835938 C-0.388398 6.023828 -0.351016 5.211719 -0.3125 4.375 C-0.23191 2.915174 -0.134798 1.455821 0 0 Z " fill="#B5B5B1" transform="translate(209,83)"/>
<path d="M0 0 C3.832062 0.414277 6.080252 1.512807 9 4 C6.384912 5.602796 4.681909 6.156223 1.664062 5.464844 C-0.585598 4.701946 -2.798584 3.892077 -5 3 C-4.360625 2.690625 -3.72125 2.38125 -3.0625 2.0625 C-1.063892 1.165484 -1.063892 1.165484 0 0 Z " fill="#959692" transform="translate(105,48)"/>
<path d="M0 0 C0.5 3.0625 0.5 3.0625 0 6 C-0.99 6 -1.98 6 -3 6 C-3 4.68 -3 3.36 -3 2 C-6.482547 1.252486 -6.482547 1.252486 -10 1 C-10 0.67 -10 0.34 -10 0 C-6.446651 -1.015243 -3.454917 -1.480679 0 0 Z " fill="#A9A9A4" transform="translate(40,150)"/>
<path d="M0 0 C-1 2 -1 2 -3.75 3.1875 C-7.044218 4.011054 -8.790217 3.944054 -12 3 C-8.401063 -0.598937 -4.883887 -1.723725 0 0 Z " fill="#80807C" transform="translate(123,45)"/>
<path d="M0 0 C2.213683 2.213683 3.865529 3.930166 4.265625 7.113281 C4.25167 9.077468 4.132864 11.040262 4 13 C3.67 12.34 3.34 11.68 3 11 C2.34 11 1.68 11 1 11 C0.585938 8.59375 0.585938 8.59375 0.375 5.5 C0.300234 4.479062 0.225469 3.458125 0.148438 2.40625 C0.099453 1.612188 0.050469 0.818125 0 0 Z " fill="#ADAEA9" transform="translate(190,69)"/>
<path d="M0 0 C3.631481 2.420987 3.734608 3.473412 4.625 7.625 C5.125 10.617188 5.125 10.617188 5 13 C1.625 13.75 1.625 13.75 -2 13 C-2 12.67 -2 12.34 -2 12 C-1.113125 12.12375 -0.22625 12.2475 0.6875 12.375 C1.450625 12.25125 2.21375 12.1275 3 12 C1.942452 8.982607 1.942452 8.982607 0.84375 6.890625 C-0.216102 4.515771 -0.233473 2.568203 0 0 Z " fill="#9F9F9A" transform="translate(187,68)"/>
<path d="M0 0 C3.837346 1.279115 4.481651 2.788755 6.347656 6.210938 C7 8 7 8 6.25 10.4375 C5.8375 10.953125 5.425 11.46875 5 12 C4.773125 10.700625 4.54625 9.40125 4.3125 8.0625 C3.847714 5.867193 3.847714 5.867193 3 4 C0.459488 3.023892 0.459488 3.023892 -2 3 C-2 2.34 -2 1.68 -2 1 C-1.34 0.67 -0.68 0.34 0 0 Z " fill="#999A96" transform="translate(186,51)"/>
<path d="M0 0 C0.997734 0.01418 1.995469 0.028359 3.023438 0.042969 C4.026328 0.049414 5.029219 0.055859 6.0625 0.0625 C6.833359 0.11793 7.604219 0.173359 8.398438 0.230469 C8.398438 0.560469 8.398438 0.890469 8.398438 1.230469 C6.176889 2.045502 3.921701 2.718483 1.660156 3.414062 C-0.833339 4.212196 -0.833339 4.212196 -3.601562 6.230469 C-4.414062 4.480469 -4.414062 4.480469 -4.601562 2.230469 C-2.601562 0.230469 -2.601562 0.230469 0 0 Z " fill="#C2C2BD" transform="translate(92.6015625,152.76953125)"/>
<path d="M0 0 C3.20701 0.801752 4.323337 2.408425 6.375 5 C6.91125 5.99 7.4475 6.98 8 8 C7.34 8.66 6.68 9.32 6 10 C4.492188 8.769531 4.492188 8.769531 2.875 6.8125 C2.336172 6.17957 1.797344 5.546641 1.242188 4.894531 C0 3 0 3 0 0 Z " fill="#969691" transform="translate(150,65)"/>
<path d="M0 0 C4.144593 0.781999 6.460659 1.44683 9.4375 4.5 C11 7 11 7 11 9 C7.288281 7.76276 5.744665 5.744665 3 3 C1.680842 2.305706 0.353506 1.624695 -1 1 C-0.67 0.67 -0.34 0.34 0 0 Z " fill="#7E7E78" transform="translate(196,63)"/>
<path d="M0 0 C2.567126 2.72271 4.74439 5.165857 5 9 C4.01 10.485 4.01 10.485 3 12 C0 5.375 0 5.375 0 2 C-0.66 1.67 -1.32 1.34 -2 1 C-1.34 0.67 -0.68 0.34 0 0 Z " fill="#7C7C77" transform="translate(145,117)"/>
<path d="M0 0 C0.99 0 1.98 0 3 0 C5.107708 2.88834 6 4.384624 6 8 C5.01 8 4.02 8 3 8 C1.248499 5.821997 0.242931 3.530253 -1 1 C-0.67 0.67 -0.34 0.34 0 0 Z " fill="#9FA09C" transform="translate(131,68)"/>
<path d="M0 0 C0.33 0.99 0.66 1.98 1 3 C-0.630648 4.057717 -2.302809 5.05273 -4 6 C-4.66 6.99 -5.32 7.98 -6 9 C-5.737626 3.490141 -5.737626 3.490141 -5 1 C-2.5 -0.1875 -2.5 -0.1875 0 0 Z " fill="#858680" transform="translate(192,80)"/>
<path d="M0 0 C3.4375 0 3.4375 0 7 1 C7.66 1.99 8.32 2.98 9 4 C6 4 6 4 3.875 2.75 C3.25625 2.5025 2.6375 2.255 2 2 C1.328434 3.936184 1.328434 3.936184 1 6 C0.34 5.67 -0.32 5.34 -1 5 C-1.0625 2.375 -1.0625 2.375 0 0 Z " fill="#9B9B97" transform="translate(167,60)"/>
<path d="M0 0 C0.609375 1.855469 0.609375 1.855469 1 4 C-0.75 6.3125 -0.75 6.3125 -3 8 C-3.99 7.67 -4.98 7.34 -6 7 C-4.980469 5.371094 -4.980469 5.371094 -3.1875 3.4375 C-2.603555 2.796836 -2.019609 2.156172 -1.417969 1.496094 C-0.950039 1.002383 -0.482109 0.508672 0 0 Z " fill="#B9B9B5" transform="translate(138,155)"/>
<path d="M0 0 C2.9375 0.8125 2.9375 0.8125 6 2 C6.33 2.99 6.66 3.98 7 5 C6.34 5 5.68 5 5 5 C5 5.66 5 6.32 5 7 C4.34 7 3.68 7 3 7 C1.930971 4.697475 0.928242 2.362797 0 0 Z " fill="#D9DAD7" transform="translate(179,67)"/>
<path d="M0 0 C0.6875 1.75 0.6875 1.75 1 4 C-0.3125 6.5 -0.3125 6.5 -2 8 C-3.4375 6.5 -3.4375 6.5 -4 4 C-2.125 1.75 -2.125 1.75 0 0 Z " fill="#8D8D88" transform="translate(139,145)"/>
<path d="M0 0 C2 1 2 1 2.632812 2.847656 C2.795234 3.578555 2.957656 4.309453 3.125 5.0625 C3.292578 5.795977 3.460156 6.529453 3.632812 7.285156 C3.753984 7.851055 3.875156 8.416953 4 9 C0.875 6.75 0.875 6.75 -2 4 C-1.5 1.625 -1.5 1.625 0 0 Z " fill="#6D6D68" transform="translate(221,37)"/>
<path d="M0 0 C0.99 0.33 1.98 0.66 3 1 C2.653846 7.346154 2.653846 7.346154 0 10 C-0.08004 8.313241 -0.138742 6.625453 -0.1875 4.9375 C-0.222305 3.997773 -0.257109 3.058047 -0.292969 2.089844 C-0.196289 1.400195 -0.099609 0.710547 0 0 Z " fill="#787871" transform="translate(182,121)"/>
<path d="M0 0 C0.6862 1.323386 1.347865 2.659499 2 4 C2.721875 4.53625 3.44375 5.0725 4.1875 5.625 C4.785625 6.07875 5.38375 6.5325 6 7 C5.67 7.66 5.34 8.32 5 9 C-0.555556 6.916667 -0.555556 6.916667 -2 3.9375 C-2 2 -2 2 0 0 Z " fill="#82827C" transform="translate(193,96)"/>
<path d="M0 0 C2.5 -0.375 2.5 -0.375 5 0 C5.33 0.66 5.66 1.32 6 2 C3 4 3 4 -1 4 C-1.0625 2 -1.0625 2 0 0 Z " fill="#6B6B66" transform="translate(169,77)"/>
<path d="M0 0 C1.485 0.99 1.485 0.99 3 2 C2.875 4.6875 2.875 4.6875 2 7 C1.01 6.67 0.02 6.34 -1 6 C-1.25 3.5 -1.25 3.5 -1 1 C-0.67 0.67 -0.34 0.34 0 0 Z " fill="#E9E9E8" transform="translate(146,71)"/>
<path d="M0 0 C1.695228 3.390457 0.729173 6.354134 0 10 C-0.99 9.34 -1.98 8.68 -3 8 C-2.773534 4.376544 -2.602902 2.602902 0 0 Z " fill="#BABAB8" transform="translate(208,45)"/>
<path d="M0 0 C2.25 0.625 2.25 0.625 4 2 C4 2.66 4 3.32 4 4 C2.25 4.195312 2.25 4.195312 0 4.125 C-1.11375 4.09793 -1.11375 4.09793 -2.25 4.070312 C-2.8275 4.047109 -3.405 4.023906 -4 4 C-2.25 1.875 -2.25 1.875 0 0 Z " fill="#808079" transform="translate(103,214)"/>
<path d="M0 0 C0.99 0 1.98 0 3 0 C2.741901 3.26925 2.348267 4.651733 0 7 C-1 6 -1 6 -1.125 3.5 C-1 1 -1 1 0 0 Z " fill="#90918B" transform="translate(62,155)"/>
<path d="M0 0 C0.99 0 1.98 0 3 0 C1.893549 3.442293 -0.407528 5.580359 -3 8 C-2.452763 4.625373 -1.9451 2.91765 0 0 Z " fill="#BFC0BA" transform="translate(19,117)"/>
<path d="M0 0 C2 0.1875 2 0.1875 4 1 C4.66 1.99 5.32 2.98 6 4 C5.01 4.495 5.01 4.495 4 5 C0.75 3.6875 0.75 3.6875 -2 2 C-1.34 1.34 -0.68 0.68 0 0 Z " fill="#8E8E8B" transform="translate(178,48)"/>
<path d="M0 0 C0.3125 3 0.3125 3 0 6 C-1.32 6 -2.64 6 -4 6 C-3.875 3.5625 -3.875 3.5625 -3 1 C-1 0 -1 0 0 0 Z " fill="#CCCDC8" transform="translate(150,140)"/>
<path d="M0 0 C3.06827 0.807439 4.618492 1.38232 6.3125 4.125 C6.539375 4.74375 6.76625 5.3625 7 6 C3.757285 5.440911 2.069426 4.586782 0 2 C0 1.34 0 0.68 0 0 Z " fill="#92928E" transform="translate(126,63)"/>
<path d="M0 0 C0.33 0.66 0.66 1.32 1 2 C1.99 2.33 2.98 2.66 4 3 C3.67 3.99 3.34 4.98 3 6 C0.9375 5.375 0.9375 5.375 -1 4 C-1 1 -1 1 0 0 Z " fill="#C4C4C3" transform="translate(214,55)"/>
<path d="M0 0 C3 3.625 3 3.625 3 7 C0.9375 7.0625 0.9375 7.0625 -1 6 C-0.75 2.9375 -0.75 2.9375 0 0 Z " fill="#C5C5C4" transform="translate(218,48)"/>
<path d="M0 0 C1.392188 0.340313 1.392188 0.340313 2.8125 0.6875 C1.8225 0.873125 1.8225 0.873125 0.8125 1.0625 C0.1525 1.26875 -0.5075 1.475 -1.1875 1.6875 C-1.1875 2.3475 -1.1875 3.0075 -1.1875 3.6875 C-3.6875 3.3125 -3.6875 3.3125 -6.1875 2.6875 C-4.149873 -0.142538 -3.590703 -0.35203 0 0 Z " fill="#92928F" transform="translate(174.1875,44.3125)"/>
<path d="M0 0 C2.13456 3.20184 2.390589 4.2894 2 8 C1.01 8.495 1.01 8.495 0 9 C-1.042253 5.683739 -1.095401 3.286204 0 0 Z " fill="#878783" transform="translate(185,93)"/>
<path d="M0 0 C0.99 0.33 1.98 0.66 3 1 C2.375 3.125 2.375 3.125 1 5 C0.01 4.67 -0.98 4.34 -2 4 C-1.375 1.875 -1.375 1.875 0 0 Z " fill="#9B9B97" transform="translate(161,89)"/>
<path d="M0 0 C1.828125 -0.167969 1.828125 -0.167969 4.25 -0.1875 C5.433359 -0.20877 5.433359 -0.20877 6.640625 -0.230469 C9.188225 0.018386 10.801769 0.724421 13 2 C8.155 3.514062 4.72624 2.441904 0 1 C0 0.67 0 0.34 0 0 Z " fill="#BFC0B9" transform="translate(158,58)"/>
<path d="M0 0 C2 1 2 1 2 1 Z " fill="#ECEDE9" transform="translate(49,234)"/>
<path d="" fill="#B6B7B7" transform="translate(0,0)"/>
<path d="" fill="#575856" transform="translate(0,0)"/>
<path d="" fill="#D7D7D7" transform="translate(0,0)"/>
</svg>
