<?xml version="1.0" encoding="UTF-8"?>
<!-- Generator: visioncortex VTracer 0.6.4 -->
<svg version="1.1" xmlns="http://www.w3.org/2000/svg" width="240" height="240">
<path d="M0 0 C3.681677 3.405551 5.232403 5.70692 6.0625 10.6875 C5.376943 15.105533 3.809657 16.664175 0.617188 19.636719 C0.248516 20.189727 -0.120156 20.742734 -0.5 21.3125 C0.10987 22.67275 0.79037 24.001528 1.5 25.3125 C2.134249 31.43374 2.416013 37.269087 -0.125 42.9375 C-2.747058 45.559558 -5.253402 47.51651 -8.5 49.3125 C-9.49 49.3125 -10.48 49.3125 -11.5 49.3125 C-10.878946 51.682646 -10.153515 53.79697 -9.25 56.0625 C-3.617224 70.725598 -2.581554 89.764811 -8.296875 104.636719 C-8.693906 105.519727 -9.090937 106.402734 -9.5 107.3125 C-16.51195 123.817901 -20.11108 138.622797 -21.512207 156.448486 C-22.865809 173.364276 -22.865809 173.364276 -26.59375 177.808594 C-27.387812 178.449258 -28.181875 179.089922 -29 179.75 C-29.794062 180.408711 -30.588125 181.067422 -31.40625 181.746094 C-37.235703 186.107308 -46.483045 185.236287 -53.5 184.3125 C-57.160948 182.889828 -59.792328 181.143543 -62.5 178.3125 C-63.055586 177.744023 -63.611172 177.175547 -64.183594 176.589844 C-66.038751 173.380478 -66.028685 170.240241 -66.125 166.625 C-65.891239 162.103895 -65.891239 162.103895 -67.5 158.3125 C-67.646953 159.490059 -67.646953 159.490059 -67.796875 160.691406 C-68.91761 168.565532 -70.041119 174.183036 -76.125 179.6875 C-80.461602 182.654649 -84.11986 182.56412 -89.25 182.625 C-90.049219 182.654004 -90.848437 182.683008 -91.671875 182.712891 C-97.1131 182.771062 -100.31724 182.106861 -104.5 178.3125 C-106.354771 175.741169 -107.975845 173.091049 -109.5 170.3125 C-109.519819 171.104226 -109.539639 171.895952 -109.560059 172.71167 C-109.655472 176.308108 -109.765086 179.903978 -109.875 183.5 C-109.905937 184.745879 -109.936875 185.991758 -109.96875 187.275391 C-110.007422 188.477441 -110.046094 189.679492 -110.085938 190.917969 C-110.133069 192.575421 -110.133069 192.575421 -110.181152 194.266357 C-110.697327 199.197679 -112.028971 202.367753 -115.875 205.5 C-116.752852 206.232832 -116.752852 206.232832 -117.648438 206.980469 C-124.033044 211.573614 -130.942695 210.806233 -138.5 210.3125 C-143.986863 209.38822 -147.749514 206.829968 -151.262451 202.61499 C-154.239542 197.076039 -152.978108 189.954142 -152.734375 183.857422 C-152.684936 179.52636 -152.684936 179.52636 -153.5 175.3125 C-155.804223 173.966866 -157.091878 173.951588 -159.714355 174.3479 C-160.303618 174.666218 -160.892881 174.984536 -161.5 175.3125 C-162.120771 178.597127 -162.171352 180.742634 -161.875 184 C-161.20331 194.378423 -161.20331 194.378423 -163.5 198.3125 C-165.121094 200.078125 -165.121094 200.078125 -166.9375 201.5625 C-167.832754 202.312734 -167.832754 202.312734 -168.746094 203.078125 C-172.622918 205.80658 -176.76914 205.529547 -181.3125 205.5625 C-182.361475 205.593437 -182.361475 205.593437 -183.431641 205.625 C-189.385446 205.669556 -193.370935 204.264143 -197.75 200.25 C-202.966635 191.493505 -201.829633 180.076496 -201.802734 170.242188 C-201.832705 168.559961 -201.832705 168.559961 -201.863281 166.84375 C-201.866262 165.828613 -201.869243 164.813477 -201.872314 163.767578 C-202.079451 162.957402 -202.286587 162.147227 -202.5 161.3125 C-204.846813 160.025921 -204.846813 160.025921 -207.5 159.3125 C-209.56313 157.693477 -211.46585 156.094068 -213.375 154.3125 C-213.900937 153.823381 -214.426875 153.334263 -214.96875 152.830322 C-223.980399 144.227916 -230.871729 133.435277 -231.661133 120.716309 C-231.707001 117.706593 -231.735263 114.697535 -231.75 111.6875 C-231.770625 110.657539 -231.79125 109.627578 -231.8125 108.566406 C-231.873032 96.535753 -228.945676 83.947727 -220.5 74.9375 C-219.84 74.07125 -219.18 73.205 -218.5 72.3125 C-218.940859 71.732422 -219.381719 71.152344 -219.835938 70.554688 C-223.2701 65.927435 -222.28857 59.763919 -221.5 54.3125 C-219.703546 49.903021 -217.217426 46.205586 -214.5 42.3125 C-213.527402 40.744355 -213.527402 40.744355 -212.535156 39.144531 C-208.044095 31.985513 -203.398949 26.201624 -196.0625 21.875 C-189.697801 20.477871 -184.290495 20.969455 -178.324219 23.558594 C-175.134758 24.876722 -173.385334 25.599103 -169.976562 24.495605 C-169.035547 24.061353 -168.094531 23.6271 -167.125 23.179688 C-166.067083 22.705232 -165.009165 22.230776 -163.919189 21.741943 C-162.790857 21.228977 -161.662524 20.716011 -160.5 20.1875 C-152.39184 16.632137 -144.426848 13.348587 -135.8125 11.25 C-135.086113 11.071304 -134.359727 10.892607 -133.611328 10.708496 C-120.682027 7.788138 -107.822454 6.934303 -94.625 7 C-93.508304 7.002236 -93.508304 7.002236 -92.369049 7.004517 C-77.472816 7.058091 -64.243959 8.742073 -50.039062 13.542969 C-47.46368 14.457524 -47.46368 14.457524 -44.5 14.3125 C-42.442011 12.581441 -42.442011 12.581441 -40.4375 10.375 C-36.727747 6.457998 -35.126801 5.290607 -29.75 5.0625 C-24.360728 4.596569 -22.349072 2.978282 -18.5 -0.6875 C-12.556773 -2.75747 -5.615958 -2.707694 0 0 Z " fill="#FEFEFE" transform="translate(234.5,22.6875)"/>
<path d="M0 0 C3.681677 3.405551 5.232403 5.70692 6.0625 10.6875 C5.376943 15.105533 3.809657 16.664175 0.617188 19.636719 C0.248516 20.189727 -0.120156 20.742734 -0.5 21.3125 C0.10987 22.67275 0.79037 24.001528 1.5 25.3125 C2.134249 31.43374 2.416013 37.269087 -0.125 42.9375 C-2.747058 45.559558 -5.253402 47.51651 -8.5 49.3125 C-9.49 49.3125 -10.48 49.3125 -11.5 49.3125 C-10.878946 51.682646 -10.153515 53.79697 -9.25 56.0625 C-3.617224 70.725598 -2.581554 89.764811 -8.296875 104.636719 C-8.693906 105.519727 -9.090937 106.402734 -9.5 107.3125 C-16.51195 123.817901 -20.11108 138.622797 -21.512207 156.448486 C-22.865809 173.364276 -22.865809 173.364276 -26.59375 177.808594 C-27.387812 178.449258 -28.181875 179.089922 -29 179.75 C-29.794062 180.408711 -30.588125 181.067422 -31.40625 181.746094 C-37.235703 186.107308 -46.483045 185.236287 -53.5 184.3125 C-57.160948 182.889828 -59.792328 181.143543 -62.5 178.3125 C-63.055586 177.744023 -63.611172 177.175547 -64.183594 176.589844 C-66.038751 173.380478 -66.028685 170.240241 -66.125 166.625 C-65.891239 162.103895 -65.891239 162.103895 -67.5 158.3125 C-67.646953 159.490059 -67.646953 159.490059 -67.796875 160.691406 C-68.91761 168.565532 -70.041119 174.183036 -76.125 179.6875 C-80.461602 182.654649 -84.11986 182.56412 -89.25 182.625 C-90.049219 182.654004 -90.848437 182.683008 -91.671875 182.712891 C-97.1131 182.771062 -100.31724 182.106861 -104.5 178.3125 C-106.354771 175.741169 -107.975845 173.091049 -109.5 170.3125 C-109.519819 171.104226 -109.539639 171.895952 -109.560059 172.71167 C-109.655472 176.308108 -109.765086 179.903978 -109.875 183.5 C-109.905937 184.745879 -109.936875 185.991758 -109.96875 187.275391 C-110.007422 188.477441 -110.046094 189.679492 -110.085938 190.917969 C-110.133069 192.575421 -110.133069 192.575421 -110.181152 194.266357 C-110.697327 199.197679 -112.028971 202.367753 -115.875 205.5 C-116.752852 206.232832 -116.752852 206.232832 -117.648438 206.980469 C-124.033044 211.573614 -130.942695 210.806233 -138.5 210.3125 C-143.986863 209.38822 -147.749514 206.829968 -151.262451 202.61499 C-154.239542 197.076039 -152.978108 189.954142 -152.734375 183.857422 C-152.684936 179.52636 -152.684936 179.52636 -153.5 175.3125 C-155.804223 173.966866 -157.091878 173.951588 -159.714355 174.3479 C-160.303618 174.666218 -160.892881 174.984536 -161.5 175.3125 C-162.120771 178.597127 -162.171352 180.742634 -161.875 184 C-161.20331 194.378423 -161.20331 194.378423 -163.5 198.3125 C-165.121094 200.078125 -165.121094 200.078125 -166.9375 201.5625 C-167.832754 202.312734 -167.832754 202.312734 -168.746094 203.078125 C-172.622918 205.80658 -176.76914 205.529547 -181.3125 205.5625 C-182.361475 205.593437 -182.361475 205.593437 -183.431641 205.625 C-189.385446 205.669556 -193.370935 204.264143 -197.75 200.25 C-202.966635 191.493505 -201.829633 180.076496 -201.802734 170.242188 C-201.832705 168.559961 -201.832705 168.559961 -201.863281 166.84375 C-201.866262 165.828613 -201.869243 164.813477 -201.872314 163.767578 C-202.079451 162.957402 -202.286587 162.147227 -202.5 161.3125 C-204.846813 160.025921 -204.846813 160.025921 -207.5 159.3125 C-209.56313 157.693477 -211.46585 156.094068 -213.375 154.3125 C-213.900937 153.823381 -214.426875 153.334263 -214.96875 152.830322 C-223.980399 144.227916 -230.871729 133.435277 -231.661133 120.716309 C-231.707001 117.706593 -231.735263 114.697535 -231.75 111.6875 C-231.770625 110.657539 -231.79125 109.627578 -231.8125 108.566406 C-231.873032 96.535753 -228.945676 83.947727 -220.5 74.9375 C-219.84 74.07125 -219.18 73.205 -218.5 72.3125 C-218.940859 71.732422 -219.381719 71.152344 -219.835938 70.554688 C-223.2701 65.927435 -222.28857 59.763919 -221.5 54.3125 C-219.703546 49.903021 -217.217426 46.205586 -214.5 42.3125 C-213.527402 40.744355 -213.527402 40.744355 -212.535156 39.144531 C-208.044095 31.985513 -203.398949 26.201624 -196.0625 21.875 C-189.697801 20.477871 -184.290495 20.969455 -178.324219 23.558594 C-175.134758 24.876722 -173.385334 25.599103 -169.976562 24.495605 C-169.035547 24.061353 -168.094531 23.6271 -167.125 23.179688 C-166.067083 22.705232 -165.009165 22.230776 -163.919189 21.741943 C-162.790857 21.228977 -161.662524 20.716011 -160.5 20.1875 C-152.39184 16.632137 -144.426848 13.348587 -135.8125 11.25 C-135.086113 11.071304 -134.359727 10.892607 -133.611328 10.708496 C-120.682027 7.788138 -107.822454 6.934303 -94.625 7 C-93.508304 7.002236 -93.508304 7.002236 -92.369049 7.004517 C-77.472816 7.058091 -64.243959 8.742073 -50.039062 13.542969 C-47.46368 14.457524 -47.46368 14.457524 -44.5 14.3125 C-42.442011 12.581441 -42.442011 12.581441 -40.4375 10.375 C-36.727747 6.457998 -35.126801 5.290607 -29.75 5.0625 C-24.360728 4.596569 -22.349072 2.978282 -18.5 -0.6875 C-12.556773 -2.75747 -5.615958 -2.707694 0 0 Z M-20.5 11.3125 C-20.5 11.9725 -20.5 12.6325 -20.5 13.3125 C-21.49 12.8175 -21.49 12.8175 -22.5 12.3125 C-27.102781 11.928935 -29.56474 11.862856 -33.75 13.875 C-37.10075 16.844983 -38.589674 19.271427 -40.5 23.3125 C-40.5 24.3025 -40.5 25.2925 -40.5 26.3125 C-43.045832 25.386162 -45.378613 24.359805 -47.8125 23.1875 C-54.28388 20.221984 -60.496519 17.747557 -67.5 16.3125 C-68.424258 16.108828 -69.348516 15.905156 -70.300781 15.695312 C-103.757877 9.612204 -135.864552 17.213373 -166.074219 31.261719 C-166.8226 31.608074 -167.570981 31.954429 -168.342041 32.311279 C-169.762271 32.970219 -171.179539 33.635588 -172.593506 34.307861 C-174.19887 35.045539 -175.846285 35.690738 -177.5 36.3125 C-178.6875 34.625 -178.6875 34.625 -179.5 32.3125 C-181.146782 30.779964 -181.146782 30.779964 -183.5 30.3125 C-187.017541 30.703338 -189.494966 31.222425 -191.959961 33.895996 C-195.639526 38.996803 -199.086683 44.201113 -202.375 49.5625 C-202.872578 50.351406 -203.370156 51.140312 -203.882812 51.953125 C-204.352031 52.71625 -204.82125 53.479375 -205.304688 54.265625 C-205.727339 54.947861 -206.14999 55.630098 -206.585449 56.333008 C-207.779609 58.554272 -207.779609 58.554272 -207.5 62.3125 C-203.230943 62.541199 -200.772053 62.273403 -197.328125 59.671875 C-195.972707 58.418369 -194.647419 57.131234 -193.359375 55.808594 C-191.5 54.3125 -191.5 54.3125 -187.5 54.3125 C-187.382064 58.322323 -189.379697 61.041901 -191.984375 63.960938 C-195.433909 67.037068 -199.543572 68.141709 -204 68.9375 C-209.23834 70.995419 -211.39969 74.765378 -214.5 79.3125 C-215.05043 80.052422 -215.600859 80.792344 -216.167969 81.554688 C-219.99176 86.860788 -221.979184 91.977588 -223.5 98.3125 C-223.671284 98.939307 -223.842568 99.566113 -224.019043 100.211914 C-226.704991 111.942826 -224.807109 125.668745 -218.957031 136.050781 C-213.471378 144.323196 -206.526916 151.904992 -197.5 156.3125 C-196.84 156.3125 -196.18 156.3125 -195.5 156.3125 C-195.339844 158.777344 -195.339844 158.777344 -195.4375 162.25 C-195.512624 167.936307 -195.431134 173.57118 -195.125 179.25 C-195.093982 179.946658 -195.062964 180.643315 -195.031006 181.361084 C-194.695171 187.223125 -194.316169 192.584924 -189.9375 196.75 C-184.385745 199.273525 -179.815374 199.170046 -174.125 197.0625 C-171.42747 195.264147 -170.135249 194.083388 -168.5 191.3125 C-168.232369 188.470438 -168.232369 188.470438 -168.523438 185.382812 C-168.573711 184.25875 -168.623984 183.134688 -168.675781 181.976562 C-168.809989 179.592407 -168.966707 177.209425 -169.144531 174.828125 C-169.361214 169.141831 -169.361214 169.141831 -168.5 166.3125 C-164.789063 166.554688 -164.789063 166.554688 -162.350342 167.496338 C-158.810567 168.509911 -156.130563 168.004934 -152.496094 167.550781 C-149.140137 167.498535 -149.140137 167.498535 -146.5 168.3125 C-144.689969 172.914026 -145.232711 177.649186 -145.5625 182.5 C-146.514273 191.247446 -146.514273 191.247446 -144.24707 199.325439 C-141.295504 201.834091 -138.320073 203.039638 -134.5 203.3125 C-132.550938 203.467188 -132.550938 203.467188 -130.5625 203.625 C-125.454833 203.55754 -122.345634 201.196202 -118.831055 197.609131 C-116.959427 194.379783 -117.30963 192.020728 -117.515625 188.316406 C-117.562883 186.939616 -117.604961 185.562641 -117.642334 184.185547 C-117.662385 183.477771 -117.682436 182.769995 -117.703094 182.040771 C-118.040826 166.446681 -118.040826 166.446681 -114.993652 162.226074 C-111.821271 159.897036 -108.692373 159.042341 -104.792969 158.757812 C-103.706289 158.940859 -102.619609 159.123906 -101.5 159.3125 C-100.75 163.1875 -100.75 163.1875 -101.160156 165.808594 C-101.74392 168.459351 -101.74392 168.459351 -100.1875 171.25 C-98.033068 173.883194 -96.39851 175.205402 -92.976562 175.613281 C-85.667998 175.805334 -85.667998 175.805334 -79.5 172.3125 C-77.02033 168.721039 -75.966014 165.738404 -75.3125 161.4375 C-75.141055 160.395938 -74.969609 159.354375 -74.792969 158.28125 C-74.529162 155.608012 -74.693132 153.559927 -75.125 150.9375 C-74.91875 150.07125 -74.7125 149.205 -74.5 148.3125 C-70.263089 148.066694 -66.430119 148.734139 -62.5 150.3125 C-58.340668 155.100975 -59.094375 160.687503 -59.003906 166.71875 C-58.424452 170.85129 -57.461601 172.429248 -54.5 175.3125 C-49.995839 178.345914 -44.715712 177.932338 -39.5 177.3125 C-35.475845 175.300423 -32.780067 173.175947 -30.5 169.3125 C-30.030695 166.47907 -29.713602 163.789904 -29.5 160.9375 C-29.340984 159.222428 -29.179423 157.507591 -29.015625 155.792969 C-28.93248 154.896265 -28.849336 153.999561 -28.763672 153.075684 C-26.987771 134.464895 -23.183926 118.101334 -15.578125 100.988281 C-10.50778 88.404272 -10.546464 71.97704 -15.5 59.3125 C-18.722985 51.770946 -22.141022 44.5896 -27.5625 38.375 C-30.156721 35.28918 -30.960217 33.495781 -30.6875 29.4375 C-30.228901 26.426932 -29.786694 25.555461 -27.425781 23.554688 C-26.790273 23.144766 -26.154766 22.734844 -25.5 22.3125 C-25.534805 23.19293 -25.569609 24.073359 -25.605469 24.980469 C-25.646074 26.722637 -25.646074 26.722637 -25.6875 28.5 C-25.722305 29.648555 -25.757109 30.797109 -25.792969 31.980469 C-25.473194 35.617373 -24.653238 37.406418 -22.5 40.3125 C-19.079059 42.878206 -15.652265 42.749581 -11.5 42.3125 C-8.74671 40.516876 -6.973725 39.259951 -5.5 36.3125 C-4.687064 29.692876 -6.202217 26.419474 -9.992188 21 C-10.489766 20.443125 -10.987344 19.88625 -11.5 19.3125 C-12.16 19.3125 -12.82 19.3125 -13.5 19.3125 C-12.914062 17.371094 -12.914062 17.371094 -11.5 15.3125 C-9.335938 14.660156 -9.335938 14.660156 -6.875 14.375 C-4.498492 14.008711 -4.498492 14.008711 -2.5 13.3125 C-1.583333 10.8125 -1.583333 10.8125 -2.5 8.3125 C-4.959939 5.852561 -5.850019 5.962575 -9.25 5.875 C-14.671751 5.961434 -16.900186 7.333758 -20.5 11.3125 Z " fill="#BDBCBD" transform="translate(234.5,22.6875)"/>
<path d="M0 0 C5.700106 3.388499 10.84836 7.54508 13 14 C13.461515 18.799755 13.054736 22.307145 10.367188 26.421875 C6.868268 30.460628 3.023077 31.761267 -2.210938 32.378906 C-12.889585 32.74429 -22.994772 30.643918 -31.375 23.695312 C-35.169064 19.737083 -37.155393 15.34485 -37.5625 9.875 C-36.898071 5.297819 -35.630418 2.757486 -32 0 C-21.239855 -6.13233 -11.019602 -4.933017 0 0 Z " fill="#FC848B" transform="translate(66,133)"/>
<path d="M0 0 C0 2.977252 -1.343988 4.515982 -3 7 C-3.147505 14.080243 0.794086 19.531441 5 25 C7.864715 27.662568 9.784295 28.431048 13.6875 28.4375 C14.475117 28.456836 15.262734 28.476172 16.074219 28.496094 C17.02748 28.250527 17.02748 28.250527 18 28 C18.956666 25.232721 19.130941 22.617161 19.175781 19.707031 C19.199629 18.912324 19.223477 18.117617 19.248047 17.298828 C19.291312 15.629825 19.3224 13.960466 19.341797 12.291016 C19.425781 9.894531 19.425781 9.894531 20 6 C21.93042 5.151123 21.93042 5.151123 24 5 C27.958788 8.958788 28.166497 13.377997 28.25 18.75 C28.185939 25.316255 27.29892 30.283095 22.9375 35.4375 C19.278748 38.388107 16.314727 38.407413 11.722656 38.328125 C4.609493 37.470871 0.094547 33.475407 -4.375 28.125 C-9.333138 21.418673 -11.668234 15.934382 -11.414062 7.535156 C-11 5 -11 5 -8.875 1.8125 C-5.598854 -0.252896 -3.801234 -0.81455 0 0 Z " fill="#E65691" transform="translate(118,81)"/>
<path d="M0 0 C1.272839 6.806008 -0.863995 15.8084 -4 22 C-6.500058 24.969682 -8.614657 25.869186 -12.523438 26.238281 C-20.242767 26.439195 -20.242767 26.439195 -24.125 24.1875 C-27.486677 20.265544 -27.036787 16.829363 -26.839844 11.960938 C-26.892695 11.313828 -26.945547 10.666719 -27 10 C-27.66 9.67 -28.32 9.34 -29 9 C-26.691505 8.067222 -24.380649 7.141111 -22.066406 6.222656 C-19.92329 5.36814 -17.785653 4.499808 -15.652344 3.621094 C-14.52957 3.168633 -13.406797 2.716172 -12.25 2.25 C-11.203281 1.822031 -10.156563 1.394062 -9.078125 0.953125 C-5.781482 -0.067663 -3.410064 -0.667741 0 0 Z " fill="#FDDADA" transform="translate(160,172)"/>
<path d="M0 0 C0 0.66 0 1.32 0 2 C-1.026094 2.342891 -2.052188 2.685781 -3.109375 3.039062 C-8.400969 5.162628 -10.487178 9.63263 -13.25 14.375 C-13.765625 15.225781 -14.28125 16.076562 -14.8125 16.953125 C-15.799497 18.586249 -16.777224 20.225024 -17.744141 21.870117 C-18.733298 23.547685 -19.758635 25.203921 -20.796875 26.851562 C-21.956012 28.921449 -22.569794 30.676888 -23 33 C-17.968738 31.699402 -14.067624 30.373793 -10.25 26.75 C-7.337341 24.021084 -7.337341 24.021084 -4 23.8125 C-3.34 24.204375 -2.68 24.59625 -2 25 C-1.68107 28.614537 -3.484111 30.901281 -5.625 33.625 C-9.87098 38.254228 -14.383472 40.106275 -20.625 40.4375 C-23.747127 40.304076 -25.169318 39.917069 -28.0625 38.5 C-30.228695 35.70491 -30.784624 33.797731 -30.542969 30.257812 C-29.425289 25.610194 -26.64706 21.911579 -24 18 C-23.042871 16.468594 -23.042871 16.468594 -22.066406 14.90625 C-10.96122 -2.584959 -10.96122 -2.584959 0 0 Z " fill="#E55691" transform="translate(50,52)"/>
<path d="M0 0 C3.680958 0.704864 4.807504 1.485838 6.9375 4.5625 C8.010442 8.49662 8.357295 10.617961 6.6875 14.375 C4.9375 16.5625 4.9375 16.5625 1.9375 18.5625 C-1.685832 18.433095 -4.13235 18.312621 -7 16 C-8.530828 12.4881 -8.84224 9.277297 -8.0625 5.5625 C-5.59698 2.081766 -4.213563 0.77392 0 0 Z " fill="#363431" transform="translate(43.0625,103.4375)"/>
<path d="M0 0 C2.088748 1.598432 2.893851 2.489336 3.433594 5.085938 C3.440303 9.017459 3.252853 11.504408 1.4375 15.0625 C-1 17 -1 17 -4.5 17.625 C-8 17 -8 17 -10.4375 14.9375 C-12.398807 11.250243 -12.5895 9.1265 -12 5 C-8.417722 -0.492826 -6.359816 -1.557506 0 0 Z " fill="#33322F" transform="translate(103,116)"/>
<path d="M0 0 C2.4375 -0.4375 2.4375 -0.4375 5 0 C7.179991 1.80413 7.908821 3.16115 8.214844 5.976562 C8.303477 11.393046 8.303477 11.393046 7 14 C4.6875 14.4375 4.6875 14.4375 2 14 C-0.88383 11.349994 -1.906051 9.782911 -2.375 5.875 C-2 3 -2 3 0 0 Z " fill="#352F2E" transform="translate(41,138)"/>
<path d="M0 0 C2.4375 0.875 2.4375 0.875 4.4375 3.875 C4.14045 8.033695 3.768119 10.379072 1.4375 13.875 C-1.0625 14.1875 -1.0625 14.1875 -3.5625 13.875 C-5.977369 11.460131 -5.858693 10.747922 -5.875 7.4375 C-5.891758 6.655039 -5.908516 5.872578 -5.925781 5.066406 C-5.311587 1.361426 -3.753681 -0.183106 0 0 Z " fill="#36302F" transform="translate(61.5625,141.125)"/>
<path d="M0 0 C2.558569 0.732494 3.75449 1.660963 5.3125 3.8125 C6.200562 6.638151 6.04572 8.236311 5 11 C3 11.875 3 11.875 1 12 C-0.779208 10.220792 -0.255138 7.718666 -0.3125 5.3125 C-0.349883 4.277383 -0.387266 3.242266 -0.425781 2.175781 C-0.285273 1.457773 -0.144766 0.739766 0 0 Z " fill="#C0C0C0" transform="translate(216,46)"/>
</svg>
