<?xml version="1.0" encoding="UTF-8"?>
<!-- Generator: visioncortex VTracer 0.6.4 -->
<svg version="1.1" xmlns="http://www.w3.org/2000/svg" width="240" height="240">
<path d="M0 0 C1.040273 0.204961 2.080547 0.409922 3.152344 0.621094 C10.22377 2.182822 14.595431 5.30752 20 10 C20.886875 10.683203 21.77375 11.366406 22.6875 12.070312 C28.601526 16.653682 33.368443 21.474982 37.9375 27.398438 C39.758235 29.695046 41.661132 31.64365 43.75 33.6875 C52.810773 44.163358 53.138767 59.526162 52.252441 72.633789 C51.671518 78.078964 49.958513 82.928419 48 88 C47.398474 89.816003 46.802829 91.633959 46.210938 93.453125 C44.043487 99.980153 41.673358 106.415821 39.120605 112.801025 C38.623131 114.059698 38.136784 115.322824 37.661621 116.590088 C34.178896 125.860247 29.989406 131.995534 22 138 C21.213833 138.616655 20.427666 139.233311 19.617676 139.868652 C13.38716 144.624805 7.29192 145.476707 -0.365234 146.233887 C-12.248517 147.423544 -21.012103 148.451302 -30 157 C-30.790195 157.650977 -31.580391 158.301953 -32.394531 158.972656 C-36.621576 162.314218 -36.621576 162.314218 -39 167 C-37.484081 171.916851 -37.484081 171.916851 -33.9375 175.4375 C-24.944693 177.159527 -18.030936 175.282938 -9.625 172.0625 C6.255849 166.44233 20.314351 164.479318 36.105469 171.261719 C39 173 39 173 40.238281 175.285156 C40.159648 175.851055 40.081016 176.416953 40 177 C37.9375 176.734375 37.9375 176.734375 35 175.75 C26.933664 173.075834 20.710278 174.034915 12.8125 176.5 C11.952615 176.762646 11.092729 177.025293 10.206787 177.295898 C-0.384773 180.620474 -10.677006 184.805607 -20.847656 189.242188 C-24.352408 190.476165 -27.471109 189.760243 -31 189 C-32.51207 188.679023 -32.51207 188.679023 -34.054688 188.351562 C-42.731556 186.126201 -47.88191 182.42675 -54 176 C-54.643242 175.444414 -55.286484 174.888828 -55.949219 174.316406 C-58.845725 171.608949 -59.885558 169.838548 -60.429688 165.851562 C-60.602286 157.317502 -60.602286 157.317502 -58.6875 153.128906 C-58.460625 152.426367 -58.23375 151.723828 -58 151 C-59.859089 150.284894 -59.859089 150.284894 -62.5 150.5625 C-63.519648 150.605039 -64.539297 150.647578 -65.589844 150.691406 C-70.310665 151.118605 -74.971441 151.833969 -79.65625 152.546875 C-93.742214 154.455721 -106.937189 151.11529 -120.125 146.3125 C-121.901973 145.698584 -121.901973 145.698584 -123.714844 145.072266 C-139.935122 139.251207 -151.198167 130.709183 -158.808594 115.054688 C-161.417976 108.364403 -162.365391 102.307049 -162.3125 95.1875 C-162.307585 94.399238 -162.302671 93.610977 -162.297607 92.798828 C-162.042523 80.041972 -157.854164 69.224796 -149.375 59.6875 C-147.275338 57.347642 -147.275338 57.347642 -146 55 C-147.75 51.75 -147.75 51.75 -151 50 C-152 49 -152 49 -152.5 45.6875 C-152.40767 39.212877 -148.423705 34.245375 -145 29 C-144.316797 27.912031 -143.633594 26.824062 -142.929688 25.703125 C-134.607203 12.72891 -134.607203 12.72891 -127 11 C-121.9561 11.364958 -118.873132 12.04761 -115.375 15.863281 C-112.319467 18.337806 -112.319467 18.337806 -109.669678 17.550049 C-106.833039 16.383831 -104.15189 15.052838 -101.4375 13.625 C-99.446273 12.652978 -97.454091 11.68291 -95.460938 10.714844 C-94.509287 10.240308 -93.557637 9.765771 -92.577148 9.276855 C-65.139052 -4.317427 -29.581835 -7.106251 0 0 Z " fill="#82F2CC" transform="translate(171,39)"/>
<path d="M0 0 C5.997483 3.369262 11.183546 7.632666 13.371094 14.332031 C13.981779 19.141175 13.936112 22.034156 11.308594 26.144531 C7.561388 30.678444 3.948609 32.075562 -1.769531 32.644531 C-11.874094 33.000639 -22.069635 31.304925 -30.160156 24.800781 C-34.218722 20.742215 -36.880619 16.58333 -37.316406 10.769531 C-37.057998 6.376584 -35.34537 3.929096 -32.429688 0.742188 C-24.23652 -5.67372 -9.032946 -3.890904 0 0 Z " fill="#62A7AF" transform="translate(65.62890625,132.66796875)"/>
<path d="M0 0 C0.680625 0.350625 1.36125 0.70125 2.0625 1.0625 C1.967543 4.006172 1.151073 4.973927 -0.9375 7.0625 C-1.6615 12.933349 -0.066189 16.302753 3.375 20.875 C3.779121 21.446699 4.183242 22.018398 4.599609 22.607422 C6.588031 25.358881 8.210481 27.161154 11.0625 29.0625 C15.682588 29.612871 15.682588 29.612871 19.758057 27.818848 C21.396766 25.612433 21.431037 24.377117 21.433594 21.648438 C21.450996 20.805391 21.468398 19.962344 21.486328 19.09375 C21.495483 17.31512 21.500657 15.536465 21.501953 13.757812 C21.520645 12.917344 21.539336 12.076875 21.558594 11.210938 C21.560447 10.439272 21.5623 9.667607 21.564209 8.872559 C21.728645 8.275239 21.893081 7.67792 22.0625 7.0625 C23.988525 6.225098 23.988525 6.225098 26.0625 6.0625 C28.548656 7.904097 29.064069 9.067207 30.0625 12.0625 C31.120057 29.390162 31.120057 29.390162 25 36.4375 C21.204811 39.620561 17.839147 39.524041 13.011719 39.460938 C6.129317 38.53113 1.559719 33.964032 -2.75 28.8125 C-7.014946 22.887306 -10.384729 16.723227 -10.0625 9.25 C-9.499349 6.014756 -8.583092 4.190349 -6.1875 1.9375 C-2.9375 0.0625 -2.9375 0.0625 0 0 Z " fill="#638FAD" transform="translate(115.9375,79.9375)"/>
<path d="M0 0 C-0.33 0.99 -0.66 1.98 -1 3 C-2.570078 3.54334 -2.570078 3.54334 -4.171875 4.097656 C-9.453897 6.170809 -11.516865 10.721434 -14.25 15.4375 C-15.27489 17.145223 -16.300894 18.852278 -17.328125 20.558594 C-17.770596 21.314548 -18.213066 22.070503 -18.668945 22.849365 C-20 25 -20 25 -21.666992 27.027588 C-23.373295 29.155585 -23.373295 29.155585 -23 33 C-17.155349 33.292233 -13.230003 29.553606 -9 26 C-8.67 25.67 -8.34 25.34 -8 25 C-5.4375 24.625 -5.4375 24.625 -3 25 C-2.540774 27.992711 -2.717452 29.543576 -4.320312 32.132812 C-10.036996 38.443437 -14.946844 41.570244 -23.585938 42.183594 C-26.192558 41.985356 -27.500118 41.557974 -29.625 40.0625 C-31.990437 37.012332 -32.958093 35.242178 -32.644531 31.355469 C-31.1913 26.044569 -27.980935 21.567018 -25 17 C-24.316797 15.912031 -23.633594 14.824062 -22.929688 13.703125 C-17.218156 4.799217 -11.597748 -3.015415 0 0 Z " fill="#608DAE" transform="translate(51,51)"/>
<path d="M0 0 C2.431196 1.870151 3.640692 3.281383 5 6 C5.581114 13.089588 5.581114 13.089588 3.125 16.9375 C0.40494 19.577558 -0.502148 19.943639 -4.3125 20.375 C-8 20 -8 20 -10.9375 18.125 C-13.82823 13.745107 -14.021204 10.106021 -13 5 C-9.451251 -0.54492 -6.119079 -0.874154 0 0 Z " fill="#F9FEFC" transform="translate(47,103)"/>
<path d="M0 0 C4.235927 0.756416 5.858215 1.182674 8.5 4.625 C9.394131 9.723116 9.195632 14.082512 7.0625 18.8125 C3.802247 21.118533 1.566145 21.350625 -2.371094 21.097656 C-4.5 20.625 -4.5 20.625 -7.0625 18.6875 C-9.017678 14.522121 -9.403706 11.143528 -8.5 6.625 C-6.630184 2.570975 -4.481229 0.80022 0 0 Z " fill="#FAFEFD" transform="translate(98.5,113.375)"/>
<path d="M0 0 C1.625 1.6875 1.625 1.6875 2 4 C-1.950608 10.162949 -9.381775 11.758475 -16 14 C-17.084746 14.375117 -17.084746 14.375117 -18.191406 14.757812 C-21.818264 15.909969 -25.21189 16.568217 -29 16 C-28.928829 13.062587 -28.02929 12.028136 -25.917969 10 C-18.38421 4.48171 -9.731978 -0.861686 0 0 Z " fill="#74C9A8" transform="translate(193,144)"/>
<path d="M0 0 C5.216922 -0.567057 5.216922 -0.567057 7.8125 1.3125 C10.420141 5.018096 10.234525 8.622208 10 13 C9.01 14.485 9.01 14.485 8 16 C5.0625 16.4375 5.0625 16.4375 2 16 C-0.118816 13.841673 -0.933475 12.508439 -1.328125 9.492188 C-1.302344 8.628516 -1.276562 7.764844 -1.25 6.875 C-1.234531 6.006172 -1.219062 5.137344 -1.203125 4.242188 C-1 2 -1 2 0 0 Z " fill="#F9FBFC" transform="translate(40,137)"/>
<path d="M0 0 C3.375 0.8125 3.375 0.8125 4.375 1.8125 C4.578125 3.957031 4.578125 3.957031 4.625 6.625 C4.663672 7.934043 4.663672 7.934043 4.703125 9.269531 C4.312503 12.296849 3.47217 13.625451 1.375 15.8125 C-1.125 16.375 -1.125 16.375 -3.625 15.8125 C-6.130537 12.961372 -6.602308 11.02807 -7 7.25 C-6.625 3.8125 -6.625 3.8125 -5.5625 1.3125 C-3.625 -0.1875 -3.625 -0.1875 0 0 Z " fill="#FBFCFC" transform="translate(61.625,140.1875)"/>
<path d="M0 0 C0.33 0.66 0.66 1.32 1 2 C-3.824544 6.921519 -10.3114 11.173394 -17 13 C-17.99 12.67 -18.98 12.34 -20 12 C-14.460753 6.932178 -7.742875 1.02901 0 0 Z " fill="#75D5B3" transform="translate(150,170)"/>
<path d="M0 0 C0.66 0.33 1.32 0.66 2 1 C1.34 1.66 0.68 2.32 0 3 C0.33 3.66 0.66 4.32 1 5 C-1.25 6.1875 -1.25 6.1875 -4 7 C-4.99 6.67 -5.98 6.34 -7 6 C-5.883402 4.969983 -4.756446 3.951184 -3.625 2.9375 C-2.998516 2.369023 -2.372031 1.800547 -1.726562 1.214844 C-1.156797 0.813945 -0.587031 0.413047 0 0 Z " fill="#79E0BD" transform="translate(137,176)"/>
<path d="M0 0 C2.6875 -0.625 2.6875 -0.625 5 0 C4.5625 1.875 4.5625 1.875 3 4 C0.875 5.25 0.875 5.25 -1 6 C-0.8125 3 -0.8125 3 0 0 Z " fill="#75D3B1" transform="translate(113,189)"/>
</svg>
