<?xml version="1.0" encoding="UTF-8"?>
<!-- Generator: visioncortex VTracer 0.6.4 -->
<svg version="1.1" xmlns="http://www.w3.org/2000/svg" width="240" height="240">
<path d="M0 0 C3.4785 0.47423 6.958618 0.935054 10.438965 1.395508 C12.674753 1.699376 14.910435 2.004037 17.145996 2.30957 C18.68849 2.511314 18.68849 2.511314 20.262146 2.717133 C30.778814 4.186375 40.455077 6.506421 47.49707 15.093994 C49.534126 18.421941 50.303545 22.06044 51.297852 25.807129 C53.708215 36.234205 53.708215 36.234205 60.282715 44.157227 C63.608883 45.943447 67.108921 47.026408 70.724121 48.098633 C71.384121 48.758633 72.044121 49.418633 72.724121 50.098633 C74.044121 50.098633 75.364121 50.098633 76.724121 50.098633 C77.759989 48.116972 78.755245 46.113894 79.724121 44.098633 C83.190173 40.632581 85.834723 39.40422 90.724121 39.098633 C91.631621 39.325508 92.539121 39.552383 93.474121 39.786133 C94.216621 39.889258 94.959121 39.992383 95.724121 40.098633 C96.791288 38.299307 96.791288 38.299307 97.724121 36.098633 C100.500558 33.939182 102.354709 33.15035 105.849121 32.661133 C108.724121 33.098633 108.724121 33.098633 110.724121 34.973633 C111.054121 35.674883 111.384121 36.376133 111.724121 37.098633 C109.133117 39.689637 107.02389 39.742072 103.501465 40.34082 C101.545323 40.946689 101.545323 40.946689 100.79834 42.977539 C100.502428 45.144865 100.502428 45.144865 101.903809 46.696289 C102.463262 47.179688 103.022715 47.663086 103.599121 48.161133 C106.926427 51.078329 107.626523 53.025049 108.036621 57.536133 C107.724121 61.098633 107.724121 61.098633 106.099121 63.473633 C103.092911 65.530513 101.386481 66.17188 97.724121 66.098633 C94.509239 63.996595 92.356263 62.088073 90.286621 58.848633 C89.692366 55.943384 89.957886 54.065927 90.411621 51.161133 C90.804124 48.928649 90.804124 48.928649 90.724121 47.098633 C88.172396 46.950577 88.172396 46.950577 85.724121 49.098633 C83.731056 53.175356 83.502571 55.79106 84.724121 60.098633 C86.17094 62.631489 86.17094 62.631489 87.974121 65.161133 C99.055984 82.147266 102.436772 102.140291 98.591797 121.957031 C97.037291 129.108681 94.788953 135.728981 92.01123 142.484375 C89.096045 149.99263 87.863885 157.869449 86.548584 165.788086 C83.54973 183.252393 83.54973 183.252393 77.349121 188.161133 C74.159548 190.06809 71.498997 191.098633 67.724121 191.098633 C63.974121 189.973633 63.974121 189.973633 60.724121 188.098633 C60.394121 187.149883 60.064121 186.201133 59.724121 185.223633 C59.394121 184.522383 59.064121 183.821133 58.724121 183.098633 C56.293529 183.996419 54.050641 184.975064 51.724121 186.098633 C50.37187 186.734056 49.01899 187.368139 47.665527 188.000977 C46.957671 188.332185 46.249814 188.663394 45.520508 189.004639 C36.12065 193.34501 26.001653 197.660373 15.515381 198.215576 C13.063031 198.299648 13.063031 198.299648 9.724121 199.098633 C8.640476 201.664909 8.640476 201.664909 8.911621 204.786133 C8.784144 211.107484 7.985451 214.774488 3.474121 219.411133 C0.038695 221.519235 -2.243695 222.029112 -6.275879 222.098633 C-10.241379 220.776799 -13.714032 219.514429 -16.275879 216.098633 C-17.275879 213.098633 -17.275879 213.098633 -17.17041 209.77832 C-17.087445 205.930326 -17.140952 202.7848 -18.275879 199.098633 C-21.347462 197.718938 -23.645199 197.845467 -26.994629 198.000977 C-30.368974 198.101403 -32.548382 197.483609 -35.713379 196.411133 C-38.101294 195.767357 -38.101294 195.767357 -40.275879 196.098633 C-42.054727 198.295166 -42.89705 200.49944 -43.92041 203.129883 C-46.234365 208.19791 -50.078402 212.456194 -54.275879 216.098633 C-54.605879 215.438633 -54.935879 214.778633 -55.275879 214.098633 C-54.945879 213.108633 -54.615879 212.118633 -54.275879 211.098633 C-57.649679 209.939354 -60.860238 210.257572 -64.275879 211.098633 C-67.73061 213.739583 -70.429795 216.831147 -73.275879 220.098633 C-73.605879 220.098633 -73.935879 220.098633 -74.275879 220.098633 C-74.760917 218.52921 -75.185741 216.941188 -75.588379 215.348633 C-76.959928 210.112425 -78.612022 205.027341 -80.408691 199.922852 C-81.940248 194.934943 -82.392649 190.245904 -82.268066 185.043945 C-82.251309 183.935352 -82.234551 182.826758 -82.217285 181.68457 C-82.172562 179.353688 -82.12033 177.02294 -82.061035 174.692383 C-82.046855 173.591523 -82.032676 172.490664 -82.018066 171.356445 C-81.984954 169.842683 -81.984954 169.842683 -81.951172 168.29834 C-82.058325 167.572437 -82.165479 166.846533 -82.275879 166.098633 C-83.265879 166.098633 -84.255879 166.098633 -85.275879 166.098633 C-85.762839 168.180943 -85.762839 168.180943 -85.717285 170.813477 C-85.743711 171.810566 -85.770137 172.807656 -85.797363 173.834961 C-85.817666 175.419541 -85.817666 175.419541 -85.838379 177.036133 C-86.177692 196.955042 -86.177692 196.955042 -92.275879 204.098633 C-95.025879 205.473633 -95.025879 205.473633 -97.275879 206.098633 C-96.760254 205.149883 -96.244629 204.201133 -95.713379 203.223633 C-93.656294 198.342907 -94.477486 194.217743 -95.275879 189.098633 C-95.666114 186.558011 -96.045836 184.019134 -96.400879 181.473633 C-96.495303 180.802031 -96.589727 180.13043 -96.687012 179.438477 C-97.415614 173.565333 -97.151326 167.93239 -96.469727 162.062988 C-96.219973 159.953784 -96.219973 159.953784 -96.275879 157.098633 C-97.265879 156.768633 -98.255879 156.438633 -99.275879 156.098633 C-107.855994 145.667123 -111.251242 133.355095 -110.658691 120.02832 C-109.377835 106.879932 -103.669947 96.197677 -94.596191 86.790039 C-92.968216 85.062115 -92.968216 85.062115 -93.275879 82.098633 C-94.224629 81.644883 -95.173379 81.191133 -96.150879 80.723633 C-99.275879 79.098633 -99.275879 79.098633 -100.900879 76.973633 C-101.867181 69.565314 -95.347325 61.685921 -91.400879 55.786133 C-90.896855 55.001738 -90.392832 54.217344 -89.873535 53.40918 C-86.130996 47.776227 -82.859136 44.42288 -76.400879 42.036133 C-71.844617 42.127258 -68.768292 44.273029 -65.275879 47.098633 C-64.945879 47.758633 -64.615879 48.418633 -64.275879 49.098633 C-61.249443 49.498363 -61.249443 49.498363 -58.275879 48.098633 C-56.57366 45.142752 -55.708415 42.503414 -56.275879 39.098633 C-58.487193 37.965889 -60.469022 37.777812 -62.928223 37.477539 C-65.275879 37.098633 -65.275879 37.098633 -67.963379 35.223633 C-69.275879 33.098633 -69.275879 33.098633 -68.775879 30.786133 C-68.280879 30.229258 -67.785879 29.672383 -67.275879 29.098633 C-65.213379 29.098633 -65.213379 29.098633 -63.275879 30.098633 C-63.08832 31.049961 -63.08832 31.049961 -62.896973 32.020508 C-62.452016 34.229084 -62.452016 34.229084 -60.533691 35.489258 C-57.438747 36.770842 -57.438747 36.770842 -54.275879 36.098633 C-52.700569 31.582744 -52.231801 26.961122 -51.604492 22.234375 C-50.046824 12.110688 -45.840658 4.663412 -38.713379 -2.463867 C-28.214861 -6.854156 -10.991367 -1.50541 0 0 Z M95.724121 49.098633 C95.193323 51.341348 95.193323 51.341348 95.411621 54.036133 C95.436113 54.952656 95.460605 55.86918 95.48584 56.813477 C95.477798 59.062296 95.477798 59.062296 96.724121 60.098633 C99.224121 60.265299 99.224121 60.265299 101.724121 60.098633 C102.054121 59.768633 102.384121 59.438633 102.724121 59.098633 C102.344686 55.000736 102.031062 52.559043 99.724121 49.098633 C98.404121 49.098633 97.084121 49.098633 95.724121 49.098633 Z " fill="#FDD9BD" transform="translate(121.27587890625,9.9013671875)"/>
<path d="M0 0 C3.4785 0.47423 6.958618 0.935054 10.438965 1.395508 C12.674753 1.699376 14.910435 2.004037 17.145996 2.30957 C18.174326 2.444066 19.202655 2.578561 20.262146 2.717133 C30.769643 4.185093 40.426368 6.489929 47.44873 15.080811 C50.167183 19.381732 51.383939 24.387952 52.849121 29.223633 C53.511432 31.374226 54.18045 33.522768 54.856934 35.668945 C55.144556 36.615278 55.432178 37.561611 55.728516 38.536621 C56.607068 41.161499 56.607068 41.161499 58.40332 43.250488 C58.839185 43.860376 59.275049 44.470264 59.724121 45.098633 C59.394121 46.088633 59.064121 47.078633 58.724121 48.098633 C54.30149 47.953629 50.770005 47.50588 46.634277 45.895508 C42.287221 44.260094 42.287221 44.260094 37.724121 44.098633 C34.639031 47.98677 32.860398 52.112125 32.724121 57.098633 C35.315281 58.457696 35.315281 58.457696 38.724121 59.098633 C40.923379 60.264213 43.110334 61.453205 45.286621 62.661133 C51.257294 65.840187 56.335323 66.888945 63.177246 66.930664 C65.724121 67.098633 65.724121 67.098633 67.724121 69.098633 C67.168566 73.654188 67.168566 73.654188 65.724121 75.098633 C58.145133 75.956631 52.51952 73.269819 45.724121 70.098633 C46.183027 71.091211 46.641934 72.083789 47.114746 73.106445 C53.782399 87.761466 64.832078 113.608131 59.724121 130.098633 C56.945813 131.302566 54.586635 130.903526 51.724121 130.098633 C49.954074 128.328585 50.446874 125.730332 50.32959 123.325195 C49.546663 109.00527 48.731805 94.946007 44.724121 81.098633 C44.414988 80.019446 44.414988 80.019446 44.099609 78.918457 C41.666122 70.670499 41.666122 70.670499 36.372559 64.110352 C34.043817 62.91641 32.338017 62.187052 29.724121 62.098633 C28.619234 64.00762 28.619234 64.00762 28.724121 67.098633 C28.270996 69.262695 28.270996 69.262695 27.599121 71.473633 C27.316816 72.537109 27.316816 72.537109 27.028809 73.62207 C26.382988 74.352969 26.382988 74.352969 25.724121 75.098633 C20.816026 74.636749 16.156644 73.525917 11.395996 72.27832 C9.958302 71.906799 8.52047 71.53581 7.08252 71.165283 C6.3316 70.970806 5.580681 70.776329 4.807007 70.575958 C-11.057419 66.479938 -26.977874 62.989944 -43.066803 59.90126 C-46.138301 59.309529 -49.207107 58.704317 -52.275879 58.098633 C-53.182573 57.928074 -54.089268 57.757515 -55.023438 57.581787 C-57.252441 57.114258 -57.252441 57.114258 -60.275879 56.098633 C-60.478179 50.737673 -58.219109 46.233311 -56.088379 41.411133 C-56.150254 40.648008 -56.212129 39.884883 -56.275879 39.098633 C-58.480279 38.344747 -60.666877 38.00211 -62.963379 37.618164 C-65.275879 37.098633 -65.275879 37.098633 -67.963379 35.223633 C-69.275879 33.098633 -69.275879 33.098633 -68.775879 30.786133 C-68.280879 30.229258 -67.785879 29.672383 -67.275879 29.098633 C-65.213379 29.098633 -65.213379 29.098633 -63.275879 30.098633 C-63.15084 30.732852 -63.025801 31.36707 -62.896973 32.020508 C-62.452016 34.229084 -62.452016 34.229084 -60.533691 35.489258 C-57.438747 36.770842 -57.438747 36.770842 -54.275879 36.098633 C-52.700569 31.582744 -52.231801 26.961122 -51.604492 22.234375 C-50.046824 12.110688 -45.840658 4.663412 -38.713379 -2.463867 C-28.214861 -6.854156 -10.991367 -1.50541 0 0 Z " fill="#32312F" transform="translate(121.27587890625,9.9013671875)"/>
<path d="M0 0 C4.698368 2.79756 9.276555 6.206737 12 11 C12.345944 13.502753 12.506771 15.986314 12.660156 18.507812 C13.18451 22.353077 14.929394 24.737227 17 28 C19.315517 33.354126 19.311506 38.332661 19.25 44.0625 C19.235498 45.468585 19.235498 45.468585 19.220703 46.903076 C18.906835 65.102705 14.291035 79.142045 1.785156 92.570312 C1.196055 93.042109 0.606953 93.513906 0 94 C-0.33 93.34 -0.66 92.68 -1 92 C-0.505 90.515 -0.505 90.515 0 89 C-3.3738 87.840721 -6.584359 88.158939 -10 89 C-13.454731 91.64095 -16.153916 94.732514 -19 98 C-19.33 98 -19.66 98 -20 98 C-20.485038 96.430577 -20.909862 94.842556 -21.3125 93.25 C-22.684049 88.013792 -24.336143 82.928709 -26.132812 77.824219 C-27.66437 72.83631 -28.11677 68.147271 -27.992188 62.945312 C-27.97543 61.836719 -27.958672 60.728125 -27.941406 59.585938 C-27.896683 57.255055 -27.844451 54.924307 -27.785156 52.59375 C-27.770977 51.492891 -27.756797 50.392031 -27.742188 49.257812 C-27.720112 48.248638 -27.698037 47.239463 -27.675293 46.199707 C-27.782446 45.473804 -27.8896 44.7479 -28 44 C-28.99 44 -29.98 44 -31 44 C-31.48696 46.08231 -31.48696 46.08231 -31.441406 48.714844 C-31.467832 49.711934 -31.494258 50.709023 -31.521484 51.736328 C-31.53502 52.792715 -31.548555 53.849102 -31.5625 54.9375 C-31.901813 74.856409 -31.901813 74.856409 -38 82 C-40.75 83.375 -40.75 83.375 -43 84 C-42.484375 83.05125 -41.96875 82.1025 -41.4375 81.125 C-38.981572 75.297964 -40.561008 69.664649 -41.558594 63.609375 C-42.78615 55.380517 -43.152278 47.448041 -42.875 39.125 C-42.853247 38.174719 -42.831494 37.224438 -42.809082 36.245361 C-42.443017 28.323859 -40.414697 21.622045 -36 15 C-36.66 15 -37.32 15 -38 15 C-38.797939 10.741234 -38.533955 7.001165 -36.5 3.1875 C-25.71942 -6.245508 -12.536978 -5.682731 0 0 Z " fill="#FA838D" transform="translate(67,132)"/>
<path d="M0 0 C2.060498 0.284861 4.121044 0.569369 6.181641 0.853516 C11.184165 1.544113 16.186006 2.239476 21.1875 2.9375 C20.284512 3.382227 20.284512 3.382227 19.363281 3.835938 C5.604721 10.801672 -0.144481 23.434713 -4.8125 37.375 C-5.079336 38.106543 -5.346172 38.838086 -5.621094 39.591797 C-6.428927 41.841632 -6.428927 41.841632 -6.8125 44.9375 C-4.396938 45.323387 -4.396938 45.323387 -1.8125 44.9375 C-1.8125 47.598011 -2.141512 49.400614 -2.8125 51.9375 C-2.980078 52.752187 -3.147656 53.566875 -3.320312 54.40625 C-3.62582 55.628281 -3.62582 55.628281 -3.9375 56.875 C-4.219805 58.033223 -4.219805 58.033223 -4.507812 59.214844 C-4.938359 59.78332 -5.368906 60.351797 -5.8125 60.9375 C-11.662619 61.707855 -17.090929 60.095399 -22.75 58.6875 C-32.231855 56.393031 -41.719388 54.716076 -51.394287 53.458008 C-52.365032 53.315889 -53.335776 53.17377 -54.335938 53.027344 C-55.201382 52.912537 -56.066826 52.797729 -56.958496 52.679443 C-57.876228 52.312181 -57.876228 52.312181 -58.8125 51.9375 C-58.8125 48.319501 -58.388387 46.601175 -57.25 43.3125 C-56.570362 41.005656 -56.570362 41.005656 -56.8125 38.9375 C-59.017306 37.807723 -61.013376 37.615735 -63.464844 37.316406 C-65.8125 36.9375 -65.8125 36.9375 -68.5 35.0625 C-69.8125 32.9375 -69.8125 32.9375 -69.3125 30.625 C-68.8175 30.068125 -68.3225 29.51125 -67.8125 28.9375 C-65.75 28.9375 -65.75 28.9375 -63.8125 29.9375 C-63.687461 30.571719 -63.562422 31.205937 -63.433594 31.859375 C-62.988637 34.067951 -62.988637 34.067951 -61.070312 35.328125 C-57.975368 36.609709 -57.975368 36.609709 -54.8125 35.9375 C-53.23719 31.421611 -52.768422 26.799989 -52.141113 22.073242 C-50.583445 11.949555 -46.377279 4.502279 -39.25 -2.625 C-28.636859 -7.063223 -11.150025 -1.557216 0 0 Z " fill="#5B5A58" transform="translate(121.8125,10.0625)"/>
<path d="M0 0 C1.282617 0.15082 2.565234 0.301641 3.886719 0.457031 C13.697206 1.697206 13.697206 1.697206 16 4 C14.606303 4.940745 13.20569 5.872113 11.78125 6.765625 C3.581835 12.447676 -0.713109 22.734197 -3.101562 32.105469 C-4.100916 35.935795 -5.106815 39.491905 -7 43 C-9.990839 44.449169 -12.169021 44.742504 -15.476562 44.796875 C-18.040035 44.781888 -18.040035 44.781888 -19.851562 46.351562 C-21.282967 48.027265 -21.282967 48.027265 -20.75 50.625 C-20.222544 52.931241 -20.222544 52.931241 -19 54 C-15.351007 54.577344 -11.691781 55.031421 -8.027344 55.5 C-7.02832 55.665 -6.029297 55.83 -5 56 C-5 56.33 -5 56.66 -5 57 C-12.749245 58.74358 -20.264402 58.050438 -28 56.75 C-28.774727 56.64043 -29.549453 56.530859 -30.347656 56.417969 C-32.5625 56.046875 -32.5625 56.046875 -36 55 C-36 51.382001 -35.575887 49.663675 -34.4375 46.375 C-33.757862 44.068156 -33.757862 44.068156 -34 42 C-36.204806 40.870223 -38.200876 40.678235 -40.652344 40.378906 C-43 40 -43 40 -45.6875 38.125 C-47 36 -47 36 -46.5 33.6875 C-46.005 33.130625 -45.51 32.57375 -45 32 C-42.9375 32 -42.9375 32 -41 33 C-40.874961 33.634219 -40.749922 34.268437 -40.621094 34.921875 C-40.176137 37.130451 -40.176137 37.130451 -38.257812 38.390625 C-35.162868 39.672209 -35.162868 39.672209 -32 39 C-30.42469 34.484111 -29.955922 29.862489 -29.328613 25.135742 C-27.770945 15.012055 -23.564779 7.564779 -16.4375 0.4375 C-10.918978 -1.870246 -5.820626 -0.788275 0 0 Z " fill="#3F3E3C" transform="translate(99,7)"/>
<path d="M0 0 C4.970857 2.481293 9.355916 5.822843 11.472656 11.109375 C12.317493 16.962884 9.856191 21.163105 7.285156 26.234375 C4.021026 32.816062 1.109019 39.288309 -1.261719 46.25 C-1.888203 47.170391 -1.888203 47.170391 -2.527344 48.109375 C-8.358143 47.42286 -13.986411 45.085621 -19.495117 43.145996 C-20.772929 42.70272 -22.055328 42.272467 -23.341797 41.85498 C-25.203116 41.249531 -27.04928 40.598095 -28.894531 39.945312 C-29.999097 39.56939 -31.103662 39.193467 -32.241699 38.806152 C-32.995962 38.246216 -33.750225 37.686279 -34.527344 37.109375 C-34.229961 25.453424 -27.320199 11.664771 -19.6875 3.027344 C-13.86093 -2.060479 -7.195387 -2.535623 0 0 Z " fill="#050503" transform="translate(155.52734375,19.890625)"/>
<path d="M0 0 C3.295618 -0.133621 5.953406 0.816119 9 2 C13.328351 3.442784 17.834425 3.172803 22.371094 3.078125 C24.507812 3.132812 24.507812 3.132812 28 4 C28.976562 7.238281 28.976562 7.238281 29 11 C29.100547 12.28584 29.100547 12.28584 29.203125 13.597656 C29.491836 28.779057 25.18307 46.357944 14.5625 57.574219 C12.082547 60.099966 9.602886 62.600983 7 65 C6.67 65 6.34 65 6 65 C5.514962 63.430577 5.090138 61.842556 4.6875 60.25 C3.315951 55.013792 1.663857 49.928709 -0.132812 44.824219 C-2.374285 37.524288 -2.183427 30.250606 -2.1875 22.6875 C-2.199746 21.502207 -2.211992 20.316914 -2.224609 19.095703 C-2.235616 12.480832 -2.19721 6.286461 0 0 Z " fill="#282724" transform="translate(41,165)"/>
<path d="M0 0 C0.66 0 1.32 0 2 0 C6.8851 7.632968 8.346571 14.066078 8.25 23.0625 C8.240332 23.99989 8.230664 24.93728 8.220703 25.903076 C7.906835 44.102705 3.291035 58.142045 -9.214844 71.570312 C-9.803945 72.042109 -10.393047 72.513906 -11 73 C-12.40869 70.18262 -11.543456 68.818487 -10.6875 65.8125 C-6.371329 49.062588 -5.416105 31.074439 -7.9375 13.9375 C-8.426608 9.567286 -8.426608 9.567286 -6.542969 7.0625 C-4.625 5.4375 -4.625 5.4375 -2.664062 4.183594 C-0.678138 3.017397 -0.678138 3.017397 0 0 Z " fill="#292724" transform="translate(78,153)"/>
<path d="M0 0 C-0.123264 2.403643 -0.235031 4.235031 -2 6 C-2.798525 14.283207 2.665921 19.86742 7.375 26.1875 C10.713262 28.492491 13.035624 28.52221 17.011719 28.46875 C19.396035 28.145392 19.396035 28.145392 21 25 C21.284147 22.98784 21.284147 22.98784 21.238281 20.804688 C21.254395 20.006758 21.270508 19.208828 21.287109 18.386719 C21.304115 16.704505 21.309215 15.022131 21.302734 13.339844 C21.363281 10.929687 21.363281 10.929687 22 7 C24.355469 5.632812 24.355469 5.632812 27 6 C31.046741 10.569186 30.480756 15.688831 30.359375 21.472656 C29.736511 27.586202 27.753177 32.941241 23 37 C17.858706 38.713765 12.645449 39.16194 7.589844 36.941406 C-1.063523 31.464404 -7.528141 23.662829 -11 14 C-11.853918 9.707939 -11.533526 6.835858 -9.125 3.0625 C-6.169568 0.193993 -4.135477 -0.670618 0 0 Z " fill="#E05E8A" transform="translate(118,81)"/>
<path d="M0 0 C-0.601992 0.296484 -1.203984 0.592969 -1.824219 0.898438 C-12.377654 6.241469 -18.870722 15.105343 -23 26 C-23.37125 27.164023 -23.7425 28.328047 -24.125 29.527344 C-24.330767 30.15842 -24.536533 30.789497 -24.748535 31.439697 C-25.356124 33.316687 -25.940175 35.201246 -26.523438 37.085938 C-28 40 -28 40 -30.5 40.972656 C-33.450776 41.00493 -35.32556 40.19646 -38 39 C-38.99 39 -39.98 39 -41 39 C-41.415884 27.355238 -34.161055 13.860901 -27 5 C-26.510156 4.285859 -26.020313 3.571719 -25.515625 2.835938 C-18.977942 -4.931309 -8.871037 -1.564951 0 0 Z " fill="#73716F" transform="translate(143,13)"/>
<path d="M0 0 C0.66 0 1.32 0 2 0 C2.45375 0.763125 2.9075 1.52625 3.375 2.3125 C4.739334 5.107226 4.739334 5.107226 7.144531 6.078125 C9 8 9 8 9.152344 9.953857 C8.976918 12.47168 8.672565 14.93943 8.3125 17.4375 C8.207441 18.29666 8.102383 19.15582 7.994141 20.041016 C7.220869 26.156033 7.220869 26.156033 6.473145 29.013184 C5.969471 31.128197 5.826294 33.059067 5.753906 35.230469 C5.721035 36.034199 5.688164 36.83793 5.654297 37.666016 C5.593814 39.327361 5.536446 40.988823 5.482422 42.650391 C5.139281 50.788656 4.469576 58.592782 -1 65 C-3.75 66.375 -3.75 66.375 -6 67 C-5.484375 66.05125 -4.96875 65.1025 -4.4375 64.125 C-1.981572 58.297964 -3.561008 52.664649 -4.558594 46.609375 C-5.78615 38.380517 -6.152278 30.448041 -5.875 22.125 C-5.853247 21.174719 -5.831494 20.224438 -5.809082 19.245361 C-5.521795 13.028577 -4.658332 4.658332 0 0 Z " fill="#262422" transform="translate(30,149)"/>
<path d="M0 0 C2.175781 -0.15625 2.175781 -0.15625 5.3125 0.5 C6.498437 0.729453 7.684375 0.958906 8.90625 1.195312 C9.890449 1.394956 9.890449 1.394956 10.894531 1.598633 C13.101001 2.019254 15.308128 2.359009 17.53125 2.679688 C25.795068 3.872658 33.875737 5.317657 41.949463 7.453125 C46.233599 8.581562 50.522659 9.538144 54.868164 10.400391 C62.736903 11.968331 70.518546 13.789568 78.25 15.9375 C79.138486 16.166147 80.026973 16.394795 80.942383 16.630371 C83.390625 17.339844 83.390625 17.339844 87 19 C87.484375 21.753906 87.484375 21.753906 86 24 C81.088746 23.614826 76.427139 22.425874 71.671875 21.179688 C70.234181 20.808166 68.796349 20.437177 67.358398 20.06665 C66.607479 19.872173 65.85656 19.677696 65.082886 19.477325 C49.218659 15.381357 33.298458 11.888636 17.209045 8.80304 C15.258649 8.426891 13.309942 8.042016 11.361328 7.656738 C9.328433 7.25955 7.291334 6.882182 5.248047 6.54248 C3.015625 6.121094 3.015625 6.121094 0 5 C-0.832031 2.34375 -0.832031 2.34375 0 0 Z " fill="#262422" transform="translate(61,61)"/>
<path d="M0 0 C1.866313 0.609846 3.71775 1.265241 5.5625 1.9375 C11.836216 3.996281 17.229951 4.305991 23.793213 3.763428 C25.761719 3.652344 25.761719 3.652344 29 4 C36.294975 14.809641 32.643624 38.579221 30.609375 50.867188 C30.408281 51.901016 30.207188 52.934844 30 54 C29.760234 55.45793 29.760234 55.45793 29.515625 56.945312 C28.571845 61.115802 28.571845 61.115802 27 63 C24.192086 63.902544 22.395543 63.970887 19.511719 63.367188 C19.012852 62.916016 18.513984 62.464844 18 62 C19.125411 57.32102 21.725594 53.211507 24 49 C26.678515 42.567505 28.165675 35.901404 29 29 C29.111987 28.258145 29.223975 27.516289 29.339355 26.751953 C30.111248 21.246881 30.618153 16.372502 29 11 C24.856237 9.668443 21.611226 10.122443 17.355469 10.667969 C13.00455 11.198802 10.096186 10.21349 6.0625 8.4375 C3.34458 7.238061 3.34458 7.238061 1 7 C-0.596297 9.888214 -0.146862 12.790786 0 16 C-0.33 16.66 -0.66 17.32 -1 18 C-1.66 18 -2.32 18 -3 18 C-3.805418 12.113344 -3.00317 6.538176 -1 1 C-0.67 0.67 -0.34 0.34 0 0 Z " fill="#F9D6BC" transform="translate(40,158)"/>
<path d="M0 0 C2.757812 -0.234375 2.757812 -0.234375 6 1 C7.195312 3.636719 7.195312 3.636719 8 7 C8.950881 9.273964 9.909817 11.54457 10.875 13.8125 C14.240732 22.003885 16.257669 30.336258 18 39 C18.340313 40.643555 18.340313 40.643555 18.6875 42.320312 C19.231132 45.212133 19.658078 48.07776 20 51 C20.197227 52.68416 20.197227 52.68416 20.398438 54.402344 C20.78098 60.054736 20.78098 60.054736 20 63 C17.237805 64.236528 14.857537 63.803493 12 63 C10.229952 61.229952 10.722753 58.631699 10.605469 56.226562 C9.574162 37.385434 7.987777 19.749211 0.367188 2.296875 C0.246016 1.538906 0.124844 0.780937 0 0 Z " fill="#655F5D" transform="translate(161,77)"/>
<path d="M0 0 C-0.601992 0.269414 -1.203984 0.538828 -1.824219 0.816406 C-8.877292 4.653177 -12.939022 13.411561 -17 20 C-17.501445 20.773438 -18.002891 21.546875 -18.519531 22.34375 C-18.966836 23.034688 -19.414141 23.725625 -19.875 24.4375 C-20.264297 25.034336 -20.653594 25.631172 -21.054688 26.246094 C-22.09933 28.184295 -22.804081 29.795912 -23 32 C-16.517178 31.399739 -12.842957 28.639633 -8.078125 24.363281 C-6 23 -6 23 -3.742188 23.160156 C-3.167266 23.437305 -2.592344 23.714453 -2 24 C-1.786756 27.625143 -3.470142 29.89088 -5.625 32.625 C-8.74024 36.014026 -11.48473 37.77552 -16 39 C-20.500582 39.175446 -23.850875 38.861844 -27.5 36.125 C-29 34 -29 34 -30 31 C-28.036349 24.345591 -23.946145 18.399968 -20.125 12.6875 C-19.620977 11.903105 -19.116953 11.118711 -18.597656 10.310547 C-13.987384 3.371556 -8.942073 -2.175099 0 0 Z " fill="#DD5886" transform="translate(50,53)"/>
<path d="M0 0 C-0.70125 0.66 -1.4025 1.32 -2.125 2 C-9.491333 9.449568 -14.326224 17.943625 -17.175781 28.039062 C-17.376794 28.726052 -17.577808 29.413042 -17.784912 30.12085 C-18.173215 31.480794 -18.533042 32.849246 -18.861572 34.224854 C-19.398438 36.105469 -19.398438 36.105469 -21 39 C-24.726562 39.925781 -24.726562 39.925781 -28 39 C-28.35534 27.089524 -20.931744 13.514001 -13.089844 4.902344 C-8.719235 0.666474 -6.089169 -0.888004 0 0 Z " fill="#757270" transform="translate(109,9)"/>
<path d="M0 0 C-0.680625 0.495 -1.36125 0.99 -2.0625 1.5 C-12.423606 10.317962 -16.920217 20.433041 -20.213379 33.374756 C-20.719953 35.275803 -21.350913 37.142775 -22 39 C-23.485 39.495 -23.485 39.495 -25 40 C-25.66 39.67 -26.32 39.34 -27 39 C-27.48934 27.675279 -23.238094 14.267369 -15.992188 5.597656 C-10.700239 0.351805 -7.389744 -0.93838 0 0 Z " fill="#73716F" transform="translate(99,7)"/>
<path d="M0 0 C4.107034 0.855632 5.554011 2.24378 8 5.625 C8.691513 9.927749 8.515574 11.834453 6.125 15.5 C3.598205 18.026795 2.660366 18.538865 -0.875 19 C-4 18.625 -4 18.625 -6.375 16.625 C-8.446315 12.801033 -8.987104 9.882424 -8 5.625 C-5.562265 2.183491 -4.141829 0.862881 0 0 Z " fill="#302A24" transform="translate(100,114.375)"/>
<path d="M0 0 C2.4375 1.5 2.4375 1.5 4 4 C4.592279 8.664197 4.645431 10.833259 2.375 14.9375 C-0.556843 17.483574 -2.118348 18.079217 -6 18 C-8.747164 16.229606 -10.531459 14.937082 -12 12 C-12.490559 7.666728 -12.477444 5.679997 -9.9375 2.0625 C-6.259375 -0.520013 -4.407681 -0.721257 0 0 Z " fill="#2C2822" transform="translate(47,104)"/>
<path d="M0 0 C0.556875 0.185625 1.11375 0.37125 1.6875 0.5625 C1.6875 0.8925 1.6875 1.2225 1.6875 1.5625 C0.45 1.871875 0.45 1.871875 -0.8125 2.1875 C-11.110481 6.233135 -15.274818 14.867817 -19.48877 24.493652 C-21.129417 28.614236 -22.239081 32.862838 -23.230469 37.183594 C-24.3125 39.5625 -24.3125 39.5625 -26.910156 40.625 C-27.70293 40.604375 -28.495703 40.58375 -29.3125 40.5625 C-30.211798 28.197149 -21.259107 13.458034 -13.476562 4.433594 C-9.051795 -0.034897 -6.219725 -1.176705 0 0 Z " fill="#3C3B39" transform="translate(131.3125,11.4375)"/>
<path d="M0 0 C0.66 0.33 1.32 0.66 2 1 C0.296875 3.46875 0.296875 3.46875 -2.25 6.5 C-3.495234 8.000469 -3.495234 8.000469 -4.765625 9.53125 C-7 12 -7 12 -9 13 C-9.061875 12.29875 -9.12375 11.5975 -9.1875 10.875 C-9.455625 10.25625 -9.72375 9.6375 -10 9 C-12.414927 9.907938 -14.67673 10.89155 -17 12 C-28.188224 17.249974 -38.814158 21.627179 -51 24 C-51.995076 24.226472 -51.995076 24.226472 -53.010254 24.45752 C-54.957031 24.847656 -54.957031 24.847656 -58 25 C-58 23.68 -58 22.36 -58 21 C-55.144361 20.076117 -52.559815 19.459399 -49.625 18.9375 C-47.961744 18.605335 -46.298977 18.270717 -44.636719 17.933594 C-43.832827 17.774878 -43.028936 17.616162 -42.200684 17.452637 C-33.24793 15.611234 -25.164713 12.140409 -17.0625 8 C-13.208604 6.034358 -9.241222 4.465268 -5.199219 2.929688 C-2.777607 1.986754 -2.777607 1.986754 0 0 Z " fill="#FEBFA4" transform="translate(190,184)"/>
<path d="M0 0 C0.33 0 0.66 0 1 0 C1.973171 12.549823 1.401691 25.652844 -1 38 C-1.239766 39.45793 -1.239766 39.45793 -1.484375 40.945312 C-2.428155 45.115802 -2.428155 45.115802 -4 47 C-6.807914 47.902544 -8.604457 47.970887 -11.488281 47.367188 C-11.987148 46.916016 -12.486016 46.464844 -13 46 C-11.874589 41.32102 -9.274406 37.211507 -7 33 C-4.580478 27.18948 -3.399805 21.293492 -2.429688 15.089844 C-2.287891 14.400195 -2.146094 13.710547 -2 13 C-1.67 13 -1.34 13 -1 13 C-0.786125 10.837483 -0.629781 8.669189 -0.5 6.5 C-0.370219 4.330811 -0.213875 2.162517 0 0 Z " fill="#EABFA7" transform="translate(71,174)"/>
<path d="M0 0 C3.085188 0.575705 6.168594 1.176406 8.449219 3.457031 C8.636719 6.394531 8.636719 6.394531 8.449219 9.457031 C6.449219 11.457031 6.449219 11.457031 3.078125 11.539062 C1.721953 11.46054 0.366426 11.37021 -0.988281 11.269531 C-1.669551 11.237949 -2.35082 11.206367 -3.052734 11.173828 C-5.98076 10.97595 -8.100536 10.774068 -10.53125 9.0625 C-11.550781 7.457031 -11.550781 7.457031 -11.425781 4.957031 C-9.228167 -1.321865 -5.884779 -0.781774 0 0 Z " fill="#EFEADD" transform="translate(88.55078125,51.54296875)"/>
<path d="M0 0 C-0.515625 0.37125 -1.03125 0.7425 -1.5625 1.125 C-2.366875 1.74375 -3.17125 2.3625 -4 3 C-4.798574 3.551074 -4.798574 3.551074 -5.613281 4.113281 C-15.138673 11.273165 -17.819907 22.728969 -20.17627 33.852295 C-20.726562 36.265625 -20.726562 36.265625 -22 40 C-23.32 40 -24.64 40 -26 40 C-25.894351 37.398383 -25.567654 35.268877 -25 32.75 C-24.847004 32.023613 -24.694009 31.297227 -24.536377 30.548828 C-22.031182 19.09219 -19.23947 9.310188 -10.0625 1.5 C-6.466056 -0.261524 -3.955819 -0.316466 0 0 Z " fill="#30302E" transform="translate(93,6)"/>
<path d="M0 0 C1.875 0.875 1.875 0.875 3.875 2.875 C4.207147 6.993628 4.423276 9.691878 2.6875 13.4375 C0.875 14.875 0.875 14.875 -1.6875 14.75 C-4.125 13.875 -4.125 13.875 -6.125 11.875 C-6.803103 4.867936 -6.803103 4.867936 -4.375 1.3125 C-2.125 -0.125 -2.125 -0.125 0 0 Z " fill="#352321" transform="translate(62.125,139.125)"/>
<path d="M0 0 C3.064347 0.157146 4.55269 0.583539 6.8125 2.6875 C8.344002 5.669899 8.352457 7.686902 8 11 C7.01 12.485 7.01 12.485 6 14 C3.5625 14.375 3.5625 14.375 1 14 C-1.158919 12.37053 -1.916291 11.504954 -2.363281 8.808594 C-2.346523 8.026133 -2.329766 7.243672 -2.3125 6.4375 C-2.308633 5.652461 -2.304766 4.867422 -2.300781 4.058594 C-2 2 -2 2 0 0 Z " fill="#301F1D" transform="translate(42,137)"/>
<path d="M0 0 C2.897859 -0.03813 5.605749 0.001444 8.46875 0.460938 C9.12875 1.120937 9.78875 1.780937 10.46875 2.460938 C9.913194 7.016493 9.913194 7.016493 8.46875 8.460938 C-1.148271 8.941789 -1.148271 8.941789 -4.53125 6.460938 C-4.53125 2.571181 -4.033496 0.734495 0 0 Z " fill="#393531" transform="translate(178.53125,76.5390625)"/>
<path d="M0 0 C0.33 0 0.66 0 1 0 C2.303052 5.686044 1.540402 9.416042 0 15 C2.330552 17.330552 8.071324 17.226787 11.361328 17.71875 C13.535156 18.085938 13.535156 18.085938 17 19 C17 19.99 17 20.98 17 22 C13.303749 22.317808 9.649378 21.578674 6 21 C5.074453 20.881406 4.148906 20.762812 3.195312 20.640625 C0.611526 20.109379 -1.028255 19.769912 -3 18 C-3.234171 14.114033 -2.086119 10.701041 -1 7 C-0.782799 5.608479 -0.589257 4.21267 -0.4375 2.8125 C-0.293125 1.884375 -0.14875 0.95625 0 0 Z " fill="#F2BEA6" transform="translate(85,187)"/>
<path d="M0 0 C2 2 2 2 2.011719 4.3125 C1.904727 5.199375 1.797734 6.08625 1.6875 7 C1.588242 7.886875 1.488984 8.77375 1.386719 9.6875 C1 12 1 12 0 14 C-3.104911 14.26805 -6.078868 14.13386 -9 13 C-8.25 9.9375 -8.25 9.9375 -6 7 C-5.01 7 -4.02 7 -3 7 C-1.829171 4.070858 -1.829171 4.070858 -1 1 C-0.67 0.67 -0.34 0.34 0 0 Z " fill="#FACEB2" transform="translate(67,207)"/>
<path d="M0 0 C2.97 0.495 2.97 0.495 6 1 C7.25 3.8125 7.25 3.8125 8 7 C8.37125 7.680625 8.7425 8.36125 9.125 9.0625 C10.214007 11.473874 10.145315 13.384328 10 16 C9.67 15.34 9.34 14.68 9 14 C8.34 14 7.68 14 7 14 C6.67 14.66 6.34 15.32 6 16 C4.02 10.72 2.04 5.44 0 0 Z " fill="#554F4E" transform="translate(161,77)"/>
<path d="M0 0 C2.0625 0 2.0625 0 4 1 C4.121172 1.654844 4.242344 2.309688 4.367188 2.984375 C4.576016 3.649531 4.784844 4.314687 5 5 C6.859067 5.918676 6.859067 5.918676 9.0625 6.25 C9.795977 6.399531 10.529453 6.549062 11.285156 6.703125 C11.851055 6.801094 12.416953 6.899062 13 7 C12.01 7.495 12.01 7.495 11 8 C11 8.66 11 9.32 11 10 C6.655402 9.758633 2.865115 8.603569 -0.6875 6.125 C-2 4 -2 4 -1.5 1.6875 C-1.005 1.130625 -0.51 0.57375 0 0 Z " fill="#373735" transform="translate(54,39)"/>
<path d="M0 0 C2.625 0.1875 2.625 0.1875 5 1 C4.8125 3.0625 4.8125 3.0625 4 5 C3.01 4.01 2.02 3.02 1 2 C1.034805 3.096992 1.069609 4.193984 1.105469 5.324219 C1.133619 6.77863 1.160918 8.233059 1.1875 9.6875 C1.225205 10.769346 1.225205 10.769346 1.263672 11.873047 C1.326894 16.488293 0.818578 19.321517 -2 23 C-4 25 -4 25 -7.625 25.1875 C-8.73875 25.125625 -9.8525 25.06375 -11 25 C-11 24.67 -11 24.34 -11 24 C-9.88625 23.71125 -8.7725 23.4225 -7.625 23.125 C-3.776977 22.348235 -3.776977 22.348235 -2 19 C-1.652389 16.990451 -1.652389 16.990451 -1.621094 14.804688 C-1.586934 14.006758 -1.552773 13.208828 -1.517578 12.386719 C-1.491152 11.557852 -1.464727 10.728984 -1.4375 9.875 C-1.120504 1.120504 -1.120504 1.120504 0 0 Z " fill="#DE5D8A" transform="translate(141,87)"/>
<path d="M0 0 C0.33 0 0.66 0 1 0 C1.102784 1.639305 1.130851 3.283259 1.132812 4.925781 C1.134102 5.949941 1.135391 6.974102 1.136719 8.029297 C1.132852 9.112754 1.128984 10.196211 1.125 11.3125 C1.128867 12.384355 1.132734 13.456211 1.136719 14.560547 C1.13543 15.588574 1.134141 16.616602 1.132812 17.675781 C1.131685 18.623645 1.130557 19.571509 1.129395 20.548096 C1 23 1 23 0 26 C-0.99 26 -1.98 26 -3 26 C-3.303457 21.52401 -3.223117 17.348862 -2 13 C-1.67 13 -1.34 13 -1 13 C-0.786125 10.837483 -0.629781 8.669189 -0.5 6.5 C-0.370219 4.330811 -0.213875 2.162517 0 0 Z " fill="#D8BBA7" transform="translate(71,174)"/>
<path d="M0 0 C0.66 0.33 1.32 0.66 2 1 C3.379039 6.631075 2.794183 10.617451 1 16 C0.34 16 -0.32 16 -1 16 C-1.603004 10.828477 -1.356041 5.01735 0 0 Z " fill="#DEC5B0" transform="translate(38,160)"/>
<path d="M0 0 C1.185048 3.555144 0.771424 4.294965 -0.6875 7.625 C-1.021367 8.421641 -1.355234 9.218281 -1.699219 10.039062 C-3 12 -3 12 -5.144531 12.960938 C-6.062988 12.980273 -6.062988 12.980273 -7 13 C-7 12.01 -7 11.02 -7 10 C-6 9 -5 8 -4 7 C-3.649375 6.113125 -3.29875 5.22625 -2.9375 4.3125 C-2.628125 3.549375 -2.31875 2.78625 -2 2 C-1.34 2 -0.68 2 0 2 C0 1.34 0 0.68 0 0 Z " fill="#383735" transform="translate(111,32)"/>
<path d="M0 0 C2.0625 0.75 2.0625 0.75 4 2 C4 2.99 4 3.98 4 5 C5.652045 5.702119 7.319238 6.369714 9 7 C9 7.66 9 8.32 9 9 C5.702706 8.633634 2.713515 7.938225 0 6 C-0.8125 3.4375 -0.8125 3.4375 -1 1 C-0.67 0.67 -0.34 0.34 0 0 Z " fill="#EFCEB6" transform="translate(40,158)"/>
<path d="M0 0 C2.625 0.1875 2.625 0.1875 5 1 C4.8125 3.0625 4.8125 3.0625 4 5 C3.01 4.01 2.02 3.02 1 2 C1.011602 3.010625 1.023203 4.02125 1.035156 5.0625 C1.04418 6.361875 1.053203 7.66125 1.0625 9 C1.074102 10.299375 1.085703 11.59875 1.097656 12.9375 C1.06543 13.948125 1.033203 14.95875 1 16 C0.67 16 0.34 16 0 16 C-0.269282 13.513629 -0.471243 11.056528 -0.625 8.5625 C-0.676562 7.855449 -0.728125 7.148398 -0.78125 6.419922 C-0.898659 4.615626 -0.954028 2.807527 -1 1 C-0.67 0.67 -0.34 0.34 0 0 Z " fill="#D54D7D" transform="translate(141,87)"/>
<path d="M0 0 C0.33 0.99 0.66 1.98 1 3 C1.886875 3.144375 2.77375 3.28875 3.6875 3.4375 C4.450625 3.623125 5.21375 3.80875 6 4 C5.441406 6.105469 5.441406 6.105469 4 8 C1.765625 7.804688 1.765625 7.804688 -0.75 6.875 C-1.590469 6.583672 -2.430937 6.292344 -3.296875 5.992188 C-3.858906 5.664766 -4.420937 5.337344 -5 5 C-4.34 4.34 -3.68 3.68 -3 3 C-2.01 3 -1.02 3 0 3 C0 2.01 0 1.02 0 0 Z " fill="#494845" transform="translate(92,47)"/>
<path d="M0 0 C0.66 0.66 1.32 1.32 2 2 C1.898438 4.199219 1.898438 4.199219 1.375 6.6875 C1.217734 7.516367 1.060469 8.345234 0.898438 9.199219 C0.601953 9.793477 0.305469 10.387734 0 11 C-2.085938 10.769531 -2.085938 10.769531 -4 10 C-3.34 10 -2.68 10 -2 10 C-1.564642 7.983294 -1.564642 7.983294 -1.4375 5.5625 C-1.094915 1.094915 -1.094915 1.094915 0 0 Z " fill="#343432" transform="translate(71,35)"/>
<path d="M0 0 C0.66 0 1.32 0 2 0 C3.026119 1.650714 4.023081 3.3197 5 5 C6.582453 6.751492 6.582453 6.751492 8 8 C7.01 8 6.02 8 5 8 C4.319375 7.278125 3.63875 6.55625 2.9375 5.8125 C2.298125 5.214375 1.65875 4.61625 1 4 C0.01 5.485 0.01 5.485 -1 7 C-1.66 7 -2.32 7 -3 7 C-1.470588 1.470588 -1.470588 1.470588 0 0 Z " fill="#382725" transform="translate(30,149)"/>
<path d="M0 0 C2.8125 -0.25 2.8125 -0.25 6 1 C7.1875 4.125 7.1875 4.125 7 7 C4.6875 7.25 4.6875 7.25 2 6 C0.3125 2.875 0.3125 2.875 0 0 Z " fill="#605855" transform="translate(161,77)"/>
<path d="M0 0 C2.343968 3.515952 2.156141 4.599367 1.75 8.6875 C1.618516 10.178301 1.618516 10.178301 1.484375 11.699219 C1.324531 12.458477 1.164687 13.217734 1 14 C0.34 14 -0.32 14 -1 14 C-0.976562 10.9375 -0.976562 10.9375 -0.625 7 C-0.514141 5.700625 -0.403281 4.40125 -0.289062 3.0625 C-0.193672 2.051875 -0.098281 1.04125 0 0 Z " fill="#342D29" transform="translate(71,197)"/>
<path d="M0 0 C-0.33 0.99 -0.66 1.98 -1 3 C-1 2.34 -1 1.68 -1 1 C-1.94875 1.825 -2.8975 2.65 -3.875 3.5 C-6.75 6 -6.75 6 -9 6 C-8.8125 4.125 -8.8125 4.125 -8 2 C-4.861479 -0.092347 -3.655998 -0.507778 0 0 Z " fill="#D34F7D" transform="translate(118,81)"/>
<path d="M0 0 C3.775454 1.090687 6.470435 1.908309 9 5 C8.195625 4.773125 7.39125 4.54625 6.5625 4.3125 C5.716875 4.209375 4.87125 4.10625 4 4 C3.67 4.99 3.34 5.98 3 7 C2.01 4.69 1.02 2.38 0 0 Z " fill="#F1D7C1" transform="translate(166,79)"/>
<path d="M0 0 C-0.66 0.28875 -1.32 0.5775 -2 0.875 C-2.99 1.431875 -2.99 1.431875 -4 2 C-4 2.66 -4 3.32 -4 4 C-7 4.625 -7 4.625 -10 5 C-7.708176 1.381331 -4.439559 -2.21978 0 0 Z " fill="#FEC9AD" transform="translate(184,189)"/>
<path d="M0 0 C0.99 0.33 1.98 0.66 3 1 C3.363281 2.8125 3.363281 2.8125 3.3125 5 C3.308633 5.721875 3.304766 6.44375 3.300781 7.1875 C3.201523 7.785625 3.102266 8.38375 3 9 C2.01 9.495 2.01 9.495 1 10 C0.480469 7.875 0.480469 7.875 0.1875 5 C0.07793 4.05125 -0.031641 3.1025 -0.144531 2.125 C-0.096836 1.42375 -0.049141 0.7225 0 0 Z " fill="#3E1C1E" transform="translate(63,141)"/>
<path d="M0 0 C0.66 0.66 1.32 1.32 2 2 C1.8125 5.75 1.8125 5.75 1 9 C0.01 8.34 -0.98 7.68 -2 7 C-1.555556 1.555556 -1.555556 1.555556 0 0 Z " fill="#393836" transform="translate(73,27)"/>
<path d="M0 0 C0.99 0.33 1.98 0.66 3 1 C3 2.9375 3 2.9375 2 5 C-0.5625 6.25 -0.5625 6.25 -3 7 C-1.6875 3.4375 -1.6875 3.4375 0 0 Z " fill="#1C1B19" transform="translate(27,209)"/>
<path d="M0 0 C0.66 0 1.32 0 2 0 C2.414343 2.320318 2.748899 4.656391 3 7 C2.67 6.34 2.34 5.68 2 5 C1.01 4.67 0.02 4.34 -1 4 C-0.8125 1.9375 -0.8125 1.9375 0 0 Z " fill="#5C5654" transform="translate(168,86)"/>
<path d="M0 0 C2.1875 0.023438 2.1875 0.023438 5 0.375 C6.392188 0.541289 6.392188 0.541289 7.8125 0.710938 C8.895312 0.854023 8.895312 0.854023 10 1 C7.667859 2.20628 5.503579 3.165474 3 4 C2.01 3.34 1.02 2.68 0 2 C0 1.34 0 0.68 0 0 Z " fill="#61605E" transform="translate(133,12)"/>
<path d="" fill="#080607" transform="translate(0,0)"/>
</svg>
