<?xml version="1.0" encoding="UTF-8"?>
<!-- Generator: visioncortex VTracer 0.6.4 -->
<svg version="1.1" xmlns="http://www.w3.org/2000/svg" width="240" height="240">
<path d="M0 0 C0.8125 1.9375 0.8125 1.9375 1 4 C-1 7 -1 7 -3.375 7.667969 C-4.24125 7.839414 -5.1075 8.010859 -6 8.1875 C-8.411533 8.761127 -8.411533 8.761127 -10 10 C-9.042372 12.509828 -7.538051 14.094463 -5.726562 16.0625 C-2.7726 19.377353 -2.717629 22.673776 -2.78125 27 C-3.104395 29.95447 -4.126342 31.724844 -6 34 C-9.421767 36.566325 -12.846404 36.364351 -17 36 C-20.649763 34.341017 -23.124127 32.564159 -25 29 C-25.746399 25.007128 -26 21.057114 -26 17 C-27.629346 21.121288 -28.60382 23.789972 -27 28 C-26.170237 29.122621 -25.311599 30.224044 -24.4375 31.3125 C-12.250774 46.854992 -8.287936 64.590155 -10 84 C-11.26071 90.63567 -13.800409 96.566188 -16.4375 102.75 C-22.453361 117.095516 -24.800424 130.719201 -26.012207 146.135986 C-27.33904 162.717245 -27.33904 162.717245 -30.523438 167.09375 C-35.61754 170.962688 -39.778276 171.795232 -46.152344 171.464844 C-50.304523 170.787053 -52.653371 169.546348 -56 167 C-58.465814 163.30128 -58.358818 161.036671 -58.5625 156.625 C-58.685381 154.08212 -58.829395 151.540124 -59 149 C-59.050273 148.062852 -59.100547 147.125703 -59.152344 146.160156 C-59.842935 143.709036 -59.842935 143.709036 -62.6875 142.582031 C-67.334463 141.48982 -67.334463 141.48982 -72 142 C-73.176511 145.519435 -73.059869 148.595154 -73.015625 152.296875 C-72.991595 157.992029 -74.332015 162.028745 -78.0625 166.4375 C-81.415388 169.141442 -83.614461 169.161458 -87.875 169.1875 C-88.924297 169.20168 -89.973594 169.215859 -91.054688 169.230469 C-93.976806 169.001815 -95.564335 168.576018 -98 167 C-100.144088 164.473039 -101.059775 162.878556 -100.832031 159.53125 C-100.743086 158.675312 -100.654141 157.819375 -100.5625 156.9375 C-100.779063 154.988438 -100.779063 154.988438 -101 153 C-103.784744 153.419547 -105.923824 154.526699 -108.421875 155.808594 C-111 157 -111 157 -115 157 C-115.531309 159.834798 -115.531309 159.834798 -115.320312 163.386719 C-115.309909 164.040742 -115.299506 164.694765 -115.288788 165.368607 C-115.252956 167.475779 -115.190699 169.581063 -115.125 171.6875 C-115.06963 173.775912 -115.020114 175.864023 -114.982635 177.952835 C-114.946949 179.861668 -114.892146 181.770114 -114.836426 183.678467 C-115.035874 187.72846 -115.675033 190.713161 -118.628906 193.582031 C-123.824223 196.888142 -127.878826 197.981094 -134 197 C-137.772746 196.079818 -140.861602 195.17812 -143.602295 192.341797 C-145.471623 189.209815 -145.247791 187.10982 -145.089844 183.484375 C-145.071152 182.233984 -145.052461 180.983594 -145.033203 179.695312 C-144.968996 177.048408 -144.869579 174.402141 -144.736328 171.757812 C-144.697036 166.757269 -144.697036 166.757269 -146 162 C-149.203892 160.944777 -151.569851 161.195526 -154.903809 161.624512 C-157.891447 161.986835 -159.410717 161.759633 -162.199219 160.835938 C-163.123477 160.890078 -164.047734 160.944219 -165 161 C-166.086774 164.485203 -165.882374 168.005094 -165.8125 171.625 C-165.811218 173.638031 -165.817483 175.651084 -165.832031 177.664062 C-165.818899 178.565923 -165.805767 179.467783 -165.792236 180.396973 C-166.103849 184.301096 -167.008971 187.104877 -169.9375 189.75 C-174.700414 192.636615 -179.599433 192.470345 -185 192 C-190.299451 190.107339 -190.299451 190.107339 -192.116699 187.234863 C-193.160518 184.593869 -193.417193 182.323679 -193.632812 179.492188 C-193.758496 177.887305 -193.758496 177.887305 -193.886719 176.25 C-194.004668 174.579375 -194.004668 174.579375 -194.125 172.875 C-194.211367 171.784453 -194.297734 170.693906 -194.386719 169.570312 C-194.7738 164.433802 -194.99941 159.46662 -194.742188 154.320312 C-194.654584 151.974211 -194.654584 151.974211 -195 150 C-197.175625 148.426917 -197.175625 148.426917 -200 148 C-211.910543 140.072591 -219.938096 129.565026 -223.613281 115.683594 C-225.71841 101.075278 -223.930759 86.641511 -216 74 C-214.476968 72.213115 -212.935014 70.442192 -211.375 68.6875 C-209.275338 66.347642 -209.275338 66.347642 -208 64 C-209.75 60.75 -209.75 60.75 -213 59 C-214 58 -214 58 -214.5 54.6875 C-214.40767 48.212877 -210.423705 43.245375 -207 38 C-206.316797 36.912031 -205.633594 35.824062 -204.929688 34.703125 C-196.607203 21.72891 -196.607203 21.72891 -189 20 C-183.9561 20.364958 -180.873132 21.04761 -177.375 24.863281 C-174.319467 27.337806 -174.319467 27.337806 -171.669678 26.550049 C-168.833039 25.383831 -166.15189 24.052838 -163.4375 22.625 C-161.446273 21.652978 -159.454091 20.68291 -157.460938 19.714844 C-156.509287 19.240308 -155.557637 18.765771 -154.577148 18.276855 C-123.599052 2.92867 -84.439376 1.741154 -51.804688 11.914062 C-49.109584 12.957571 -46.972418 14.239233 -44.5625 15.8125 C-43.386875 16.204375 -42.21125 16.59625 -41 17 C-38.356655 14.40071 -36.797159 11.214049 -35 8 C-32.75 5.4375 -32.75 5.4375 -30 4 C-27.418558 3.941044 -24.871869 4.065505 -22.292969 4.183594 C-19.72015 4.2348 -19.72015 4.2348 -17.75 1.625 C-17.1725 0.75875 -16.595 -0.1075 -16 -1 C-10.337813 -3.76818 -5.250317 -3.500212 0 0 Z M-16 17 C-16.713293 20.138488 -17.207372 22.326039 -16.25 25.4375 C-15.8375 25.953125 -15.425 26.46875 -15 27 C-14.01 26.67 -13.02 26.34 -12 26 C-12.14272 22.71745 -12.433894 20.679327 -14.5625 18.125 C-15.036875 17.75375 -15.51125 17.3825 -16 17 Z " fill="#9BBE96" transform="translate(233,30)"/>
<path d="M0 0 C1.123297 0.012448 1.123297 0.012448 2.269287 0.025146 C11.791207 0.312945 19.289975 2.96494 26.21875 9.652344 C30.00445 13.892699 31.419646 17.881726 31.152344 23.484375 C30.440458 27.575671 28.433142 30.155321 25.222656 32.695312 C18.200521 36.941255 10.150071 36.312883 2.367188 34.742188 C-5.601494 32.542018 -12.138051 29.569011 -17.125 22.8125 C-19.150337 18.285275 -19.704274 14.432982 -19.1875 9.4375 C-14.333133 2.013175 -8.629163 -0.123094 0 0 Z " fill="#D6927E" transform="translate(48.1875,129.5625)"/>
<path d="M0 0 C2.625 1.0625 2.625 1.0625 4.375 4.5625 C5.487199 7.834022 5.646985 10.564841 5.625 14 C5.650641 16.263267 5.650641 16.263267 6.625 18.0625 C9.489427 18.920895 11.97614 19.000283 14.960938 18.964844 C17.625 19.0625 17.625 19.0625 20.625 21.0625 C20.192568 25.494932 20.192568 25.494932 18.625 27.0625 C17.798711 26.894922 16.972422 26.727344 16.121094 26.554688 C13.080588 25.94115 10.686903 25.509864 7.625 26.0625 C6.778856 28.824442 7.146766 31.063638 7.476562 33.921875 C7.642866 37.440512 6.87743 39.420367 5.5 42.625 C4.536585 44.970715 4.536585 44.970715 4.625 47.0625 C7.112102 48.351547 9.256738 48.563028 12.039062 48.78125 C14.625 49.0625 14.625 49.0625 17.625 51.0625 C17.625 53.625 17.625 53.625 16.625 56.0625 C12.606847 57.43935 10.235521 56.793053 6.375 55.25 C3.846158 54.368174 3.846158 54.368174 1.625 54.0625 C0.53675 56.493191 0.53675 56.493191 0.625 60.0625 C-0.46169 62.504546 -1.672496 64.846744 -2.925781 67.207031 C-3.074023 67.819336 -3.222266 68.431641 -3.375 69.0625 C-1.505712 69.729427 -1.505712 69.729427 0.625 70.0625 C1.5 72.5 1.5 72.5 1.625 75.0625 C0.635 76.0525 0.635 76.0525 -0.375 77.0625 C-2.8651 76.734855 -5.009869 76.216894 -7.324219 75.238281 C-8.000977 75.180273 -8.677734 75.122266 -9.375 75.0625 C-11.392126 77.264643 -12.871783 79.653831 -14.496094 82.15625 C-15.116133 82.785313 -15.736172 83.414375 -16.375 84.0625 C-19.023437 83.972656 -19.023437 83.972656 -21.375 83.0625 C-22.5625 81 -22.5625 81 -22.375 78.0625 C-21.344109 76.6275 -20.254201 75.233995 -19.125 73.875 C-17.439809 71.906465 -17.439809 71.906465 -16.375 70.0625 C-18.495414 68.727286 -18.495414 68.727286 -21.375 68.0625 C-22.3125 65.5625 -22.3125 65.5625 -22.375 63.0625 C-21.715 62.4025 -21.055 61.7425 -20.375 61.0625 C-17.537278 61.370948 -14.991896 61.830725 -12.316406 62.835938 C-11.675742 62.910703 -11.035078 62.985469 -10.375 63.0625 C-9.025247 61.540905 -9.025247 61.540905 -8.1875 59.375 C-7.863945 58.669883 -7.540391 57.964766 -7.207031 57.238281 C-6.932461 56.520273 -6.657891 55.802266 -6.375 55.0625 C-6.073359 54.336758 -5.771719 53.611016 -5.460938 52.863281 C-5.432578 52.269023 -5.404219 51.674766 -5.375 51.0625 C-7.477665 50.186602 -7.477665 50.186602 -10.1875 49.9375 C-15.191694 49.245806 -15.191694 49.245806 -17.375 47.0625 C-17.3125 44.5 -17.3125 44.5 -16.375 42.0625 C-14.375 41.0625 -14.375 41.0625 -11.375 41.0625 C-9.853122 41.757692 -8.33515 42.461473 -6.820312 43.171875 C-4.517385 44.100341 -4.517385 44.100341 -2.375 44.0625 C-0.420814 41.101612 -0.465379 37.776898 -0.25 34.3125 C-0.119805 33.353437 0.010391 32.394375 0.144531 31.40625 C0.379755 28.676111 0.524652 26.658676 -0.375 24.0625 C-2.770468 23.08608 -4.63813 23.043498 -7.215332 23.116211 C-9.375 23.0625 -9.375 23.0625 -11.375 21.0625 C-11.3125 18.5 -11.3125 18.5 -10.375 16.0625 C-7.013537 14.790595 -4.751373 15.126618 -1.375 16.0625 C-1.717246 15.066699 -1.717246 15.066699 -2.066406 14.050781 C-2.353867 13.167773 -2.641328 12.284766 -2.9375 11.375 C-3.227539 10.504883 -3.517578 9.634766 -3.816406 8.738281 C-4.43085 5.794965 -4.213485 3.929415 -3.375 1.0625 C-2.375 0.0625 -2.375 0.0625 0 0 Z " fill="#757267" transform="translate(190.375,71.9375)"/>
<path d="M0 0 C0.86625 0.185625 1.7325 0.37125 2.625 0.5625 C2.625 2.4375 2.625 2.4375 1.625 4.5625 C0.965 5.2225 0.305 5.8825 -0.375 6.5625 C-0.964803 11.550958 0.264783 14.439494 2.8125 18.6875 C3.40418 19.700703 3.995859 20.713906 4.605469 21.757812 C7.108056 25.233359 9.518553 28.046326 13.792969 29.09375 C16.11951 29.096358 16.11951 29.096358 19.625 28.5625 C21.514122 25.835321 21.871638 23.536524 21.898438 20.269531 C21.919062 19.474824 21.939687 18.680117 21.960938 17.861328 C21.987162 16.192164 22.005281 14.522854 22.015625 12.853516 C22.085938 10.457031 22.085938 10.457031 22.625 6.5625 C24.553223 5.713623 24.553223 5.713623 26.625 5.5625 C30.583788 9.521288 30.791497 13.940497 30.875 19.3125 C30.787765 26.474459 29.737496 31.089334 25.0625 36.5625 C20.424483 39.260983 16.86823 39.440553 11.625 38.5625 C3.577895 35.232664 -2.495493 28.935554 -6.375 21.1875 C-8.4987 15.986602 -9.615968 11.12684 -8.375 5.5625 C-5.809506 1.789715 -4.499154 0.749859 0 0 Z " fill="#DB5F87" transform="translate(115.375,80.4375)"/>
<path d="M0 0 C2.965066 4.851927 1.792603 9.78256 0.765625 15.082031 C-0.385657 19.469823 -1.810738 23.550222 -5.757812 26.164062 C-8.602174 27.224504 -10.968701 27.265156 -14 27.25 C-15.546875 27.257734 -15.546875 27.257734 -17.125 27.265625 C-21.07483 26.900695 -23.146395 25.975548 -25.75 23 C-27.254696 19.38873 -28.211237 16.510812 -28.140625 12.574219 C-25.659745 6.975246 -18.474121 4.896329 -13.062012 2.753906 C-8.582961 1.11629 -4.783291 0 0 0 Z " fill="#B6B993" transform="translate(159,172)"/>
<path d="M0 0 C-0.33 0.99 -0.66 1.98 -1 3 C-2.05832 3.38543 -3.116641 3.770859 -4.207031 4.167969 C-9.148837 6.109618 -11.077272 9.892014 -13.6875 14.3125 C-14.607929 15.808682 -15.5285 17.304777 -16.449219 18.800781 C-17.096248 19.875134 -17.096248 19.875134 -17.756348 20.971191 C-18.878116 22.801166 -20.045746 24.581856 -21.253906 26.355469 C-23.687566 29.885884 -23.687566 29.885884 -24 34 C-17.582041 33.533239 -14.304277 30.930178 -9.957031 26.363281 C-8 25 -8 25 -5.269531 25.15625 C-4.520586 25.434687 -3.771641 25.713125 -3 26 C-2.796022 29.569608 -4.177617 31.24669 -6.25 34.125 C-11.234577 39.336149 -16.080045 40.938743 -23.105469 41.960938 C-26.076658 42.001035 -27.358239 41.826062 -29.75 40.125 C-31.964316 37.049561 -32.952637 35.174544 -32.644531 31.355469 C-31.1913 26.044569 -27.980935 21.567018 -25 17 C-24.316797 15.912031 -23.633594 14.824062 -22.929688 13.703125 C-17.218156 4.799217 -11.597748 -3.015415 0 0 Z " fill="#DB5C87" transform="translate(51,51)"/>
<path d="M0 0 C3.600671 0.87839 4.945223 2.421982 6.9375 5.472656 C7.892328 10.145397 7.60053 13.411808 5.0625 17.472656 C2.33487 20.039837 1.395642 20.420791 -2.375 20.847656 C-6.0625 20.472656 -6.0625 20.472656 -9 18.597656 C-11.89073 14.217763 -12.083704 10.578677 -11.0625 5.472656 C-8.136509 0.900795 -5.25846 -0.388409 0 0 Z " fill="#E9EFE8" transform="translate(45.0625,102.52734375)"/>
<path d="M0 0 C3.9375 0.625 3.9375 0.625 6.4375 1.9375 C8.893888 6.338528 8.627453 10.715441 7.9375 15.625 C6.5 18.8125 6.5 18.8125 3.9375 20.625 C0.782761 21.313833 -1.90905 21.325124 -5.0625 20.625 C-7.893657 18.484369 -8.803889 16.977735 -9.46875 13.5 C-9.74042 9.479287 -9.403032 6.41065 -7.0625 3.0625 C-4.135018 0.683921 -3.514648 0.203653 0 0 Z " fill="#EAF0E9" transform="translate(99.0625,113.375)"/>
<path d="M0 0 C2.5625 0.3125 2.5625 0.3125 4.207031 1.546875 C5.938798 3.802664 5.905176 5.062295 5.8125 7.875 C5.797031 8.660039 5.781562 9.445078 5.765625 10.253906 C5.5625 12.3125 5.5625 12.3125 4.5625 14.3125 C2.25 14.75 2.25 14.75 -0.4375 14.3125 C-3.619814 11.47422 -4.37862 9.891488 -4.8125 5.625 C-4.374525 1.756221 -3.966437 0.508518 0 0 Z " fill="#35312E" transform="translate(43.4375,137.6875)"/>
<path d="M0 0 C2.831811 -0.435663 4.360636 -0.396847 6.8125 1.125 C8.567357 3.895828 8.386749 5.777091 8 9 C6.8125 11.875 6.8125 11.875 5 14 C2.4375 14.5 2.4375 14.5 0 14 C-1.99826 11.002611 -2.275504 10.366525 -2.25 7 C-2.255156 6.319375 -2.260312 5.63875 -2.265625 4.9375 C-2 3 -2 3 0 0 Z " fill="#36312F" transform="translate(58,141)"/>
</svg>
